<svg width="26" height="27" viewBox="0 0 26 27" fill="none" xmlns="http://www.w3.org/2000/svg">
<path d="M19.0717 11.9309C19.0717 11.9309 19.0224 11.8817 18.924 11.7832C18.8255 11.6848 18.7763 11.5042 18.7763 11.2417C18.7763 10.9791 18.8747 10.7494 19.0717 10.5525C19.2686 10.3555 19.4983 10.2571 19.7609 10.2571C20.0235 10.2571 20.2532 10.3555 20.4501 10.5525C20.647 10.7494 20.7455 10.9791 20.7455 11.2417C20.7455 11.5042 20.647 11.734 20.4501 11.9309C20.2532 12.1278 20.0235 12.2263 19.7609 12.2263C19.4983 12.2263 19.2686 12.1278 19.0717 11.9309ZM22.0255 2.87245C23.1086 2.87245 24.0358 3.25809 24.807 4.02938C25.5783 4.80066 25.964 5.72784 25.964 6.81091V12.4232C25.964 12.6858 25.8655 12.9155 25.6686 13.1125C25.4717 13.3094 25.2419 13.4078 24.9794 13.4078C24.7168 13.4078 24.487 13.3094 24.2901 13.1125C24.0932 12.9155 23.9947 12.6858 23.9947 12.4232V6.81091C23.9947 6.25296 23.806 5.78527 23.4286 5.40784C23.0511 5.0304 22.5835 4.84168 22.0255 4.84168H20.7455V5.8263C20.7455 6.08886 20.647 6.31861 20.4501 6.51553C20.2532 6.71245 20.0235 6.81091 19.7609 6.81091C19.4983 6.81091 19.2686 6.71245 19.0717 6.51553C18.8747 6.31861 18.7763 6.08886 18.7763 5.8263V4.84168H14.2963V5.8263C14.2963 6.08886 14.1978 6.31861 14.0009 6.51553C13.804 6.71245 13.5742 6.81091 13.3117 6.81091C13.0491 6.81091 12.8194 6.71245 12.6224 6.51553C12.4255 6.31861 12.327 6.08886 12.327 5.8263V4.84168H7.89627V5.8263C7.89627 6.08886 7.79781 6.31861 7.60089 6.51553C7.40397 6.71245 7.17422 6.81091 6.91166 6.81091C6.64909 6.81091 6.41935 6.71245 6.22243 6.51553C6.0255 6.31861 5.92704 6.08886 5.92704 5.8263V4.84168H4.69627C4.13833 4.84168 3.67063 5.0304 3.2932 5.40784C2.91576 5.78527 2.72704 6.25296 2.72704 6.81091V22.1709C2.72704 22.7289 2.91576 23.1966 3.2932 23.574C3.67063 23.9514 4.13833 24.1401 4.69627 24.1401H12.2286C12.4911 24.1401 12.7209 24.2386 12.9178 24.4355C13.1147 24.6325 13.2132 24.8622 13.2132 25.1248C13.2132 25.3873 13.1147 25.6171 12.9178 25.814C12.7209 26.0109 12.4911 26.1094 12.2286 26.1094H4.69627C3.6132 26.1094 2.68602 25.7237 1.91474 24.9525C1.14345 24.1812 0.757812 23.254 0.757812 22.1709V6.81091C0.757812 5.72784 1.14345 4.80066 1.91474 4.02938C2.68602 3.25809 3.6132 2.87245 4.69627 2.87245H5.92704V1.88784C5.92704 1.62527 6.0255 1.39553 6.22243 1.19861C6.41935 1.00168 6.64909 0.903221 6.91166 0.903221C7.17422 0.903221 7.40397 1.00168 7.60089 1.19861C7.79781 1.39553 7.89627 1.62527 7.89627 1.88784V2.87245H12.327V1.88784C12.327 1.62527 12.4255 1.39553 12.6224 1.19861C12.8194 1.00168 13.0491 0.903221 13.3117 0.903221C13.5742 0.903221 13.804 1.00168 14.0009 1.19861C14.1978 1.39553 14.2963 1.62527 14.2963 1.88784V2.87245H18.7763V1.88784C18.7763 1.62527 18.8747 1.39553 19.0717 1.19861C19.2686 1.00168 19.4983 0.903221 19.7609 0.903221C20.0235 0.903221 20.2532 1.00168 20.4501 1.19861C20.647 1.39553 20.7455 1.62527 20.7455 1.88784V2.87245H22.0255ZM15.7978 15.9432C15.7978 15.9432 16.0891 15.6519 16.6717 15.0694C17.2542 14.4868 18.366 14.1955 20.007 14.1955C21.6481 14.1955 23.0511 14.7781 24.2163 15.9432C25.3814 17.1083 25.964 18.5114 25.964 20.1525C25.964 21.7935 25.3814 23.1966 24.2163 24.3617C23.0511 25.5268 21.6481 26.1094 20.007 26.1094C18.366 26.1094 16.9629 25.5268 15.7978 24.3617C14.6327 23.1966 14.0501 21.7935 14.0501 20.1525C14.0501 18.5114 14.6327 17.1083 15.7978 15.9432ZM17.2009 22.9586C17.2009 22.9586 17.3978 23.1555 17.7917 23.5494C18.1855 23.9432 18.924 24.1401 20.007 24.1401C21.0901 24.1401 22.0255 23.7463 22.8132 22.9586C23.6009 22.1709 23.9947 21.2355 23.9947 20.1525C23.9947 19.0694 23.6009 18.134 22.8132 17.3463C22.0255 16.5586 21.0901 16.1648 20.007 16.1648C18.924 16.1648 17.9886 16.5586 17.2009 17.3463C16.4132 18.134 16.0194 19.0694 16.0194 20.1525C16.0194 21.2355 16.4132 22.1709 17.2009 22.9586ZM21.4347 19.1678C21.6973 19.1678 21.927 19.2663 22.124 19.4632C22.3209 19.6601 22.4194 19.8899 22.4194 20.1525C22.4194 20.415 22.3209 20.6448 22.124 20.8417C21.927 21.0386 21.6973 21.1371 21.4347 21.1371H20.007C19.7445 21.1371 19.5147 21.0386 19.3178 20.8417C19.1209 20.6448 19.0224 20.415 19.0224 20.1525V18.134C19.0224 17.8714 19.1209 17.6417 19.3178 17.4448C19.5147 17.2478 19.7445 17.1494 20.007 17.1494C20.2696 17.1494 20.4994 17.2478 20.6963 17.4448C20.8932 17.6417 20.9917 17.8714 20.9917 18.134V19.1678H21.4347ZM14.7886 11.9309C14.7886 11.9309 14.7394 11.8817 14.6409 11.7832C14.5424 11.6848 14.4932 11.5042 14.4932 11.2417C14.4932 10.9791 14.5917 10.7494 14.7886 10.5525C14.9855 10.3555 15.2152 10.2571 15.4778 10.2571C15.7404 10.2571 15.9701 10.3555 16.167 10.5525C16.364 10.7494 16.4624 10.9791 16.4624 11.2417C16.4624 11.5042 16.364 11.734 16.167 11.9309C15.9701 12.1278 15.7404 12.2263 15.4778 12.2263C15.2152 12.2263 14.9855 12.1278 14.7886 11.9309ZM10.5055 16.214C10.5055 16.214 10.4563 16.1648 10.3578 16.0663C10.2594 15.9678 10.2101 15.7873 10.2101 15.5248C10.2101 15.2622 10.3086 15.0325 10.5055 14.8355C10.7024 14.6386 10.9322 14.5401 11.1947 14.5401C11.4573 14.5401 11.687 14.6386 11.884 14.8355C12.0809 15.0325 12.1794 15.2622 12.1794 15.5248C12.1794 15.7873 12.0809 16.0171 11.884 16.214C11.687 16.4109 11.4573 16.5094 11.1947 16.5094C10.9322 16.5094 10.7024 16.4109 10.5055 16.214ZM6.22243 11.9309C6.22243 11.9309 6.1732 11.8817 6.07474 11.7832C5.97627 11.6848 5.92704 11.5042 5.92704 11.2417C5.92704 10.9791 6.0255 10.7494 6.22243 10.5525C6.41935 10.3555 6.64909 10.2571 6.91166 10.2571C7.17422 10.2571 7.40397 10.3555 7.60089 10.5525C7.79781 10.7494 7.89627 10.9791 7.89627 11.2417C7.89627 11.5042 7.79781 11.734 7.60089 11.9309C7.40397 12.1278 7.17422 12.2263 6.91166 12.2263C6.64909 12.2263 6.41935 12.1278 6.22243 11.9309ZM6.22243 16.214C6.22243 16.214 6.1732 16.1648 6.07474 16.0663C5.97627 15.9678 5.92704 15.7873 5.92704 15.5248C5.92704 15.2622 6.0255 15.0325 6.22243 14.8355C6.41935 14.6386 6.64909 14.5401 6.91166 14.5401C7.17422 14.5401 7.40397 14.6386 7.60089 14.8355C7.79781 15.0325 7.89627 15.2622 7.89627 15.5248C7.89627 15.7873 7.79781 16.0171 7.60089 16.214C7.40397 16.4109 7.17422 16.5094 6.91166 16.5094C6.64909 16.5094 6.41935 16.4109 6.22243 16.214ZM6.22243 20.4971C6.22243 20.4971 6.1732 20.4478 6.07474 20.3494C5.97627 20.2509 5.92704 20.0704 5.92704 19.8078C5.92704 19.5453 6.0255 19.3155 6.22243 19.1186C6.41935 18.9217 6.64909 18.8232 6.91166 18.8232C7.17422 18.8232 7.40397 18.9217 7.60089 19.1186C7.79781 19.3155 7.89627 19.5453 7.89627 19.8078C7.89627 20.0704 7.79781 20.3001 7.60089 20.4971C7.40397 20.694 7.17422 20.7925 6.91166 20.7925C6.64909 20.7925 6.41935 20.694 6.22243 20.4971ZM10.5055 20.4971C10.5055 20.4971 10.4563 20.4478 10.3578 20.3494C10.2594 20.2509 10.2101 20.0704 10.2101 19.8078C10.2101 19.5453 10.3086 19.3155 10.5055 19.1186C10.7024 18.9217 10.9322 18.8232 11.1947 18.8232C11.4573 18.8232 11.687 18.9217 11.884 19.1186C12.0809 19.3155 12.1794 19.5453 12.1794 19.8078C12.1794 20.0704 12.0809 20.3001 11.884 20.4971C11.687 20.694 11.4573 20.7925 11.1947 20.7925C10.9322 20.7925 10.7024 20.694 10.5055 20.4971ZM10.5055 11.9309C10.5055 11.9309 10.4563 11.8817 10.3578 11.7832C10.2594 11.6848 10.2101 11.5042 10.2101 11.2417C10.2101 10.9791 10.3086 10.7494 10.5055 10.5525C10.7024 10.3555 10.9322 10.2571 11.1947 10.2571C11.4573 10.2571 11.687 10.3555 11.884 10.5525C12.0809 10.7494 12.1794 10.9791 12.1794 11.2417C12.1794 11.5042 12.0809 11.734 11.884 11.9309C11.687 12.1278 11.4573 12.2263 11.1947 12.2263C10.9322 12.2263 10.7024 12.1278 10.5055 11.9309Z" fill="#777777"/>
</svg>
