<svg width="26" height="27" viewBox="0 0 26 27" fill="none" xmlns="http://www.w3.org/2000/svg">
<path d="M13.0385 0.903221C13.0385 0.903221 13.9083 0.903221 15.6478 0.903221C17.3873 0.903221 19.4878 2.13399 21.9493 4.59553C24.4109 7.05707 25.6416 10.0273 25.6416 13.5063C25.6416 16.9853 24.4109 19.9555 21.9493 22.4171C19.4878 24.8786 16.5175 26.1094 13.0385 26.1094C10.9052 26.1094 8.91957 25.6171 7.08162 24.6325C5.73598 25.5842 4.25906 26.0601 2.65085 26.0601C2.28983 26.0601 1.96162 26.0437 1.66624 26.0109C1.07547 25.9125 0.739056 25.5842 0.657005 25.0263C0.574954 24.4683 0.796492 24.0581 1.32162 23.7955C2.10931 23.4017 2.78213 22.6468 3.34008 21.5309C1.27239 19.0694 0.312389 16.2058 0.460082 12.9401C0.607774 9.6745 1.83034 6.89297 4.12777 4.59553C6.58931 2.13399 9.55957 0.903221 13.0385 0.903221ZM20.9155 21.3832C23.1144 19.2171 24.2057 16.5914 24.1893 13.5063C24.1729 10.4212 23.0816 7.78732 20.9155 5.60476C18.7493 3.4222 16.1237 2.33091 13.0385 2.33091C9.95341 2.33091 7.31136 3.4304 5.11239 5.62938C3.0447 7.69707 1.96162 10.2078 1.86316 13.1617C1.7647 16.1155 2.70008 18.6919 4.66931 20.8909C4.76777 21.0222 4.81701 21.1535 4.81701 21.2848C4.88265 21.4489 4.88265 21.613 4.81701 21.7771C4.25906 23.0571 3.537 24.0089 2.65085 24.6325C4.02931 24.6325 5.2929 24.1894 6.44162 23.3032C6.47444 23.2704 6.49085 23.254 6.49085 23.254C6.75342 22.9914 7.0488 22.9586 7.37701 23.1555C9.57598 24.4355 11.9309 24.9114 14.4416 24.5832C16.9524 24.255 19.1103 23.1883 20.9155 21.3832ZM12.3985 14.1217C12.3985 14.1217 12.3575 14.0766 12.2755 13.9863C12.1934 13.896 12.1524 13.736 12.1524 13.5063C12.1524 13.2766 12.2344 13.0714 12.3985 12.8909C12.5626 12.7104 12.7678 12.6201 13.0139 12.6201C13.2601 12.6201 13.4734 12.7104 13.6539 12.8909C13.8344 13.0714 13.9247 13.2766 13.9247 13.5063C13.9247 13.736 13.8344 13.9412 13.6539 14.1217C13.4734 14.3022 13.2601 14.3925 13.0139 14.3925C12.7678 14.3925 12.5626 14.3022 12.3985 14.1217ZM16.977 14.1217C16.977 14.1217 16.936 14.0766 16.8539 13.9863C16.7719 13.896 16.7309 13.736 16.7309 13.5063C16.7309 13.2766 16.8129 13.0714 16.977 12.8909C17.1411 12.7104 17.3462 12.6201 17.5924 12.6201C17.8385 12.6201 18.0437 12.7104 18.2078 12.8909C18.3719 13.0714 18.4539 13.2766 18.4539 13.5063C18.4539 13.736 18.3719 13.9412 18.2078 14.1217C18.0437 14.3022 17.8385 14.3925 17.5924 14.3925C17.3462 14.3925 17.1411 14.3022 16.977 14.1217ZM7.8447 14.1217C7.8447 14.1217 7.79957 14.0766 7.70931 13.9863C7.61906 13.896 7.57393 13.736 7.57393 13.5063C7.57393 13.2766 7.66418 13.0714 7.8447 12.8909C8.02521 12.7104 8.23854 12.6201 8.4847 12.6201C8.73085 12.6201 8.93598 12.7104 9.10008 12.8909C9.26418 13.0714 9.34624 13.2766 9.34624 13.5063C9.34624 13.736 9.26418 13.9412 9.10008 14.1217C8.93598 14.3022 8.73085 14.3925 8.4847 14.3925C8.23854 14.3925 8.02521 14.3022 7.8447 14.1217Z" fill="#777777"/>
</svg>
