<svg width="56" height="57" viewBox="0 0 56 57" fill="none" xmlns="http://www.w3.org/2000/svg">
<g clip-path="url(#clip0_168_1492)">
<path d="M43.2428 3.43388C44.7901 3.43388 46.1263 3.97893 47.2516 5.06904C48.3769 6.15915 48.9395 7.47783 48.9395 9.02508V12.8229C48.9395 13.1745 48.7989 13.491 48.5175 13.7723C48.2362 14.0537 47.9197 14.1943 47.5681 14.1943C47.2164 14.1943 46.9 14.0537 46.6186 13.7723C46.3373 13.491 46.1967 13.1745 46.1967 12.8229V9.02508C46.1967 8.25146 45.9153 7.56574 45.3527 6.96794C44.7901 6.37014 44.0868 6.07124 43.2428 6.07124H12.2274C11.8758 6.07124 11.5065 6.15915 11.1197 6.33497C10.7329 6.5108 10.4164 6.72179 10.1703 6.96794C9.92413 7.2141 9.71314 7.53058 9.53732 7.91739C9.3615 8.3042 9.27358 8.67344 9.27358 9.02508V34.7657L12.8604 31.1789C13.4934 30.546 14.1263 30.546 14.7593 31.1789C15.3923 31.8119 15.3923 32.4449 14.7593 33.0778L8.9571 38.9855C8.67578 39.2668 8.34171 39.4075 7.9549 39.4075C7.56809 39.4075 7.23402 39.2668 6.9527 38.9855L1.15051 33.0778C0.51754 32.4449 0.51754 31.8119 1.15051 31.1789C1.43183 30.8976 1.74831 30.757 2.09996 30.757C2.45161 30.757 2.76809 30.8976 3.04941 31.1789L6.63622 34.7657V9.02508C6.63622 7.47783 7.18128 6.15915 8.27139 5.06904C9.3615 3.97893 10.6802 3.43388 12.2274 3.43388H43.2428ZM46.6186 18.7306C47.2516 18.0976 47.8846 18.0976 48.5175 18.7306L54.3197 24.6383C54.9527 25.2712 54.9527 25.9042 54.3197 26.5372C53.6868 27.1701 53.0538 27.1701 52.4208 26.5372L48.834 22.9504V48.691C48.834 49.6756 48.5879 50.6075 48.0956 51.4866C47.6033 52.3657 46.9175 53.0515 46.0384 53.5438C45.1593 54.0361 44.2274 54.2822 43.2428 54.2822H12.2274C10.6802 54.2822 9.34391 53.7372 8.21864 52.6471C7.09336 51.557 6.53073 50.2383 6.53073 48.691V44.8932C6.53073 44.5416 6.67139 44.2251 6.9527 43.9438C7.23402 43.6624 7.56809 43.5218 7.9549 43.5218C8.34171 43.5218 8.6582 43.6624 8.90435 43.9438C9.15051 44.2251 9.27358 44.5416 9.27358 44.8932V48.691C9.27358 49.4646 9.5549 50.1504 10.1175 50.7482C10.6802 51.346 11.3835 51.6449 12.2274 51.6449H43.2428C44.0868 51.6449 44.7901 51.346 45.3527 50.7482C45.9153 50.1504 46.1967 49.4646 46.1967 48.691V22.9504L42.6098 26.5372C42.3285 26.8185 42.012 26.9591 41.6604 26.9591C41.3087 26.9591 40.9923 26.8185 40.7109 26.5372C40.078 25.9042 40.078 25.2712 40.7109 24.6383L46.6186 18.7306ZM26.7857 17.3064C26.7857 17.3064 26.856 17.2449 26.9967 17.1218C27.1373 16.9987 27.3835 16.9372 27.7351 16.9372C28.0868 16.9372 28.4033 17.0602 28.6846 17.3064C28.9659 17.5526 29.1065 17.8866 29.1065 18.3086V20.313H31.6384C31.9901 20.313 32.289 20.4537 32.5351 20.735C32.7813 21.0163 32.9044 21.3328 32.9044 21.6844C32.9044 22.0361 32.7813 22.3526 32.5351 22.6339C32.289 22.9152 31.9901 23.0559 31.6384 23.0559H26.2582C25.6956 23.0559 25.2208 23.2668 24.834 23.6888C24.4472 24.1108 24.2538 24.6383 24.2538 25.2712C24.2538 25.9042 24.4472 26.4317 24.834 26.8537C25.2208 27.2756 25.6956 27.4866 26.2582 27.4866H29.212C30.5483 27.4866 31.6736 27.9613 32.5879 28.9108C33.5022 29.8602 33.9593 31.0383 33.9593 32.4449C33.9593 33.7811 33.5022 34.924 32.5879 35.8734C31.6736 36.8229 30.5835 37.2976 29.3175 37.2976H29.1065V39.513C29.1065 39.8646 28.9659 40.1635 28.6846 40.4097C28.4033 40.6559 28.0868 40.7789 27.7351 40.7789C27.3835 40.7789 27.067 40.6559 26.7857 40.4097C26.5044 40.1635 26.3637 39.8646 26.3637 39.513V37.4031H23.8318C23.4098 37.4031 23.0758 37.2624 22.8296 36.9811C22.5835 36.6998 22.4604 36.3657 22.4604 35.9789C22.4604 35.5921 22.5835 35.2756 22.8296 35.0295C23.0758 34.7833 23.4098 34.6602 23.8318 34.6602H29.212C29.7747 34.6602 30.2494 34.4493 30.6362 34.0273C31.023 33.6053 31.2164 33.0778 31.2164 32.4449C31.2164 31.8119 31.023 31.2844 30.6362 30.8624C30.2494 30.4405 29.7747 30.2295 29.212 30.2295H26.2582C24.9219 30.2295 23.7967 29.7372 22.8824 28.7526C21.9681 27.7679 21.5109 26.6075 21.5109 25.2712C21.5109 23.935 21.9681 22.7745 22.8824 21.7899C23.7967 20.8053 24.9219 20.313 26.2582 20.313H26.3637V18.3086C26.3637 17.8866 26.5044 17.5526 26.7857 17.3064Z" fill="#B3A87A"/>
</g>
<defs>
<clipPath id="clip0_168_1492">
<rect width="55.3846" height="55.3846" fill="white" transform="matrix(1 0 0 -1 0.0429688 56.0762)"/>
</clipPath>
</defs>
</svg>
