<svg width="56" height="57" viewBox="0 0 56 57" fill="none" xmlns="http://www.w3.org/2000/svg">
<g clip-path="url(#clip0_168_1487)">
<path d="M53.4171 22.0015C54.4017 22.8455 54.9467 23.918 55.0522 25.2191C55.1577 26.5202 54.7885 27.663 53.9445 28.6477C52.5379 30.3356 50.8149 30.7927 48.7753 30.0191V54.2828C48.7753 54.7048 48.6171 55.074 48.3006 55.3905C47.9841 55.707 47.6149 55.8652 47.1929 55.8652H9.00388C8.5819 55.8652 8.21267 55.707 7.89618 55.3905C7.5797 55.074 7.42146 54.7048 7.42146 54.2828V30.0191C5.3819 30.7927 3.65882 30.3356 2.25223 28.6477C1.40827 27.663 1.03904 26.5202 1.14454 25.2191C1.25003 23.918 1.79509 22.8455 2.7797 22.0015L25.1445 3.01249C25.9885 2.23886 27.0083 1.85205 28.2039 1.85205C29.3995 1.85205 30.4193 2.23886 31.2632 3.01249L39.2808 9.86963V6.5993C39.2808 6.17732 39.439 5.80809 39.7555 5.49161C40.072 5.17513 40.4412 5.01688 40.8632 5.01688H47.1929C47.4039 5.01688 47.6149 5.05205 47.8259 5.12238C48.0368 5.19271 48.2127 5.2982 48.3533 5.43886C48.494 5.57952 48.5995 5.75534 48.6698 5.96633C48.7401 6.17732 48.7753 6.38831 48.7753 6.5993V17.9927L53.4171 22.0015ZM42.4456 8.18172V12.507L45.6105 15.2498V8.18172H42.4456ZM34.5335 52.7004V40.0411H21.6632V52.7004H34.5335ZM45.6105 52.7004V27.8037L28.2039 12.8235L10.5863 27.8037V52.7004H18.4984V38.4586C18.4984 38.0367 18.6566 37.6674 18.9731 37.3509C19.2896 37.0345 19.6588 36.8762 20.0808 36.8762H36.116C36.327 36.8762 36.5379 36.9114 36.7489 36.9817C36.9599 37.052 37.1357 37.1575 37.2764 37.2982C37.4171 37.4389 37.5226 37.6147 37.5929 37.8257C37.6632 38.0367 37.6984 38.2477 37.6984 38.4586V52.7004H45.6105ZM49.3028 26.7488C50.1467 27.452 50.9028 27.3993 51.5709 26.5905C52.239 25.7817 52.1863 25.0608 51.4127 24.4279L29.2588 5.43886C28.5555 4.80589 27.8522 4.80589 27.1489 5.43886L4.7841 24.4279C4.01047 25.0608 3.95772 25.7817 4.62585 26.5905C5.29399 27.3993 6.05003 27.452 6.89399 26.7488C12.5204 21.9663 19.272 16.2345 27.1489 9.55315C27.8522 8.99051 28.5555 8.99051 29.2588 9.55315L49.3028 26.7488ZM32.9511 20.8411C33.3731 20.8411 33.7423 20.9993 34.0588 21.3158C34.3753 21.6323 34.5335 22.0015 34.5335 22.4235V31.918C34.5335 32.34 34.3753 32.7092 34.0588 33.0257C33.7423 33.3422 33.3731 33.5004 32.9511 33.5004H23.2456C22.8237 33.5004 22.4544 33.3422 22.1379 33.0257C21.8215 32.7092 21.6632 32.34 21.6632 31.918V22.4235C21.6632 22.0015 21.8215 21.6323 22.1379 21.3158C22.4544 20.9993 22.8237 20.8411 23.2456 20.8411H32.9511ZM31.3687 30.3356V24.0059H24.8281V30.3356H31.3687ZM28.2039 44.7883C28.2039 44.5773 28.239 44.3663 28.3094 44.1553C28.3797 43.9444 28.4852 43.7685 28.6259 43.6279C28.7665 43.4872 28.9423 43.3817 29.1533 43.3114C29.3643 43.2411 29.5753 43.2059 29.7863 43.2059C30.2083 43.2059 30.5775 43.3641 30.894 43.6806C31.2105 43.9971 31.3687 44.3663 31.3687 44.7883C31.3687 45.2103 31.2105 45.5795 30.894 45.896C30.5775 46.2125 30.2083 46.3707 29.7863 46.3707C29.3643 46.3707 28.9951 46.2125 28.6786 45.896C28.3621 45.5795 28.2039 45.2103 28.2039 44.7883Z" fill="#B3A87A"/>
</g>
<defs>
<clipPath id="clip0_168_1487">
<rect width="55.3846" height="55.3846" fill="white" transform="matrix(1 0 0 -1 0.40625 56.0762)"/>
</clipPath>
</defs>
</svg>
