<svg width="145" height="162" viewBox="0 0 145 162" fill="none" xmlns="http://www.w3.org/2000/svg">
<g clip-path="url(#clip0_1164_3195)">
<mask id="mask0_1164_3195" style="mask-type:luminance" maskUnits="userSpaceOnUse" x="0" y="0" width="145" height="144">
<path d="M144.033 0.173828H0.705078V143.502H144.033V0.173828Z" fill="white"/>
</mask>
<g mask="url(#mask0_1164_3195)">
<path d="M142.669 71.2825C142.669 31.6951 110.383 -0.337092 70.7444 0.174001C31.7375 0.685093 0.705078 33.2617 0.705078 72.338V131.113C0.705078 137.247 5.66272 142.225 11.7849 142.225H131.578C137.7 142.225 142.669 137.247 142.669 131.113V71.2715V71.2825Z" fill="#F5F2ED"/>
<path d="M100.512 87.2815C102.575 93.5924 104.649 99.9034 106.712 106.214C107.599 99.9589 108.486 93.7146 109.374 87.4593C114.12 89.1592 118.868 90.8592 123.615 92.5591C121.584 103.725 119.556 114.881 117.525 126.047C116.904 129.469 116.162 133.114 113.699 135.569C110.682 138.569 106.013 138.902 101.765 139.057C95.3658 139.291 88.9553 139.535 82.5558 139.768C81.0475 135.335 79.5391 130.891 78.0308 126.458C76.9882 123.402 75.9567 120.347 75.1581 117.214C72.2856 105.859 72.7847 93.6702 76.5999 82.5928C77.3653 80.3707 78.3191 78.1152 80.1048 76.5931C83.1769 73.982 88.1124 75.9931 91.6282 76.8375C96.8632 78.1041 98.9704 82.5483 100.523 87.2815H100.512Z" fill="#F5F2ED"/>
<path d="M51.5237 77.2265C46.921 73.46 40.4772 71.9712 34.7542 73.5934C33.4787 73.96 32.2255 74.471 31.2161 75.3266C29.8631 76.4599 29.0424 78.0821 28.3104 79.682C24.9941 86.9261 22.8314 94.6259 20.6909 102.303C20.1585 104.225 19.6151 106.148 19.0827 108.07C16.9421 115.714 14.8016 123.359 12.6611 131.002C12.0732 133.114 11.5298 135.547 12.7719 137.358C13.9697 139.091 16.31 139.502 18.4062 139.724C29.7854 140.969 41.2535 141.324 52.6883 140.791C52.5219 136.279 52.5551 131.758 52.7991 127.258C43.6824 126.18 34.5657 125.102 25.4489 124.014C36.2293 121.858 47.3646 122.802 58.3224 123.758C58.3668 123.758 58.7328 102.759 58.9435 100.881C59.8863 92.626 58.3224 82.7596 51.5459 77.2265H51.5237Z" fill="#F5F2ED"/>
<path d="M59.687 140.304C45.7707 140.304 31.8435 140.304 17.9273 140.304H16.8246C14.8978 138.77 13.5917 136.485 13.2492 134.041C12.9388 131.853 13.3776 129.634 13.8379 127.467C16.8674 112.936 20.4749 98.5231 24.6392 84.2817C25.2387 82.2227 25.881 80.1315 27.1227 78.3835C29.2208 75.4665 32.6999 73.9652 35.9007 72.3244C39.1015 70.6836 42.3986 68.4746 43.4156 65.0321C43.8009 63.7238 43.833 62.3082 44.4432 61.0857C44.7965 60.3779 45.3317 59.7774 45.6101 59.0374C45.8883 58.2975 45.8134 57.3324 45.1605 56.9034C46.6484 54.6406 45.9098 52.3672 45.4709 49.9435C44.9678 47.1661 44.743 44.292 44.7965 41.4716C44.9035 36.2062 46.1346 30.8441 49.346 26.576C53.6708 20.8172 61.3569 17.8145 68.4329 19.1228C75.5088 20.4311 81.6213 25.9754 83.6124 32.9031C84.5117 36.0345 84.6188 39.3268 84.7364 42.5762C85.0469 51.0481 85.4751 59.5093 85.9033 67.9705C86.021 70.3298 86.171 72.6891 86.278 75.0591C90.8917 75.649 95.8482 76.3995 99.2202 79.606C101.629 81.901 102.881 85.1396 103.888 88.3031C105.076 92.0137 106.039 95.7992 106.778 99.6278C106.574 95.6921 107.645 91.7992 108.705 88.0029C109.037 86.8233 109.925 85.3219 111.071 85.783C111.338 85.8903 110.91 80.6034 110.771 80.2388C110.171 78.5873 109.015 77.2146 107.934 75.8419C104.862 71.9598 102.143 67.7989 99.8303 63.4129C99.263 62.3405 98.792 60.8713 99.6912 60.0669C100.633 59.2197 102.121 59.9812 103.074 60.8176C105.076 62.5764 106.799 64.6783 108.127 66.9946C108.373 67.4236 108.651 67.8955 109.122 68.0456C110.203 68.3995 110.888 66.8981 111.038 65.7721C111.691 60.8713 112.333 55.9704 112.987 51.0803C113.126 49.9971 113.565 48.6352 114.646 48.5815C115.92 48.5279 116.337 50.2546 116.326 51.52C116.295 54.4905 116.112 57.3967 115.856 60.3565C115.781 61.2574 115.737 62.2761 116.359 62.9303C117.986 62.6514 118.136 58.9946 118.457 57.697C119.003 55.5307 119.549 53.3644 120.384 51.2841C120.619 50.6834 120.887 50.0937 121.326 49.6218C121.765 49.1499 122.375 48.8067 123.017 48.8497C123.735 48.9032 124.376 49.4824 124.505 50.1902C124.805 51.8631 123.981 54.0509 123.638 55.6701C123.317 57.1929 123.028 58.7372 122.568 60.2279C122.183 61.5147 121.572 62.8016 122.011 64.1636C121.711 63.1983 124.141 60.5388 124.601 59.7131C125.597 57.9222 127.524 53.3431 129.772 52.9141C130.682 52.7424 131.528 53.6325 131.634 54.5549C131.742 55.4771 131.324 56.3779 130.843 57.1715C128.969 60.2815 127.46 63.5952 126.101 66.9517C126.336 67.0054 126.55 67.1555 126.678 67.3592C126.443 66.9732 129.74 63.7346 130.05 63.4021C130.843 62.5228 133.423 58.5977 134.803 60.0991C135.113 60.4423 135.178 60.957 135.05 61.3968C134.921 61.8364 134.664 62.2332 134.386 62.5978C132.94 64.5389 131.549 66.0295 130.383 68.1743C129.066 70.5765 127.866 73.0322 126.775 75.5417C125.993 77.3326 120.737 88.6142 123.585 88.9681C124.205 89.0432 124.88 88.9144 125.425 89.2147C127.684 90.4802 125.319 95.7027 125.008 97.5258C124.387 101.129 124.12 104.797 123.745 108.432C123.209 113.634 122.439 118.812 121.465 123.95C120.673 128.1 120.598 133.72 117.269 136.775C115.031 138.835 111.766 139.199 108.737 139.414C92.5189 140.55 76.2689 140.283 59.9867 140.283H59.7084L59.687 140.304Z" fill="white"/>
<path d="M100.087 89.0227C101.854 94.3525 103.62 99.6824 105.386 105.012C105.001 103.8 108.565 89.9343 109.304 90.1166C111.916 90.7385 114.474 91.5321 117.075 92.1648C118.115 92.4222 122.953 92.7225 122.653 94.2775C121.55 100.036 121.037 105.902 120.319 111.715C119.559 117.902 118.296 124.026 116.551 129.999C115.16 134.76 112.601 136.959 107.602 137.173C99.5198 137.527 91.4162 137.635 83.3233 137.517C82.7345 137.517 82.1136 137.485 81.6319 137.152C81.1288 136.808 80.8933 136.208 80.6792 135.629C78.4954 129.849 77.061 123.94 75.102 118.074C72.3294 107.114 72.8111 95.3499 76.4936 84.658C77.2322 82.5133 78.1529 80.3362 79.8764 78.8671C83.1627 76.0682 92.3582 78.1057 95.4519 80.5829C97.8926 82.5454 98.9846 85.6875 99.9694 88.6581L100.087 89.012V89.0227Z" fill="#E8E1C4"/>
<path d="M52.889 78.7274C48.2752 75.2529 41.895 74.3414 36.1252 75.9822C29.6808 77.8052 28.257 89.2584 26.6299 94.5668C24.0072 103.103 21.7591 111.757 19.5326 120.401C18.4941 124.411 17.7662 128.572 16.8028 132.627C16.5459 133.709 16.289 134.825 16.4924 135.919C16.9633 138.449 20.314 139.265 22.455 139.565C25.4844 139.994 28.546 140.294 31.5969 140.455C38.8334 140.841 46.0914 140.476 53.3386 140.122C53.0709 140.133 53.285 129.666 53.2636 128.691C53.2636 128.487 53.2636 128.272 53.178 128.079C52.7284 126.985 48.7783 127.21 47.7934 127.103C45.524 126.835 43.0941 126.278 40.8139 126.278C38.6943 126.031 36.5748 125.774 34.4552 125.527C32.175 125.259 30.109 125.495 27.9359 124.465C28.1072 123.951 28.7709 123.832 29.3169 123.811C35.1938 123.511 41.0494 123.543 46.9157 123.543C50.8978 123.726 54.8694 124.068 58.8409 124.411C58.8837 124.411 59.237 104.143 59.4404 102.331C60.1362 96.2183 60.3182 89.934 57.4707 84.2503C56.336 81.9876 54.7517 80.1538 52.8782 78.7382L52.889 78.7274Z" fill="#E8E1C4"/>
<path d="M107.933 75.8549C109.025 77.2276 110.181 78.6004 110.77 80.2518C110.898 80.6165 111.326 85.9034 111.069 85.7961C110.417 85.528 109.838 85.9248 109.41 86.5254C114.869 87.5334 120.329 88.5308 125.789 89.5388C125.682 89.4315 125.564 89.335 125.414 89.2599C124.869 88.949 124.193 89.0884 123.573 89.0133C120.726 88.6594 125.982 77.3671 126.763 75.5869C127.855 73.0775 129.064 70.6217 130.37 68.2195C131.537 66.0747 132.929 64.5841 134.384 62.643C134.663 62.2784 134.931 61.8817 135.048 61.442C135.166 60.9916 135.113 60.4768 134.802 60.1444C133.41 58.643 130.841 62.568 130.05 63.4473C129.75 63.7798 126.452 67.0184 126.677 67.4045C126.548 67.2007 126.334 67.0506 126.099 66.9969C127.459 63.6404 128.957 60.3267 130.841 57.2167C131.323 56.4231 131.741 55.5223 131.634 54.6001C131.527 53.6778 130.681 52.7877 129.771 52.9593C127.522 53.3883 125.607 57.9566 124.601 59.7583C124.14 60.584 121.71 63.2435 122.01 64.2088C121.571 62.8468 122.181 61.5599 122.566 60.2731C123.017 58.7824 123.305 57.2382 123.637 55.7153C123.991 54.0853 124.815 51.9083 124.504 50.2354C124.376 49.5276 123.733 48.9486 123.017 48.8949C122.374 48.852 121.753 49.1951 121.325 49.667C120.897 50.1389 120.618 50.7394 120.383 51.3293C119.548 53.4096 119.002 55.5759 118.456 57.7422C118.134 59.029 117.984 62.6966 116.357 62.9755C115.737 62.3213 115.78 61.3025 115.855 60.4017C116.111 57.4312 116.294 54.5357 116.326 51.5652C116.336 50.289 115.918 48.5625 114.645 48.6267C113.553 48.6804 113.125 50.0423 112.986 51.1255C112.333 56.0264 111.69 60.9272 111.037 65.8174C110.887 66.9433 110.202 68.4447 109.121 68.0908C108.65 67.9407 108.382 67.4688 108.126 67.0398C106.798 64.7235 105.075 62.6324 103.073 60.8628C102.12 60.0264 100.632 59.2543 99.6795 60.1121C98.7803 60.9165 99.262 62.3857 99.8186 63.4581C102.131 67.8441 104.839 72.005 107.922 75.8872L107.933 75.8549Z" fill="white"/>
<path d="M60.4682 81.5686C63.7973 83.9707 68.1115 85.9011 71.9009 84.3354C75.1231 82.9949 76.9002 79.5739 79.5335 77.279C81.4176 75.6382 83.7726 74.6516 86.2347 74.2441C86.1277 72.153 86.01 70.0617 85.903 67.9813C85.4748 59.5201 85.0358 51.0589 84.7361 42.5869C84.6184 39.3375 84.5113 36.0346 83.6121 32.9139C81.621 25.9969 75.4978 20.4419 68.4326 19.1335C61.3673 17.8252 53.6705 20.8279 49.3458 26.5867C46.1342 30.8549 44.9032 36.2169 44.7961 41.4823C44.7426 44.3027 44.9674 47.1768 45.4705 49.9542C45.9095 52.3779 46.6481 54.6406 45.1602 56.9142C45.8131 57.3431 45.8881 58.3083 45.6097 59.0482C45.3314 59.7882 44.7961 60.3887 44.4429 61.0965C43.8327 62.3191 43.8007 63.7346 43.4152 65.0429C43.1476 65.933 42.7301 66.7373 42.1948 67.4772C49.0353 70.6301 54.2272 77.0645 60.4682 81.5686Z" fill="white"/>
<path d="M78.7743 75.7046C78.7957 75.4581 78.817 75.2114 78.8385 74.9647C77.1793 76.8951 76.43 79.7262 74.2247 81.1953C72.1051 82.6538 69.3968 83.1364 66.8598 82.7611C64.3226 82.3858 61.9354 81.2168 59.9015 79.6297C58.0174 78.1712 56.4117 76.3482 55.1914 74.2998C55.6088 74.997 56.476 75.6296 57.0005 76.273C58.6169 78.257 59.9764 80.4662 61.1433 82.7396C63.0274 86.418 63.8838 90.3858 65.4574 94.225C66.6885 97.217 67.9088 100.209 69.1398 103.201C69.6323 104.402 70.2104 105.453 70.8098 106.579C71.0988 107.115 72.3192 109.796 72.1158 110.29C75.734 101.346 78.0677 91.6512 77.9928 81.9675C77.9714 79.694 78.5602 77.8066 78.785 75.6833L78.7743 75.7046Z" fill="#222222"/>
<path d="M82.4556 75.1786C83.5261 76.3689 85.3353 76.1866 86.7804 76.4975C88.3969 76.8408 90.0133 77.1196 91.6297 77.4199C93.0321 77.6772 94.3916 77.7952 95.6762 78.4708C97.025 79.1893 98.149 80.0579 99.0697 81.2912C100.922 83.747 102.163 86.4173 103.009 89.3664C103.855 92.3155 104.379 95.3611 105.728 98.0743C106.146 98.9215 107.366 98.3102 107.184 97.463C106.499 94.1814 105.568 90.8785 104.551 87.672C103.63 84.755 102.592 81.5057 100.504 79.2001C98.4167 76.8944 95.505 75.7576 92.7002 74.9427C91.1159 74.4815 89.4674 74.1168 87.8295 73.9453C86.1917 73.7737 84.0507 73.0016 82.6056 73.9774C82.188 74.2562 82.1024 74.7925 82.4556 75.1786Z" fill="#222222"/>
<path d="M108.202 85.5154C106.981 86.2339 107.142 87.9926 106.939 89.258C106.692 90.8344 106.5 92.4217 106.254 93.998C105.75 97.3332 105.247 100.658 104.691 103.982C103.663 110.138 103.053 116.304 100.516 122.094C100.152 122.921 101.361 123.64 101.736 122.813C104.284 117.119 105.408 110.867 106.468 104.754C107.035 101.44 107.581 98.1268 108.159 94.8131C108.47 93.0758 108.812 91.3385 109.112 89.6012C109.337 88.2822 110.022 86.7487 109.069 85.644C108.855 85.3974 108.448 85.376 108.18 85.5261L108.202 85.5154Z" fill="#222222"/>
<path d="M108.126 87.1675C111.263 87.6715 114.293 88.4865 117.354 89.3015C120.415 90.1165 123.348 90.8457 126.411 90.5992L125.425 89.6125C125.211 92.701 124.43 95.8003 123.927 98.8565C123.423 101.913 122.995 104.723 122.792 107.704C122.385 113.838 121.561 119.94 120.448 125.988C120.19 127.404 119.859 128.809 119.505 130.203C119.152 131.597 118.852 133.152 118.146 134.449C117.044 136.466 115.148 137.549 112.997 138.106C110.224 138.835 107.388 138.632 104.562 138.546C101.382 138.46 98.2028 138.374 95.0127 138.32C87.8084 138.203 80.6039 138.482 73.3995 138.535C72.2327 138.535 72.2327 140.348 73.3995 140.358C80.165 140.412 86.9198 140.552 93.6853 140.616C99.9477 140.68 106.306 140.852 112.504 139.726C114.603 139.35 116.605 138.535 118.232 137.141C120.223 135.447 120.779 132.873 121.401 130.45C122.984 124.294 123.906 118.02 124.634 111.725C125.04 108.197 125.639 104.701 125.875 101.151C126.11 97.6019 126.249 93.441 127.362 89.8699C127.577 89.1943 127.021 88.701 126.411 88.6259C123.38 88.2398 120.415 87.8001 117.429 87.1782C114.443 86.5562 111.637 85.6982 108.694 85.1406C107.366 84.8939 106.82 86.9529 108.137 87.1567L108.126 87.1675Z" fill="#222222"/>
<path d="M89.2426 92.4343C89.9277 94.0858 90.206 95.8874 90.6664 97.6139C91.1695 99.5121 91.4692 101.432 91.694 103.383C92.1329 107.233 91.6404 111.223 91.6191 115.094C91.5977 119.384 90.4094 123.544 90.4843 127.855C90.5486 131.845 90.6556 136.542 92.3256 140.22C92.7431 141.153 94.0276 140.446 93.8671 139.567C93.4603 137.336 92.786 135.223 92.6254 132.95C92.4754 130.837 92.6254 128.745 92.7431 126.633C92.8609 124.52 93.1606 122.386 93.1499 120.284C93.1391 118.033 93.5888 115.835 93.8029 113.593C94.1561 109.828 93.76 106.043 93.471 102.29C93.3318 100.466 93.0856 98.6113 92.7324 96.8311C92.3792 95.0509 91.5763 93.453 90.8056 91.7801C90.3988 90.9114 88.8679 91.5442 89.2426 92.445V92.4343Z" fill="#222222"/>
<path d="M53.0923 72.1967C53.5419 72.8937 54.1092 73.5157 54.4519 74.2772C54.6125 74.631 54.6445 75.0171 54.8051 75.371C54.9871 75.7785 55.2975 76.1217 55.5759 76.4863C56.6035 77.8268 57.7061 79.0708 58.6481 80.4757C59.5902 81.8805 60.4144 83.2746 60.9925 84.7973C61.2922 85.5695 61.5492 86.3523 61.8168 87.1459C62.0951 87.9824 62.2985 88.8511 62.823 89.5695C63.3476 90.288 64.7606 90.1486 64.6964 89.0547C64.6001 87.4033 63.5724 85.7732 62.8016 84.347C61.956 82.8027 61.1959 81.2048 60.4037 79.6285C59.6116 78.052 58.873 76.54 57.9416 75.1029C57.6954 74.7275 57.4277 74.32 57.1173 73.9983C56.8069 73.6766 56.475 73.5586 56.1218 73.3334C55.3297 72.8402 54.773 72.0466 54.0665 71.4567C53.5634 71.0385 52.6855 71.5748 53.0923 72.2074V72.1967Z" fill="#222222"/>
<path d="M73.1538 111.994C75.9478 99.458 78.9666 86.6643 78.7096 73.7205C78.6882 72.6267 76.8898 72.2835 76.7186 73.4524C74.8666 86.1603 75.1021 99.1363 71.9548 111.662C71.7622 112.434 72.9719 112.766 73.1431 111.994H73.1538Z" fill="#222222"/>
<path d="M64.5362 64.153C66.3132 65.2575 68.3043 65.9976 70.3918 66.2441C72.2973 66.4694 73.8281 65.8688 75.4017 64.85C78.3027 62.9841 80.0904 59.3808 81.482 56.3245C83.045 52.8714 84.0512 48.9464 83.4732 45.1394C83.334 44.2385 83.1199 43.3592 82.7987 42.512C82.3813 41.4289 82.5633 40.2492 82.5419 39.1018C82.5097 37.2787 82.3813 35.4557 82.028 33.6647C81.2893 29.9006 79.4267 25.3965 76.258 23.0373C75.5622 22.5225 74.6416 23.7021 75.3267 24.2383C76.9003 25.4716 78.1314 27.6057 79.0092 29.3858C79.9512 31.3054 80.4865 33.3967 80.797 35.4986C80.9682 36.6888 81.0538 37.89 81.0752 39.0911C81.0967 40.0133 80.9575 40.9785 81.086 41.8792C81.2252 42.8981 81.7925 43.8311 81.9745 44.8606C82.1886 46.0187 82.21 47.2091 82.1029 48.378C81.7283 52.6354 79.6836 57.0001 77.1466 60.4103C75.8834 62.1047 74.481 63.8527 72.2651 64.0565C69.7066 64.2924 67.5229 63.4452 65.0608 62.8983C64.3221 62.7374 63.8725 63.724 64.5362 64.1422V64.153Z" fill="#222222"/>
<path d="M51.6474 40.5507C51.0908 39.2423 50.1702 37.9769 48.5966 37.9447C47.3549 37.9233 46.5626 38.9528 46.1344 40.0037C45.6635 41.1512 45.5992 42.438 45.6955 43.6713C45.824 45.2907 46.3058 46.9314 47.4298 48.1432C48.5538 49.355 50.2773 49.9771 51.9472 49.5695C52.8357 49.355 52.461 47.9823 51.5725 48.1969C50.3201 48.4971 48.9498 47.7143 48.2219 46.7062C47.2798 45.4086 47.1086 43.6713 47.2049 42.1057C47.2584 41.2906 47.4939 40.1967 48.1577 39.6713C49.0247 38.9849 50.2344 40.3684 50.5769 41.1726C50.7055 41.4836 51.1551 41.5479 51.4227 41.3979C51.7438 41.2156 51.776 40.8509 51.6474 40.5507Z" fill="#222222"/>
<path d="M95.8479 76.5612C95.9443 73.0116 93.4179 70.0303 91.7052 66.9203C90.4955 64.7112 89.6605 62.2876 89.2537 59.7889C89.0396 58.4806 88.954 57.1294 89.2751 55.8425C89.5749 54.62 90.2386 53.5261 90.6668 52.3357C91.1057 51.1239 91.2984 49.8371 91.2235 48.5502C91.2021 48.1748 91.1592 47.7995 91.2449 47.4349C91.3519 46.9845 91.6409 46.6092 91.8871 46.2231C93.0005 44.475 93.3002 42.223 92.6793 40.2391C92.219 38.7699 91.2876 37.4831 90.7417 36.0353C90.3136 34.8878 90.1422 33.6653 89.789 32.4964C89.136 30.298 87.905 28.3248 86.5669 26.4588C84.6614 23.7885 82.5418 21.2898 80.3687 18.8341C78.3883 16.6034 76.2687 14.3407 73.4855 13.2469C70.8521 12.2066 67.9189 12.346 65.0821 12.5069C61.1641 12.7214 57.2354 13.4184 54.8589 16.5392C53.1782 16.1102 51.3156 16.4748 49.924 17.5043C49.2067 18.0405 48.6179 18.7268 48.0399 19.4131C46.2522 21.515 44.4538 23.6384 43.0622 26.0298C41.6705 28.4213 41.0603 30.3516 40.7713 33.1077C40.4394 36.239 40.3966 39.4027 40.6107 42.5341C40.7499 44.5716 41.0175 46.6092 40.8356 48.6467C40.6964 50.2338 40.2788 51.7888 39.8721 53.3331C39.551 54.5342 39.2298 55.746 38.6517 56.8505C38.3092 57.4939 37.8916 58.0946 37.6026 58.7701C37.2173 59.6817 37.1103 60.6897 36.8319 61.6442C36.5321 62.6737 36.0504 63.6388 35.6436 64.6362C34.2949 67.9606 32.5286 75.1135 36.8319 77.1403C38.2449 77.8052 39.84 77.9875 41.2851 78.5988C42.9123 79.2743 44.2717 80.454 45.6849 81.505C48.6287 83.6819 52.4289 85.4299 55.8759 84.1966C58.1775 83.3709 59.9116 81.2583 60.5325 78.899C61.2925 76.0143 60.3826 73.419 59.2801 70.7918C59.0017 70.1269 55.4905 63.0061 55.073 63.2635C56.6145 62.3197 57.1926 60.2715 56.9249 58.4699C56.6573 56.6682 55.7154 55.0596 54.784 53.5047C53.8741 51.9819 53.007 50.4376 51.9686 49.0006C51.9579 48.9791 51.9364 48.9577 51.915 48.947C51.8937 48.9362 51.8615 48.947 51.8401 48.947C51.4227 48.9899 51.0051 49.0006 50.5877 48.9899C50.0631 48.9684 49.3888 48.6789 48.9285 48.4322C48.4146 48.1534 47.9543 47.7566 47.5903 47.2847C46.841 46.3089 46.5091 45.0756 46.4235 43.8424C46.3485 42.7056 46.4663 41.5582 46.8516 40.4751C47.4298 38.845 49.089 38.105 50.0203 39.9281C50.3415 40.5716 50.7054 41.29 50.8339 41.9978C51.1229 43.5743 51.8723 43.8316 52.3861 43.8102C53.1247 43.778 53.2747 43.1238 53.2853 42.6306C53.3282 41.0541 53.5743 39.4348 54.4522 38.0944C55.33 36.7538 56.454 34.8021 56.5075 33.1934C56.5931 30.6197 55.4584 28.1425 56.8929 25.8154C57.9848 24.0459 60.1365 23.2952 62.1169 22.7054C65.3497 21.7403 69.0858 21.9976 72.2758 23.0915C75.8192 24.3033 77.9494 26.8449 79.8227 29.944C81.0003 31.8959 81.5355 34.5769 81.7925 36.8503C81.953 38.1908 81.9209 39.5527 82.0707 40.904C82.2956 43.0273 82.9379 45.1078 82.9806 47.2526C83.0021 48.3894 82.8415 49.5154 82.6167 50.6199C81.8995 54.1481 80.4115 57.5154 78.3133 60.4324C76.8896 62.3949 75.0912 64.2287 72.7789 64.9579C71.5479 70.8024 73.7637 77.1082 77.5961 81.6873C78.8165 83.1458 80.2081 84.5183 81.9102 85.3763C83.6123 86.2343 85.6676 86.5131 87.4233 85.7838C88.8469 85.194 89.9817 83.9501 90.4312 82.4701C90.8809 80.9902 90.6561 79.328 89.8211 78.0304C91.1592 78.5237 92.8292 77.6551 93.1931 76.2717L95.8158 76.5719L95.8479 76.5612Z" fill="#222222"/>
<path d="M63.2295 52.7231C64.4178 53.4203 65.681 53.9885 66.8477 54.7286C68.0146 55.4685 69.1065 56.3157 70.3804 56.8947C71.7827 57.5383 73.8488 58.0208 75.1655 56.9484C75.7435 56.4765 76.1289 55.8224 76.2681 55.1039C76.3965 54.4283 76.2467 53.6455 76.7604 53.12C77.4028 52.4658 76.4287 51.4899 75.7542 52.112C75.219 52.6052 75.1119 53.0663 74.9192 53.7312C74.7908 54.1816 74.3947 54.6642 74.0307 54.943C73.5811 55.2755 72.9067 55.297 72.3715 55.3399C71.6864 55.3827 70.9371 55.254 70.284 55.0503C69.1922 54.7178 68.1858 54.0315 67.1796 53.506C66.0556 52.9162 64.9316 52.3479 63.8611 51.6615C63.1867 51.2325 62.5444 52.3264 63.2402 52.7339L63.2295 52.7231Z" fill="#222222"/>
<path d="M63.5407 52.8089C64.1188 52.8732 64.7076 53.077 65.2856 53.195C65.8208 53.2915 66.3561 53.388 66.8913 53.4524C67.9832 53.5918 69.0858 53.6883 70.1884 53.7097C72.4579 53.7526 74.6417 53.4738 76.8576 52.9805C77.532 52.8304 77.3714 51.7794 76.697 51.7901C75.6373 51.8009 74.5774 51.8651 73.5069 51.8974C72.4364 51.9295 71.3767 52.1118 70.3062 52.1762C69.2357 52.2405 68.1867 52.2941 67.1268 52.2191C66.0671 52.144 64.7931 52.1118 63.8405 51.6507C62.8878 51.1896 62.5131 52.7017 63.5301 52.8089H63.5407Z" fill="#222222"/>
<path d="M69.814 49.1721C70.3599 48.9254 70.938 49.022 71.3554 49.3437C71.4197 49.3973 71.4732 49.4509 71.5267 49.5046C71.5589 49.5367 71.6445 49.6654 71.6873 49.6761C71.591 49.4617 71.5802 49.4402 71.6445 49.6011C71.6765 49.7083 71.7408 49.8048 71.8265 49.8799C71.9121 49.9764 72.0084 50.0622 72.1155 50.1372C72.3296 50.2766 72.5866 50.3624 72.8434 50.3839C73.1111 50.4053 73.3252 50.3089 73.5606 50.2016L73.2074 50.2981C73.6355 50.2553 74.0424 50.148 74.3956 49.8906C74.7489 49.6332 75.0272 49.3115 75.2948 48.9469C75.4875 48.6895 75.3591 48.282 75.1236 48.0997C74.8881 47.9174 74.4813 47.9067 74.2672 48.1534C74.1066 48.3357 73.9461 48.518 73.7641 48.6788C73.6784 48.7539 73.6463 48.786 73.55 48.8397C73.5179 48.861 73.3252 48.9362 73.3252 48.9362C73.3252 48.8825 73.7641 49.1614 73.4643 48.9147C73.3359 48.8075 73.2074 48.711 73.0683 48.6251C72.9077 48.5287 72.715 48.4536 72.533 48.4214C72.3831 48.3999 72.3831 48.3999 72.5223 48.4214C72.6293 48.4536 72.6507 48.4536 72.5865 48.4214C72.5437 48.3786 72.458 48.3571 72.4045 48.3249C72.169 48.2069 71.9442 48.0782 71.698 47.9925C71.4518 47.9067 71.1628 47.8744 70.8952 47.8423C70.3706 47.778 69.8139 47.8209 69.3215 48.014C68.979 48.1426 68.7649 48.4857 68.9254 48.8504C69.086 49.215 69.4714 49.3008 69.8032 49.1506L69.814 49.1721Z" fill="#222222"/>
<path d="M75.7762 41.6228C75.894 41.5585 76.0117 41.4942 76.1295 41.4298C76.1616 41.419 76.1938 41.3976 76.2258 41.3869C76.1295 41.4298 76.1295 41.4298 76.2044 41.3976C76.2687 41.3761 76.3328 41.344 76.4079 41.3226C76.5469 41.2796 76.6861 41.2367 76.8253 41.2046C76.9002 41.1832 76.9645 41.1725 77.0394 41.1617C77.1143 41.151 77.1143 41.151 77.0286 41.1617C77.0608 41.1617 77.0823 41.1617 77.1143 41.1617C77.4034 41.1402 77.6817 41.151 77.9707 41.1725C78.0028 41.1725 78.0457 41.1724 78.0777 41.1832C77.9814 41.1724 77.9707 41.1724 78.0563 41.1832C78.1313 41.1938 78.1955 41.2046 78.2598 41.2367C78.3882 41.2796 78.5274 41.3011 78.6665 41.3226C79.0412 41.3761 79.4587 41.2261 79.555 40.8185C79.6514 40.411 79.4266 40.0786 79.0519 39.9284C78.7308 39.7997 78.3775 39.7997 78.0242 39.789C77.671 39.7784 77.2749 39.7784 76.9431 39.8641C76.8467 39.8855 77.0501 39.8641 76.9537 39.8641C76.9216 39.8641 76.8788 39.8641 76.8467 39.8641C76.7182 39.8748 76.6005 39.8963 76.472 39.907C76.3222 39.9284 76.1723 39.9607 76.0224 39.9928C75.6905 40.0678 75.3588 40.1966 75.0483 40.3466C74.6951 40.5183 74.5773 41.0437 74.7806 41.3655C74.9947 41.6979 75.4444 41.848 75.7976 41.6336L75.7762 41.6228Z" fill="#222222"/>
<path d="M61.7093 41.5572C62.2659 41.6859 62.7905 41.3749 63.3258 41.2248C63.8181 41.0961 64.2143 41.0211 64.696 41.0103C64.9101 41.0103 65.1242 40.9996 65.3383 41.0103C65.3811 41.0103 65.4346 41.0103 65.4775 41.0103C65.5952 41.0211 65.4024 40.9888 65.5095 41.0103C65.6059 41.0317 65.7022 41.0532 65.7986 41.0853C65.8842 41.1068 65.9592 41.139 66.0447 41.1711C65.9806 41.1497 66.0233 41.1711 66.0662 41.1711C66.109 41.1926 66.1411 41.214 66.1839 41.2248C66.3659 41.3213 66.5372 41.4393 66.7085 41.5572C66.9975 41.7718 67.4471 41.6108 67.6184 41.3213C67.8111 40.9888 67.672 40.6135 67.3829 40.4098C66.58 39.8522 65.6701 39.6376 64.696 39.584C64.15 39.5518 63.604 39.5197 63.0581 39.584C62.7476 39.6162 62.448 39.6591 62.1589 39.777C61.6986 39.9487 61.3775 40.1416 61.1954 40.6242C61.0564 40.9888 61.356 41.4607 61.7093 41.5358V41.5572Z" fill="#222222"/>
<path d="M77.0925 40.8287C77.0925 40.8287 77.0817 40.8287 77.071 40.8287L77.1888 40.9252C77.1888 40.9252 77.253 41.0002 77.2851 41.0431C77.1888 40.9144 77.1139 40.8287 76.9853 40.7321C76.9104 40.6785 76.8141 40.6356 76.7177 40.6142C76.4716 40.5499 76.2253 40.582 76.0005 40.7108C75.9363 40.7429 75.8828 40.7965 75.8293 40.8394C75.8078 40.8608 75.7864 40.8716 75.7757 40.8931C75.7329 40.9466 75.6793 41.0002 75.6472 41.0646C75.6044 41.129 75.583 41.204 75.5509 41.279C75.5188 41.3756 75.5081 41.4828 75.4974 41.5901C75.4866 41.6973 75.4974 41.7938 75.5188 41.9011C75.5402 42.0083 75.583 42.0941 75.6258 42.1906C75.6366 42.212 75.6472 42.2443 75.6687 42.2656C75.7115 42.33 75.765 42.3944 75.8185 42.4587C75.872 42.5231 75.947 42.566 76.0112 42.6089C76.0326 42.6304 76.0648 42.641 76.0862 42.6625C76.1183 42.6839 76.1397 42.6946 76.1718 42.7054C76.2467 42.7375 76.3216 42.7804 76.4073 42.8019C76.4501 42.8019 76.493 42.8126 76.5251 42.8233C76.5571 42.834 76.6106 42.834 76.6535 42.834C76.6642 42.834 76.6749 42.834 76.6857 42.834C76.7498 42.834 76.8247 42.8233 76.889 42.8019C76.9639 42.7804 77.0388 42.7483 77.1031 42.7161C77.1459 42.6946 77.1888 42.6625 77.2315 42.6303C77.3386 42.5445 77.4135 42.4587 77.4885 42.3408C77.4992 42.3193 77.5099 42.2979 77.5206 42.2764C77.5527 42.2014 77.5956 42.1262 77.6062 42.0512C77.617 41.9761 77.6384 41.8797 77.6384 41.7938C77.6384 41.708 77.6277 41.6222 77.617 41.5365C77.5956 41.4184 77.5527 41.3113 77.4992 41.204C77.4885 41.1719 77.467 41.1504 77.4456 41.129C77.4029 41.0646 77.3493 40.9896 77.2851 40.9359C77.2315 40.8931 77.1888 40.8502 77.1245 40.8179C77.0603 40.7858 77.0068 40.7643 76.9425 40.7429C76.8676 40.7108 76.782 40.7108 76.6963 40.7L76.5357 40.7214C76.4501 40.7429 76.3859 40.775 76.3216 40.8287C76.2789 40.8608 76.236 40.8931 76.2146 40.9359C76.1611 41.0002 76.1183 41.0646 76.1075 41.1504C76.0861 41.2576 76.0861 41.3756 76.1075 41.4828C76.1397 41.633 76.2681 41.7724 76.3965 41.8582C76.3965 41.8582 76.418 41.8689 76.4287 41.8797L76.3002 41.7831C76.3002 41.7831 76.343 41.826 76.3645 41.8474L76.2575 41.7188C76.3002 41.7724 76.343 41.8367 76.3859 41.8797C76.3965 41.8903 76.4073 41.9118 76.4287 41.9226L76.3216 41.7938C76.3216 41.7938 76.3752 41.8689 76.3859 41.9011L76.3216 41.7403C76.3216 41.7403 76.3538 41.8367 76.3645 41.8797L76.343 41.708C76.343 41.708 76.343 41.7938 76.343 41.826L76.3645 41.6544C76.3645 41.6544 76.343 41.7295 76.3324 41.7724L76.3965 41.6222C76.3965 41.6222 76.3538 41.6973 76.3324 41.7295L76.4287 41.6009C76.4287 41.6009 76.3859 41.6544 76.3645 41.6651L76.493 41.5686C76.493 41.5686 76.4501 41.6008 76.418 41.6115L76.5679 41.5472C76.5679 41.5472 76.5143 41.5686 76.493 41.5686L76.6642 41.5472C76.6642 41.5472 76.6106 41.5472 76.5893 41.5472L76.7606 41.5686C76.7606 41.5686 76.6857 41.5472 76.6428 41.5365L76.7927 41.6009C76.7284 41.5686 76.6749 41.5365 76.6214 41.5043L76.7498 41.6009C76.7498 41.6009 76.6749 41.5365 76.6428 41.4936L76.7392 41.6222C76.7392 41.6222 76.6963 41.5579 76.6857 41.5257L76.7498 41.6759C76.7498 41.6759 76.7177 41.5901 76.7177 41.5472L76.7392 41.7188C76.7392 41.7188 76.7392 41.6222 76.7392 41.5686L76.7177 41.7295C76.7177 41.7295 76.7392 41.633 76.7498 41.5901L76.6857 41.7403C76.6857 41.7403 76.7177 41.6759 76.7392 41.6544L76.6428 41.7831C76.6428 41.7831 76.6857 41.7403 76.7071 41.7188L76.5786 41.8153C76.5786 41.8153 76.6321 41.7831 76.6535 41.7724L76.5036 41.8368C76.5036 41.8368 76.5571 41.8153 76.5893 41.8153L76.4287 41.8368C76.4287 41.8368 76.4822 41.8368 76.5143 41.8368L76.3538 41.8153C76.3538 41.8153 76.418 41.826 76.4501 41.8368L76.3002 41.7724C76.3002 41.7724 76.3538 41.8045 76.3752 41.8153L76.2575 41.7188C76.2575 41.7188 76.3002 41.7616 76.3216 41.7831L76.1718 41.515C76.1718 41.515 76.1611 41.4184 76.1504 41.3649C76.1504 41.3649 76.1504 41.3756 76.1504 41.3863C76.1397 41.6008 76.2789 41.8153 76.4608 41.9226C76.6535 42.0297 76.8998 42.0297 77.0817 41.9226C77.2637 41.8153 77.3921 41.6008 77.3921 41.3863C77.3921 41.279 77.36 41.1719 77.3065 41.0754C77.2529 40.9788 77.178 40.9037 77.0817 40.8502L77.0925 40.8287Z" fill="#222222"/>
<path d="M64.4399 40.4423C64.4399 40.4423 64.4077 40.4423 64.3863 40.4316C64.3221 40.4208 64.2579 40.4102 64.1936 40.4102C64.108 40.4102 64.0438 40.4102 63.9368 40.4316C63.8297 40.4531 63.7333 40.4959 63.6476 40.5496C63.5621 40.6032 63.4871 40.6567 63.4229 40.7426C63.38 40.7962 63.3265 40.8605 63.2945 40.9142C63.2623 40.9678 63.2302 41.0536 63.1981 41.1286C63.1553 41.2251 63.1553 41.3216 63.1445 41.4289C63.1445 41.5039 63.1445 41.5791 63.1553 41.6649C63.1553 41.7185 63.1659 41.7721 63.1767 41.815C63.1981 41.89 63.2302 41.9651 63.2623 42.0294C63.2623 42.0509 63.2837 42.0723 63.2945 42.0938C63.3372 42.1581 63.3908 42.2225 63.4443 42.2869C63.5192 42.3726 63.6156 42.4369 63.7119 42.4906C63.7868 42.5228 63.8617 42.5549 63.9368 42.5871C64.0223 42.6086 64.108 42.6192 64.1936 42.63C64.3114 42.6407 64.4291 42.63 64.5362 42.5978C64.5683 42.5978 64.5897 42.5871 64.6218 42.5763C64.6967 42.5442 64.7824 42.5121 64.8573 42.4692C65.1035 42.319 65.2641 42.0938 65.3498 41.815C65.3498 41.7935 65.3605 41.7614 65.3712 41.7399C65.3819 41.6541 65.4033 41.5683 65.4033 41.4826C65.4033 41.3968 65.3925 41.3109 65.3712 41.2251C65.3605 41.1715 65.339 41.118 65.3176 41.0643C65.2962 41.0107 65.2749 40.9571 65.2427 40.9034C65.1892 40.839 65.1464 40.7533 65.0821 40.6996C65.0179 40.6461 64.9537 40.5925 64.8788 40.5496C64.8038 40.5067 64.7182 40.4744 64.6432 40.4423C64.6112 40.4316 64.579 40.4208 64.5577 40.4208C64.4826 40.4102 64.3756 40.3887 64.29 40.3887C64.2044 40.3887 64.108 40.3994 64.0224 40.4316C63.9368 40.4637 63.8511 40.4959 63.7868 40.5388C63.637 40.6354 63.53 40.764 63.4764 40.9356C63.4443 41.0214 63.4443 41.118 63.4657 41.2037C63.4657 41.2895 63.4978 41.3753 63.5406 41.4503C63.637 41.5897 63.7654 41.7185 63.9368 41.7614L64.1187 41.7828C64.2365 41.7828 64.3542 41.7506 64.4612 41.6862C64.4612 41.6862 64.3542 41.7291 64.3007 41.7506C64.3328 41.7399 64.3649 41.7291 64.3971 41.7291L64.215 41.7506C64.215 41.7506 64.3221 41.7506 64.3649 41.7506L64.183 41.7291C64.183 41.7291 64.2579 41.7506 64.3007 41.7614L64.1401 41.697C64.1401 41.697 64.215 41.7291 64.2471 41.7614L64.108 41.6541C64.108 41.6541 64.1615 41.697 64.183 41.7291L64.0759 41.5897C64.0759 41.5897 64.108 41.6434 64.1295 41.6756L64.0652 41.5147C64.0652 41.5147 64.0866 41.5897 64.0973 41.622L64.0759 41.4397C64.0759 41.4397 64.0759 41.5254 64.0759 41.5683L64.0973 41.386C64.0973 41.386 64.0759 41.4718 64.0652 41.5039L64.1295 41.3431C64.1295 41.3431 64.0866 41.4182 64.0652 41.4503L64.1722 41.3109C64.1722 41.3109 64.1187 41.3645 64.0866 41.3968L64.2258 41.2895C64.2258 41.2895 64.1722 41.3324 64.1401 41.3431L64.3007 41.2788C64.3007 41.2788 64.215 41.3109 64.1722 41.3109L64.3436 41.2895C64.3436 41.2895 64.2471 41.2895 64.2044 41.2895L64.3756 41.3109C64.3756 41.3109 64.2793 41.2895 64.2258 41.268L64.3863 41.3324C64.3863 41.3324 64.3114 41.2895 64.2685 41.268L64.3971 41.3645C64.3971 41.3645 64.3436 41.3216 64.3221 41.2895L64.4185 41.4182C64.4185 41.4182 64.3756 41.3538 64.3649 41.3217L64.4291 41.4718C64.4291 41.4718 64.3971 41.386 64.3971 41.3431L64.4185 41.5147C64.4185 41.5147 64.4185 41.4182 64.4185 41.3645L64.3971 41.5362C64.3971 41.5362 64.4185 41.4503 64.4291 41.4074L64.3649 41.5576C64.3649 41.5576 64.3971 41.4932 64.4185 41.4611L64.3221 41.5897C64.3221 41.5897 64.3649 41.5362 64.3971 41.5147L64.2685 41.6112C64.2685 41.6112 64.3221 41.5791 64.3542 41.5683L64.2044 41.6327C64.2044 41.6327 64.2579 41.6112 64.29 41.6112L64.1295 41.6327C64.1295 41.6327 64.1615 41.6327 64.183 41.6327L64.0224 41.6112H64.0438L63.8939 41.5468C63.8939 41.5468 63.926 41.5683 63.9368 41.5791L63.8082 41.4826C63.8832 41.5683 63.9795 41.622 64.0866 41.6541C64.1936 41.6862 64.3007 41.6862 64.4185 41.6541C64.5683 41.6005 64.7075 41.5147 64.7931 41.3645C64.8788 41.2144 64.9002 41.0428 64.8573 40.882C64.8253 40.7748 64.7718 40.689 64.6967 40.6031C64.6218 40.5281 64.5255 40.4744 64.4185 40.4423H64.4399Z" fill="#222222"/>
<path d="M59.89 37.9659C60.2005 37.7943 60.5216 37.6013 60.8641 37.4833C61.2067 37.3654 61.5813 37.3331 61.9346 37.2796C62.5341 37.1831 63.08 37.3117 63.6688 37.4511C64.3432 37.6119 65.0176 37.6763 65.7028 37.8801C66.4414 38.1053 67.1586 38.3841 67.9294 38.502C68.4539 38.5772 68.9678 38.4163 69.1819 37.8801C69.396 37.3439 69.1925 36.8506 68.7429 36.5503C68.015 36.057 67.1907 35.7567 66.3557 35.4994C65.5207 35.242 64.5681 34.9847 63.6795 35.1133C63.2513 35.1776 62.8231 35.2527 62.4163 35.4135C62.0952 35.5423 61.7419 35.5744 61.4208 35.6817C61.0461 35.7996 60.6929 35.9927 60.3397 36.1428C59.9328 36.3144 59.5368 36.4859 59.1514 36.6897C58.3057 37.1402 59.0657 38.4485 59.9007 37.9766L59.89 37.9659Z" fill="#222222"/>
<path d="M80.8076 37.1412C80.7219 37.0125 80.6149 36.8945 80.5185 36.7659C80.5827 36.8409 80.5185 36.7659 80.4971 36.7336C80.4757 36.7015 80.4435 36.6479 80.4114 36.605C80.2188 36.3477 79.994 36.1224 79.705 35.983C79.2232 35.747 78.6666 35.6399 78.142 35.5755C77.564 35.5005 76.9537 35.5755 76.3865 35.672C76.0867 35.7256 75.7869 35.8328 75.4872 35.9187C75.0697 36.0473 74.6308 36.1439 74.3204 36.4871C74.0742 36.7551 73.9671 37.0982 74.0634 37.4629C74.1598 37.8275 74.4275 38.0206 74.7592 38.16C75.1339 38.3101 75.5515 38.2029 75.9368 38.1385C76.2044 38.0956 76.4828 38.0527 76.7611 37.9991C77.1893 37.924 77.6068 37.806 78.035 37.731C78.0885 37.731 78.5702 37.656 78.581 37.613C78.581 37.6345 78.3669 37.613 78.5381 37.613C78.5916 37.613 78.6345 37.613 78.688 37.613C78.7415 37.613 78.7843 37.613 78.8378 37.613C78.7094 37.5808 79.0627 37.613 78.8378 37.613C79.0198 37.656 79.2018 37.6881 79.3838 37.7418C79.4266 37.7525 79.4587 37.7739 79.5015 37.7739C79.4052 37.7525 79.448 37.7202 79.4909 37.7739C79.3624 37.6023 79.4909 37.806 79.5336 37.8704C79.7263 38.2243 80.2081 38.3423 80.5506 38.1385C80.8931 37.9348 81.0431 37.4522 80.8182 37.1197L80.8076 37.1412Z" fill="#222222"/>
<path d="M111.178 86.7595C111.563 85.0115 112.131 83.0919 111.884 81.2903C111.703 79.8855 110.803 78.4806 109.968 77.3653C108.919 75.9712 107.731 74.8023 106.778 73.3224C105.686 71.6065 104.809 69.7942 104.016 67.9175C103.224 66.0408 102.25 64.4858 100.976 62.8557C100.173 61.8262 100.409 61.0327 101.672 61.2257C102.486 61.3436 103.171 61.6868 103.76 62.2552C105.654 64.0569 106.115 67.5636 108.673 68.6789C109.39 68.9898 110.247 68.132 109.572 67.51C107.87 65.9336 107.025 63.5528 105.483 61.8155C104.659 60.8933 103.77 59.9067 102.635 59.3598C101.651 58.8879 100.024 58.8558 99.2848 59.7565C98.4178 60.8075 98.6747 62.1479 99.2528 63.2526C100.088 64.8611 101.212 66.3196 102.09 67.9175C102.967 69.5153 103.695 71.2955 104.68 72.8934C105.451 74.1373 106.232 75.3814 107.014 76.6146C107.881 77.9765 108.984 79.1025 109.669 80.5933C110.45 82.2769 109.893 84.5504 109.572 86.3092C109.38 87.36 110.943 87.8212 111.189 86.7595H111.178Z" fill="#222222"/>
<path d="M111.67 65.5594C111.905 63.6935 112.462 61.9025 112.708 60.0366C113.03 57.6236 113.105 55.1893 113.511 52.7765C113.618 52.1652 113.704 51.4789 113.929 50.889C114.175 50.2563 114.518 49.8381 115.192 50.2027C115.598 50.4171 115.652 50.7282 115.77 51.0928C116.134 52.2188 115.685 53.6237 115.556 54.7604C115.417 56.0259 115.438 57.3019 115.31 58.5674C115.181 59.8972 115.053 61.3128 115.235 62.6532C115.46 64.294 117.183 64.5192 117.889 63.0607C118.392 62.0206 118.596 60.7551 118.906 59.6505C119.303 58.2672 119.709 56.8837 120.084 55.5004C120.373 54.4601 120.608 53.4091 120.93 52.3796C121.101 51.822 121.261 51.2536 121.454 50.7067C121.572 50.3743 121.669 49.956 121.893 49.688C122.62 48.83 123.681 49.1517 123.852 50.2777C124.002 51.243 123.573 52.5834 123.349 53.5271C123.028 54.932 122.578 56.3047 122.15 57.6773C121.775 58.8677 121.454 60.0795 121.165 61.2913C120.918 62.2886 120.362 63.5541 120.416 64.5836C120.448 65.2162 120.918 65.7525 121.582 65.6988C122.472 65.6238 122.695 64.6264 123.059 63.9723C123.723 62.7819 124.591 61.731 125.265 60.5406C125.939 59.3503 126.592 58.2243 127.267 57.066C127.78 56.1653 128.423 54.4065 129.312 53.8488C130.329 53.2054 130.671 54.2778 130.435 55.1679C130.275 55.8006 129.986 56.4118 129.707 57.0017C128.679 59.1679 127.46 61.2591 126.293 63.3395C125.662 64.4655 123.97 66.975 124.998 68.3262C126.432 70.2029 128.23 66.8892 128.916 65.9991C129.719 64.9482 130.564 63.9294 131.463 62.9642C132.031 62.3529 132.651 61.5058 133.369 61.0768C133.433 61.0339 133.7 60.7658 133.775 60.7873C134.182 60.9267 133.808 61.7739 133.733 61.9562C133.519 62.5031 133.165 63.0714 132.876 63.5754C132.127 64.8945 131.207 66.0849 130.308 67.2967C129.022 69.034 127.941 70.9 127.16 72.9161C126.421 74.8035 125.736 76.7124 124.901 78.5676C123.713 81.2165 122.108 83.5328 121.282 86.3425C120.972 87.3935 122.632 87.8546 122.921 86.7929C123.702 83.876 125.287 81.4631 126.582 78.7714C127.374 77.1091 128.038 75.3933 128.744 73.6989C129.118 72.8088 129.386 71.8651 129.761 70.9857C130.275 69.7954 131.057 68.7016 131.806 67.6399C132.555 66.5782 133.475 65.5058 134.247 64.3798C134.836 63.5219 135.649 62.4924 135.766 61.4414C136.013 59.2538 133.904 58.2028 132.309 59.6291C130.714 61.0553 129.482 62.932 128.242 64.5943C127.78 65.2056 127.139 65.8811 126.764 66.5353L126.486 66.8356L126.465 67.5326C126.465 67.5326 126.636 66.9428 126.667 66.857C127.149 65.495 127.716 64.1438 128.23 62.8034C129.118 60.4869 130.789 58.5352 131.602 56.1867C132.127 54.6745 131.935 52.0472 129.707 52.2831C127.481 52.519 126.303 55.8221 125.34 57.4521C124.655 58.5996 123.959 59.747 123.338 60.9267C122.974 61.6023 122.589 62.2242 122.171 62.8677C121.958 63.2001 121.744 63.5326 121.54 63.8758C121.444 64.0367 121.357 64.1975 121.272 64.3584C121.786 64.4334 122.043 64.2511 122.054 63.8114C122.321 63.3503 122.364 62.6425 122.493 62.1277C122.674 61.4199 122.857 60.7229 123.059 60.0258C123.467 58.5674 123.841 57.0875 124.174 55.6075C124.462 54.3315 124.698 53.0338 124.911 51.7362C125.073 50.7925 125.223 49.688 124.601 48.8621C123.381 47.2321 121.326 47.9614 120.587 49.5807C119.495 52.0258 118.981 54.8355 118.19 57.3985C117.761 58.7712 117.354 60.1439 116.927 61.5164C116.862 61.731 116.798 62.0634 116.68 62.2671C116.262 63.0178 116.561 61.9347 116.54 61.613C116.519 60.9052 116.455 60.2189 116.509 59.5111C116.615 57.8703 116.787 56.2295 116.927 54.5888C117.033 53.3341 117.333 51.9721 117.075 50.7175C116.636 48.5404 113.671 47.5109 112.58 49.8059C111.231 52.637 111.777 56.1009 111.317 59.1144C110.995 61.2591 110.674 63.3932 110.396 65.5487C110.3 66.3422 111.531 66.3316 111.638 65.5487L111.67 65.5594Z" fill="#222222"/>
<path d="M36.5859 99.2109C36.5753 107.297 36.6288 115.361 36.6823 123.447C39.8402 124.133 43.2979 124.08 46.5094 124.326C48.5968 124.487 50.6842 124.637 52.7718 124.787C54.2276 124.895 55.8013 124.637 57.2249 125.077C57.2249 126.76 57.2249 128.455 57.2249 130.139C57.2249 130.246 57.2249 130.354 57.2892 130.439C57.3427 130.525 57.4498 130.568 57.5461 130.6C59.3874 131.254 61.4641 130.804 63.4017 130.933C65.7781 131.093 68.1547 131.254 70.5312 131.319C72.4688 131.372 76.269 131.415 78.2066 131.458C79.4163 131.479 81.5786 132.187 82.1566 130.783C82.3707 130.267 82.3601 129.699 82.3493 129.141C82.2209 122.536 82.1781 115.962 82.1888 109.366C82.1888 105.71 82.2209 102.053 82.2637 98.3958C82.2637 95.6612 82.1995 92.8622 82.3601 90.149C82.3601 90.0096 82.3707 89.8702 82.2958 89.763C82.1888 89.6236 81.9961 89.5914 81.8141 89.5807C74.7274 89.1624 65.7781 88.7871 58.6916 88.4654C51.6049 88.1437 44.9572 87.5324 38.1702 87.6611C36.2112 87.704 36.4896 88.0579 36.5431 89.881C36.5645 90.7926 36.5859 94.4708 36.5753 99.243L36.5859 99.2109Z" fill="white"/>
<path d="M54.1103 99.0713C54.2067 98.0633 54.1638 96.9908 53.6178 96.1007C53.4894 95.9184 53.3396 95.7684 53.1683 95.629C53.1255 95.5967 53.0826 95.5753 53.0398 95.5431C53.0506 95.5431 53.0612 95.5538 53.072 95.5646C52.3868 95.1142 51.5519 95.0391 50.7918 94.846C49.732 94.9212 48.6508 94.8354 47.6125 94.7818C47.6125 94.8783 47.6125 94.964 47.6125 95.0606C47.5804 95.9507 47.484 96.8193 47.559 97.7093C47.559 97.7415 47.559 97.7845 47.5482 97.8059C47.6553 99.2322 47.6125 100.658 47.6231 102.085C48.1691 102.117 48.7044 102.128 49.2503 102.149C49.6678 102.117 50.0853 102.096 50.4921 102.106C51.4234 102.117 52.4189 101.763 53.1255 101.152C53.3288 100.862 53.5965 100.551 53.757 100.251C53.9176 99.8864 54.0033 99.4359 54.0997 99.0605L54.1103 99.0713ZM60.2336 113.656C60.4048 113.731 60.4369 113.945 60.362 114.085C60.362 114.095 60.362 114.107 60.362 114.117C60.2121 114.364 59.8909 114.503 59.634 114.557C59.1951 114.718 58.7563 114.835 58.2959 114.847C58.0818 114.889 57.8677 114.922 57.6429 114.868C57.5252 114.868 57.3968 114.847 57.279 114.835C57.1933 114.835 57.1077 114.835 57.022 114.835C56.2834 114.664 55.5019 114.46 54.9667 113.892C54.7205 113.699 54.4957 113.484 54.3244 113.238C53.4573 112.037 52.7508 110.728 52.0015 109.452C51.1022 108.112 50.3529 106.664 49.4965 105.291C48.8436 105.291 48.1798 105.313 47.5375 105.281C47.5055 107.061 47.5268 108.841 47.5375 110.632C47.5375 110.642 47.5375 110.653 47.5375 110.675C47.5375 110.793 47.5375 110.911 47.5375 111.029C47.5375 111.189 47.559 111.329 47.5375 111.458C47.5375 111.661 47.5375 111.854 47.5375 112.047C47.559 112.219 47.5696 112.509 47.5375 112.745C47.591 112.916 47.4733 113.141 47.2699 113.141C47.2163 113.151 47.1522 113.151 47.0986 113.151C46.9487 113.151 46.7989 113.151 46.649 113.151C46.5527 113.151 46.4456 113.151 46.3493 113.151C46.285 113.151 46.2315 113.151 46.1672 113.151C46.1031 113.151 46.0496 113.151 46.0388 113.151C46.0174 113.151 45.996 113.151 45.9639 113.151C45.9318 113.151 45.889 113.151 45.8568 113.151C45.7605 113.151 45.6641 113.151 45.5892 113.151C45.45 113.151 45.3216 113.13 45.1824 113.13C45.0754 113.13 44.9791 113.13 44.9255 113.12C44.872 113.12 44.8291 113.12 44.7864 113.12C44.7436 113.12 44.7007 113.12 44.6901 113.12C44.615 113.12 44.5295 113.12 44.4974 113.12C44.4438 113.12 44.3796 113.12 44.326 113.12C44.2404 113.12 44.1655 113.141 44.0798 113.141C44.037 113.141 43.9943 113.141 43.9621 113.141C43.9192 113.141 43.8765 113.141 43.8443 113.141C43.7265 113.141 43.6088 113.141 43.491 113.151C43.4589 113.151 43.4269 113.151 43.3947 113.151C43.3733 113.151 43.3519 113.151 43.3305 113.151C43.3305 113.151 43.3091 113.151 43.2983 113.151C43.2877 113.151 43.2663 113.151 43.2556 113.151C43.2556 113.151 43.2448 113.151 43.2342 113.151C43.1378 113.151 43.0415 113.109 42.9772 113.045C42.8809 112.948 42.8487 112.83 42.8595 112.701C42.8595 112.712 42.8595 112.734 42.8595 112.745C42.8595 112.745 42.8595 112.755 42.8595 112.766C42.8595 112.626 42.9023 112.497 42.9665 112.434V112.412C42.9665 112.412 43.0628 112.326 43.1057 112.305C43.2663 111.876 43.2234 111.436 43.2556 110.996C43.2234 105.13 43.3198 99.2857 43.3412 93.4198C43.3412 93.291 43.3412 93.1516 43.3412 93.0122C43.2663 92.7549 43.1913 92.4975 42.9987 92.3152C42.8487 92.2615 42.7524 92.1329 42.7417 91.9721C42.7417 91.9184 42.7631 91.8648 42.7738 91.8219C42.7738 91.779 42.806 91.7468 42.8274 91.7254C42.8701 91.6825 42.9237 91.6503 42.9772 91.6396C43.1485 91.586 43.384 91.5967 43.5339 91.6181C43.6945 91.6181 43.8551 91.6396 44.0156 91.6396C45.45 91.6396 46.8738 91.6503 48.2976 91.6825C48.4689 91.6289 48.683 91.6396 48.8328 91.661C49.8498 91.6074 50.8775 91.6933 51.8944 91.7898C52.7508 91.8112 53.6178 92.1865 54.4636 92.3581C55.32 92.5833 56.0372 93.1624 56.7544 93.6557C57.5252 94.2241 57.964 95.0498 58.3067 95.9078C58.5528 96.8836 58.7884 97.9131 58.6171 98.9104C58.5849 99.2751 58.5208 99.6289 58.4244 99.9829C58.3495 100.358 58.2317 100.734 58.0711 101.087C57.4182 102.771 56.0265 104.144 54.3244 104.755C54.9561 105.656 55.4056 106.696 56.0265 107.608C56.4761 108.326 57.0006 109.034 57.4074 109.774C57.6215 110.138 57.7714 110.492 57.9534 110.825C58.2959 111.35 58.6278 111.865 58.9382 112.369C59.345 112.851 59.6554 113.474 60.2656 113.688L60.2336 113.656Z" fill="#E8E1C4"/>
<path d="M77.6612 116.83C76.8797 118.492 75.8735 120.057 74.6852 121.462C74.4069 121.784 74.1072 122.16 74.1393 122.578C74.2035 123.328 75.1884 123.564 75.9378 123.585C77.5862 123.639 79.2455 123.704 80.8941 123.758C82.275 123.81 83.9128 123.554 85.2617 123.918C86.0646 124.133 86.846 124.851 86.739 125.687C86.5463 127.179 84.4053 127.425 83.2919 127.736C83.7844 128.348 84.0199 129.173 83.9128 129.956C83.8058 130.738 83.0778 131.178 82.928 131.865C82.7888 132.53 83.2492 133.109 83.3027 133.752C83.3776 134.61 83.0351 135.499 82.3393 136.015C82.1893 136.122 82.0181 136.23 81.9432 136.401C81.8468 136.626 81.9432 136.883 81.9967 137.13C82.639 139.875 79.0314 140.712 77.1259 140.851C74.0109 141.066 70.8743 141.281 67.7485 141.119C64.6227 140.958 61.4968 140.229 58.2425 140.218C57.8785 140.218 56.8402 140.422 56.5404 140.24C56.1122 139.993 56.4012 140.047 56.1765 139.66C55.8554 139.103 55.8446 138.266 55.8125 137.645C55.7697 136.508 57.2041 126.471 56.3906 126.256C58.2961 126.771 60.7688 126.181 62.3104 124.916C63.2524 124.143 64.0659 123.21 65.008 122.427C66.8064 120.937 69.0116 120.047 70.8957 118.674C72.7797 117.301 73.8931 115.542 75.3169 113.784C75.638 113.387 76.0127 112.99 76.5158 112.926C78.6889 112.625 78.1429 115.79 77.6505 116.83H77.6612Z" fill="white"/>
<path d="M58.3273 139.694C59.28 140.541 60.7038 140.841 61.892 141.259C63.2088 141.721 64.6753 142.01 66.0669 142.106C69.1178 142.321 72.2008 142.256 75.2624 142.192C76.6862 142.16 78.1313 141.967 79.5551 141.827C80.6685 141.721 81.7817 141.409 82.606 140.616C83.9548 139.318 83.805 137.152 82.2634 136.091L81.8674 137.539C83.1198 137.377 84.2011 136.852 84.7256 135.639C84.9825 135.039 85.0361 134.418 84.9075 133.774C84.7149 132.884 84.1903 132.637 83.7193 131.918L83.3875 133.205C85.4 132.23 85.8496 128.444 83.6123 127.446C82.9914 127.167 82.0601 127.801 82.5632 128.498C83.3018 129.527 83.6444 130.718 82.4454 131.586C81.771 132.069 81.878 133.012 82.6703 133.302C82.9914 133.42 82.9379 134.599 82.8844 134.803C82.713 135.393 82.2742 135.854 81.6747 136.004C81.0216 136.176 80.9254 137.077 81.4927 137.42C82.3277 137.935 81.4927 139.243 80.9361 139.597C80.0154 140.177 78.7844 140.219 77.7353 140.252C75.6371 140.294 73.539 140.402 71.4408 140.391C69.3426 140.379 67.1695 140.177 65.0286 139.875C64.0009 139.725 62.9733 139.554 61.9563 139.383C60.8858 139.2 59.8581 138.675 58.7663 138.643C58.2417 138.621 57.9313 139.34 58.3273 139.704V139.694Z" fill="#222222"/>
<path d="M80.7109 128.97C81.289 128.926 81.8563 128.948 82.4237 128.895C82.959 128.841 83.4942 128.809 84.0187 128.734C85.1428 128.594 86.2133 128.305 87.0911 127.554C87.8297 126.921 88.4506 125.934 88.3756 124.915C88.3328 124.305 88.1294 123.748 87.6905 123.308C87.3158 122.932 86.8448 122.75 86.3631 122.579C85.3569 122.235 84.3184 122.278 83.2694 122.289C82.8519 122.289 82.488 122.642 82.488 123.071C82.488 123.533 82.8519 123.811 83.2694 123.854C83.7618 123.898 84.1257 123.961 84.6182 124.069C84.7146 124.09 84.8109 124.111 84.918 124.133C84.9501 124.133 85.3034 124.251 85.1428 124.187C85.2177 124.219 85.5924 124.39 85.3889 124.305C85.5067 124.358 85.6138 124.402 85.7208 124.465C85.7744 124.498 85.8279 124.519 85.8707 124.552C85.7957 124.487 85.7744 124.477 85.8386 124.519C85.9135 124.573 85.9884 124.637 86.0634 124.712C86.1062 124.755 86.1383 124.788 86.1812 124.83C86.0955 124.723 86.0848 124.723 86.1598 124.819L86.2025 124.894C86.149 124.765 86.149 124.765 86.2025 124.894C86.2239 124.959 86.2347 125.013 86.2453 125.077C86.2239 124.938 86.2239 124.938 86.2347 125.067C86.2347 125.163 86.2347 125.248 86.2239 125.345C86.2133 125.473 86.2239 125.463 86.2239 125.345C86.2133 125.409 86.2025 125.463 86.1812 125.527C86.1598 125.592 86.149 125.646 86.1276 125.709C86.1598 125.624 86.1704 125.613 86.1276 125.677C86.0741 125.774 86.0206 125.871 85.9563 125.967C85.8922 126.063 85.8814 126.074 85.9349 125.999C85.8921 126.042 85.8493 126.096 85.8065 126.138C85.7851 126.16 85.5816 126.342 85.7101 126.235C85.603 126.321 85.4853 126.396 85.3569 126.461C84.9607 126.686 84.5005 126.815 84.0081 126.932C83.4728 127.05 82.9376 127.125 82.3916 127.211C81.76 127.307 81.1499 127.479 80.5182 127.586C79.7261 127.726 79.9081 129.045 80.7109 128.991V128.97Z" fill="#222222"/>
<path d="M42.0344 71.0602C38.4268 71.8002 34.6052 72.1112 31.3509 73.9771C27.7648 76.0361 25.9557 79.5322 24.6925 83.3499C23.1938 87.8647 22.1234 92.5404 20.8173 97.1195C19.5113 101.699 18.1518 106.728 16.8673 111.543C15.5827 116.358 14.6299 121.087 13.4523 125.849C12.6495 129.067 11.4613 132.584 12.0393 135.929C12.6602 139.469 15.679 141.163 19.0082 141.602C21.3633 141.903 23.7826 141.838 26.1591 141.881C28.5355 141.925 31.0191 142.031 33.417 141.796C36.8319 141.473 40.3323 141.796 43.7579 141.85C47.8258 141.913 51.8936 141.775 55.9615 141.742C57.4066 141.731 57.4066 139.5 55.9615 139.49C49.8703 139.437 43.7794 139.672 37.699 139.876C33.781 140.004 29.8308 139.587 25.9022 139.522C23.7612 139.49 21.5988 139.522 19.4685 139.34C17.7236 139.19 15.6682 138.75 14.6942 137.131C13.1847 134.632 14.373 131.05 15.0259 128.455C16.1393 124.037 17.4774 119.693 18.5693 115.276C20.7424 106.46 22.7549 97.5271 25.5275 88.8835C26.9191 84.5509 27.6791 79.9076 31.0619 76.6045C34.0057 73.7305 38.5446 73.1943 42.3662 72.2506C43.1477 72.0576 42.8159 70.8994 42.0344 71.0602Z" fill="#222222"/>
<path d="M55.8441 127.307C55.8013 127.586 55.6086 127.842 55.5657 128.132C55.523 128.422 55.5122 128.733 55.4908 129.023C55.4587 129.538 55.4266 130.052 55.4481 130.567C55.5016 131.747 55.2661 132.862 55.234 134.041C55.1589 136.314 54.7094 138.62 55.1054 140.883C55.2767 141.869 56.9467 141.881 57.1179 140.883C57.482 138.62 57.0752 136.326 57.1394 134.041C57.1715 132.894 57.0324 131.822 57.193 130.674C57.2679 130.127 57.3 129.569 57.332 129.023C57.3428 128.776 57.3749 128.507 57.3642 128.25C57.3535 127.982 57.193 127.725 57.193 127.478C57.1715 126.749 55.9939 126.513 55.8655 127.296L55.8441 127.307Z" fill="#222222"/>
</g>
<path d="M58.474 128.127C59.915 128.186 61.5257 128.381 62.8854 127.854C63.9476 127.453 64.8698 126.4 65.5784 125.454C66.4631 124.264 67.1446 122.988 68.1151 121.873C69.2428 120.592 70.4877 119.489 71.7995 118.454C73.1114 117.418 74.1364 116.272 75.1616 114.839C75.8093 113.936 76.4754 114.018 76.571 115.199C76.6375 115.959 76.503 116.64 76.1738 117.272C75.1357 119.297 72.4855 120.304 72.1131 122.819C72.01 123.524 72.8475 124.16 73.2019 123.441C74.1016 121.628 75.7969 120.461 76.8536 118.766C77.4135 117.862 78.011 116.887 78.217 115.763C78.3935 114.788 78.1012 113.302 77.2532 112.78C76.2628 112.168 75.2656 112.626 74.5152 113.337C73.4212 114.366 72.5009 115.633 71.4236 116.7C70.3463 117.766 69.0973 118.727 68.0409 119.891C67.2193 120.801 66.3997 121.72 65.5886 122.638C64.6936 123.655 64.0288 124.848 62.9977 125.721C61.8346 126.714 59.9495 126.588 58.5126 126.59C57.6539 126.591 57.5985 128.091 58.476 128.138L58.474 128.127Z" fill="#222222"/>
</g>
<defs>
<clipPath id="clip0_1164_3195">
<rect width="144.448" height="143.328" fill="white" transform="translate(0.33252 0.173828)"/>
</clipPath>
</defs>
</svg>
