<svg width="506" height="499" viewBox="0 0 506 499" fill="none" xmlns="http://www.w3.org/2000/svg">
<path d="M475.862 368.906H31.6468C27.284 368.906 23.7393 365.362 23.7393 360.999V136.205C23.7393 128.707 29.7927 122.653 37.2912 122.653H467.6C475.208 122.653 481.397 128.816 481.397 136.451V363.371C481.397 366.425 478.916 368.906 475.862 368.906Z" fill="white"/>
<path fill-rule="evenodd" clip-rule="evenodd" d="M475.862 369.506H31.6471C26.9571 369.506 23.1396 365.689 23.1396 360.999V136.205C23.1396 128.38 29.4657 122.026 37.2915 122.026H467.6C475.535 122.026 481.998 128.489 481.998 136.451V363.371C481.998 366.752 479.244 369.506 475.862 369.506ZM37.2915 123.253C30.1474 123.253 24.3667 129.061 24.3667 136.205V360.999C24.3667 365.007 27.6388 368.279 31.6471 368.279H475.862C478.589 368.279 480.771 366.071 480.771 363.371V136.451C480.771 129.17 474.881 123.253 467.6 123.253H37.2915Z" fill="black"/>
<path d="M425.064 260.027H401.532C400.441 260.027 399.568 259.155 399.568 258.064V222.071C399.568 220.98 400.441 220.107 401.532 220.107H425.064C426.127 220.107 427.027 220.98 427.027 222.071V258.064C427.027 259.155 426.127 260.027 425.064 260.027Z" fill="white"/>
<path fill-rule="evenodd" clip-rule="evenodd" d="M425.064 260.627H401.532C400.114 260.627 398.969 259.482 398.969 258.064V222.071C398.969 220.653 400.114 219.508 401.532 219.508H425.064C426.482 219.508 427.627 220.653 427.627 222.071V258.064C427.627 259.482 426.482 260.627 425.064 260.627ZM401.532 220.735C400.796 220.735 400.169 221.335 400.169 222.071V258.064C400.169 258.8 400.796 259.4 401.532 259.4H425.064C425.8 259.4 426.4 258.8 426.4 258.064V222.071C426.4 221.335 425.8 220.735 425.064 220.735H401.532Z" fill="black"/>
<path d="M457.048 260.027H433.926C432.726 260.027 431.771 259.073 431.771 257.873V222.262C431.771 221.089 432.726 220.107 433.926 220.107H457.048C458.248 220.107 459.203 221.089 459.203 222.262V257.873C459.203 259.073 458.248 260.027 457.048 260.027Z" fill="white"/>
<path d="M425.609 304.364H400.959C400.196 304.364 399.568 303.737 399.568 302.973V265.862C399.568 265.072 400.196 264.472 400.959 264.472H425.609C426.4 264.472 427.027 265.072 427.027 265.862V302.973C427.027 303.737 426.4 304.364 425.609 304.364Z" fill="white"/>
<path fill-rule="evenodd" clip-rule="evenodd" d="M425.609 304.991H400.959C399.869 304.991 398.969 304.092 398.969 302.974V265.863C398.969 264.745 399.869 263.845 400.959 263.845H425.609C426.727 263.845 427.627 264.745 427.627 265.863V302.974C427.627 304.092 426.727 304.991 425.609 304.991ZM400.959 265.072C400.523 265.072 400.169 265.426 400.169 265.863V302.974C400.169 303.41 400.523 303.764 400.959 303.764H425.609C426.045 303.764 426.4 303.41 426.4 302.974V265.863C426.4 265.426 426.045 265.072 425.609 265.072H400.959Z" fill="black"/>
<path d="M456.994 304.364H433.98C432.753 304.364 431.771 303.382 431.771 302.155V266.653C431.771 265.453 432.753 264.472 433.98 264.472H456.994C458.221 264.472 459.203 265.453 459.203 266.653V302.155C459.203 303.382 458.221 304.364 456.994 304.364Z" fill="white"/>
<path d="M205.505 135.796L6.94299 134.815C4.1617 134.788 2.33478 131.897 3.50728 129.389L61.8598 49.8492C63.1414 48.1041 65.1864 47.0952 67.3678 47.1225C90.7361 47.586 228.001 43.7686 228.001 43.7686L205.505 135.796Z" fill="#BAB395"/>
<path d="M302.959 135.115L501.521 134.133C504.302 134.106 506.129 131.216 504.956 128.707L446.604 49.1676C445.295 47.4224 443.25 46.4135 441.069 46.4408C417.7 46.9044 280.463 43.0869 280.463 43.0869L302.959 135.115Z" fill="#BAB395"/>
<path d="M74.2387 259.345H97.7705C98.834 259.345 99.7065 258.473 99.7065 257.382V221.389C99.7065 220.298 98.834 219.426 97.7705 219.426H74.2387C73.148 219.426 72.2754 220.298 72.2754 221.389V257.382C72.2754 258.473 73.148 259.345 74.2387 259.345Z" fill="white"/>
<path d="M42.2274 259.345H65.3775C66.55 259.345 67.5316 258.391 67.5316 257.191V221.58C67.5316 220.407 66.55 219.426 65.3775 219.426H42.2274C41.0549 219.426 40.0732 220.407 40.0732 221.58V257.191C40.0732 258.391 41.0549 259.345 42.2274 259.345Z" fill="white"/>
<path fill-rule="evenodd" clip-rule="evenodd" d="M65.3768 259.946H42.2267C40.6997 259.946 39.4727 258.719 39.4727 257.192V221.58C39.4727 220.053 40.6997 218.826 42.2267 218.826H65.3768C66.9038 218.826 68.1308 220.053 68.1308 221.58V257.192C68.1308 258.719 66.9038 259.946 65.3768 259.946ZM42.2267 220.053C41.3814 220.053 40.6997 220.735 40.6997 221.58V257.192C40.6997 258.037 41.3814 258.719 42.2267 258.719H65.3768C66.2221 258.719 66.9038 258.037 66.9038 257.192V221.58C66.9038 220.735 66.2221 220.053 65.3768 220.053H42.2267Z" fill="black"/>
<path d="M73.666 303.682H98.3159C99.1066 303.682 99.7065 303.055 99.7065 302.292V265.181C99.7065 264.39 99.1066 263.79 98.3159 263.79H73.666C72.9025 263.79 72.2754 264.39 72.2754 265.181V302.292C72.2754 303.055 72.9025 303.682 73.666 303.682Z" fill="white"/>
<path d="M42.2819 303.682H65.323C66.5227 303.682 67.5316 302.701 67.5316 301.474V265.971C67.5316 264.772 66.5227 263.79 65.323 263.79H42.2819C41.0549 263.79 40.0732 264.772 40.0732 265.971V301.474C40.0732 302.701 41.0549 303.682 42.2819 303.682Z" fill="white"/>
<path fill-rule="evenodd" clip-rule="evenodd" d="M65.3223 304.31H42.2812C40.727 304.31 39.4727 303.028 39.4727 301.474V265.972C39.4727 264.417 40.727 263.163 42.2812 263.163H65.3223C66.8765 263.163 68.1308 264.417 68.1308 265.972V301.474C68.1308 303.028 66.8765 304.31 65.3223 304.31ZM42.2812 264.39C41.4086 264.39 40.6997 265.099 40.6997 265.972V301.474C40.6997 302.374 41.4086 303.083 42.2812 303.083H65.3223C66.1948 303.083 66.9038 302.374 66.9038 301.474V265.972C66.9038 265.099 66.1948 264.39 65.3223 264.39H42.2812Z" fill="black"/>
<path d="M118.412 361.163L117.049 110.274L250.387 42.3506L381.08 112.674L382.089 366.234C382.007 369.67 372.6 371.252 369.437 371.224L125.502 368.907C121.575 368.879 118.412 365.416 118.412 361.163Z" fill="white"/>
<path fill-rule="evenodd" clip-rule="evenodd" d="M369.492 371.852C369.474 371.852 369.455 371.852 369.437 371.852L125.475 369.534C121.248 369.479 117.813 365.744 117.813 361.163L116.422 110.274C116.422 110.056 116.558 109.838 116.749 109.729L250.115 41.8054C250.305 41.6964 250.524 41.6964 250.687 41.8054L381.38 112.128C381.571 112.237 381.68 112.456 381.708 112.674L382.717 366.234C382.607 370.434 372.3 371.852 369.492 371.852ZM117.649 110.656L119.04 361.163C119.04 365.062 121.93 368.28 125.502 368.307L369.437 370.625C372.873 370.652 381.408 368.934 381.49 366.234L380.481 113.055L250.387 43.0325L117.649 110.656Z" fill="black"/>
<path d="M337.752 259.4H361.284C362.375 259.4 363.247 258.528 363.247 257.437V221.498C363.247 220.408 362.375 219.535 361.284 219.535H337.752C336.662 219.535 335.789 220.408 335.789 221.498V257.437C335.789 258.528 336.662 259.4 337.752 259.4Z" fill="white"/>
<path fill-rule="evenodd" clip-rule="evenodd" d="M361.285 260H337.753C336.335 260 335.189 258.855 335.189 257.437V221.499C335.189 220.081 336.335 218.936 337.753 218.936H361.285C362.702 218.936 363.848 220.081 363.848 221.499V257.437C363.848 258.855 362.702 260 361.285 260ZM337.753 220.163C337.016 220.163 336.416 220.762 336.416 221.499V257.437C336.416 258.174 337.016 258.773 337.753 258.773H361.285C362.021 258.773 362.621 258.174 362.621 257.437V221.499C362.621 220.762 362.021 220.163 361.285 220.163H337.753Z" fill="black"/>
<path d="M305.74 259.4H328.89C330.09 259.4 331.044 258.419 331.044 257.246V221.689C331.044 220.49 330.09 219.535 328.89 219.535H305.74C304.568 219.535 303.613 220.49 303.613 221.689V257.246C303.613 258.419 304.568 259.4 305.74 259.4Z" fill="white"/>
<path fill-rule="evenodd" clip-rule="evenodd" d="M328.89 260H305.74C304.241 260 302.986 258.773 302.986 257.246V221.69C302.986 220.163 304.241 218.936 305.74 218.936H328.89C330.417 218.936 331.672 220.163 331.672 221.69V257.246C331.672 258.773 330.417 260 328.89 260ZM305.74 220.163C304.895 220.163 304.213 220.844 304.213 221.69V257.246C304.213 258.092 304.895 258.773 305.74 258.773H328.89C329.736 258.773 330.445 258.092 330.445 257.246V221.69C330.445 220.844 329.736 220.163 328.89 220.163H305.74Z" fill="black"/>
<path d="M337.18 303.682H361.857C362.62 303.682 363.247 303.055 363.247 302.265V265.208C363.247 264.445 362.62 263.817 361.857 263.817H337.18C336.416 263.817 335.789 264.445 335.789 265.208V302.265C335.789 303.055 336.416 303.682 337.18 303.682Z" fill="white"/>
<path fill-rule="evenodd" clip-rule="evenodd" d="M361.857 304.283H337.207C336.089 304.283 335.189 303.383 335.189 302.265V265.208C335.189 264.118 336.089 263.218 337.207 263.218H361.857C362.948 263.218 363.848 264.118 363.848 265.208V302.265C363.848 303.383 362.948 304.283 361.857 304.283ZM337.207 264.445C336.771 264.445 336.416 264.772 336.416 265.208V302.265C336.416 302.701 336.771 303.056 337.207 303.056H361.857C362.266 303.056 362.621 302.701 362.621 302.265V265.208C362.621 264.772 362.266 264.445 361.857 264.445H337.207Z" fill="black"/>
<path d="M305.795 303.682H328.836C330.063 303.682 331.044 302.674 331.044 301.474V266.026C331.044 264.799 330.063 263.817 328.836 263.817H305.795C304.595 263.817 303.613 264.799 303.613 266.026V301.474C303.613 302.674 304.595 303.682 305.795 303.682Z" fill="white"/>
<path fill-rule="evenodd" clip-rule="evenodd" d="M328.836 304.283H305.795C304.241 304.283 302.986 303.028 302.986 301.474V266.026C302.986 264.472 304.241 263.218 305.795 263.218H328.836C330.39 263.218 331.672 264.472 331.672 266.026V301.474C331.672 303.028 330.39 304.283 328.836 304.283ZM305.795 264.445C304.922 264.445 304.213 265.154 304.213 266.026V301.474C304.213 302.347 304.922 303.056 305.795 303.056H328.836C329.709 303.056 330.445 302.347 330.445 301.474V266.026C330.445 265.154 329.709 264.445 328.836 264.445H305.795Z" fill="black"/>
<path d="M252.622 131.025H276.181C277.244 131.025 278.117 130.152 278.117 129.062V100.731C278.117 99.6401 277.244 98.7676 276.181 98.7676H252.622C251.558 98.7676 250.686 99.6401 250.686 100.731V129.062C250.686 130.152 251.558 131.025 252.622 131.025Z" fill="white"/>
<path fill-rule="evenodd" clip-rule="evenodd" d="M276.181 131.625H252.622C251.231 131.625 250.059 130.48 250.059 129.062V100.731C250.059 99.3132 251.231 98.168 252.622 98.168H276.181C277.599 98.168 278.744 99.3132 278.744 100.731V129.062C278.744 130.48 277.599 131.625 276.181 131.625ZM252.622 99.395C251.886 99.395 251.286 99.9949 251.286 100.731V129.062C251.286 129.798 251.886 130.398 252.622 130.398H276.181C276.917 130.398 277.517 129.798 277.517 129.062V100.731C277.517 99.9949 276.917 99.395 276.181 99.395H252.622Z" fill="black"/>
<path d="M220.638 131.025H243.788C244.96 131.025 245.942 130.071 245.942 128.871V100.922C245.942 99.7492 244.96 98.7676 243.788 98.7676H220.638C219.438 98.7676 218.483 99.7492 218.483 100.922V128.871C218.483 130.071 219.438 131.025 220.638 131.025Z" fill="white"/>
<path d="M252.076 166.855H276.726C277.49 166.855 278.117 166.228 278.117 165.465V136.016C278.117 135.225 277.49 134.598 276.726 134.598H252.076C251.313 134.598 250.686 135.225 250.686 136.016V165.465C250.686 166.228 251.313 166.855 252.076 166.855Z" fill="white"/>
<path fill-rule="evenodd" clip-rule="evenodd" d="M276.726 167.455H252.076C250.958 167.455 250.059 166.555 250.059 165.465V136.016C250.059 134.898 250.958 133.998 252.076 133.998H276.726C277.844 133.998 278.744 134.898 278.744 136.016V165.465C278.744 166.555 277.844 167.455 276.726 167.455ZM252.076 135.225C251.64 135.225 251.286 135.58 251.286 136.016V165.465C251.286 165.901 251.64 166.228 252.076 166.228H276.726C277.163 166.228 277.517 165.901 277.517 165.465V136.016C277.517 135.58 277.163 135.225 276.726 135.225H252.076Z" fill="black"/>
<path d="M220.692 166.855H243.733C244.933 166.855 245.942 165.874 245.942 164.646V136.806C245.942 135.607 244.933 134.598 243.733 134.598H220.692C219.465 134.598 218.483 135.607 218.483 136.806V164.646C218.483 165.874 219.465 166.855 220.692 166.855Z" fill="white"/>
<path d="M168.966 259.318H192.525C193.589 259.318 194.461 258.446 194.461 257.382V221.362C194.461 220.298 193.589 219.398 192.525 219.398H168.966C167.903 219.398 167.03 220.298 167.03 221.362V257.382C167.03 258.446 167.903 259.318 168.966 259.318Z" fill="white"/>
<path fill-rule="evenodd" clip-rule="evenodd" d="M192.526 259.946H168.966C167.549 259.946 166.403 258.773 166.403 257.382V221.362C166.403 219.944 167.549 218.799 168.966 218.799H192.526C193.944 218.799 195.089 219.944 195.089 221.362V257.382C195.089 258.773 193.944 259.946 192.526 259.946ZM168.966 220.026C168.23 220.026 167.63 220.626 167.63 221.362V257.382C167.63 258.119 168.23 258.719 168.966 258.719H192.526C193.262 258.719 193.862 258.119 193.862 257.382V221.362C193.862 220.626 193.262 220.026 192.526 220.026H168.966Z" fill="black"/>
<path d="M136.982 259.318H160.132C161.305 259.318 162.259 258.364 162.259 257.164V221.553C162.259 220.38 161.305 219.398 160.132 219.398H136.982C135.782 219.398 134.828 220.38 134.828 221.553V257.164C134.828 258.364 135.782 259.318 136.982 259.318Z" fill="white"/>
<path fill-rule="evenodd" clip-rule="evenodd" d="M160.132 259.946H136.981C135.455 259.946 134.2 258.691 134.2 257.164V221.553C134.2 220.026 135.455 218.799 136.981 218.799H160.132C161.659 218.799 162.886 220.026 162.886 221.553V257.164C162.886 258.691 161.659 259.946 160.132 259.946ZM136.981 220.026C136.136 220.026 135.427 220.708 135.427 221.553V257.164C135.427 258.01 136.136 258.719 136.981 258.719H160.132C160.977 258.719 161.659 258.01 161.659 257.164V221.553C161.659 220.708 160.977 220.026 160.132 220.026H136.981Z" fill="black"/>
<path d="M168.421 303.682H193.071C193.834 303.682 194.461 303.055 194.461 302.264V265.153C194.461 264.39 193.834 263.763 193.071 263.763H168.421C167.657 263.763 167.03 264.39 167.03 265.153V302.264C167.03 303.055 167.657 303.682 168.421 303.682Z" fill="white"/>
<path fill-rule="evenodd" clip-rule="evenodd" d="M193.071 304.282H168.421C167.303 304.282 166.403 303.383 166.403 302.265V265.154C166.403 264.036 167.303 263.136 168.421 263.136H193.071C194.189 263.136 195.089 264.036 195.089 265.154V302.265C195.089 303.383 194.189 304.282 193.071 304.282ZM168.421 264.363C167.985 264.363 167.63 264.717 167.63 265.154V302.265C167.63 302.701 167.985 303.055 168.421 303.055H193.071C193.507 303.055 193.862 302.701 193.862 302.265V265.154C193.862 264.717 193.507 264.363 193.071 264.363H168.421Z" fill="black"/>
<path d="M137.037 303.682H160.078C161.278 303.682 162.259 302.673 162.259 301.474V265.971C162.259 264.744 161.278 263.763 160.078 263.763H137.037C135.81 263.763 134.828 264.744 134.828 265.971V301.474C134.828 302.673 135.81 303.682 137.037 303.682Z" fill="white"/>
<path fill-rule="evenodd" clip-rule="evenodd" d="M160.077 304.282H137.036C135.482 304.282 134.2 303.028 134.2 301.474V265.972C134.2 264.417 135.482 263.136 137.036 263.136H160.077C161.631 263.136 162.886 264.417 162.886 265.972V301.474C162.886 303.028 161.631 304.282 160.077 304.282ZM137.036 264.363C136.163 264.363 135.427 265.072 135.427 265.972V301.474C135.427 302.346 136.163 303.055 137.036 303.055H160.077C160.95 303.055 161.659 302.346 161.659 301.474V265.972C161.659 265.072 160.95 264.363 160.077 264.363H137.036Z" fill="black"/>
<path d="M252.215 25.8539L392.288 100.594C395.26 102.176 395.805 105.421 393.488 107.547L381.708 118.4L251.206 51.4035C250.388 50.9945 249.324 50.9673 248.479 51.4035L115.413 118.536L107.806 109.456C104.67 105.72 105.951 100.758 110.696 98.2219L247.47 25.8539C248.915 25.0904 250.797 25.0904 252.215 25.8539Z" fill="#BAB395"/>
<path fill-rule="evenodd" clip-rule="evenodd" d="M115.413 119.164C115.222 119.164 115.059 119.082 114.949 118.945L107.315 109.865C105.788 108.038 105.188 105.83 105.597 103.648C106.088 101.222 107.833 99.0674 110.396 97.704L247.17 25.3087C248.806 24.4362 250.905 24.4362 252.514 25.3087L392.56 100.049C394.224 100.949 395.314 102.367 395.505 103.948C395.696 105.448 395.123 106.866 393.924 107.984L382.144 118.864C381.953 119.027 381.68 119.054 381.435 118.945L250.905 51.9491C250.278 51.6219 249.406 51.6219 248.779 51.9491L115.686 119.082C115.595 119.136 115.504 119.164 115.413 119.164ZM249.842 25.8813C249.106 25.8813 248.37 26.0449 247.742 26.3722L110.968 98.7674C108.733 99.9672 107.206 101.821 106.796 103.894C106.442 105.693 106.96 107.52 108.269 109.075L115.577 117.773L248.206 50.8584C249.215 50.3403 250.496 50.3403 251.478 50.8584L381.626 117.664L393.078 107.084C394.005 106.239 394.442 105.203 394.278 104.112C394.142 102.912 393.296 101.849 391.988 101.14L251.942 26.3994C251.314 26.0449 250.578 25.8813 249.842 25.8813Z" fill="white"/>
<path d="M123.62 189.295C123.293 189.295 123.021 189.023 123.021 188.668C123.021 188.341 123.293 188.068 123.62 188.068L374.536 187.659C374.863 187.659 375.136 187.932 375.136 188.259C375.136 188.614 374.863 188.886 374.536 188.886L123.62 189.295Z" fill="black"/>
<path d="M216.084 370.871H281.854C283.872 370.871 285.508 369.235 285.508 367.217V223.79C285.508 221.744 283.872 220.108 281.854 220.108H216.084C214.039 220.108 212.403 221.744 212.403 223.79V367.217C212.403 369.235 214.039 370.871 216.084 370.871Z" fill="black"/>
<path d="M218.566 365.553H279.046C280.409 365.553 281.5 364.463 281.5 363.099V226.762C281.5 225.426 280.409 224.308 279.046 224.308H218.566C217.23 224.308 216.14 225.426 216.14 226.762V363.099C216.14 364.463 217.23 365.553 218.566 365.553Z" fill="white"/>
<path fill-rule="evenodd" clip-rule="evenodd" d="M279.046 366.181H218.567C216.876 366.181 215.513 364.79 215.513 363.1V226.762C215.513 225.071 216.876 223.708 218.567 223.708H279.046C280.737 223.708 282.127 225.071 282.127 226.762V363.1C282.127 364.79 280.737 366.181 279.046 366.181ZM218.567 224.935C217.558 224.935 216.74 225.753 216.74 226.762V363.1C216.74 364.108 217.558 364.954 218.567 364.954H279.046C280.055 364.954 280.9 364.108 280.9 363.1V226.762C280.9 225.753 280.055 224.935 279.046 224.935H218.567Z" fill="black"/>
<path d="M203.187 373.761H294.396C295.378 373.761 296.142 372.998 296.142 372.043V362.363C296.142 361.409 295.378 360.618 294.396 360.618H203.187C202.232 360.618 201.469 361.409 201.469 362.363V372.043C201.469 372.998 202.232 373.761 203.187 373.761Z" fill="white"/>
<path fill-rule="evenodd" clip-rule="evenodd" d="M294.397 374.389H203.187C201.905 374.389 200.842 373.325 200.842 372.044V362.364C200.842 361.055 201.905 360.019 203.187 360.019H294.397C295.706 360.019 296.769 361.055 296.769 362.364V372.044C296.769 373.325 295.706 374.389 294.397 374.389ZM203.187 361.246C202.587 361.246 202.069 361.736 202.069 362.364V372.044C202.069 372.643 202.587 373.161 203.187 373.161H294.397C295.024 373.161 295.542 372.643 295.542 372.044V362.364C295.542 361.736 295.024 361.246 294.397 361.246H203.187Z" fill="black"/>
<path d="M229.228 269.572C229.009 269.572 228.819 269.49 228.709 269.299C228.519 269.026 228.6 268.645 228.873 268.454L271.274 241.213C271.574 241.023 271.929 241.104 272.119 241.377C272.31 241.677 272.228 242.059 271.929 242.222L229.555 269.49C229.446 269.544 229.337 269.572 229.228 269.572Z" fill="black"/>
<path d="M227.483 287.759C227.292 287.759 227.101 287.677 226.965 287.486C226.801 287.214 226.883 286.832 227.156 286.641L266.585 261.282C266.884 261.119 267.266 261.2 267.43 261.473C267.621 261.746 267.539 262.127 267.266 262.318L227.81 287.677C227.719 287.732 227.61 287.759 227.483 287.759Z" fill="black"/>
<path d="M121.385 34.3881C121.167 34.3881 120.976 34.2791 120.867 34.0882C120.676 33.8155 120.758 33.4338 121.03 33.2429C148.352 15.3281 181.182 5.37549 216.03 4.50293C216.358 4.50293 216.658 4.77561 216.658 5.10282C216.658 5.43003 216.385 5.72997 216.058 5.72997C181.455 6.60253 148.816 16.4734 121.712 34.2791C121.603 34.3518 121.494 34.3881 121.385 34.3881Z" fill="black"/>
<path fill-rule="evenodd" clip-rule="evenodd" d="M231.355 9.54779C231.101 9.54779 230.846 9.52961 230.592 9.49325C228.001 9.05697 226.229 6.6029 226.638 4.01249C227.074 1.42207 229.528 -0.35032 232.119 0.0586933C233.373 0.276834 234.464 0.958515 235.227 1.99468C235.963 3.00358 236.263 4.28515 236.072 5.53946C235.691 7.88447 233.646 9.54779 231.355 9.54779ZM231.355 1.23119C229.637 1.23119 228.138 2.45823 227.865 4.20335C227.538 6.13935 228.846 7.96627 230.782 8.26621C232.718 8.59342 234.545 7.25732 234.845 5.34859C235.009 4.39423 234.791 3.46713 234.218 2.70364C233.673 1.94015 232.855 1.42207 231.928 1.28573C231.728 1.24938 231.537 1.23119 231.355 1.23119Z" fill="black"/>
<path d="M225.301 475.74C203.651 475.74 176.574 473.15 150.452 463.552C150.152 463.443 149.988 463.088 150.097 462.788C150.206 462.461 150.561 462.298 150.888 462.407C183.773 474.486 218.239 475.386 241.335 474.05C266.366 472.577 283.817 468.187 284.008 468.16C284.335 468.078 284.663 468.269 284.744 468.596C284.826 468.924 284.635 469.251 284.308 469.333C284.145 469.387 266.557 473.805 241.416 475.277C236.508 475.55 231.109 475.74 225.301 475.74Z" fill="black"/>
<path d="M214.04 489.811C193.344 489.811 164.031 487.111 144.071 473.996C143.799 473.832 143.717 473.45 143.908 473.15C144.099 472.878 144.48 472.796 144.753 472.987C177.992 494.828 237.817 487.357 238.417 487.302C238.744 487.248 239.044 487.493 239.099 487.82C239.126 488.148 238.908 488.448 238.553 488.502C238.308 488.529 228.192 489.811 214.04 489.811Z" fill="black"/>
<path d="M252.46 491.119C252.242 491.119 251.996 490.983 251.914 490.738C251.778 490.438 251.914 490.083 252.214 489.947C252.569 489.783 253.087 489.211 253.578 488.665C254.532 487.602 255.704 486.293 257.177 486.157C258.377 486.048 259.658 486.92 260.913 487.738C262.003 488.474 263.121 489.238 263.912 489.129C265.112 488.938 266.202 487.765 267.293 486.647C268.384 485.502 269.502 484.303 270.838 484.03C272.392 483.73 274.056 484.302 275.528 484.793C276.7 485.202 277.791 485.584 278.527 485.393C281.254 484.739 282.318 481.658 282.318 481.63C282.427 481.303 282.781 481.139 283.108 481.248C283.436 481.358 283.599 481.685 283.49 482.012C283.436 482.176 282.209 485.775 278.827 486.593C277.737 486.838 276.482 486.402 275.119 485.966C273.756 485.475 272.31 484.984 271.083 485.23C270.129 485.42 269.175 486.429 268.166 487.493C266.966 488.774 265.712 490.083 264.103 490.329C262.849 490.519 261.512 489.62 260.231 488.774C259.14 488.038 258.049 487.302 257.286 487.384C256.304 487.465 255.35 488.529 254.505 489.483C253.85 490.192 253.305 490.792 252.705 491.065C252.632 491.101 252.551 491.119 252.46 491.119Z" fill="black"/>
<path d="M118.767 159.792C121.739 159.628 125.257 160.419 132.237 162C138.563 163.418 140.308 164.373 141.072 166.036C142.353 168.735 140.445 172.062 139.872 173.071C136.654 178.715 130.765 179.452 126.865 182.042C114.268 190.413 120.703 204.592 110.26 213.481C100.307 221.934 91.0086 211.982 73.1484 220.053C59.0784 226.406 60.3872 234.559 48.9076 238.159C34.8921 242.549 12.9144 236.659 4.02522 219.017C-4.45498 202.22 1.40754 179.833 12.8326 174.107C23.2488 168.926 31.2655 180.406 45.1719 175.007C58.8602 169.69 59.9237 154.993 70.6125 155.183C73.1484 155.238 72.6303 156.056 89.4544 162.137C97.2529 164.973 98.18 165.082 99.0253 165.136C107.424 165.681 109.169 160.31 118.767 159.792Z" fill="black"/>
<path d="M148.843 245.902C154.842 282.577 155.524 283.122 156.342 286.967C156.342 286.967 158.714 297.765 159.369 308.154C159.941 317.179 158.251 371.387 130.22 383.331C120.103 387.639 117.186 379.731 95.617 380.576C73.5576 381.449 69.0857 389.329 59.433 386.575C38.6006 380.604 31.7838 335.858 32.929 308.236C33.8561 285.713 45.0631 264.444 67.477 221.934C70.8854 215.472 76.3662 205.574 85.1463 204.319C89.1819 203.747 90.7907 204.346 107.015 208.791C124.63 213.645 129.102 208.491 136.655 213.263C144.48 218.171 145.844 227.551 148.843 245.902Z" fill="white"/>
<path fill-rule="evenodd" clip-rule="evenodd" d="M63.4415 387.748C62.1326 387.748 60.7692 387.585 59.2695 387.148C47.2718 383.713 40.7276 368.143 37.3464 355.682C33.5563 341.666 31.6748 323.915 32.3292 308.209C33.2563 285.549 44.5178 264.199 66.9317 221.662C69.9857 215.854 75.6846 205.056 85.0646 203.692C88.8548 203.174 90.4636 203.611 102.979 207.046L107.151 208.219C116.013 210.646 121.412 210.536 125.775 210.427C130.029 210.346 133.11 210.291 136.982 212.745C144.862 217.708 146.335 226.706 149.28 244.675L149.443 245.793C154.433 276.333 155.742 281.732 156.506 284.977C156.669 285.631 156.805 286.177 156.942 286.831C156.969 286.94 159.341 297.793 159.996 308.127C160.323 313.39 159.805 329.287 156.124 344.802C151.216 365.307 142.354 378.832 130.465 383.903C125.175 386.139 121.712 385.158 116.94 383.822C112.196 382.458 106.251 380.768 95.6444 381.204C84.4375 381.64 77.9205 383.849 72.7124 385.649C69.2494 386.821 66.4682 387.748 63.4415 387.748ZM87.4096 204.729C86.7007 204.729 86.019 204.81 85.2555 204.919C76.4753 206.174 70.9673 216.617 68.0224 222.234C45.6903 264.608 34.4833 285.877 33.529 308.263C32.3565 337.085 39.6369 380.277 59.5967 385.976C64.1232 387.257 67.368 386.167 72.3034 384.476C77.3206 382.758 84.2193 380.413 95.6171 379.977C106.388 379.541 112.687 381.313 117.295 382.622C121.985 383.958 125.093 384.858 129.974 382.758C144.535 376.568 151.57 358.545 154.924 344.502C158.578 329.15 159.096 313.417 158.769 308.181C158.114 297.956 155.769 287.186 155.742 287.076C155.606 286.449 155.469 285.904 155.333 285.277C154.542 282.005 153.233 276.578 148.243 246.012L148.053 244.866C145.19 227.279 143.744 218.444 136.328 213.781C132.756 211.518 129.974 211.573 125.775 211.654C121.358 211.764 115.85 211.873 106.851 209.391L102.652 208.246C93.0267 205.574 89.9728 204.729 87.4096 204.729Z" fill="black"/>
<path d="M116.694 458.234V475.958L108.159 475.44L106.469 458.234H116.694Z" fill="white"/>
<path fill-rule="evenodd" clip-rule="evenodd" d="M116.694 476.586C116.676 476.586 116.658 476.586 116.64 476.586L108.105 476.068C107.805 476.04 107.56 475.795 107.532 475.495L105.869 458.289C105.842 458.126 105.896 457.935 106.033 457.826C106.142 457.689 106.305 457.607 106.469 457.607H116.694C117.022 457.607 117.294 457.88 117.294 458.235V475.958C117.294 476.122 117.24 476.286 117.103 476.422C116.994 476.531 116.831 476.586 116.694 476.586ZM108.705 474.868L116.067 475.304V458.834H107.151L108.705 474.868Z" fill="black"/>
<path d="M106.878 498.073C110.341 498.455 116.039 498.7 122.665 497.555C124.82 497.173 126.21 495.019 125.61 492.892C123.947 486.975 120.675 475.959 118.057 470.696L116.476 473.559L115.221 470.533C115.003 470.178 114.622 469.933 114.213 469.905L110.94 469.578C110.259 469.524 109.441 470.205 109.332 470.887L107.15 473.559L105.923 470.369L103.578 494.037C103.387 496.055 104.86 497.855 106.878 498.073Z" fill="white"/>
<path fill-rule="evenodd" clip-rule="evenodd" d="M112.795 499C110.45 499 108.432 498.864 106.796 498.673C104.478 498.428 102.761 496.328 102.979 493.956L105.324 470.315C105.351 470.015 105.569 469.797 105.842 469.769C106.114 469.715 106.387 469.879 106.496 470.151L107.341 472.36L108.759 470.587C109.005 469.66 110.041 468.897 110.995 468.979L114.267 469.279C114.867 469.333 115.44 469.688 115.74 470.206C115.758 470.242 115.776 470.269 115.794 470.288L116.558 472.142L117.512 470.397C117.621 470.206 117.839 470.069 118.058 470.069C118.303 470.069 118.494 470.206 118.603 470.424C121.357 475.986 124.847 487.875 126.211 492.729C126.538 493.901 126.347 495.156 125.693 496.192C125.038 497.228 123.975 497.937 122.775 498.155C119.094 498.782 115.713 499 112.795 499ZM106.278 472.987L104.206 494.092C104.042 495.783 105.269 497.282 106.932 497.473C110.477 497.855 116.067 498.073 122.557 496.955C123.429 496.792 124.193 496.274 124.656 495.537C125.12 494.801 125.256 493.901 125.011 493.056C123.757 488.53 120.648 477.868 118.003 472.033L117.021 473.86C116.912 474.078 116.694 474.187 116.449 474.187C116.203 474.16 116.013 474.023 115.903 473.805L114.676 470.806C114.567 470.642 114.376 470.533 114.158 470.506L110.886 470.206C110.532 470.178 109.986 470.615 109.932 470.969C109.914 471.078 109.868 471.178 109.796 471.269L107.641 473.941C107.505 474.132 107.287 474.214 107.069 474.16C106.851 474.132 106.66 473.996 106.578 473.778L106.278 472.987Z" fill="black"/>
<path d="M115.113 494.992C110.15 494.992 106.333 494.038 106.115 493.983C105.787 493.901 105.569 493.574 105.651 493.247C105.733 492.92 106.06 492.729 106.415 492.811C106.496 492.811 115.058 494.91 123.075 492.811C123.402 492.702 123.757 492.92 123.838 493.247C123.92 493.574 123.729 493.901 123.402 493.983C120.539 494.719 117.676 494.992 115.113 494.992Z" fill="black"/>
<path d="M118.058 485.775H110.259C109.932 485.775 109.659 485.502 109.659 485.148C109.659 484.821 109.932 484.548 110.259 484.548H118.058C118.385 484.548 118.657 484.821 118.657 485.148C118.657 485.502 118.385 485.775 118.058 485.775Z" fill="black"/>
<path d="M53.9247 448.854L51.3888 470.232L43.3994 469.96V448.854H53.9247Z" fill="white"/>
<path fill-rule="evenodd" clip-rule="evenodd" d="M51.3891 470.832L43.3724 470.56C43.0452 470.56 42.7998 470.287 42.7998 469.96V448.855C42.7998 448.5 43.0725 448.228 43.3997 448.228H53.925C54.0886 448.228 54.2522 448.309 54.3885 448.446C54.4976 448.582 54.5521 448.746 54.5249 448.909L52.0162 470.314C51.9617 470.614 51.7163 470.832 51.3891 470.832ZM44.0268 469.36L50.871 469.605L53.2433 449.455H44.0268V469.36Z" fill="black"/>
<path d="M53.2978 465.133C53.2978 465.133 54.3339 474.622 54.0067 478.439C53.7886 481.166 50.0256 489.428 47.926 493.9C47.0535 495.754 45.3902 496.927 43.5632 497.009C41.3 497.09 38.1915 497.227 35.6829 497.227C32.2199 497.227 29.8204 493.273 31.0747 489.619C32.1927 486.238 34.0196 481.984 36.8554 477.458C39.0096 474.049 42.1453 464.806 42.1453 464.806H48.6623L49.9438 470.232L53.2978 465.133Z" fill="white"/>
<path fill-rule="evenodd" clip-rule="evenodd" d="M35.6556 497.827C33.9923 497.827 32.4108 496.982 31.3473 495.536C30.1203 493.791 29.7931 491.501 30.4748 489.428C31.92 485.175 33.8832 481.03 36.3373 477.131C38.4369 473.831 41.5454 464.724 41.5727 464.615C41.6545 464.37 41.8726 464.206 42.1453 464.206H48.6622C48.9349 464.206 49.2076 464.397 49.2621 464.67L50.2165 468.705L52.7796 464.779C52.9432 464.561 53.1886 464.479 53.434 464.533C53.7067 464.588 53.8976 464.806 53.9249 465.051C53.9521 465.46 54.9337 474.65 54.6338 478.494C54.4157 481.166 51.1708 488.501 48.4713 494.173C47.517 496.218 45.6355 497.527 43.5905 497.609C41.3818 497.718 38.2187 497.827 35.6829 497.827C35.6829 497.827 35.6738 497.827 35.6556 497.827ZM42.5816 465.433C41.9271 467.287 39.3095 474.731 37.3735 477.785C34.9739 481.603 33.0379 485.666 31.6473 489.81C31.0747 491.528 31.3201 493.382 32.3562 494.8C33.1743 495.945 34.374 496.6 35.6556 496.6C35.6738 496.6 35.6829 496.6 35.6829 496.6C38.2187 496.6 41.3545 496.491 43.5359 496.382C45.1174 496.327 46.5899 495.264 47.3534 493.655C51.0345 485.856 53.2432 480.294 53.4068 478.385C53.6249 475.658 53.1341 469.796 52.8614 466.906L50.4619 470.559C50.3255 470.778 50.0801 470.887 49.8347 470.832C49.5893 470.778 49.3984 470.614 49.3439 470.369L48.1714 465.433H42.5816Z" fill="black"/>
<path d="M40.6455 493.765H33.2015C32.8742 493.765 32.6016 493.465 32.6016 493.138C32.6016 492.81 32.8742 492.538 33.2015 492.538C33.2196 492.538 33.2287 492.538 33.2287 492.538H40.6455C42.9905 492.538 45.1446 491.174 46.2353 488.966C49.7256 481.903 49.9164 481.74 50.0801 481.603C50.3527 481.385 50.7345 481.44 50.9526 481.685C51.1435 481.931 51.1162 482.285 50.9253 482.503C50.789 482.694 50.1619 483.758 47.326 489.511C46.0172 492.129 43.454 493.765 40.6455 493.765Z" fill="black"/>
<path d="M43.7811 486.047H36.637C36.3098 486.047 36.0371 485.747 36.0371 485.42C36.0371 485.093 36.3098 484.82 36.637 484.82H43.7811C44.1083 484.82 44.381 485.093 44.381 485.42C44.381 485.747 44.1083 486.047 43.7811 486.047Z" fill="black"/>
<path d="M130.382 280.941C130.382 280.941 129.537 346.193 126.81 388.675C124.056 431.158 118.657 463.634 118.657 463.634C118.657 463.634 109.332 466.988 103.224 465.215C103.224 465.215 98.1794 427.968 97.0342 415.37C95.8889 402.773 98.9429 396.528 99.1883 386.221C99.4337 375.914 94.7437 330.405 94.7437 330.405C94.7437 330.405 59.6504 433.285 55.6421 455.999C55.6421 455.999 47.1619 457.444 41.163 454.172C41.163 454.172 40.9721 413.707 41.8174 407.463C43.3989 395.874 52.4518 384.476 54.0606 372.179C55.6966 359.881 56.651 328.987 61.1228 310.472C65.5947 291.957 74.3749 271.152 74.3749 271.152L130.382 280.941Z" fill="black"/>
<path d="M70.6398 305.127C70.3944 305.127 70.149 304.991 70.0672 304.746C69.9308 304.446 70.0944 304.091 70.3944 303.955C81.7922 299.292 85.1461 288.167 85.1734 288.031C85.2824 287.731 85.6096 287.54 85.9368 287.622C86.2641 287.731 86.4549 288.058 86.3731 288.385C86.2095 288.876 82.8011 300.192 70.8579 305.1C70.7852 305.118 70.7125 305.127 70.6398 305.127Z" fill="white"/>
<path d="M60.0333 335.558C60.0151 335.558 59.9878 335.549 59.9515 335.531C59.6243 335.503 59.3789 335.176 59.4334 334.849C63.469 303.791 75.5758 283.041 75.7121 282.85C75.8757 282.55 76.2575 282.468 76.5574 282.632C76.8301 282.795 76.9391 283.177 76.7755 283.477C76.6392 283.668 64.6415 304.228 60.6332 335.013C60.6059 335.313 60.3332 335.558 60.0333 335.558Z" fill="white"/>
<path d="M196.861 190.768L203.869 183.488C205.042 182.233 207.059 183.624 206.296 185.178L204.142 189.623C204.142 189.623 205.614 190.305 206.35 190.359C207.932 190.441 209.486 189.759 210.577 188.614C211.858 187.278 213.931 185.151 214.64 184.633C215.676 183.842 217.012 182.642 218.484 182.533H218.539C220.093 182.424 221.102 184.115 220.257 185.424L217.339 189.95C215.212 193.222 212.104 195.758 208.45 197.121L198.988 200.721L198.279 227.661L186.009 218.281L191.517 200.475C192.635 196.903 194.434 193.604 196.861 190.768Z" fill="white"/>
<path fill-rule="evenodd" clip-rule="evenodd" d="M198.279 228.288C198.17 228.288 198.034 228.233 197.925 228.152L185.655 218.772C185.436 218.608 185.355 218.363 185.436 218.117L190.944 200.284C192.062 196.63 193.917 193.276 196.398 190.359C196.416 190.359 196.425 190.35 196.425 190.332L203.406 183.051C204.142 182.288 205.287 182.179 206.16 182.778C207.032 183.378 207.305 184.496 206.841 185.451L204.987 189.323C205.478 189.513 206.078 189.704 206.378 189.732C207.741 189.813 209.132 189.268 210.141 188.177C211.64 186.623 213.549 184.66 214.258 184.142C214.404 184.033 214.549 183.915 214.694 183.787C215.731 183.024 216.985 182.042 218.43 181.933C219.439 181.851 220.339 182.315 220.83 183.133C221.293 183.951 221.293 184.96 220.775 185.751L217.857 190.277C215.649 193.685 212.458 196.249 208.668 197.694L199.588 201.157L198.907 227.688C198.907 227.906 198.77 228.124 198.552 228.233C198.461 228.27 198.37 228.288 198.279 228.288ZM186.718 218.063L197.707 226.461L198.388 200.693C198.388 200.448 198.552 200.23 198.77 200.148L208.232 196.549C211.777 195.212 214.749 192.813 216.821 189.623L219.739 185.096C220.012 184.687 220.012 184.196 219.766 183.76C219.521 183.324 219.057 183.106 218.566 183.133C217.448 183.242 216.33 184.087 215.458 184.769C215.294 184.896 215.14 185.014 214.994 185.123C214.504 185.478 213.058 186.923 211.041 189.023C209.759 190.359 208.014 191.068 206.296 190.959C205.478 190.904 204.06 190.25 203.896 190.168C203.733 190.113 203.624 189.977 203.569 189.813C203.515 189.677 203.515 189.513 203.597 189.35L205.751 184.905C205.996 184.414 205.751 184.005 205.451 183.787C205.151 183.569 204.687 183.487 204.306 183.896L197.325 191.177C194.953 193.958 193.18 197.148 192.117 200.639L186.718 218.063Z" fill="black"/>
<path d="M183.527 212.581L214.148 236.849L200.487 251.001L174.528 229.378L183.527 212.581Z" fill="white"/>
<path fill-rule="evenodd" clip-rule="evenodd" d="M200.488 251.629C200.351 251.629 200.215 251.574 200.106 251.492L174.12 229.842C173.902 229.651 173.847 229.351 173.984 229.078L182.982 212.309C183.064 212.145 183.227 212.036 183.391 211.982C183.582 211.954 183.745 212.009 183.909 212.118L214.53 236.386C214.667 236.495 214.748 236.659 214.748 236.822C214.748 236.986 214.694 237.149 214.585 237.286L200.924 251.438C200.815 251.574 200.651 251.629 200.488 251.629ZM175.292 229.215L200.433 250.183L213.221 236.931L183.718 213.536L175.292 229.215Z" fill="black"/>
<path d="M136.764 208.846C136.764 208.846 115.85 205.847 95.2354 205.247C95.2354 205.247 69.3857 272.68 69.3857 277.206C69.3857 281.76 80.4291 287.595 95.2354 283.887C110.042 280.151 128.856 279.796 139.436 282.278C155.278 285.959 136.764 208.846 136.764 208.846Z" fill="white"/>
<path fill-rule="evenodd" clip-rule="evenodd" d="M85.9101 285.686C79.2841 285.686 74.2396 283.778 71.4855 281.624C69.7404 280.26 68.7861 278.679 68.7588 277.206C68.7588 272.598 93.5995 207.783 94.6629 205.029C94.7447 204.784 94.9902 204.62 95.2628 204.62C115.659 205.22 136.655 208.192 136.873 208.219C137.119 208.274 137.309 208.438 137.364 208.683C137.991 211.301 152.579 272.571 143.445 281.76C142.327 282.878 140.936 283.26 139.3 282.851C128.229 280.288 109.36 280.969 95.3719 284.459C91.9635 285.332 88.8004 285.686 85.9101 285.686ZM95.6446 205.874C88.3642 224.88 69.9858 273.607 69.9858 277.206C69.9858 278.297 70.8039 279.524 72.249 280.642C76.2846 283.805 84.9012 285.823 95.072 283.287C109.224 279.742 128.338 279.033 139.573 281.678C140.8 281.951 141.781 281.705 142.572 280.887C150.861 272.571 137.555 214.818 136.273 209.392C133.247 208.983 114.268 206.447 95.6446 205.874Z" fill="black"/>
<path d="M210.931 247.703L175.784 220.572C175.784 220.572 171.939 226.434 165.613 227.061C160.868 227.552 152.279 218.881 148.325 214.573C148.107 213.782 147.834 213.128 147.534 212.691C143.69 207.211 135.046 207.074 135.046 207.074C135.046 207.074 139.709 303.956 139.709 304.528C139.709 305.101 150.425 298.748 150.425 298.748L148.516 255.256C158.441 262.7 180.065 272.025 210.931 247.703Z" fill="white"/>
<path d="M149.443 277.097C149.116 277.097 148.843 276.851 148.843 276.524L147.916 255.283C147.889 255.037 148.025 254.819 148.244 254.71C148.434 254.601 148.707 254.601 148.898 254.764C158.796 262.181 179.847 271.07 209.95 247.729L175.893 221.444C174.748 222.97 171.121 227.142 165.695 227.688C160.787 228.179 152.416 219.944 147.889 214.981C147.816 214.908 147.762 214.827 147.725 214.736C147.526 213.99 147.298 213.427 147.044 213.045C143.99 208.737 137.718 207.892 135.701 207.728C135.946 212.936 137.582 246.911 138.836 273.143C138.864 273.47 138.591 273.77 138.264 273.77C137.909 273.797 137.637 273.552 137.609 273.197C136.246 244.703 134.419 207.101 134.419 207.101C134.419 206.937 134.473 206.774 134.61 206.665C134.719 206.528 134.882 206.474 135.046 206.474C135.428 206.474 144.044 206.692 148.025 212.363C148.353 212.8 148.625 213.427 148.871 214.272C156.288 222.343 162.395 226.788 165.558 226.461C171.503 225.861 175.238 220.298 175.266 220.244C175.348 220.107 175.511 219.998 175.675 219.971C175.838 219.944 176.029 219.998 176.166 220.107L211.313 247.239C211.477 247.348 211.559 247.511 211.559 247.702C211.559 247.893 211.477 248.084 211.313 248.193C181.265 271.861 159.832 263.981 149.198 256.482L150.07 276.469C150.07 276.797 149.825 277.069 149.471 277.097C149.471 277.097 149.462 277.097 149.443 277.097Z" fill="black"/>
<path d="M161.033 226.979L122.967 223.053C121.713 223.053 120.486 224.116 120.268 225.452L111.079 282.169C110.888 283.505 111.733 284.568 113.015 284.568L153.371 282.578C154.652 282.578 155.988 283.505 156.206 282.169L165.396 225.452C165.614 224.116 162.314 226.979 161.033 226.979Z" fill="black"/>
<path fill-rule="evenodd" clip-rule="evenodd" d="M113.042 285.168C112.224 285.168 111.542 284.868 111.051 284.296C110.56 283.723 110.342 282.905 110.478 282.06L119.668 225.343C119.94 223.707 121.385 222.453 122.967 222.453C123.003 222.453 123.031 222.453 123.049 222.453L161.06 226.352C161.469 226.352 162.45 225.78 163.105 225.398C164.359 224.662 165.095 224.226 165.668 224.635C165.832 224.744 166.077 225.016 165.995 225.534L156.806 282.278C156.733 282.733 156.542 283.069 156.233 283.287C155.715 283.641 155.061 283.478 154.406 283.341C154.052 283.287 153.697 283.205 153.37 283.205L113.042 285.168ZM122.94 223.68C121.985 223.68 121.058 224.525 120.895 225.534L111.705 282.278C111.624 282.742 111.733 283.178 112.005 283.505C112.251 283.805 112.605 283.941 113.014 283.941L153.343 281.978C153.834 281.978 154.27 282.06 154.679 282.142C154.952 282.224 155.415 282.305 155.552 282.251C155.552 282.251 155.579 282.224 155.606 282.06L164.686 225.916C164.386 226.08 164.005 226.271 163.732 226.461C162.723 227.034 161.769 227.579 161.032 227.579C161.014 227.579 160.996 227.579 160.978 227.579L122.94 223.68Z" fill="black"/>
<path d="M164.713 223.053H124.248C122.967 223.053 121.767 224.116 121.549 225.452L112.359 282.169C112.141 283.505 112.987 284.568 114.268 284.568H154.76C156.042 284.568 157.242 283.505 157.46 282.169L166.649 225.452C166.867 224.116 165.995 223.053 164.713 223.053Z" fill="white"/>
<path fill-rule="evenodd" clip-rule="evenodd" d="M154.761 285.168H114.269C113.505 285.168 112.796 284.868 112.333 284.296C111.815 283.723 111.624 282.905 111.733 282.06L120.922 225.343C121.195 223.707 122.64 222.453 124.248 222.453H164.714C165.504 222.453 166.213 222.753 166.677 223.326C167.168 223.898 167.386 224.716 167.249 225.534L158.06 282.278C157.815 283.887 156.342 285.168 154.761 285.168ZM124.248 223.68C123.267 223.68 122.313 224.525 122.149 225.534L112.96 282.278C112.878 282.742 112.987 283.178 113.26 283.505C113.505 283.805 113.86 283.941 114.269 283.941H154.761C155.743 283.941 156.697 283.096 156.86 282.06L166.05 225.343C166.131 224.88 166.022 224.444 165.75 224.116C165.504 223.816 165.15 223.68 164.714 223.68H124.248Z" fill="black"/>
<path d="M115.223 248.738L115.659 254.083L131.883 251.138C131.883 251.138 132.265 251.656 132.483 252.528C132.783 253.674 132.81 255.446 131.338 257.3C130.629 258.173 127.821 258.2 128.039 259.945C128.23 261.472 121.903 262.672 116.423 263.681C110.288 264.826 110.806 256.073 112.305 251.601C113.505 248.111 115.223 248.738 115.223 248.738Z" fill="white"/>
<path fill-rule="evenodd" clip-rule="evenodd" d="M115.386 264.39C113.805 264.39 112.796 263.681 112.223 263.027C109.906 260.327 110.696 254.465 111.733 251.411C112.278 249.802 113.041 248.738 113.941 248.302C114.732 247.92 115.386 248.138 115.441 248.166C115.659 248.248 115.823 248.438 115.85 248.684L116.232 253.347L131.774 250.511C132.02 250.483 132.238 250.593 132.374 250.783C132.401 250.811 132.838 251.411 133.083 252.365C133.41 253.647 133.465 255.61 131.801 257.682C131.447 258.118 130.847 258.364 130.193 258.609C128.993 259.073 128.584 259.318 128.638 259.864C128.884 261.772 124.957 262.727 116.532 264.281C116.114 264.354 115.732 264.39 115.386 264.39ZM114.677 249.338C114.187 249.475 113.478 250.102 112.905 251.792C111.869 254.819 111.269 260.054 113.15 262.209C113.887 263.054 114.923 263.327 116.314 263.081C119.804 262.427 127.111 261.063 127.439 260C127.248 258.446 128.747 257.846 129.756 257.464C130.193 257.3 130.711 257.11 130.847 256.919C132.183 255.255 132.156 253.701 131.883 252.692C131.801 252.31 131.665 252.01 131.556 251.82L115.768 254.683C115.605 254.71 115.441 254.655 115.305 254.546C115.168 254.465 115.086 254.301 115.059 254.11L114.677 249.338Z" fill="black"/>
<path d="M59.8975 254.819C61.2881 266.272 67.3415 276.797 81.4661 279.933C99.19 283.859 113.205 263.463 113.205 263.463L109.961 258.528C109.961 258.528 93.8183 261.8 86.3742 258.528C77.8122 254.765 75.958 244.785 76.3398 235.596L59.8975 254.819Z" fill="white"/>
<path d="M85.9919 281.05C84.4649 281.05 82.9106 280.887 81.3291 280.532C62.6781 276.415 59.3242 260.3 58.997 251.056C58.9697 250.701 59.2424 250.429 59.5696 250.402C59.9241 250.402 60.1968 250.674 60.1968 251.001C60.524 259.891 63.7416 275.379 81.6018 279.332C97.4988 282.85 110.56 266.053 112.469 263.463L109.66 259.209C107.042 259.7 93.1087 262.154 86.1282 259.1C79.6113 256.209 76.0937 249.638 75.712 239.576C75.6847 239.222 75.9574 238.949 76.2846 238.922C76.6391 238.922 76.9118 239.195 76.939 239.522C77.2935 249.093 80.5656 255.31 86.6463 257.955C93.8176 261.118 109.687 257.955 109.824 257.927C110.069 257.873 110.342 257.982 110.478 258.2L113.723 263.135C113.859 263.354 113.859 263.626 113.723 263.817C113.587 264.008 101.671 281.05 85.9919 281.05Z" fill="black"/>
<path d="M117.595 180.324C118.004 180.57 118.522 180.406 118.685 179.97C119.531 177.898 120.894 173.889 123.648 173.262C127.165 172.444 132.892 171.381 133.382 174.189C133.819 176.643 133.301 180.87 135.891 183.924C136.136 184.224 135.918 184.687 135.618 184.905L133.982 186.269C133.655 186.541 133.355 187.414 133.328 187.85C133.192 189.159 133.028 191.995 132.564 192.349C131.665 193.086 127.193 192.786 127.193 192.786L123.621 205.111C123.484 205.574 123.757 206.065 124.221 206.201L128.474 207.646C128.474 207.646 125.066 212.446 114.377 211.709C107.533 211.246 102.516 206.447 102.516 206.447C102.516 206.447 115.822 204.538 117.622 188.832C117.649 188.477 117.513 188.15 117.24 187.932C116.177 187.141 113.314 184.796 113.804 182.424C114.35 179.888 116.231 179.506 117.595 180.324Z" fill="white"/>
<path fill-rule="evenodd" clip-rule="evenodd" d="M116.531 212.391C115.822 212.409 115.086 212.391 114.323 212.336C107.342 211.846 102.325 207.074 102.107 206.883C101.943 206.719 101.861 206.474 101.943 206.256C102.025 206.038 102.216 205.874 102.434 205.819C102.952 205.765 115.277 203.802 116.995 188.777C117.022 188.641 116.968 188.505 116.859 188.423C115.277 187.223 112.687 184.851 113.205 182.288C113.559 180.57 114.459 179.861 115.141 179.561C116.013 179.179 117.022 179.261 117.922 179.806C117.977 179.833 118.004 179.833 118.031 179.806C118.058 179.806 118.113 179.779 118.14 179.724L118.358 179.152C119.285 176.834 120.676 173.317 123.512 172.662C126.593 171.953 130.929 171.162 132.919 172.471C133.519 172.853 133.874 173.398 133.983 174.08C134.092 174.734 134.146 175.471 134.201 176.261C134.364 178.552 134.555 181.388 136.355 183.515C136.546 183.76 136.628 184.06 136.6 184.36C136.546 184.742 136.328 185.151 135.973 185.396L134.392 186.759C134.228 186.896 133.955 187.523 133.928 187.905C133.91 188.105 133.892 188.341 133.874 188.614C133.628 191.259 133.464 192.431 132.946 192.84C132.047 193.549 129.102 193.495 127.656 193.44L124.194 205.301C124.166 205.383 124.194 205.438 124.221 205.492C124.248 205.519 124.303 205.574 124.384 205.601L128.693 207.074C128.856 207.128 129.02 207.265 129.074 207.456C129.129 207.646 129.102 207.837 128.993 208.001C128.856 208.192 125.721 212.391 116.531 212.391ZM103.852 206.747C105.57 208.11 109.524 210.782 114.404 211.109C122.258 211.655 126.048 209.119 127.384 207.919L124.03 206.774C123.675 206.692 123.348 206.447 123.157 206.092C122.966 205.738 122.912 205.329 123.021 204.947L126.62 192.622C126.702 192.349 126.948 192.158 127.247 192.186C129.238 192.295 131.638 192.213 132.156 191.913C132.374 191.477 132.565 189.404 132.646 188.505C132.665 188.232 132.683 187.996 132.701 187.796C132.756 187.305 133.083 186.214 133.628 185.805L135.21 184.442C135.291 184.387 135.346 184.305 135.373 184.251C133.355 181.824 133.137 178.797 132.974 176.343C132.946 175.58 132.892 174.871 132.783 174.298C132.728 173.944 132.537 173.698 132.237 173.48C131.065 172.717 128.229 172.826 123.785 173.862C121.576 174.353 120.322 177.516 119.504 179.615L119.258 180.188C119.122 180.57 118.822 180.842 118.44 180.979C118.058 181.115 117.649 181.061 117.295 180.842C116.749 180.515 116.122 180.461 115.632 180.679C115.032 180.951 114.623 181.579 114.404 182.533C113.995 184.496 116.504 186.623 117.595 187.441C118.058 187.796 118.276 188.341 118.222 188.914C116.722 202.029 107.288 205.819 103.852 206.747Z" fill="black"/>
<path d="M458.165 394.646L460.401 410.462L466.182 410.489L466.454 394.919L458.165 394.646Z" fill="white"/>
<path fill-rule="evenodd" clip-rule="evenodd" d="M466.182 411.089H460.401C460.101 411.062 459.856 410.844 459.801 410.544L457.538 394.728C457.511 394.538 457.565 394.374 457.702 394.238C457.811 394.101 458.002 394.02 458.165 394.02L466.455 394.319C466.809 394.319 467.054 394.592 467.054 394.919L466.782 410.489C466.782 410.844 466.509 411.089 466.182 411.089ZM460.947 409.862H465.582L465.827 395.519L458.874 395.274L460.947 409.862Z" fill="black"/>
<path d="M460.209 425.596C462.472 425.841 465.853 425.923 470.352 425.542C471.961 425.405 473.107 423.905 472.834 422.297C472.125 418.016 470.189 410.435 467.108 406.972L465.581 409.126L464.681 406.891C464.545 406.645 460.727 406.482 460.645 406.945L460.4 409.126L458.246 406.7L458.355 414.689C458.373 415.562 458.291 416.434 458.109 417.307L457.537 420.061C457.182 421.724 457.619 423.496 458.791 424.723C459.227 425.214 459.745 425.542 460.209 425.596Z" fill="white"/>
<path fill-rule="evenodd" clip-rule="evenodd" d="M464.6 426.414C462.691 426.414 461.219 426.305 460.155 426.196C459.555 426.141 458.928 425.759 458.328 425.132C457.074 423.796 456.556 421.833 456.938 419.951L457.51 417.17C457.674 416.352 457.756 415.534 457.756 414.689L457.619 406.699C457.619 406.454 457.783 406.208 458.001 406.127C458.246 406.018 458.519 406.099 458.683 406.29L459.937 407.681L460.019 406.863C460.128 406.29 460.755 406.181 460.946 406.127C461.164 406.099 464.763 405.799 465.2 406.563C465.218 406.599 465.236 406.627 465.254 406.645L465.745 407.844L466.617 406.617C466.727 406.454 466.89 406.345 467.081 406.345C467.272 406.345 467.436 406.399 467.572 406.563C471.526 411.035 473.244 421.069 473.434 422.214C473.598 423.142 473.353 424.096 472.753 424.859C472.18 425.596 471.335 426.059 470.408 426.141C468.145 426.332 466.209 426.414 464.6 426.414ZM460.264 424.996C462.2 425.187 465.5 425.35 470.299 424.914C470.898 424.859 471.417 424.587 471.798 424.096C472.18 423.632 472.316 423.005 472.235 422.405C471.607 418.642 469.89 411.635 467.136 407.981L466.099 409.481C465.963 409.671 465.745 409.753 465.527 409.726C465.281 409.699 465.091 409.562 465.009 409.344L464.218 407.381C463.564 407.245 461.873 407.217 461.219 407.326L461.028 409.181C461 409.426 460.837 409.644 460.591 409.699C460.373 409.78 460.101 409.726 459.937 409.535L458.874 408.335L458.955 414.661C458.983 415.588 458.901 416.516 458.71 417.415L458.137 420.197C457.837 421.696 458.219 423.251 459.228 424.314C459.61 424.696 459.992 424.941 460.264 424.996Z" fill="black"/>
<path d="M464.326 423.605C461.818 423.605 460.236 423.278 460.154 423.278C459.8 423.196 459.609 422.869 459.664 422.542C459.745 422.214 460.045 421.996 460.4 422.051C460.427 422.078 464.381 422.842 469.916 421.86C470.243 421.805 470.571 422.023 470.625 422.378C470.68 422.705 470.461 423.032 470.134 423.087C467.898 423.469 465.935 423.605 464.326 423.605Z" fill="black"/>
<path d="M467.736 417.524H462.5C462.146 417.524 461.873 417.251 461.873 416.924C461.873 416.57 462.146 416.297 462.5 416.297H467.736C468.063 416.297 468.335 416.57 468.335 416.924C468.335 417.251 468.063 417.524 467.736 417.524Z" fill="black"/>
<path d="M416.745 396.064L414.727 414.497L406.983 416.133L407.447 394.482L416.745 396.064Z" fill="white"/>
<path fill-rule="evenodd" clip-rule="evenodd" d="M406.984 416.733C406.82 416.733 406.684 416.679 406.575 416.597C406.438 416.46 406.356 416.297 406.356 416.106L406.82 394.483C406.847 394.292 406.929 394.128 407.065 394.019C407.202 393.91 407.365 393.856 407.556 393.883L416.854 395.437C417.182 395.492 417.4 395.792 417.373 396.119L415.327 414.552C415.3 414.824 415.109 415.043 414.864 415.097L407.093 416.733C407.056 416.733 407.02 416.733 406.984 416.733ZM408.047 395.219L407.611 415.37L414.182 413.979L416.091 396.555L408.047 395.219Z" fill="black"/>
<path d="M417.999 423.277C418.19 420.06 418.19 414.115 416.227 411.225L410.01 413.434V412.125C410.01 411.688 409.71 411.334 409.328 411.307L405.865 411.116C404.556 411.034 403.275 411.307 402.102 411.907C398.612 413.597 388.032 417.987 386.56 422.923C386.123 424.395 387.268 425.84 388.795 425.868C392.258 425.977 400.657 426.086 415.681 425.568C416.936 425.54 417.944 424.531 417.999 423.277Z" fill="white"/>
<path fill-rule="evenodd" clip-rule="evenodd" d="M395.749 426.577C392.531 426.577 390.268 426.549 388.768 426.495C387.841 426.468 386.969 426.004 386.423 425.241C385.878 424.504 385.714 423.605 385.987 422.759C387.35 418.151 395.776 414.197 400.302 412.07C400.902 411.798 401.42 411.552 401.829 411.334C403.111 410.707 404.502 410.434 405.892 410.516L409.355 410.707C410.064 410.762 410.637 411.361 410.637 412.125V412.588L416.008 410.652C416.281 410.571 416.554 410.652 416.717 410.898C418.79 413.897 418.79 419.978 418.626 423.332C418.544 424.913 417.29 426.14 415.709 426.195C406.874 426.495 400.357 426.577 395.749 426.577ZM405.429 411.716C404.393 411.716 403.329 411.961 402.375 412.452C401.938 412.643 401.42 412.888 400.82 413.188C396.785 415.07 388.359 419.024 387.159 423.114C386.996 423.577 387.105 424.095 387.405 424.532C387.732 424.968 388.25 425.241 388.796 425.268C392.449 425.377 400.793 425.486 415.654 424.968C416.608 424.941 417.345 424.204 417.399 423.25C417.672 418.151 417.154 414.088 415.954 411.989L410.228 414.034C410.037 414.088 409.819 414.061 409.655 413.952C409.492 413.843 409.41 413.652 409.41 413.434V412.125C409.41 412.016 409.328 411.934 409.273 411.934L405.81 411.743C405.683 411.725 405.556 411.716 405.429 411.716Z" fill="black"/>
<path d="M398.122 423.522C393.514 423.522 390.596 423.304 390.541 423.304C390.187 423.277 389.942 422.977 389.969 422.65C389.996 422.295 390.296 422.05 390.623 422.077C390.732 422.077 401.667 422.868 414.864 421.341C415.191 421.314 415.491 421.559 415.546 421.886C415.573 422.213 415.328 422.513 415 422.568C408.484 423.331 402.539 423.522 398.122 423.522Z" fill="black"/>
<path d="M400.057 418.233C399.866 418.233 399.675 418.151 399.566 417.987C399.348 417.715 399.43 417.333 399.703 417.115L405.674 412.834C405.947 412.616 406.329 412.697 406.519 412.97C406.738 413.243 406.656 413.625 406.383 413.815L400.412 418.124C400.302 418.206 400.193 418.233 400.057 418.233Z" fill="black"/>
<path d="M414.345 267.171C414.345 267.171 403.22 352.655 405.593 403.59L409.056 403.945C410.928 404.127 412.8 404.172 414.673 404.081L417.972 403.917C417.972 403.917 431.224 317.37 437.85 304.527C437.85 304.527 455.847 382.485 456.556 401.136C456.556 401.136 464.545 401.927 467.735 400.782C469.453 382.812 469.944 355 470.026 343.302C470.271 309.872 467.081 294.656 465.336 287.458C463.727 280.832 462.009 275.46 460.728 271.834L456.528 259.809L414.345 267.171Z" fill="black"/>
<path d="M437.659 306.381C437.359 306.381 437.114 306.163 437.059 305.863L436.023 300.137C435.587 298.583 434.305 297.383 432.697 297.056L430.952 296.674C430.624 296.619 430.406 296.292 430.488 295.965C430.542 295.638 430.87 295.42 431.197 295.474L432.942 295.856C435.014 296.265 436.65 297.819 437.223 299.864L438.259 305.645C438.314 305.999 438.096 306.299 437.768 306.381C437.732 306.381 437.696 306.381 437.659 306.381Z" fill="white"/>
<path d="M460.482 296.565C460.445 296.565 460.409 296.556 460.373 296.538C450.011 294.82 447.884 286.585 447.884 286.503C447.802 286.149 447.993 285.822 448.32 285.74C448.648 285.658 448.975 285.876 449.057 286.203C449.138 286.503 451.047 293.757 460.564 295.338C460.918 295.393 461.136 295.72 461.082 296.047C461.027 296.347 460.782 296.565 460.482 296.565Z" fill="white"/>
<path d="M413.828 289.803C413.61 289.803 413.364 289.666 413.282 289.448C413.146 289.121 413.282 288.766 413.582 288.63C418.9 286.312 418.818 281.486 418.818 281.295C418.791 280.968 419.063 280.668 419.39 280.668C419.745 280.668 420.018 280.913 420.018 281.241C420.045 281.295 420.181 287.103 414.073 289.748C414.001 289.784 413.919 289.803 413.828 289.803Z" fill="white"/>
<path d="M466.536 274.369C467.545 277.832 469.126 282.604 467.381 284.894C464.191 289.066 461.546 288.412 457.592 286.967C449.739 284.104 437.169 279.577 433.488 282.086L433.324 274.369H466.536Z" fill="black"/>
<path d="M473.053 230.114L471.254 222.125C467.545 207.291 457.565 200.474 444.695 200.42L421.381 200.311C414.837 200.283 408.865 203.965 406.002 209.827C402.676 216.589 398.013 234.313 397.822 242.03C397.495 255.555 409.356 256.318 409.711 256.345C409.656 256.754 408.293 271.424 408.184 274.042C407.966 278.814 416.828 286.258 426.998 282.604C437.087 278.95 464.709 271.67 467.518 277.86H467.545L455.956 234.859L465.473 235.322L473.217 230.823L473.053 230.114Z" fill="white"/>
<path fill-rule="evenodd" clip-rule="evenodd" d="M421.491 284.186C418.082 284.186 414.756 283.122 411.974 281.077C409.166 279.032 407.475 276.305 407.557 274.015C407.666 271.752 408.729 260.272 409.029 256.891C406.384 256.536 396.923 254.41 397.195 242.03C397.386 234.095 402.212 216.181 405.457 209.555C408.375 203.556 414.592 199.711 421.3 199.711C421.318 199.711 421.345 199.711 421.382 199.711L444.695 199.793C458.656 199.875 468.282 207.755 471.854 221.988L473.653 229.978L473.817 230.687C473.872 230.96 473.762 231.232 473.544 231.369L465.773 235.84C465.682 235.895 465.582 235.922 465.473 235.922L456.748 235.513L468.145 277.696C468.227 277.996 468.036 278.35 467.736 278.432C467.436 278.541 467.109 278.405 466.973 278.132C464.628 272.952 439.46 278.732 427.19 283.177C425.335 283.831 423.399 284.186 421.491 284.186ZM421.3 200.911C415.055 200.911 409.275 204.51 406.548 210.1C403.358 216.617 398.613 234.259 398.422 242.057C398.122 254.928 409.247 255.718 409.738 255.718C409.902 255.746 410.065 255.828 410.175 255.937C410.284 256.073 410.338 256.264 410.311 256.427V256.509C410.065 259.018 408.893 271.697 408.784 274.069C408.702 275.924 410.229 278.296 412.683 280.096C416.692 283.04 421.954 283.749 426.78 282.004C432.316 280.014 458.847 271.943 466.373 275.924L455.357 235.022C455.302 234.832 455.357 234.613 455.493 234.45C455.63 234.313 455.82 234.232 456.039 234.259L465.337 234.695L472.535 230.523L470.681 222.261C467.191 208.437 458.22 201.102 444.695 201.02L421.382 200.911C421.345 200.911 421.318 200.911 421.3 200.911Z" fill="black"/>
<path d="M451.893 233.468C453.666 233.141 453.175 231.096 459.419 230.714C477.443 229.651 468.717 220.489 458.383 222.234C454.975 222.807 453.611 225.015 452.33 225.588C441.532 230.305 448.349 234.123 451.893 233.468Z" fill="white"/>
<path fill-rule="evenodd" clip-rule="evenodd" d="M451.021 234.15C448.948 234.15 446.522 233.087 445.976 231.342C445.54 229.869 446.222 227.579 452.084 225.015C452.411 224.879 452.82 224.552 453.257 224.17C454.32 223.27 455.793 222.043 458.274 221.634C463.537 220.734 468.118 222.507 469.754 224.634C470.49 225.588 470.653 226.624 470.217 227.551C469.263 229.651 465.527 230.96 459.446 231.314C455.465 231.56 454.402 232.487 453.638 233.168C453.202 233.55 452.739 233.932 452.002 234.068C451.693 234.123 451.366 234.15 451.021 234.15ZM460.973 222.616C460.155 222.616 459.337 222.698 458.492 222.834C456.338 223.188 455.056 224.252 454.048 225.097C453.529 225.561 453.066 225.943 452.575 226.133C447.067 228.533 446.958 230.333 447.149 230.987C447.558 232.323 450.094 233.168 451.757 232.868C452.193 232.787 452.439 232.596 452.82 232.241C453.748 231.451 454.975 230.36 459.392 230.114C467.327 229.624 468.827 227.633 469.099 227.033C469.345 226.515 469.236 225.97 468.772 225.37C467.627 223.897 464.546 222.616 460.973 222.616Z" fill="black"/>
<path d="M429.178 202.847C428.578 202.329 428.906 201.348 429.696 201.238L430.923 201.102C432.232 200.938 433.323 200.066 433.759 198.866L435.75 184.005L439.894 185.478L445.348 182.778L444.857 198.648C444.912 200.039 445.811 201.266 447.148 201.757L448.729 202.302C449.574 202.602 449.629 203.747 448.811 204.102C445.566 205.519 432.341 205.547 429.178 202.847Z" fill="white"/>
<path fill-rule="evenodd" clip-rule="evenodd" d="M440.822 205.655C436.023 205.655 430.76 204.974 428.797 203.31C428.333 202.901 428.142 202.301 428.333 201.729C428.497 201.129 428.988 200.72 429.615 200.638L430.842 200.502C431.878 200.365 432.778 199.684 433.159 198.702L435.15 183.923C435.177 183.732 435.286 183.569 435.45 183.46C435.614 183.378 435.804 183.35 435.968 183.405L439.84 184.796L445.075 182.205C445.266 182.123 445.512 182.123 445.675 182.26C445.866 182.369 445.975 182.56 445.975 182.778L445.484 198.675C445.512 199.766 446.248 200.774 447.339 201.156L448.947 201.729C449.575 201.947 449.984 202.52 450.011 203.174C450.038 203.828 449.656 204.401 449.056 204.674C447.639 205.274 444.366 205.655 440.822 205.655ZM429.587 202.383C432.423 204.783 445.266 204.974 448.566 203.556C448.757 203.447 448.784 203.283 448.784 203.201C448.784 203.147 448.757 202.956 448.538 202.901L446.93 202.329C445.348 201.756 444.312 200.311 444.257 198.675L444.721 183.759L440.167 186.023C440.004 186.077 439.84 186.104 439.676 186.05L436.268 184.823L434.359 198.947C434.359 198.984 434.35 199.02 434.332 199.057C433.814 200.502 432.532 201.511 430.978 201.702L429.751 201.865C429.587 201.892 429.506 202.029 429.506 202.083C429.478 202.138 429.451 202.274 429.587 202.383Z" fill="black"/>
<path d="M433.923 172.171C426.888 174.761 428.115 179.315 428.115 179.315C428.196 180.569 428.251 182.86 428.005 183.678C427.815 184.387 426.697 185.668 426.642 186.05C426.588 186.432 427.187 187.222 428.414 187.495C428.414 187.495 428.878 193.576 430.46 194.585C432.068 195.566 438.204 193.658 438.204 193.658L439.24 193.249C442.566 191.912 444.611 189.131 445.566 185.695C445.566 185.695 450.065 166.226 433.923 172.171Z" fill="white"/>
<path fill-rule="evenodd" clip-rule="evenodd" d="M431.986 195.457C431.223 195.457 430.568 195.348 430.132 195.103C428.551 194.094 427.978 189.622 427.842 187.959C426.587 187.523 425.933 186.65 426.042 185.968C426.069 185.668 426.287 185.341 426.696 184.741C426.969 184.332 427.351 183.787 427.405 183.514C427.596 182.887 427.596 180.897 427.487 179.397C427.378 178.742 426.751 174.162 433.704 171.598C438.285 169.908 441.748 170.044 443.984 172.035C448.401 175.907 446.275 185.423 446.165 185.832C445.075 189.731 442.757 192.485 439.458 193.821L438.421 194.23C437.603 194.476 434.304 195.457 431.986 195.457ZM427.269 186.105C427.351 186.296 427.76 186.705 428.551 186.895C428.796 186.95 429.014 187.168 429.014 187.441C429.205 189.84 429.887 193.467 430.787 194.04C431.741 194.639 435.586 193.821 438.012 193.058L439.021 192.676C441.939 191.504 443.984 189.022 444.993 185.532C444.993 185.478 447.038 176.343 443.166 172.934C441.285 171.298 438.258 171.217 434.14 172.744C427.705 175.116 428.687 179.124 428.687 179.151C428.705 179.188 428.714 179.224 428.714 179.261C428.769 180.188 428.878 182.833 428.605 183.869C428.469 184.332 428.087 184.878 427.705 185.423C427.569 185.641 427.351 185.968 427.269 186.105Z" fill="black"/>
<path d="M436.241 168.872C434.387 169.335 432.587 170.48 431.633 170.59C430.078 170.753 428.988 168.763 427.024 169.499C425.306 170.126 424.352 171.571 424.107 173.207C424.07 173.48 424.061 173.771 424.079 174.08C424.461 178.252 427.052 179.124 428.115 179.315C428.115 179.315 434.223 178.743 435.395 179.042C436.513 179.315 438.231 181.033 438.749 183.514C438.831 183.814 439.104 184.06 439.431 184.087C439.813 184.114 440.167 183.842 440.222 183.46C440.44 182.287 440.985 179.915 442.185 179.861C443.603 179.779 445.375 182.533 443.548 184.278C442.976 184.823 443.167 185.778 443.903 186.078C444.503 186.323 445.239 186.323 446.057 185.669C446.057 185.669 449.684 179.342 447.938 173.971C446.221 168.626 438.695 168.272 436.241 168.872Z" fill="black"/>
<path d="M426.425 186.214C426.261 186.214 426.125 186.16 426.016 186.051C425.389 185.478 424.98 184.387 424.925 183.133C424.87 182.288 425.007 181.497 425.252 180.842C425.607 180.079 426.098 179.643 426.725 179.615C427.679 179.561 428.47 180.543 428.77 182.097C428.852 182.424 428.633 182.751 428.279 182.806C427.952 182.86 427.652 182.642 427.57 182.315C427.379 181.251 426.943 180.842 426.779 180.842C426.725 180.842 426.534 180.979 426.397 181.333C426.207 181.797 426.098 182.424 426.152 183.078C426.207 184.115 426.534 184.851 426.834 185.151C427.079 185.369 427.106 185.751 426.861 185.996C426.752 186.132 426.588 186.214 426.425 186.214Z" fill="black"/>
<path fill-rule="evenodd" clip-rule="evenodd" d="M431.223 186.623C429.887 186.623 428.797 185.123 428.687 183.187C428.66 182.287 428.824 181.442 429.206 180.761C429.615 179.997 430.242 179.561 430.951 179.533C432.287 179.452 433.459 180.951 433.568 182.942C433.596 183.842 433.432 184.687 433.05 185.369C432.641 186.132 432.014 186.568 431.305 186.596C431.287 186.614 431.26 186.623 431.223 186.623ZM431.032 180.733C431.032 180.733 431.023 180.733 431.005 180.733C430.733 180.76 430.487 180.979 430.269 181.36C430.024 181.824 429.887 182.478 429.915 183.133C429.996 184.442 430.678 185.423 431.251 185.396C431.523 185.369 431.769 185.151 431.987 184.769C432.232 184.305 432.369 183.651 432.341 182.996C432.26 181.688 431.605 180.733 431.032 180.733Z" fill="black"/>
<path d="M432.724 182.288C432.424 182.288 432.151 182.043 432.124 181.743C432.097 181.388 432.342 181.088 432.669 181.061L439.405 180.461C439.732 180.434 440.032 180.679 440.059 181.034C440.086 181.361 439.841 181.661 439.514 181.688L432.779 182.288C432.76 182.288 432.742 182.288 432.724 182.288Z" fill="black"/>
<path d="M443.441 211.054C443.441 211.054 440.823 215.145 438.478 214.408C437.224 214.027 436.024 209.991 435.533 209.855C433.952 209.391 430.952 208.628 429.098 205.356C427.38 202.274 427.762 200.611 428.198 199.875C428.389 199.52 428.389 199.084 428.171 198.757C427.844 198.266 427.517 197.53 427.844 196.766C427.98 196.494 427.953 196.194 427.844 195.921C427.408 194.912 426.59 192.567 428.171 192.104C428.607 191.967 429.071 192.131 429.316 192.485C429.807 193.194 430.871 194.476 432.152 195.294C433.979 196.466 435.07 197.257 435.997 197.775C436.788 198.239 437.197 194.312 439.078 192.84C440.769 191.531 441.341 192.185 441.505 192.812C441.669 193.412 440.632 193.658 440.033 196.575C439.351 200.011 440.06 202.901 440.278 204.428C440.523 206.228 443.441 211.054 443.441 211.054Z" fill="white"/>
<path fill-rule="evenodd" clip-rule="evenodd" d="M439.051 215.117C438.796 215.117 438.542 215.081 438.287 215.008C437.333 214.708 436.651 213.345 435.833 211.599C435.642 211.163 435.37 210.618 435.233 210.4L435.151 210.372C433.515 209.909 430.461 209.036 428.553 205.628C426.753 202.41 427.08 200.556 427.653 199.547C427.762 199.411 427.762 199.22 427.653 199.084C427.08 198.211 426.944 197.311 427.298 196.52C427.326 196.411 427.326 196.275 427.271 196.166C426.808 195.075 426.344 193.521 426.835 192.485C427.053 191.994 427.462 191.667 428.007 191.503C428.662 191.312 429.398 191.558 429.807 192.13C430.298 192.785 431.279 194.012 432.479 194.775C433.297 195.293 433.952 195.73 434.524 196.111C435.097 196.493 435.588 196.82 436.024 197.093C436.16 196.848 436.324 196.411 436.46 196.057C436.924 194.884 437.551 193.248 438.696 192.349C439.678 191.585 440.496 191.312 441.15 191.531C441.614 191.694 441.941 192.076 442.105 192.648C442.241 193.139 441.996 193.521 441.75 193.876C441.45 194.339 440.987 195.048 440.632 196.711C440.087 199.465 440.496 201.892 440.741 203.474C440.796 203.801 440.841 204.092 440.878 204.346C441.068 205.737 443.168 209.418 443.959 210.727C444.068 210.918 444.068 211.163 443.959 211.381C443.686 211.79 441.477 215.117 439.051 215.117ZM428.471 192.676C428.435 192.676 428.389 192.676 428.335 192.676C428.144 192.73 428.035 192.839 427.953 193.003C427.735 193.467 427.898 194.503 428.416 195.675C428.58 196.111 428.58 196.602 428.416 197.011C428.235 197.411 428.316 197.875 428.662 198.402C429.016 198.92 429.043 199.629 428.716 200.174C428.362 200.774 428.035 202.192 429.643 205.055C431.279 208 433.924 208.736 435.506 209.2L435.697 209.254C436.16 209.391 436.406 209.936 436.951 211.081C437.333 211.927 438.151 213.672 438.642 213.835C440.06 214.272 441.914 212.145 442.705 211.027C441.996 209.827 439.896 206.173 439.678 204.51C439.641 204.274 439.596 204.001 439.542 203.692C439.269 202.001 438.833 199.438 439.432 196.466C439.814 194.584 440.387 193.712 440.714 193.221C440.796 193.112 440.878 193.003 440.905 192.921C440.878 192.867 440.823 192.73 440.741 192.703C440.714 192.676 440.387 192.594 439.46 193.33C438.587 194.012 438.015 195.457 437.606 196.493C437.197 197.557 436.951 198.184 436.406 198.375C436.16 198.456 435.915 198.456 435.697 198.32C435.151 198.02 434.579 197.611 433.843 197.12C433.27 196.766 432.616 196.33 431.825 195.812C430.461 194.939 429.343 193.576 428.825 192.839C428.744 192.73 428.607 192.676 428.471 192.676Z" fill="black"/>
<path d="M434.825 212.854L442.733 207.81C442.733 207.81 453.449 225.124 461.547 230.987C465.501 233.85 473.163 230.496 473.163 230.496C473.163 230.496 480.498 258.745 466.319 262.781C442.678 269.489 434.825 212.854 434.825 212.854Z" fill="white"/>
<path d="M462.501 263.953C459.856 263.953 457.293 263.162 454.866 261.581C439.76 251.71 434.443 214.517 434.225 212.936C434.17 212.69 434.279 212.472 434.498 212.336L442.405 207.291C442.541 207.209 442.705 207.182 442.869 207.209C443.032 207.264 443.169 207.346 443.25 207.482C443.359 207.673 453.994 224.77 461.901 230.496C462.419 230.878 463.047 231.15 463.783 231.314C464.11 231.396 464.301 231.723 464.246 232.05C464.165 232.377 463.837 232.595 463.51 232.514C462.61 232.296 461.847 231.968 461.192 231.478C453.776 226.106 444.45 211.654 442.541 208.655L435.479 213.154C436.106 217.217 441.696 251.519 455.548 260.545C458.847 262.699 462.419 263.244 466.155 262.181C479.598 258.363 472.618 230.932 472.563 230.632C472.481 230.305 472.672 229.978 472.999 229.896C473.326 229.814 473.654 230.005 473.735 230.332C474.063 231.505 481.07 259.209 466.482 263.353C465.137 263.753 463.81 263.953 462.501 263.953Z" fill="black"/>
<path d="M410.993 257.3C410.411 257.3 409.848 257.273 409.302 257.219C408.975 257.164 408.73 256.864 408.757 256.537C408.811 256.183 409.111 255.964 409.439 255.992C418.11 256.919 431.743 249.393 440.796 242.631C441.069 242.44 441.478 242.494 441.669 242.767C441.86 243.04 441.805 243.421 441.533 243.612C432.452 250.402 419.937 257.3 410.993 257.3Z" fill="black"/>
<path d="M422.963 235.541C422.436 235.541 421.964 235.486 421.545 235.377C413.72 233.469 415.547 223.68 415.574 223.598C415.628 223.243 415.956 223.025 416.283 223.107C416.61 223.162 416.828 223.489 416.774 223.816C416.692 224.17 415.165 232.542 421.845 234.178C425.854 235.187 436.979 229.978 437.088 229.924C437.388 229.788 437.742 229.924 437.906 230.224C438.042 230.524 437.906 230.906 437.606 231.042C437.17 231.233 428.008 235.541 422.963 235.541Z" fill="black"/>
<path d="M369.573 437.158C357.902 421.779 346.804 403.319 343.723 384.259L343.15 380.66L357.657 371.771L363.001 399.938C364.964 412.426 377.562 432.004 377.562 432.004L369.573 437.158Z" fill="black"/>
<path d="M338.897 443.156L329.271 443.047L327.036 424.26C326.436 416.707 325.699 409.508 326.218 401.928L327.799 377.523L344.896 377.605L340.587 400.537C339.442 409.154 338.57 416.98 338.433 426.005L338.897 443.156Z" fill="black"/>
<path d="M339.934 440.239L339.797 442.038C339.688 443.729 339.797 445.392 340.67 446.865C341.379 448.119 342.142 449.891 342.142 451.855C342.142 451.855 327.527 455.263 314.738 452.046C314.738 452.046 314.684 450.546 318.61 449.673C322.537 448.801 327.227 448.228 327.554 446.892C327.854 445.556 327.854 442.038 328.399 441.329C328.945 440.62 333.662 439.448 336.089 441.329C336.089 441.329 338.27 439.775 339.934 440.239Z" fill="white"/>
<path fill-rule="evenodd" clip-rule="evenodd" d="M327.064 454.036C323.055 454.036 318.72 453.682 314.602 452.646C314.33 452.564 314.139 452.346 314.139 452.073C314.112 451.719 314.275 450.001 318.474 449.074C319.32 448.883 320.165 448.719 321.01 448.555C323.192 448.119 326.791 447.41 326.955 446.756C327.064 446.265 327.146 445.42 327.2 444.574C327.364 442.666 327.5 441.493 327.936 440.948C328.727 439.912 333.417 438.93 336.117 440.593C336.853 440.13 338.598 439.23 340.098 439.639C340.398 439.721 340.561 439.993 340.561 440.293L340.425 442.093C340.288 444.002 340.534 445.42 341.188 446.565C341.897 447.792 342.77 449.701 342.77 451.855C342.77 452.155 342.552 452.4 342.279 452.455C342.197 452.482 335.38 454.036 327.064 454.036ZM315.639 451.637C326.627 454.173 338.925 451.909 341.516 451.364C341.406 449.673 340.725 448.174 340.125 447.165C339.334 445.801 339.034 444.165 339.198 442.011L339.28 440.757C339.28 440.757 339.27 440.757 339.252 440.757C338.189 440.757 336.907 441.493 336.444 441.82C336.226 441.984 335.926 441.957 335.708 441.793C333.581 440.157 329.327 441.275 328.891 441.711C328.672 442.011 328.509 443.675 328.427 444.683C328.345 445.611 328.263 446.456 328.154 447.028C327.827 448.392 325.428 448.937 321.256 449.755C320.41 449.919 319.565 450.082 318.747 450.273C316.838 450.682 315.993 451.255 315.639 451.637Z" fill="black"/>
<path d="M314.711 455.1C314.629 454.473 314.629 453.464 314.684 452.673C314.711 452.346 315.011 452.1 315.365 452.155C317.956 452.564 328.644 453.955 341.46 451.964C341.815 451.909 342.142 452.182 342.142 452.564V455.018C342.142 455.727 341.651 456.3 340.969 456.381C337.425 456.845 325.209 457.963 315.72 456.218C315.174 456.109 314.765 455.672 314.711 455.1Z" fill="white"/>
<path fill-rule="evenodd" clip-rule="evenodd" d="M327.99 457.772C323.845 457.772 319.455 457.527 315.61 456.818C314.792 456.682 314.192 456 314.083 455.182C314.029 454.473 314.002 453.464 314.056 452.646C314.083 452.292 314.247 451.992 314.52 451.773C314.765 451.583 315.12 451.501 315.447 451.528C318.337 451.992 328.753 453.328 341.378 451.364C341.733 451.31 342.06 451.419 342.333 451.637C342.605 451.883 342.769 452.21 342.769 452.564V455.018C342.769 456.027 342.033 456.873 341.051 456.982C338.242 457.363 333.334 457.772 327.99 457.772ZM315.31 455.046C315.338 455.318 315.556 455.564 315.828 455.618C324.527 457.227 336.006 456.409 340.887 455.782C341.242 455.727 341.542 455.4 341.542 455.018V452.564C328.781 454.555 318.201 453.219 315.256 452.755C315.229 453.464 315.256 454.418 315.31 455.046Z" fill="black"/>
<path d="M320.682 451.255C320.409 451.255 320.191 451.118 320.082 450.873L319.646 449.673C319.537 449.373 319.7 449.019 320.028 448.883C320.328 448.773 320.682 448.937 320.791 449.237L321.255 450.437C321.364 450.764 321.2 451.118 320.873 451.228C320.8 451.246 320.737 451.255 320.682 451.255Z" fill="black"/>
<path d="M323.682 451.201C323.437 451.201 323.219 451.064 323.11 450.819L322.401 449.128C322.292 448.801 322.428 448.447 322.728 448.31C323.055 448.174 323.409 448.338 323.546 448.638L324.255 450.355C324.391 450.655 324.228 451.037 323.928 451.146C323.837 451.183 323.755 451.201 323.682 451.201Z" fill="black"/>
<path d="M326.872 450.382C326.681 450.382 326.49 450.3 326.381 450.137L325.127 448.528C324.909 448.282 324.963 447.873 325.236 447.682C325.481 447.464 325.89 447.519 326.081 447.792L327.335 449.4C327.554 449.646 327.499 450.055 327.226 450.246C327.117 450.327 326.981 450.382 326.872 450.382Z" fill="black"/>
<path d="M329.953 448.283C329.862 448.283 329.78 448.265 329.708 448.229L327.417 447.192C327.09 447.056 326.954 446.702 327.117 446.374C327.254 446.074 327.608 445.938 327.908 446.074L330.198 447.111C330.526 447.247 330.662 447.629 330.526 447.929C330.417 448.147 330.198 448.283 329.953 448.283Z" fill="black"/>
<path d="M330.717 445.038C330.699 445.038 330.681 445.038 330.663 445.038L327.881 444.82C327.527 444.82 327.281 444.52 327.309 444.166C327.336 443.838 327.609 443.593 327.963 443.62L330.772 443.838C331.099 443.838 331.344 444.138 331.344 444.493C331.317 444.793 331.044 445.038 330.717 445.038Z" fill="black"/>
<path d="M377.044 429.224L377.917 430.805C378.735 432.305 379.744 433.614 381.271 434.377C382.552 435.032 384.161 436.095 385.252 437.758C385.252 437.758 374.863 448.584 362.402 452.892C362.402 452.892 361.529 451.665 364.338 448.802C367.146 445.939 370.8 442.857 370.282 441.576C369.682 440.076 368.046 438.195 367.855 437.022C367.664 435.659 371.345 432.005 374.399 432.25C374.399 432.25 375.381 429.742 377.044 429.224Z" fill="white"/>
<path fill-rule="evenodd" clip-rule="evenodd" d="M362.402 453.492C362.211 453.492 362.02 453.41 361.884 453.246C361.693 452.974 360.875 451.447 363.902 448.365C364.502 447.738 365.156 447.111 365.783 446.511C367.256 445.066 369.982 442.421 369.737 441.794C369.492 441.221 369.028 440.512 368.592 439.831C367.965 438.849 367.365 437.895 367.256 437.104C367.119 436.149 368.046 435.004 368.592 434.404C369.819 433.123 371.918 431.65 374.018 431.623C374.4 430.832 375.354 429.114 376.854 428.651C377.126 428.569 377.426 428.678 377.563 428.924L378.435 430.532C379.362 432.196 380.344 433.232 381.544 433.832C382.798 434.486 384.57 435.604 385.743 437.431C385.907 437.676 385.879 437.976 385.688 438.195C385.579 438.304 375.054 449.183 362.593 453.464C362.52 453.483 362.456 453.492 362.402 453.492ZM374.1 432.85C372.491 432.85 370.637 434.023 369.492 435.25C368.673 436.122 368.455 436.749 368.483 436.913C368.564 437.458 369.11 438.331 369.628 439.176C370.091 439.885 370.582 440.649 370.855 441.358C371.4 442.666 369.682 444.411 366.628 447.384C366.001 447.984 365.374 448.611 364.774 449.211C363.384 450.629 363.002 451.556 362.893 452.046C373.5 448.174 382.58 439.558 384.434 437.704C383.425 436.34 382.035 435.44 380.998 434.922C379.117 433.995 378.026 432.305 377.372 431.105L376.772 430.042C375.872 430.614 375.19 431.923 374.972 432.468C374.863 432.714 374.618 432.877 374.345 432.85C374.272 432.85 374.191 432.85 374.1 432.85Z" fill="black"/>
<path d="M364.038 455.483C363.683 455.047 363.22 454.365 362.838 453.738C362.593 453.301 362.756 452.729 363.22 452.511C366.001 451.256 375.245 446.675 384.489 438.441C384.898 438.086 385.498 438.168 385.797 438.604L386.97 440.404C387.352 440.976 387.243 441.74 386.725 442.203C383.998 444.521 374.4 452.129 365.51 455.837C364.992 456.055 364.392 455.919 364.038 455.483Z" fill="white"/>
<path fill-rule="evenodd" clip-rule="evenodd" d="M365.02 456.546C364.474 456.546 363.929 456.3 363.547 455.864C363.193 455.401 362.702 454.692 362.32 454.037C362.102 453.683 362.047 453.247 362.184 452.865C362.293 452.456 362.593 452.129 362.974 451.965C365.592 450.765 374.863 446.211 384.08 437.977C384.407 437.704 384.843 437.568 385.252 437.622C385.688 437.677 386.07 437.922 386.315 438.277L387.488 440.076C388.033 440.894 387.87 442.012 387.106 442.667C383.343 445.912 374.018 452.947 365.728 456.41C365.492 456.5 365.256 456.546 365.02 456.546ZM385.061 438.822C385.034 438.822 384.952 438.849 384.898 438.904C375.545 447.248 366.138 451.856 363.493 453.083C363.383 453.11 363.356 453.192 363.356 453.219C363.329 453.274 363.329 453.356 363.383 453.437C363.711 454.01 364.174 454.664 364.501 455.101C364.692 455.319 364.992 455.401 365.265 455.292C373.418 451.883 382.607 444.93 386.315 441.74C386.615 441.494 386.67 441.058 386.452 440.731L385.279 438.931C385.225 438.849 385.143 438.849 385.116 438.822C385.098 438.822 385.079 438.822 385.061 438.822Z" fill="black"/>
<path d="M366.601 449.101C366.465 449.101 366.328 449.047 366.219 448.965L365.21 448.229C364.938 448.038 364.883 447.629 365.074 447.356C365.292 447.083 365.674 447.029 365.946 447.247L366.955 447.983C367.228 448.201 367.283 448.583 367.092 448.856C366.955 449.019 366.792 449.101 366.601 449.101Z" fill="black"/>
<path d="M369.082 447.411C368.954 447.411 368.836 447.375 368.727 447.302L367.2 446.239C366.928 446.048 366.846 445.666 367.037 445.394C367.228 445.121 367.609 445.039 367.909 445.23L369.436 446.293C369.709 446.484 369.791 446.866 369.6 447.139C369.463 447.302 369.273 447.411 369.082 447.411Z" fill="black"/>
<path d="M371.291 444.985C371.219 444.985 371.155 444.966 371.1 444.93L369.164 444.276C368.837 444.167 368.674 443.812 368.783 443.512C368.892 443.185 369.246 443.021 369.573 443.13L371.482 443.785C371.809 443.894 371.973 444.248 371.864 444.548C371.782 444.821 371.537 444.985 371.291 444.985Z" fill="black"/>
<path d="M370.255 441.903C369.955 441.903 369.682 441.685 369.655 441.385C369.6 441.058 369.818 440.731 370.146 440.703L372.654 440.294C372.981 440.267 373.281 440.485 373.336 440.812C373.39 441.167 373.172 441.467 372.845 441.521L370.337 441.903C370.318 441.903 370.291 441.903 370.255 441.903Z" fill="black"/>
<path d="M369.137 439.749C368.919 439.749 368.728 439.64 368.619 439.421C368.455 439.149 368.564 438.767 368.864 438.603L371.318 437.24C371.618 437.076 371.973 437.186 372.136 437.485C372.3 437.785 372.191 438.167 371.918 438.331L369.437 439.667C369.346 439.721 369.246 439.749 369.137 439.749Z" fill="black"/>
<path d="M297.886 336.213C295.569 329.941 299.986 322.524 307.73 319.661C315.501 316.798 323.681 319.552 325.999 325.824C328.317 332.123 323.9 339.539 316.128 342.402C308.384 345.265 300.204 342.511 297.886 336.213Z" fill="white"/>
<path fill-rule="evenodd" clip-rule="evenodd" d="M309.939 344.148C308.139 344.148 306.394 343.875 304.758 343.33C301.132 342.103 298.487 339.649 297.314 336.431C294.86 329.832 299.468 322.061 307.539 319.089C311.411 317.644 315.529 317.535 319.101 318.734C322.727 319.961 325.4 322.415 326.572 325.633C327.772 328.851 327.336 332.423 325.372 335.722C323.436 338.967 320.246 341.53 316.347 342.975C314.247 343.766 312.066 344.148 309.939 344.148ZM313.947 319.143C311.957 319.143 309.939 319.498 307.948 320.234C300.504 322.988 296.251 330.05 298.459 335.995C299.523 338.858 301.895 341.039 305.167 342.157C308.467 343.275 312.311 343.166 315.938 341.83C319.564 340.494 322.537 338.094 324.336 335.095C326.081 332.123 326.49 328.905 325.427 326.042C324.364 323.179 321.991 320.998 318.719 319.907C317.219 319.389 315.611 319.143 313.947 319.143Z" fill="black"/>
<path d="M290.578 329.26C290.578 326.506 292.787 324.297 295.541 324.297C298.268 324.297 300.476 326.506 300.476 329.26C300.476 331.986 298.268 334.195 295.541 334.195C292.787 334.195 290.578 331.986 290.578 329.26Z" fill="black"/>
<path fill-rule="evenodd" clip-rule="evenodd" d="M295.541 334.822C292.46 334.822 289.951 332.314 289.951 329.26C289.951 326.179 292.46 323.697 295.541 323.697C298.595 323.697 301.104 326.179 301.104 329.26C301.104 332.314 298.595 334.822 295.541 334.822ZM295.541 324.924C293.141 324.924 291.178 326.86 291.178 329.26C291.178 331.659 293.141 333.595 295.541 333.595C297.913 333.595 299.877 331.659 299.877 329.26C299.877 326.86 297.913 324.924 295.541 324.924Z" fill="black"/>
<path d="M316.892 319.634C316.892 316.907 319.1 314.698 321.854 314.698C324.581 314.698 326.79 316.907 326.79 319.634C326.79 322.388 324.581 324.596 321.854 324.596C319.1 324.596 316.892 322.388 316.892 319.634Z" fill="white"/>
<path fill-rule="evenodd" clip-rule="evenodd" d="M321.855 325.196C318.773 325.196 316.292 322.715 316.292 319.634C316.292 316.58 318.773 314.071 321.855 314.071C324.909 314.071 327.417 316.58 327.417 319.634C327.417 322.715 324.909 325.196 321.855 325.196ZM321.855 315.298C319.455 315.298 317.492 317.262 317.492 319.634C317.492 322.033 319.455 323.997 321.855 323.997C324.227 323.997 326.19 322.033 326.19 319.634C326.19 317.262 324.227 315.298 321.855 315.298Z" fill="black"/>
<path d="M298.568 333.159C298.105 333.513 297.587 333.786 297.014 333.95C294.396 334.768 291.615 333.323 290.797 330.732C289.979 328.114 291.424 325.333 294.042 324.515C296.305 323.806 298.677 324.788 299.823 326.751L298.568 333.159Z" fill="white"/>
<path d="M295.514 334.795C294.642 334.795 293.769 334.604 292.951 334.168C291.642 333.486 290.661 332.314 290.224 330.896C289.297 327.978 290.933 324.843 293.851 323.916C296.332 323.152 299.059 324.215 300.341 326.451C300.504 326.751 300.423 327.106 300.123 327.297C299.823 327.46 299.441 327.351 299.277 327.051C298.268 325.333 296.142 324.488 294.233 325.088C291.942 325.824 290.661 328.251 291.397 330.542C291.724 331.632 292.488 332.559 293.524 333.077C294.533 333.623 295.733 333.732 296.823 333.377C297.332 333.214 297.787 332.977 298.187 332.668C298.459 332.45 298.841 332.505 299.059 332.778C299.25 333.05 299.223 333.432 298.95 333.623C298.432 334.032 297.832 334.359 297.205 334.55C296.641 334.714 296.078 334.795 295.514 334.795Z" fill="black"/>
<path d="M321.637 325.142C321.418 325.142 321.191 325.133 320.955 325.115C320.628 325.06 320.382 324.76 320.437 324.433C320.464 324.079 320.764 323.833 321.118 323.888C322.645 324.079 324.2 323.424 325.127 322.17C326.545 320.261 326.163 317.535 324.254 316.117C322.345 314.671 319.619 315.053 318.174 316.989C317.765 317.535 317.492 318.189 317.356 318.871C317.301 319.198 317.001 319.443 316.674 319.389C316.319 319.334 316.101 319.007 316.156 318.68C316.292 317.807 316.647 316.962 317.192 316.253C319.019 313.799 322.509 313.281 324.99 315.135C327.445 316.962 327.935 320.452 326.108 322.906C325.045 324.324 323.382 325.142 321.637 325.142Z" fill="black"/>
<path d="M295.514 357.999L296.059 358.299C297.859 359.226 300.068 358.572 300.995 356.772L308.875 341.857L301.867 338.148L293.987 353.064C293.033 354.863 293.714 357.045 295.514 357.999Z" fill="white"/>
<path d="M297.641 359.227C296.905 359.227 296.169 359.063 295.487 358.681C293.279 357.509 292.406 354.728 293.606 352.492L300.177 340.085C300.314 339.785 300.695 339.649 300.995 339.812C301.295 339.976 301.404 340.358 301.241 340.657L294.669 353.064C293.824 354.7 294.451 356.745 296.087 357.618C297.696 358.463 299.741 357.836 300.614 356.2L306.394 345.293C306.531 344.993 306.912 344.857 307.212 345.02C307.512 345.184 307.621 345.566 307.458 345.866L301.677 356.773C300.859 358.327 299.277 359.227 297.641 359.227Z" fill="black"/>
<path d="M381.161 375.479C382.497 375.915 383.37 375.288 383.179 374.197C383.015 373.106 381.761 372.67 380.507 371.307C380.234 371.007 384.242 372.097 386.069 371.988C386.806 371.961 387.46 371.497 387.787 370.816C387.787 370.816 388.714 369.18 387.187 368.144C384.951 366.617 378.68 365.58 377.071 364.653L373.608 362.554L369.654 366.78L374.453 371.143C374.699 371.361 376.526 372.861 377.889 373.624L381.161 375.479Z" fill="white"/>
<path fill-rule="evenodd" clip-rule="evenodd" d="M381.952 376.215C381.643 376.233 381.316 376.178 380.971 376.051C380.934 376.051 380.898 376.042 380.861 376.024L377.589 374.142C376.171 373.352 374.263 371.797 374.045 371.579L369.245 367.216C369.109 367.107 369.055 366.971 369.027 366.807C369.027 366.644 369.082 366.48 369.191 366.344L373.172 362.145C373.363 361.926 373.663 361.872 373.935 362.036L377.398 364.108C377.998 364.462 379.525 364.899 381.134 365.335C383.479 365.962 386.151 366.698 387.515 367.625C389.096 368.689 388.742 370.379 388.333 371.116C387.924 371.961 387.051 372.561 386.097 372.615C385.115 372.67 383.643 372.397 382.416 372.179C383.097 372.724 383.643 373.243 383.779 374.088C383.915 374.77 383.697 375.397 383.261 375.778C382.907 376.078 382.47 376.215 381.952 376.215ZM381.407 374.906C381.87 375.042 382.252 375.042 382.443 374.851C382.607 374.715 382.607 374.47 382.579 374.279C382.525 373.87 382.143 373.542 381.489 372.997C381.052 372.643 380.561 372.261 380.043 371.716C379.88 371.525 379.825 371.197 379.962 370.952C380.207 370.516 380.507 370.57 382.061 370.87C383.261 371.088 385.061 371.443 386.042 371.388C386.56 371.361 387.024 371.034 387.242 370.543C387.378 370.325 387.842 369.316 386.833 368.634C385.633 367.816 383.07 367.135 380.807 366.507C379.035 366.017 377.508 365.608 376.771 365.171L373.717 363.344L370.527 366.726L374.863 370.679C375.081 370.87 376.88 372.343 378.189 373.079L381.407 374.906Z" fill="black"/>
<path d="M338.216 321.516C338.216 321.516 347.869 341.34 348.168 341.912C353.867 351.919 357.903 359.036 369.764 368.662L375.845 362.145L370.173 353.692C365.074 346.084 360.821 337.931 357.521 329.369L352.804 317.126L338.216 321.516Z" fill="white"/>
<path fill-rule="evenodd" clip-rule="evenodd" d="M369.765 369.289C369.628 369.289 369.492 369.234 369.383 369.152C357.44 359.445 353.322 352.219 347.651 342.212C347.323 341.667 338.652 323.806 337.643 321.761C337.562 321.625 337.562 321.434 337.643 321.27C337.725 321.107 337.862 320.97 338.025 320.916L352.613 316.526C352.94 316.444 353.268 316.608 353.377 316.908L358.094 329.151C361.366 337.658 365.62 345.784 370.692 353.364L376.363 361.79C376.5 362.035 376.472 362.335 376.281 362.553L370.201 369.098C370.092 369.207 369.928 369.289 369.765 369.289ZM339.061 321.898C341.952 327.787 348.441 341.121 348.714 341.612C354.249 351.374 358.285 358.463 369.71 367.843L375.054 362.063L369.683 354.046C364.556 346.411 360.275 338.176 356.949 329.587L352.422 317.862L339.061 321.898Z" fill="black"/>
<path d="M348.44 316.226L338.215 316.145L327.526 328.469C324.309 332.151 320.518 335.341 316.319 337.849L307.239 343.303C304.403 345.812 303.803 349.984 305.848 353.147C308.057 356.637 312.665 357.7 316.183 355.573L323.818 350.965V386.44H366.382L348.44 316.226Z" fill="white"/>
<path fill-rule="evenodd" clip-rule="evenodd" d="M366.382 387.067H323.818C323.463 387.067 323.19 386.767 323.19 386.44V352.056L316.51 356.091C312.665 358.409 307.757 357.264 305.33 353.473C303.122 350.038 303.749 345.566 306.83 342.839C306.848 342.821 306.875 342.803 306.912 342.785L316.019 337.331C320.164 334.822 323.872 331.714 327.062 328.06L337.751 315.735C337.888 315.599 338.051 315.517 338.242 315.544L348.44 315.599C348.713 315.599 348.958 315.79 349.013 316.062L366.982 386.276C367.037 386.467 366.982 386.658 366.873 386.822C366.764 386.958 366.573 387.067 366.382 387.067ZM324.418 385.84H365.591L347.949 316.826L338.515 316.771L327.99 328.878C324.717 332.614 320.9 335.804 316.646 338.367L307.593 343.821C305.003 346.111 304.485 349.901 306.366 352.819C308.411 356.037 312.611 357.018 315.856 355.028L323.49 350.447C323.681 350.31 323.927 350.31 324.118 350.419C324.308 350.529 324.418 350.747 324.418 350.965V385.84Z" fill="black"/>
<path d="M309.53 358.245C309.53 355.164 311.848 352.683 314.711 352.683C317.574 352.683 319.919 355.164 319.919 358.245C319.919 361.299 317.574 363.78 314.711 363.78C311.848 363.78 309.53 361.299 309.53 358.245Z" fill="white"/>
<path fill-rule="evenodd" clip-rule="evenodd" d="M314.711 364.408C311.521 364.408 308.903 361.627 308.903 358.245C308.903 354.837 311.521 352.083 314.711 352.083C317.929 352.083 320.519 354.837 320.519 358.245C320.519 361.627 317.929 364.408 314.711 364.408ZM314.711 353.31C312.203 353.31 310.13 355.519 310.13 358.245C310.13 360.945 312.203 363.181 314.711 363.181C317.247 363.181 319.292 360.945 319.292 358.245C319.292 355.519 317.247 353.31 314.711 353.31Z" fill="black"/>
<path d="M323.9 353.283C322.291 350.502 323.055 347.066 325.591 345.621C328.099 344.148 331.453 345.212 333.062 347.993C334.671 350.774 333.907 354.21 331.399 355.683C328.863 357.128 325.509 356.064 323.9 353.283Z" fill="white"/>
<path fill-rule="evenodd" clip-rule="evenodd" d="M328.918 356.937C328.318 356.937 327.718 356.846 327.118 356.664C325.564 356.173 324.228 355.083 323.382 353.61C321.61 350.529 322.455 346.712 325.264 345.075C326.654 344.285 328.263 344.121 329.845 344.639C331.426 345.13 332.735 346.221 333.608 347.693C334.453 349.166 334.726 350.856 334.371 352.465C334.017 354.074 333.062 355.41 331.699 356.201C330.854 356.691 329.899 356.937 328.918 356.937ZM324.418 352.983C325.127 354.21 326.218 355.083 327.472 355.492C328.727 355.901 330.008 355.764 331.072 355.137C332.162 354.537 332.899 353.474 333.171 352.192C333.471 350.911 333.226 349.52 332.544 348.32C331.835 347.093 330.745 346.193 329.49 345.812C328.236 345.403 326.954 345.512 325.891 346.139C323.655 347.448 323.001 350.502 324.418 352.983Z" fill="black"/>
<path d="M332.516 293.267C331.48 293.512 330.635 296.757 330.417 297.984C329.599 302.156 329.981 309.545 332.38 310.282C334.643 310.991 335.243 309.873 336.77 311.154C338.052 312.218 338.706 314.235 338.897 317.562C338.924 317.753 336.825 319.852 335.598 321.189C335.27 321.543 338.161 324.897 343.969 324.57C351.277 324.161 350.486 319.307 350.568 318.925C350.622 318.707 345.905 289.995 332.516 293.267Z" fill="white"/>
<path fill-rule="evenodd" clip-rule="evenodd" d="M343.178 325.224C338.27 325.224 335.543 322.689 335.08 321.707C334.835 321.189 335.053 320.889 335.162 320.78C335.516 320.371 335.952 319.935 336.389 319.471C337.07 318.735 337.998 317.78 338.297 317.399C338.079 314.345 337.479 312.545 336.361 311.618C335.707 311.073 335.325 311.1 334.671 311.127C334.044 311.182 333.308 311.209 332.217 310.882C329.19 309.927 329.054 301.802 329.79 297.875C330.008 296.757 330.853 293.049 332.353 292.694C335.68 291.876 338.761 292.831 341.542 295.557C348.605 302.511 351.277 318.571 351.168 319.062C351.168 319.062 351.168 319.089 351.168 319.144C351.195 323.807 347.296 325.006 343.996 325.197C343.724 325.215 343.451 325.224 343.178 325.224ZM336.28 321.352C336.852 322.143 339.47 324.216 343.942 323.97C347.923 323.752 349.968 322.116 349.941 319.171C349.941 319.08 349.941 318.998 349.941 318.926C349.804 318.053 346.914 300.738 339.252 295.23C337.207 293.758 334.998 293.294 332.653 293.867C332.244 294.03 331.426 295.912 331.017 298.121C330.144 302.483 330.799 309.137 332.571 309.709C333.444 309.982 334.016 309.955 334.589 309.9C335.325 309.873 336.116 309.818 337.152 310.691C338.57 311.863 339.306 313.963 339.525 317.508C339.552 317.889 339.47 318.026 337.261 320.316C336.934 320.671 336.58 321.025 336.28 321.352Z" fill="black"/>
<path d="M328.617 294.221C328.399 295.557 329.326 296.785 330.662 296.948C334.288 297.384 337.779 298.23 340.424 301.311C342.96 304.256 342.85 319.308 343.914 328.824C344.405 333.023 348.713 335.614 352.667 334.114C362.701 330.324 369.055 320.753 364.964 313.636L352.912 291.849C351.494 289.368 349.313 287.459 346.45 286.15C345.141 285.523 342.823 284.978 341.351 284.923C331.534 284.46 329.162 290.622 328.617 294.221Z" fill="black"/>
<path d="M338.025 303.029C340.561 302.675 341.107 297.821 339.607 297.248C338.107 296.703 336.989 299.212 336.989 299.212L338.025 303.029Z" fill="white"/>
<path d="M338.025 303.629C337.725 303.629 337.48 303.411 337.425 303.111C337.371 302.784 337.616 302.457 337.943 302.429C339.034 302.266 339.661 300.902 339.797 299.703C339.907 298.639 339.634 297.93 339.388 297.848C338.489 297.494 337.534 299.43 337.534 299.457C337.398 299.757 337.043 299.921 336.716 299.757C336.416 299.621 336.28 299.266 336.416 298.966C336.934 297.821 338.216 296.076 339.825 296.676C340.725 297.03 341.188 298.257 341.024 299.839C340.806 301.557 339.852 303.411 338.107 303.629C338.089 303.629 338.061 303.629 338.025 303.629Z" fill="black"/>
<path d="M268.112 131.325C268.657 154.72 250.142 174.108 226.747 174.653C203.379 175.171 183.964 156.656 183.419 133.288C182.901 109.893 201.415 90.5053 224.784 89.96C248.179 89.4146 267.566 107.957 268.112 131.325Z" fill="white"/>
<path fill-rule="evenodd" clip-rule="evenodd" d="M225.737 175.28C214.639 175.28 204.169 171.081 196.097 163.392C187.808 155.457 183.091 144.768 182.818 133.288C182.273 109.62 201.087 89.9055 224.783 89.3602C248.451 88.8148 268.166 107.629 268.711 131.325C268.984 142.777 264.757 153.684 256.85 161.974C248.915 170.263 238.226 174.98 226.773 175.253C226.428 175.271 226.083 175.28 225.737 175.28ZM225.792 90.56C225.465 90.56 225.137 90.5691 224.81 90.5872C201.796 91.1053 183.5 110.274 184.045 133.261C184.291 144.413 188.872 154.802 196.943 162.492C205.014 170.181 215.594 174.299 226.746 174.026C237.871 173.78 248.26 169.2 255.95 161.128C263.666 153.057 267.757 142.477 267.484 131.352C266.966 108.666 248.342 90.56 225.792 90.56Z" fill="black"/>
<path d="M264.021 131.407C264.512 152.539 247.797 170.072 226.665 170.563C205.532 171.054 187.999 154.312 187.509 133.179C187.018 112.074 203.76 94.5414 224.892 94.0506C246.025 93.5597 263.53 110.302 264.021 131.407Z" fill="black"/>
<path d="M259.603 131.516C260.04 150.221 245.233 165.709 226.555 166.145C207.85 166.582 192.362 151.775 191.925 133.097C191.489 114.392 206.295 98.9037 224.974 98.4674C243.679 98.0311 259.167 112.837 259.603 131.516Z" fill="white"/>
<path d="M225.738 167.836C216.576 167.836 207.905 164.373 201.224 158.02C194.353 151.449 190.454 142.614 190.236 133.125C189.799 113.547 205.369 97.2407 224.947 96.7771C236.754 96.5044 247.906 102.094 254.778 111.774C254.969 112.047 254.887 112.429 254.614 112.62C254.341 112.81 253.96 112.756 253.769 112.483C247.143 103.158 236.399 97.7315 224.974 98.0042C206.051 98.4404 191.026 114.174 191.463 133.097C191.681 142.259 195.444 150.794 202.07 157.12C208.696 163.446 217.394 166.8 226.556 166.609C235.718 166.391 244.253 162.628 250.579 156.002C256.905 149.376 260.286 140.678 260.068 131.516C260.068 131.161 260.34 130.889 260.668 130.889C260.995 130.889 261.295 131.134 261.295 131.489C261.513 140.978 258.023 149.976 251.478 156.847C244.907 163.719 236.072 167.618 226.583 167.836C226.31 167.836 226.029 167.836 225.738 167.836Z" fill="black"/>
<path d="M223.61 152.539L223.501 147.822C220.202 147.767 216.957 146.949 215.048 145.913L216.411 140.078C218.511 141.169 221.456 142.15 224.674 142.069C227.482 142.014 229.391 140.869 229.336 138.905C229.282 137.024 227.673 135.879 223.992 134.734C218.675 133.07 214.994 130.671 214.884 125.872C214.803 121.536 217.775 118.046 223.037 116.901L222.928 112.211L227.782 112.074L227.864 116.437C231.19 116.519 233.426 117.146 235.09 117.909L233.781 123.527C232.472 123.008 230.182 121.918 226.609 122C223.419 122.081 222.41 123.472 222.438 124.863C222.465 126.499 224.237 127.508 228.464 128.98C234.381 130.916 236.835 133.588 236.917 138.033C237.026 142.423 233.999 146.268 228.355 147.386L228.464 152.43L223.61 152.539Z" fill="#FAECB2"/>
<path d="M461.628 172.144C461.628 161.455 470.299 152.812 480.961 152.812C491.649 152.812 500.293 161.455 500.293 172.144C500.293 182.806 491.649 191.45 480.961 191.45C470.299 191.45 461.628 182.806 461.628 172.144Z" fill="white"/>
<path fill-rule="evenodd" clip-rule="evenodd" d="M480.961 192.077C469.972 192.077 461.028 183.133 461.028 172.144C461.028 161.128 469.972 152.185 480.961 152.185C491.95 152.185 500.893 161.128 500.893 172.144C500.893 183.133 491.95 192.077 480.961 192.077ZM480.961 153.412C470.654 153.412 462.255 161.81 462.255 172.144C462.255 182.452 470.654 190.85 480.961 190.85C491.295 190.85 499.666 182.452 499.666 172.144C499.666 161.81 491.295 153.412 480.961 153.412Z" fill="black"/>
<path d="M481.07 181.852C480.88 181.989 480.634 181.989 480.443 181.879C478.753 180.925 470.845 176.153 471.145 169.936C471.472 163.365 478.616 164.483 480.389 167.728C480.443 167.864 480.58 167.918 480.716 167.918C480.852 167.918 480.989 167.837 481.043 167.7C481.888 165.628 484.697 164.101 487.315 165.11C490.45 166.282 493.641 174.054 481.07 181.852Z" fill="black"/>
</svg>
