<svg width="144" height="162" viewBox="0 0 144 162" fill="none" xmlns="http://www.w3.org/2000/svg">
<g clip-path="url(#clip0_1164_3307)">
<mask id="mask0_1164_3307" style="mask-type:luminance" maskUnits="userSpaceOnUse" x="0" y="0" width="143" height="143">
<path d="M142.611 0.806641H0.649414V142.869H142.611V0.806641Z" fill="white"/>
</mask>
<g mask="url(#mask0_1164_3307)">
<path d="M142.611 71.9221C142.611 32.3389 110.329 0.302757 70.6899 0.806645C31.6778 1.32173 0.649414 33.8952 0.649414 72.9746V131.75C0.649414 137.887 5.60991 142.858 11.7238 142.858H131.514C137.639 142.858 142.6 137.887 142.6 131.75V71.9109L142.611 71.9221Z" fill="#F5F2ED"/>
<path d="M102.715 89.1885C103.186 89.2445 103.645 89.4348 104.115 89.558C104.529 89.67 104.809 89.8715 105.19 90.0395C105.47 90.1627 105.795 90.2186 106.074 90.3418C106.41 90.4874 106.702 90.6777 106.836 91.0137C106.993 91.3944 107.06 91.7975 107.093 92.2006C107.116 92.4022 107.205 92.4917 107.228 92.6933C107.25 92.8725 107.172 93.0852 107.228 93.2644C107.284 93.4435 107.34 93.5107 107.362 93.6899C107.385 93.8914 107.362 94.1154 107.362 94.3169V95.5039C107.362 95.6942 107.362 95.8734 107.362 96.0637C107.362 96.1757 107.362 96.3101 107.362 96.4221C107.362 96.59 107.284 96.6124 107.261 96.7244C107.093 97.4186 106.926 98.0681 106.242 98.4152C105.761 98.6616 105.201 98.7735 104.686 98.8855C104.451 98.9415 104.216 98.9191 103.981 98.9751C103.801 99.0199 103.544 99.0311 103.387 99.0983C103.018 99.255 102.816 99.8037 102.67 100.151C102.581 100.375 102.491 100.588 102.48 100.834C102.469 101.035 102.536 101.271 102.48 101.472C102.424 101.685 102.346 101.707 102.346 101.965C102.346 102.155 102.346 102.346 102.346 102.525C102.346 102.917 102.368 103.32 102.346 103.712C102.335 103.936 102.223 104.115 102.211 104.339C102.211 104.529 102.211 104.719 102.211 104.899C102.211 105.235 102.099 105.806 102.301 106.097C102.558 106.489 103.197 106.769 103.589 107.037C104.037 107.351 104.563 107.564 104.977 107.944C105.571 108.482 105.839 109.254 106.13 109.982C106.276 110.341 106.444 110.676 106.534 111.046C106.578 111.248 106.601 111.404 106.601 111.606C106.601 111.841 106.679 111.897 106.735 112.099C106.814 112.401 106.78 112.983 106.735 113.297C106.668 113.778 106.444 114.148 106.108 114.484C105.716 114.876 105.335 115.2 104.91 115.559C104.596 115.816 104.35 116.085 103.981 116.275C103.768 116.376 103.555 116.477 103.353 116.589C103.163 116.701 102.995 116.869 102.794 116.947C102.603 117.014 102.424 116.992 102.234 117.037C101.965 117.093 101.763 117.138 101.472 117.138C100.968 117.138 100.621 117.093 100.151 116.891C99.5799 116.645 99.3896 116.152 99.1208 115.615C98.7289 114.831 98.4042 114.013 98.337 113.14C98.3034 112.726 98.2026 112.356 98.2138 111.931C98.2138 111.169 98.1691 110.385 98.2362 109.613C98.3482 108.493 98.4378 107.384 98.5498 106.265C98.6841 104.966 98.8297 103.678 98.9193 102.379C99.0201 101.002 99.1208 99.6246 99.188 98.2473C99.2328 97.3179 99.1656 96.3997 99.3 95.4703C99.3672 95.0224 99.2664 94.5745 99.356 94.1378C99.4456 93.7011 99.5351 93.2532 99.6359 92.8165C99.8039 92.1446 100.084 91.5735 100.353 90.9465C100.476 90.6554 100.577 90.3754 100.756 90.1179C100.957 89.8379 101.024 89.9051 101.327 89.8155C101.517 89.7595 101.595 89.6812 101.819 89.6924C102.043 89.7036 102.413 89.7707 102.57 89.5692" fill="#F5F2ED"/>
<path d="M102.715 89.1885C103.186 89.2445 103.645 89.4348 104.115 89.558C104.529 89.67 104.809 89.8715 105.19 90.0395C105.47 90.1627 105.795 90.2186 106.074 90.3418C106.41 90.4874 106.702 90.6777 106.836 91.0137C106.993 91.3944 107.06 91.7975 107.093 92.2006C107.116 92.4022 107.205 92.4917 107.228 92.6933C107.25 92.8725 107.172 93.0852 107.228 93.2644C107.284 93.4435 107.34 93.5107 107.362 93.6899C107.385 93.8914 107.362 94.1154 107.362 94.3169V95.5039C107.362 95.6942 107.362 95.8734 107.362 96.0637C107.362 96.1757 107.362 96.3101 107.362 96.4221C107.362 96.59 107.284 96.6124 107.261 96.7244C107.093 97.4186 106.926 98.0681 106.242 98.4152C105.761 98.6616 105.201 98.7735 104.686 98.8855C104.451 98.9415 104.216 98.9191 103.981 98.9751C103.801 99.0199 103.544 99.0311 103.387 99.0983C103.018 99.255 102.816 99.8037 102.67 100.151C102.581 100.375 102.491 100.588 102.48 100.834C102.469 101.035 102.536 101.271 102.48 101.472C102.424 101.685 102.346 101.707 102.346 101.965C102.346 102.155 102.346 102.346 102.346 102.525C102.346 102.917 102.368 103.32 102.346 103.712C102.335 103.936 102.223 104.115 102.211 104.339C102.211 104.529 102.211 104.719 102.211 104.899C102.211 105.235 102.099 105.806 102.301 106.097C102.558 106.489 103.197 106.769 103.589 107.037C104.037 107.351 104.563 107.564 104.977 107.944C105.571 108.482 105.839 109.254 106.13 109.982C106.276 110.341 106.444 110.676 106.534 111.046C106.578 111.248 106.601 111.404 106.601 111.606C106.601 111.841 106.679 111.897 106.735 112.099C106.814 112.401 106.78 112.983 106.735 113.297C106.668 113.778 106.444 114.148 106.108 114.484C105.716 114.876 105.335 115.2 104.91 115.559C104.596 115.816 104.35 116.085 103.981 116.275C103.768 116.376 103.555 116.477 103.353 116.589C103.163 116.701 102.995 116.869 102.794 116.947C102.603 117.014 102.424 116.992 102.234 117.037C101.965 117.093 101.763 117.138 101.472 117.138C100.968 117.138 100.621 117.093 100.151 116.891C99.5799 116.645 99.3896 116.152 99.1208 115.615C98.7289 114.831 98.4042 114.013 98.337 113.14C98.3034 112.726 98.2026 112.356 98.2138 111.931C98.2138 111.169 98.1691 110.385 98.2362 109.613C98.3482 108.493 98.4378 107.384 98.5498 106.265C98.6841 104.966 98.8297 103.678 98.9193 102.379C99.0201 101.002 99.1208 99.6246 99.188 98.2473C99.2328 97.3179 99.1656 96.3997 99.3 95.4703C99.3672 95.0224 99.2664 94.5745 99.356 94.1378C99.4456 93.7011 99.5351 93.2532 99.6359 92.8165C99.8039 92.1446 100.084 91.5735 100.353 90.9465C100.476 90.6554 100.577 90.3754 100.756 90.1179C100.957 89.8379 101.024 89.9051 101.327 89.8155C101.517 89.7595 101.595 89.6812 101.819 89.6924C102.043 89.7036 102.413 89.7707 102.57 89.5692" stroke="black" stroke-width="1.11975" stroke-miterlimit="10"/>
<path d="M121.795 82.7054C122.747 81.608 121.471 79.7604 120.72 78.887C118.66 76.4572 114.562 76.8267 113.767 80.1971C113.263 82.3135 114.013 84.6538 114.83 86.5909C115.861 89.032 116.924 93.0967 120.373 92.2569C122.635 91.7082 124.651 90.4541 126.487 89.0656C127.416 88.3601 128.279 87.5315 128.805 86.5013C129.331 85.4712 129.51 84.2058 129.051 83.1309C127.943 80.4883 123.441 80.813 121.795 82.7054Z" fill="#E8E1C4"/>
<path d="M121.739 82.6039L121.661 82.5143C121.583 82.4247 121.515 82.3239 121.482 82.1896C121.448 82.0552 121.459 81.9544 121.415 81.8088C121.415 81.764 121.392 81.7081 121.381 81.6521C121.336 81.4841 121.291 81.2826 121.202 81.081C121.079 80.7451 120.9 80.398 120.664 80.062C120.407 79.6701 120.105 79.2782 119.825 78.9759C119.511 78.6959 119.153 78.4272 118.738 78.3376C117.675 78.0465 116.477 78.192 115.67 78.7967C114.696 79.4574 114.371 80.8682 114.416 82.3015C114.427 82.8278 114.427 83.3653 114.562 83.914C114.741 84.6866 115.01 85.448 115.323 86.1983C115.939 87.6203 116.555 88.9976 117.294 90.1286C117.82 90.946 118.459 91.5171 119.254 91.629C120.026 91.7186 121.112 91.3827 122.042 90.9908C123.016 90.5653 123.956 90.039 124.852 89.4455C125.748 88.8297 126.644 88.2026 127.305 87.43C127.764 86.8925 128.066 86.2878 128.29 85.6832C128.525 85.0561 128.57 84.3395 128.368 83.7684C128.133 83.1189 127.73 82.6487 127.058 82.3463C126.409 82.0216 125.558 81.9432 124.752 82.044C123.856 82.1672 123.318 82.4807 122.96 82.6486C122.602 82.839 122.4 82.9174 122.109 82.8838C121.795 82.839 121.381 82.4359 121.683 81.876C121.896 81.4953 122.87 81.0362 123.307 80.9018C124.136 80.5659 125.569 80.398 126.465 80.5883C127.674 80.7899 128.615 81.2602 129.298 82.0552C129.97 82.8502 130.328 83.914 130.171 85.2129C130.048 86.1983 129.611 87.1277 129.04 87.8555C128.469 88.5945 127.775 89.188 127.069 89.6919C125.692 90.6549 124.236 91.5395 122.658 92.2337C122.008 92.5249 121.347 92.7936 120.664 93.0175C119.937 93.2415 119.03 93.3423 118.179 93.0175C117.496 92.7824 116.936 92.3345 116.521 91.8642C116.085 91.3827 115.76 90.8676 115.491 90.3413C115.066 89.5127 114.73 88.6953 114.405 87.9003C114.091 87.1277 113.722 86.355 113.431 85.4816C112.938 83.9588 112.893 83.007 112.826 81.3497C112.826 80.3756 112.994 79.4686 113.431 78.6959C113.856 77.9345 114.472 77.3634 115.166 77.0051C116.566 76.3109 118.223 76.3109 119.858 77.2514C120.452 77.5538 121.415 78.4048 121.997 79.3342C122.31 79.8045 122.59 80.3196 122.736 80.857C122.893 81.3833 122.87 81.9544 122.725 82.3127C122.635 82.5703 122.456 82.783 122.299 82.8726C122.131 82.9622 122.019 82.9174 121.941 82.8614C121.863 82.8054 121.807 82.727 121.739 82.6486V82.6039Z" fill="#E8E1C4"/>
<path d="M20.3562 65.7184C20.4794 64.6435 18.9229 64.0612 18.1055 63.826C15.8324 63.199 13.4809 65.1362 14.3991 67.5324C14.9702 69.0329 16.4147 70.1526 17.7248 71.0037C19.3708 72.0674 21.7223 74.1054 23.4803 72.157C24.6337 70.8805 25.3391 69.268 25.8878 67.6556C26.1677 66.8382 26.3469 65.976 26.2349 65.1138C26.1229 64.2516 25.7086 63.4117 24.9808 62.9526C23.2004 61.7993 20.5802 63.8708 20.3674 65.7296L20.3562 65.7184Z" fill="#E8E1C4"/>
<path d="M20.2559 65.6852L20.1439 65.6628C20.0319 65.6404 19.9088 65.6068 19.8192 65.562C19.7184 65.5173 19.6848 65.4837 19.6064 65.4389L19.528 65.3829C19.4385 65.3157 19.3377 65.2373 19.2145 65.1477C19.013 65.0134 18.7778 64.8678 18.5091 64.767C17.8596 64.4983 17.2885 64.2855 16.7175 64.5095C16.012 64.8118 15.4297 65.3493 15.217 65.9652C14.9259 66.6594 15.2506 67.5776 15.8441 68.4286C16.0568 68.7421 16.2584 69.0781 16.5607 69.358C16.975 69.7499 17.4565 70.1082 17.9604 70.4218C18.9346 71.0376 19.9088 71.5863 20.8046 71.9334C21.4428 72.2022 21.9915 72.2694 22.4618 72.0566C22.9097 71.8326 23.4472 71.1944 23.8391 70.5785C24.2534 69.9291 24.6005 69.2236 24.9028 68.4846C25.194 67.7456 25.4739 66.9841 25.5411 66.2675C25.5859 65.7636 25.4963 65.2933 25.3843 64.8678C25.2724 64.4199 25.0148 64.0056 24.6901 63.7816C24.3206 63.5353 23.9846 63.4345 23.4808 63.5017C22.9993 63.5577 22.4618 63.8376 22.0251 64.2071C21.5436 64.6327 21.3644 65.0246 21.2189 65.2597C21.0845 65.5061 20.9725 65.618 20.715 65.6964C20.435 65.786 19.864 65.7076 19.7744 65.1925C19.7184 64.8342 20.1551 64.1288 20.379 63.8488C20.7598 63.2778 21.5996 62.5499 22.249 62.2812C23.1112 61.8893 23.9287 61.7661 24.7349 61.9676C25.5411 62.1804 26.2577 62.7179 26.7392 63.6249C27.0976 64.3191 27.2207 65.1141 27.1759 65.8308C27.1311 66.5586 26.9408 67.2193 26.7056 67.8351C26.2465 69.0109 25.6979 70.153 25.026 71.2616C24.7461 71.7207 24.4549 72.1686 24.1302 72.6053C23.7719 73.0644 23.2232 73.5571 22.5178 73.725C21.3644 74.005 20.3679 73.6019 19.5952 73.1987C18.9794 72.8628 18.4195 72.4933 17.8932 72.1462C17.3893 71.8103 16.8294 71.4967 16.2808 71.0824C15.329 70.3322 14.9259 69.7275 14.1532 68.7309C13.7277 68.1263 13.4254 67.4656 13.3582 66.7714C13.291 66.0883 13.4478 65.4277 13.7389 64.8902C14.3436 63.8152 15.4297 63.0874 16.8966 62.9978C17.4117 62.9306 18.4083 63.0538 19.1697 63.3897C19.5728 63.5577 19.9759 63.7592 20.3119 64.0504C20.6478 64.3303 20.8941 64.7222 20.9501 65.0358C20.9949 65.2485 20.9725 65.4837 20.8941 65.6068C20.8046 65.7524 20.6926 65.7636 20.5918 65.7524C20.491 65.7524 20.4014 65.7188 20.3007 65.6964L20.2559 65.6852Z" fill="#E8E1C4"/>
<path d="M11.7235 142.858H54.0053C54.2181 142.443 54.4196 142.029 54.6436 141.637C55.1475 140.741 55.7073 139.902 56.3232 139.073C57.275 137.819 58.0588 136.318 58.6411 134.852C58.8762 134.247 59.3913 133.732 59.772 133.217C60.052 132.836 60.4775 132.634 60.7574 132.265C60.903 132.075 60.9254 131.895 61.0597 131.716C61.5636 131.033 62.2579 130.63 62.9073 130.137C63.7919 129.477 64.3294 128.603 65.3372 128.055C67.028 127.125 69.1108 126.655 71.0031 127.271C71.6862 127.495 72.3356 127.741 72.9515 128.133C73.601 128.536 74.2952 128.682 74.8887 129.186C76.2548 130.339 77.8 131.235 79.4125 131.985C80.6666 132.578 81.8423 133.396 83.186 133.732C83.6003 133.833 84.0035 133.933 84.4178 133.978C84.8209 134.023 85.2016 134.001 85.5935 134.101C86.0974 134.247 86.4333 134.392 86.9708 134.336C87.5531 134.269 88.2473 134.303 88.8072 134.146C89.5686 133.933 89.9493 133.116 89.9829 132.366C90.0277 131.257 89.4902 130.149 88.9528 129.23C88.684 128.771 88.5161 128.223 88.2921 127.741C88.0906 127.293 87.7658 126.98 87.5195 126.554C87.0268 125.714 86.4109 124.998 85.6495 124.393C84.7089 123.632 83.6227 123.553 82.4358 123.475C81.4168 123.408 80.409 123.475 79.3901 123.43C78.5391 123.397 77.6433 123.441 76.8035 123.352C75.4598 123.206 74.1273 122.993 72.7835 122.825C71.7086 122.691 70.656 122.635 69.5699 122.59C68.7636 122.557 67.9798 122.378 67.1736 122.333C66.1546 122.277 65.1692 122.075 64.1615 121.986C63.4 121.918 62.6386 121.963 61.8772 121.896C61.4965 121.862 61.1045 121.862 60.7238 121.795C60.3767 121.728 60.0632 121.583 59.716 121.527C59.0554 121.426 58.4059 121.482 57.7453 121.459C57.331 121.437 56.9503 121.291 56.5472 121.202C55.7857 121.034 54.9571 120.967 54.2405 120.653C53.9605 120.53 53.3447 120.127 53.2775 119.769C53.1879 119.757 53.0871 119.746 52.9975 119.735C52.8296 119.399 52.8744 118.817 52.8296 118.436C52.7624 117.775 52.6392 117.104 52.6056 116.443C52.5608 115.625 52.7288 114.797 52.684 113.979C52.6504 113.431 52.7848 113.016 52.8296 112.479C52.852 112.199 52.7848 111.919 52.8072 111.639C52.8296 111.348 52.9416 111.068 52.9863 110.777C53.0871 110.116 53.0199 109.433 53.1319 108.772C53.2551 108.067 53.4007 107.429 53.4678 106.712C53.5686 105.458 54.1845 104.282 54.2069 103.006C54.2069 102.636 54.0949 102.278 54.1285 101.908C54.1509 101.606 54.2853 101.326 54.3188 101.035C54.3636 100.598 54.2965 100.206 54.3748 99.7582C54.4868 99.12 54.6772 98.1234 54.4308 97.4851C54.3188 97.194 53.9829 96.511 54.33 96.2982C54.6436 96.1079 55.1251 96.3766 55.4386 96.3654C56.7039 96.287 57.9692 96.119 59.1786 95.7943C60.6566 95.3912 62.1459 95.0329 63.5344 94.4058C64.2958 94.0587 65.0125 93.3533 65.6171 92.7934C65.8075 92.6142 66.233 92.2223 66.3338 91.9648C66.4234 91.7408 66.3338 90.8786 66.233 90.6547C66.1322 90.4083 65.7067 90.0388 65.5052 89.8596C65.2364 89.6021 64.9005 89.3446 64.5758 89.1542C64.0271 88.8183 63.4672 88.2808 62.8514 88.0344C62.493 87.8889 62.2019 87.6985 61.8436 87.5641C61.3733 87.3962 60.903 87.0603 60.4551 86.8363C59.3353 86.2876 58.238 85.8397 57.2526 85.0447C56.6255 84.5408 55.5842 84.2833 55.4722 83.2979C55.3602 82.4021 55.1251 81.3831 55.3938 80.5209C55.5394 80.0506 55.3602 79.6139 55.3938 79.1324C55.4162 78.8413 55.3938 78.483 55.4498 78.203C55.5058 77.8895 55.6625 77.6879 55.6737 77.3632C55.6849 76.9489 55.8753 76.6466 55.9089 76.2659C55.9313 76.0083 55.8641 75.7508 55.8977 75.482C55.9313 75.2245 56.0097 74.9558 56.0321 74.6982C56.0769 74.2951 55.9313 73.9032 55.9761 73.5001C56.0545 72.7834 56.2784 72.1004 56.2224 71.3725C56.1664 70.6559 56.1552 70.1072 56.2672 69.3794C56.3456 68.8755 56.2112 68.4388 56.3568 67.9349C56.4576 67.5878 56.4352 67.2407 56.5136 66.8823C56.6255 66.3561 56.6927 65.8858 56.7599 65.3595C56.8159 64.9228 57.0174 64.5981 56.9615 64.1502C56.9167 63.7582 56.9615 63.2655 56.8271 62.896C56.6255 62.2802 56.0993 62.5937 55.629 62.7617C55.237 62.896 54.7667 62.9408 54.4084 63.12C54.1061 63.2655 53.8933 63.5231 53.5686 63.6463C51.889 64.3069 50.4333 65.5162 48.8545 66.3897C48.6753 66.4904 48.5073 66.5352 48.3282 66.636C48.2274 66.692 48.149 66.8711 48.0258 66.9495C47.9139 67.0167 47.7235 67.0055 47.6115 67.0615C46.8613 67.3974 46.1783 67.9125 45.4392 68.282C45.1257 68.4388 44.9353 68.6404 44.633 68.7859C44.3867 68.9091 44.2411 68.9315 44.0395 69.0883C43.782 69.2898 43.5692 69.6481 43.2781 69.8161C43.0318 69.9617 42.8414 69.9393 42.5839 70.1296C42.3375 70.3088 42.1584 70.5439 41.9008 70.7231C41.3969 71.0814 40.8594 71.4173 40.3443 71.7421C39.93 71.9996 39.9188 72.1228 39.6389 72.4475C39.4598 72.6603 39.1462 72.817 38.9223 73.0074C38.6871 73.2089 38.4408 73.3769 38.228 73.6008C37.2538 74.6198 36.5148 75.9299 35.3951 76.7809C35.1151 76.9937 34.8688 77.2512 34.6784 77.5424C34.6224 77.6208 34.6224 77.7551 34.5664 77.8335C34.4769 77.9679 34.2417 78.1134 34.1409 78.2478C33.6818 78.8413 33.1444 79.446 32.7636 80.0842C32.6181 80.3306 32.5957 80.5657 32.4501 80.8008C32.2597 81.1144 31.8902 81.3831 31.6775 81.7078C31.1624 82.4693 30.7705 83.2419 30.1994 83.9585C29.158 85.2463 28.419 86.6124 27.6688 88.0792C27.2209 88.9414 26.9745 89.7924 26.717 90.7442C26.5042 91.4945 26.1571 91.976 25.7316 92.6254C25.4853 92.9949 25.0262 93.5996 24.9254 94.0363C24.8694 94.2715 24.9254 94.4394 24.8582 94.6634C24.791 94.8873 24.6678 95.0889 24.623 95.324C24.5111 95.9623 24.3655 96.3878 24.0408 96.9477C23.7496 97.4515 23.6937 98.1906 23.3465 98.6385C22.977 99.0976 22.6187 99.5455 22.2716 100.038C21.1406 101.651 20.1328 103.319 19.1363 105.021C18.5316 106.074 17.7814 107.16 17.3223 108.268C16.908 109.265 16.4377 110.094 15.8554 111.001C15.2395 111.952 14.7132 113.005 14.2094 114.002C13.8286 114.763 13.3472 115.435 12.9104 116.163C12.5633 116.745 12.3394 117.383 11.9923 117.977C11.7123 118.458 11.4659 118.962 11.242 119.477C10.8389 120.396 10.391 121.258 10.0662 122.221C9.93188 122.624 9.77511 123.049 9.60715 123.441C9.50637 123.676 9.34961 123.912 9.29362 124.158C9.23763 124.393 9.27122 124.595 9.18164 124.841C9.00248 125.322 8.77853 125.759 8.62177 126.252C8.4538 126.778 8.33063 127.36 8.10668 127.876C7.5692 129.085 7.25567 130.451 6.52783 131.56C6.09113 132.22 5.7664 132.97 5.29611 133.597C5.02737 133.956 4.60186 134.124 4.29953 134.471C3.82923 135.02 3.5157 135.714 2.95583 136.173C2.6311 136.442 2.33996 136.755 2.04883 137.08C3.93001 140.529 7.5804 142.869 11.7795 142.869L11.7235 142.858Z" fill="#F5F2ED"/>
<path d="M8.02837 131.762H7.9052C7.79322 131.739 7.67005 131.717 7.56927 131.583C7.46849 131.459 7.4125 131.258 7.36771 131.068L7.32292 130.855C7.27813 130.631 7.27813 130.384 7.27813 130.149C7.26694 129.769 7.31173 129.388 7.33412 129.018C7.37891 128.134 7.64765 127.283 7.68125 126.454C7.74843 125.346 8.02837 124.159 8.42028 123.073C8.87938 121.818 9.41686 120.587 10.0439 119.456C10.2791 119.03 10.559 118.661 10.783 118.235C11.0965 117.631 11.41 117.026 11.7123 116.421C12.261 115.301 12.6977 114.126 13.28 113.04C14.1198 111.472 15.1276 110.005 16.0122 108.482C16.9304 106.903 17.9046 105.392 18.7444 103.79C19.0355 103.23 19.2707 102.659 19.5954 102.111C19.9201 101.54 20.256 100.946 20.536 100.353C21.2078 98.9977 22.0476 97.766 22.7755 96.4335C23.2122 95.6721 23.3354 95.3026 23.5705 94.8547C23.8057 94.4404 24.1976 94.1828 24.5111 94.2948C24.6903 94.3508 24.7574 94.5523 24.8022 94.7427C24.847 94.9443 24.9254 95.1122 24.959 95.2242C24.9702 95.3026 24.903 95.4257 24.8134 95.6273C24.7015 95.8736 24.5783 96.1312 24.4999 96.288C24.22 96.8702 23.7385 97.7884 23.4137 98.3483C22.5515 99.8935 22.2716 100.745 21.443 102.301C20.1777 104.675 18.554 106.814 17.2215 109.131C16.6728 110.083 16.2697 111.102 15.7322 112.065C15.3067 112.838 14.8812 113.599 14.4557 114.372C13.7615 115.581 13.2016 116.824 12.5745 118.078C12.0259 119.176 11.5444 119.713 11.1301 120.844C10.2007 123.498 9.64081 124.685 9.04734 127.137C8.94656 127.574 8.85698 128.391 8.83459 129.198C8.7898 130.004 8.81219 130.799 8.74501 131.202C8.72261 131.347 8.67782 131.493 8.61064 131.594C8.53226 131.706 8.42028 131.739 8.3195 131.762C8.21873 131.773 8.12915 131.762 8.02837 131.762Z" fill="#222222"/>
<path d="M46.2789 97.5638L46.3797 97.6198C46.4805 97.6757 46.5812 97.7541 46.6036 97.9669C46.626 98.1684 46.5588 98.426 46.4469 98.6723L46.3237 98.9411C46.1781 99.2098 45.999 99.4561 45.7974 99.6689C45.4839 100.016 45.148 100.307 44.8568 100.598C44.1626 101.259 43.5467 101.841 43.4907 102.647C43.3788 103.711 43.6027 104.921 43.849 106.152L44.3193 108.381C44.4649 109.12 44.6105 109.859 44.7448 110.586C44.8456 111.135 44.868 111.673 44.9912 112.222C45.148 113.005 45.3047 113.8 45.4727 114.584C45.7526 116.029 46.1109 117.496 46.0774 118.996C46.0774 121.146 45.6183 123.251 45.036 125.289C44.4313 127.394 43.5243 129.343 42.5725 131.291C42.2366 131.963 41.9567 132.646 41.5536 133.295C41.1393 133.967 40.7249 134.661 40.3106 135.322C39.3588 136.856 38.1719 138.189 37.041 139.577C35.7868 141.089 35.4509 141.671 34.8574 141.649C34.5327 141.637 34.152 141.201 34.2976 140.73C34.3984 140.406 35.003 139.801 35.2382 139.487C35.6973 138.905 36.4363 137.965 36.8954 137.382C38.1383 135.77 38.5974 134.852 39.6388 133.127C41.1952 130.507 42.8637 127.898 43.6923 124.953C44.0506 123.744 44.1178 122.501 44.2746 121.28C44.3641 120.284 44.4089 119.31 44.3865 118.313C44.3865 116.745 44.0506 115.211 43.7147 113.644C43.4123 112.255 43.4011 111.415 42.9868 110.038C42.5165 108.392 42.2142 107.272 41.9679 106.018C41.7775 104.797 41.576 103.465 42.1918 101.752C42.3934 101.102 43.11 100.128 43.8379 99.445C44.5657 98.7395 45.0808 98.146 45.3271 97.8101C45.4279 97.6981 45.5287 97.5862 45.6183 97.519C45.7302 97.4406 45.8534 97.4518 45.9542 97.463C46.0438 97.4854 46.1333 97.5302 46.2229 97.575L46.2789 97.5638Z" fill="#222222"/>
<path d="M28.1841 87.8558H28.0609C27.9489 87.8558 27.8146 87.8446 27.7026 87.6655C27.6018 87.4975 27.5682 87.2288 27.5906 86.9824C27.5906 86.8928 27.613 86.8033 27.6242 86.7137C27.6802 86.4337 27.7922 86.1874 27.9153 85.9634C28.1169 85.6051 28.352 85.2916 28.5984 85.0005C29.1359 84.3174 29.8637 83.8135 30.1996 83.1977C30.6699 82.3578 31.2074 81.3725 31.8009 80.4767C32.4839 79.4353 33.1446 78.3603 33.8948 77.3414C34.1748 76.9607 34.5219 76.6359 34.813 76.2664C35.2161 75.7401 35.6192 75.2026 36.0447 74.6876C36.4255 74.2061 36.7726 73.7022 37.1645 73.2319C37.534 72.7504 37.9259 72.2689 38.3738 71.8546C39.6167 70.6117 41.0388 69.5927 42.4497 68.5737C43.9054 67.5212 45.4282 66.6253 46.9511 65.7072C47.4774 65.3712 47.9701 65.0353 48.53 64.733C49.1122 64.4306 49.7057 64.1395 50.2656 63.826C51.5757 63.1205 52.9866 62.6726 54.3639 62.1351C55.8755 61.5417 56.3458 61.2393 56.8049 61.5753C57.0513 61.7544 57.1968 62.3143 56.9057 62.6278C56.7153 62.8518 56.0323 63.0309 55.73 63.1653C55.1701 63.4005 54.2407 63.7812 53.6696 64.0163C52.102 64.6546 51.4077 65.1585 49.9296 65.9535C47.6789 67.1516 45.3387 68.1706 43.2783 69.6711C42.4273 70.2869 41.7219 71.0484 40.938 71.7426C40.2998 72.2913 39.7175 72.8736 39.1129 73.4558C38.6426 73.9149 38.2171 74.4188 37.7804 74.9115C37.3772 75.4266 36.9629 75.9305 36.571 76.468C35.8768 77.4085 35.3281 77.8117 34.7906 78.853C34.1524 80.0736 33.6373 80.9582 33.0774 81.798C32.5063 82.6378 31.9912 83.4216 31.0506 84.463C30.7147 84.8213 30.166 85.4148 29.7181 86.0082C29.2478 86.6129 28.9903 87.184 28.8783 87.4079C28.8447 87.4863 28.7776 87.5759 28.7216 87.6543C28.6432 87.7327 28.5424 87.7886 28.4416 87.811C28.352 87.8446 28.2513 87.8558 28.1505 87.8558H28.1841Z" fill="#222222"/>
<path d="M53.5687 142.555L53.4792 142.488C53.3896 142.421 53.2888 142.343 53.244 142.253C53.1992 142.175 53.1992 142.096 53.1992 142.029V141.962C53.2216 141.895 53.2552 141.828 53.3 141.772L53.5016 141.503C53.6471 141.29 53.9047 141.145 53.9383 140.876C53.9942 140.518 54.1286 140.182 54.3302 139.902C54.5653 139.577 54.7893 139.241 55.0692 138.95C55.17 138.838 55.3267 138.771 55.4163 138.648C55.5395 138.48 55.6627 138.3 55.7522 138.11C55.9314 137.763 55.9874 137.36 56.1666 137.024C56.4353 136.542 56.8272 136.139 57.096 135.658C57.3759 135.165 57.7118 134.706 57.9246 134.18C58.003 133.989 58.0253 133.788 58.1149 133.609C58.2157 133.43 58.3165 133.239 58.3837 133.049C58.4844 132.802 58.5852 132.668 58.6972 132.5C58.8204 132.321 58.9547 132.119 59.0667 131.895C59.3355 131.403 59.4026 131.112 59.8505 131.302C60.0969 131.403 60.5224 131.783 60.6344 131.951C60.7127 132.075 60.556 132.175 60.5224 132.265C60.4552 132.422 60.332 132.69 60.2313 132.881C60.1081 133.138 60.0297 133.362 59.9513 133.609C59.8841 133.81 59.8393 134.012 59.7162 134.269C59.369 135.031 58.6972 135.613 58.2941 136.341C58.1261 136.643 58.0925 137.013 57.9246 137.326C57.7902 137.573 57.667 137.819 57.5103 138.043C57.2639 138.412 57.1072 138.816 56.8832 139.196C56.6816 139.532 56.4017 139.622 56.2673 139.991C55.9538 140.865 55.6291 141.156 55.0804 141.794C54.89 142.018 54.5877 142.768 54.263 142.869C54.207 142.891 54.1398 142.891 54.0614 142.869C53.9718 142.847 53.8711 142.791 53.7927 142.735L53.5575 142.567L53.5687 142.555Z" fill="#222222"/>
<path d="M104.417 89.7934L104.384 89.9054C104.35 90.0173 104.305 90.1293 104.227 90.1965C104.16 90.2637 104.081 90.2861 104.014 90.3085H103.936C103.857 90.3197 103.779 90.3085 103.701 90.2861L103.645 90.2637L104.059 88.7744L104.406 88.9088C104.731 89.032 104.977 89.2783 105.302 89.3343C105.75 89.4015 106.175 89.6366 106.511 89.939C106.892 90.2973 107.25 90.6892 107.485 91.1483C107.575 91.3162 107.597 91.5178 107.687 91.6858L108.056 92.38C108.28 92.8055 108.605 93.2086 108.706 93.7125C108.863 94.4292 108.728 95.1794 108.571 95.8736C108.403 96.6015 108.023 97.2509 107.62 97.8668C107.485 98.0907 107.373 98.3259 107.172 98.505L106.567 99.0537C106.108 99.4792 105.503 99.6136 104.955 99.7928C104.35 99.9943 104.171 100.151 103.924 99.7256C103.79 99.5016 103.667 98.9418 103.734 98.7178C103.779 98.5722 104.025 98.5834 104.126 98.5274C104.316 98.4491 104.619 98.3259 104.809 98.2587C105.324 98.046 105.47 97.7436 105.839 97.3853C106.366 96.8478 107.037 96.3887 107.217 95.5825C107.284 95.2578 107.149 94.933 107.138 94.6307C107.116 94.3732 107.071 94.138 107.026 93.8805C106.948 93.4774 106.724 93.119 106.522 92.7607C106.343 92.4472 106.377 92.1561 106.074 91.9097C105.347 91.3834 105.123 91.0587 104.484 90.566C104.328 90.454 103.936 90.3533 103.656 90.2525L104.059 88.7856C104.238 88.8416 104.395 88.92 104.462 89.0096C104.507 89.0655 104.54 89.1215 104.552 89.2111C104.563 89.3007 104.552 89.4127 104.518 89.5134C104.496 89.603 104.462 89.7038 104.428 89.7934H104.417Z" fill="#222222"/>
<path d="M101.416 105.772V105.648C101.416 105.537 101.416 105.402 101.506 105.301C101.596 105.201 101.719 105.167 101.864 105.167C101.92 105.167 101.988 105.167 102.032 105.189C102.2 105.223 102.335 105.29 102.435 105.357C102.603 105.469 102.715 105.581 102.827 105.66C103.029 105.805 103.309 106.164 103.622 106.264C104.07 106.421 104.485 106.712 104.809 107.059C105.19 107.462 105.548 107.888 105.817 108.369C105.918 108.549 105.951 108.761 106.052 108.929L106.511 109.646C106.802 110.072 107.183 110.475 107.396 110.967C107.698 111.65 107.81 112.535 107.754 113.352C107.709 114.226 107.329 115.032 106.847 115.738C106.679 115.984 106.523 116.253 106.287 116.443C106.041 116.645 105.795 116.813 105.548 117.003C104.977 117.417 104.294 117.518 103.656 117.652C102.951 117.798 102.727 117.932 102.525 117.484C102.413 117.238 102.368 116.667 102.48 116.465C102.559 116.32 102.827 116.353 102.951 116.32C103.174 116.264 103.533 116.163 103.757 116.107C104.361 115.917 104.574 115.626 105.022 115.267C105.347 114.987 105.649 114.752 105.918 114.439C106.175 114.125 106.366 113.733 106.388 113.308C106.411 112.949 106.198 112.625 106.097 112.289C106.019 112.02 105.884 111.718 105.772 111.415C105.593 110.945 105.28 110.542 105 110.116C104.753 109.747 104.753 109.411 104.395 109.12C103.555 108.448 103.286 108.022 102.592 107.339C102.447 107.194 102.234 107.104 101.887 106.858C101.584 106.634 101.528 106.6 101.54 106.511C101.528 106.466 101.506 106.41 101.484 106.354C101.461 106.276 101.439 106.175 101.428 106.074C101.416 105.984 101.416 105.895 101.405 105.783L101.416 105.772Z" fill="#222222"/>
<path d="M87.0264 126.656V126.779C87.0152 126.891 86.9929 127.014 86.8474 127.115C86.7353 127.193 86.5561 127.249 86.377 127.294L86.7801 126.04C86.8361 126.073 86.8921 126.118 86.9257 126.141C87.0152 126.219 87.0936 126.286 87.1496 126.353C87.2504 126.465 87.3288 126.555 87.4184 126.7L87.5975 126.98L88.1574 127.921C88.6053 128.66 88.93 129.477 89.3891 130.194C89.9714 131.146 90.5649 132.355 90.4193 133.833C90.3521 134.673 89.8146 135.603 89.154 136.073C88.5493 136.565 87.7431 136.913 86.9369 136.957C86.3322 137.002 85.8059 136.812 85.2908 136.677C84.563 136.465 83.9023 136.14 83.2865 135.838C82.693 135.547 82.2003 135.334 81.618 135.155C80.991 134.953 80.3975 134.696 79.8264 134.393C78.2028 133.497 76.8367 132.322 75.381 131.336C73.8918 130.317 72.4025 129.332 70.7453 128.873C70.163 128.716 69.6031 128.66 69.0208 128.593C68.4162 128.514 67.8003 128.503 67.218 128.615C65.796 128.884 64.2955 129.018 62.907 129.455C62.1456 129.69 61.7201 129.959 61.4737 130.093C61.205 130.239 61.1266 130.239 60.8691 130.228C60.7235 130.228 60.5107 130.205 60.3428 130.093C60.1748 130.004 60.0628 129.701 60.186 129.41C60.3764 128.918 61.1938 128.57 61.5185 128.425C62.1568 128.1 63.1981 127.798 63.8476 127.652C64.7322 127.44 65.3928 127.283 66.0647 127.126C66.4006 127.048 66.7365 126.969 67.1061 126.913C67.2852 126.88 67.498 126.846 67.7331 126.835C67.9459 126.835 68.181 126.835 68.4162 126.835C69.9054 126.846 71.3387 127.328 72.6041 127.977C73.8694 128.626 75.0004 129.433 76.1314 130.183C77.0608 130.81 78.046 131.314 78.953 131.907C79.6921 132.378 80.4199 132.826 81.159 133.217C81.7636 133.576 82.2899 133.71 83.0625 134.068C83.7456 134.382 84.3278 134.696 84.9213 134.942C85.9179 135.334 86.5002 135.659 87.3736 135.278C87.8439 135.043 88.2694 134.628 88.4373 134.382C88.6053 134.091 88.6613 133.744 88.6725 133.352C88.6501 132.557 88.4149 131.639 87.8998 130.496C87.7319 130.105 87.3288 129.433 86.8921 128.761C86.6793 128.425 86.4666 128.089 86.2762 127.764C86.1978 127.63 86.1306 127.496 86.0635 127.372C86.0411 127.328 86.0075 127.283 85.9851 127.238L85.9627 127.193C86.0187 127.126 86.0635 127.07 86.1082 127.003L86.3658 125.973C86.433 125.973 86.4554 125.973 86.4891 125.984C86.6234 126.006 86.7577 126.051 86.8585 126.118C86.9593 126.197 87.004 126.309 87.0264 126.409C87.0488 126.499 87.0488 126.6 87.0376 126.7L87.0264 126.656Z" fill="#222222"/>
<path d="M100.598 122.378L107.63 30.2896C107.731 28.9011 106.656 27.703 105.268 27.6582L62.7173 26.3817C61.4183 26.3481 60.3098 27.3335 60.1978 28.6324L52.8522 118.739C52.7403 120.094 53.748 121.281 55.1029 121.381L97.9558 124.64C99.2995 124.741 100.475 123.733 100.587 122.389L100.598 122.378Z" fill="white"/>
<path d="M100.509 122.165L100.409 121.997C100.308 121.851 100.207 121.594 100.185 120.642C100.162 119.735 100.229 118.425 100.285 117.126C100.308 116.656 100.341 116.174 100.364 115.693C100.465 114.181 100.577 112.624 100.677 111.09C100.879 108.616 101.069 106.152 101.271 103.666C101.719 97.8885 102.29 92.1217 102.592 86.6461C102.995 79.3677 103.544 71.4063 104.149 63.7808C104.865 54.9123 105.593 45.9879 106.31 37.2427C106.466 35.619 106.612 34.0402 106.758 32.4501C106.825 31.6775 106.903 30.8937 106.97 30.1098C106.993 29.5276 106.69 28.9229 106.186 28.587C106.007 28.4638 105.817 28.3854 105.604 28.3294C105.403 28.2735 105.179 28.2846 104.865 28.2623L103.13 28.2063L99.6471 28.0943C97.318 28.0271 94.989 27.9599 92.6823 27.8815C84.161 27.6912 75.7516 27.5008 67.2863 27.3105L62.7401 27.1761C62.2026 27.1537 61.71 27.3665 61.3852 27.7696C61.0269 28.1839 61.0045 28.5982 60.9373 29.4604L60.1535 38.4968C59.6384 44.521 59.1233 50.5565 58.6082 56.6032C57.5893 69.0436 56.5255 81.3273 55.5961 93.7341C55.2826 98.0675 54.9803 102.244 54.6555 106.645C54.4764 108.907 54.286 111.202 54.1068 113.498C54.0173 114.64 53.9277 115.793 53.8381 116.924L53.7037 118.626C53.6477 119.119 53.7373 119.41 53.9277 119.746C54.1516 120.104 54.5212 120.373 54.9355 120.463C55.0922 120.507 55.4505 120.519 55.7753 120.541L56.7495 120.608L60.635 120.899C63.2216 121.112 65.797 121.314 68.3837 121.526C73.5457 121.952 78.7078 122.377 83.9034 122.814C89.6142 123.262 93.4325 123.576 96.0975 123.777C96.7582 123.844 97.3516 123.9 97.8891 123.956C98.3594 124.023 98.6617 123.967 98.9753 123.856C99.5799 123.62 99.9495 123.206 100.196 122.814C100.442 122.389 100.632 122.187 100.8 122.568C100.868 122.758 100.924 123.105 100.756 123.587C100.599 124.046 100.207 124.673 99.4232 125.065C99.1544 125.199 98.7961 125.322 98.3818 125.356C97.9227 125.39 97.598 125.345 97.2173 125.322C96.4558 125.266 95.5824 125.199 94.6978 125.143C92.9286 124.998 91.1034 124.852 89.9389 124.763C85.5942 124.427 78.5062 123.878 74.128 123.542C68.1149 123.061 63.6135 122.758 59.1121 122.456C57.9812 122.377 56.8614 122.31 55.7081 122.232L55.2714 122.198H55.0586L54.7675 122.153C54.3868 122.086 54.0061 121.963 53.6589 121.762C52.9647 121.37 52.416 120.72 52.1585 119.925C52.0241 119.533 51.9681 119.108 52.0017 118.693C52.0241 118.38 52.0465 118.066 52.0689 117.742C52.1137 117.103 52.1585 116.454 52.2145 115.782C52.3152 114.45 52.4272 113.039 52.5392 111.538C53.9501 93.2638 55.7417 75.0455 57.2198 56.7599C57.7796 49.2016 58.3283 41.7888 58.8882 34.2193C59.0114 32.6965 59.1345 31.1848 59.2577 29.6731L59.3473 28.5422C59.3809 28.0383 59.5488 27.5344 59.8064 27.0977C60.3327 26.2131 61.2844 25.5972 62.3146 25.4965C62.8857 25.4517 63.1544 25.4965 63.5687 25.4965L64.6997 25.5301L66.9728 25.5972C68.4844 25.642 70.0073 25.698 71.5302 25.7428C81.1152 26.0116 90.5771 26.2915 100.185 26.5602C101.248 26.5938 102.245 26.6274 103.208 26.661C103.689 26.6834 104.16 26.6946 104.619 26.717C104.854 26.717 105.078 26.7394 105.302 26.7394C105.593 26.7618 105.907 26.7954 106.198 26.8962C107.362 27.2545 108.224 28.2511 108.448 29.3708C108.504 29.6507 108.527 29.9307 108.516 30.2106L108.46 30.8601L108.348 32.103C108.056 35.4063 107.777 38.6983 107.497 42.875C106.186 62.4818 105.358 71.7198 103.88 89.6134C103.353 95.9624 102.223 112.994 101.562 118.749C101.45 119.78 101.316 120.776 101.192 121.426C101.058 122.131 100.924 122.31 100.823 122.344C100.722 122.366 100.632 122.254 100.543 122.12L100.509 122.165Z" fill="#222222"/>
<path d="M51.3401 81.126C52.4263 81.5627 53.4677 82.2345 54.4642 82.8392C55.0801 83.2087 55.5728 83.6118 56.2222 83.9142C56.7373 84.1493 57.174 84.4852 57.6219 84.8212C58.0138 85.1123 58.4058 85.2467 58.8313 85.4818C59.212 85.6834 59.5591 85.9409 59.9734 86.1089C60.5109 86.3216 60.9812 86.4672 61.4291 86.8479C61.709 87.0831 61.989 87.1726 62.2801 87.3742C62.8288 87.7437 63.3775 88.1916 63.9709 88.5163C64.5308 88.8187 65.0683 88.9978 65.5834 89.3897C65.9193 89.6473 66.412 90.0504 66.5576 90.4647C66.6471 90.7334 66.8039 91.7524 66.7031 92.0436C66.6695 92.1331 66.5911 92.1219 66.5576 92.2003C66.5464 92.2339 66.4456 92.4803 66.4232 92.525C66.3224 92.693 66.1768 92.917 66.0201 93.0737C65.8633 93.2305 65.6953 93.4096 65.505 93.5328C65.3706 93.6224 65.2362 93.6224 65.1019 93.6896C64.9003 93.7904 64.7212 93.9471 64.5196 94.0367C63.3663 94.5518 62.0785 94.8653 60.802 94.9773C60.4101 95.0109 60.1414 95.0669 59.7943 95.2572C59.3911 95.47 59.1112 95.5036 58.6521 95.5484C57.8123 95.6379 57.0621 95.6603 56.2222 95.638C55.1361 95.6156 54.0499 95.6156 52.9638 95.5596C52.2583 95.526 51.3625 95.7723 50.7691 95.2908C49.974 94.6526 49.2798 93.5216 48.8655 92.6034C48.3504 91.4725 48.5743 90.3639 48.6415 89.1882C48.7311 87.5757 48.8879 85.8513 49.6493 84.418C49.8733 83.9925 50.0188 83.5334 50.2092 83.0967C50.3548 82.7608 50.6459 82.4585 50.6347 82.0778L50.7691 82.033" fill="#F5F2ED"/>
<path d="M62.3699 39.2587C62.3699 39.2587 62.3923 39.1803 62.3923 39.1467C62.4147 39.0348 62.4595 38.9116 62.6051 38.8332C62.7394 38.7548 62.941 38.7212 63.1314 38.6876C63.1985 38.6876 63.2769 38.6652 63.3441 38.6652C63.5681 38.6428 63.8032 38.6428 64.0383 38.6652C64.4079 38.6764 64.7774 38.71 65.1469 38.7324C66.0091 38.766 66.8713 38.934 67.6887 38.8444C68.7861 38.7324 69.973 38.7212 71.1152 38.7772C72.4365 38.8444 73.7802 38.9116 75.0791 39.0459C75.5606 39.1019 76.0197 39.2139 76.5124 39.2475C77.2066 39.2923 77.9009 39.3259 78.5951 39.3371C79.8716 39.3595 81.1258 39.2475 82.3911 39.2811C84.2051 39.3371 85.9967 39.5386 87.7995 39.6058C89.6583 39.673 91.4946 39.8074 93.3534 39.785C94.0029 39.785 94.6299 39.7178 95.2906 39.7402C95.9625 39.7626 96.6679 39.785 97.3397 39.7738C98.8962 39.7514 100.43 39.9641 101.976 40.0649C103.678 40.1657 104.271 40.0649 104.562 40.5688C104.719 40.8264 104.618 41.3974 104.215 41.5766C103.935 41.6998 103.185 41.5766 102.838 41.5766C102.188 41.5766 101.125 41.5094 100.475 41.4758C98.6723 41.375 97.7764 41.5094 95.9736 41.4982C93.2415 41.4758 90.5205 41.0727 87.7771 40.9943C86.6461 40.9607 85.5376 41.0727 84.3954 41.0391C83.4884 41.0167 82.5926 40.9943 81.6856 40.9383C80.2523 40.8599 78.8415 40.8823 77.4082 40.8264C76.1429 40.7816 75.4262 40.5576 74.1721 40.5912C71.2383 40.6808 69.8611 40.5016 67.1848 40.3001C66.2331 40.2217 63.68 40.3001 62.829 40.0537C62.6723 40.0089 62.5267 39.9529 62.4371 39.8746C62.3363 39.785 62.3139 39.673 62.3027 39.5722C62.3027 39.4715 62.3251 39.3819 62.3475 39.2811L62.3699 39.2587Z" fill="#222222"/>
<path d="M67.8683 92.0213C67.8683 92.0213 67.8907 91.9429 67.8907 91.9094C67.9131 91.7974 67.9467 91.6742 68.0587 91.5958C68.1595 91.5174 68.305 91.4839 68.4506 91.4615C68.5066 91.4615 68.5514 91.4503 68.6074 91.4391C68.7753 91.4279 68.9433 91.4279 69.1112 91.4391C69.38 91.4615 69.6487 91.495 69.9287 91.5174C70.5669 91.5622 71.194 91.7414 71.7987 91.6742C72.6049 91.5846 73.4895 91.5846 74.3293 91.663C75.3035 91.7526 76.2889 91.8422 77.2406 91.9989C77.599 92.0549 77.9237 92.1781 78.2932 92.2117C78.7971 92.2677 79.3122 92.3125 79.8161 92.3349C80.7567 92.3797 81.6861 92.2789 82.6154 92.3349C83.948 92.4132 85.2581 92.6484 86.5906 92.738C87.9567 92.8276 89.3116 92.9955 90.6777 93.0067C91.1591 93.0067 91.6182 92.9619 92.0997 92.9955C92.5924 93.0291 93.1075 93.0627 93.6114 93.0627C94.7647 93.0627 95.8733 93.2979 97.0155 93.421C98.2696 93.5554 98.7063 93.4658 98.9078 93.9585C99.0086 94.2272 98.9078 94.7871 98.6055 94.9551C98.3927 95.0671 97.8441 94.9551 97.5977 94.9327C97.1162 94.9103 96.3436 94.8431 95.8621 94.7983C94.5408 94.6639 93.869 94.7983 92.5476 94.7535C90.5321 94.6863 88.5389 94.2496 86.5346 94.1265C85.706 94.0705 84.8773 94.1713 84.0487 94.1265C83.3769 94.0817 82.7162 94.0481 82.0556 93.9921C81.003 93.8913 79.9616 93.8913 78.9091 93.8129C77.9797 93.7458 77.4646 93.5106 76.5352 93.533C74.3629 93.5778 73.3551 93.3762 71.3955 93.1299C70.7013 93.0403 68.8201 93.0739 68.1931 92.8164C68.0811 92.7716 67.9803 92.7156 67.9131 92.626C67.8347 92.5364 67.8235 92.4244 67.8347 92.3237C67.8347 92.2229 67.8571 92.1333 67.8795 92.0325L67.8683 92.0213Z" fill="#222222"/>
<path d="M27.1204 91.6743C27.1204 91.6743 27.0532 91.6182 27.0308 91.5846C26.9412 91.4951 26.8852 91.3159 27.0308 91.0472C27.1652 90.7896 27.4227 90.5546 27.6691 90.353L27.949 90.1402C28.2513 89.9274 28.5649 89.7483 28.8784 89.5803L29.5614 89.2108L30.2557 88.7517C31.3418 88.0126 32.4952 87.3744 33.4694 86.5682C34.7571 85.4932 36.2576 84.4406 37.7468 83.5112C39.4712 82.4363 41.218 81.3725 42.9873 80.4207C43.312 80.2416 43.6479 80.0849 43.9726 79.9281C44.3086 79.7602 44.7677 79.581 45.182 79.4802C46.3801 79.2115 47.5334 79.3682 48.6196 79.5809C50.6128 80.0176 52.4939 80.6895 54.2184 81.6972C56.693 83.1529 58.675 85.1125 60.9593 86.5346C62.0342 87.2176 63.4451 87.6544 64.7328 88.3599C65.3823 88.7182 66.0429 89.1101 66.6252 89.726C67.2075 90.3306 67.6442 91.3048 67.3866 92.3126C67.1963 92.9955 66.782 93.477 66.3789 93.8689C65.9422 94.272 65.539 94.5296 65.0799 94.8207C64.1282 95.3806 63.0868 95.8397 62.0678 96.1868C60.8809 96.6011 59.6492 96.8028 58.4286 96.8812C57.0625 96.982 55.9316 96.6796 54.7558 96.6012C53.4905 96.4893 52.6619 96.5227 52.158 96.5899C51.6541 96.6572 51.4638 96.6572 51.195 96.6012C51.0383 96.5676 50.8255 96.5003 50.7359 96.31C50.6352 96.1308 50.6911 95.7502 51.0607 95.4815C51.5869 95.056 52.8747 95.0672 53.4121 95.0784C54.4647 95.056 56.0995 95.2574 57.0625 95.347C57.3985 95.3806 57.6784 95.3806 57.9247 95.3694C58.2159 95.347 58.4958 95.3135 58.7645 95.2799C59.2908 95.2015 59.7835 95.1007 60.2538 94.9775C61.1944 94.7199 62.1238 94.4064 63.2659 93.8465C63.7027 93.6338 64.1282 93.3986 64.5313 93.1299C64.9456 92.8612 65.3263 92.6036 65.5726 92.3349C65.8302 92.0437 65.9422 91.831 65.9198 91.5734C65.9198 91.2935 65.7966 91.0024 65.539 90.6888C64.9904 90.0842 64.1058 89.5691 63.1988 89.1324C62.2918 88.6733 61.3064 88.3262 60.3098 87.7103C58.8093 86.7809 57.3537 85.8404 55.9764 84.8438C54.8566 84.0376 53.7705 83.2985 52.5947 82.6602C50.7695 81.6748 48.7316 80.9247 46.8056 80.8463C45.9658 80.8239 45.3723 80.8911 44.8684 81.1599C44.1966 81.507 43.5471 81.8653 42.7521 82.4028C39.0569 84.8998 37.2093 85.9187 33.8053 88.1358C33.1894 88.5277 32.1145 89.3115 31.0283 90.0731C30.7596 90.2521 30.502 90.4538 30.1549 90.6442C29.875 90.7897 29.595 90.9352 29.3375 91.0696C28.856 91.3159 28.4529 91.5175 28.1618 91.6518C27.9714 91.7414 27.8146 91.8198 27.7138 91.8198C27.6579 91.8198 27.6131 91.7974 27.5683 91.775C27.5123 91.7638 27.4563 91.7527 27.4115 91.7527C27.3107 91.7527 27.2212 91.719 27.1428 91.6518L27.1204 91.6743Z" fill="#222222"/>
<path d="M73.6684 78.5167L73.646 78.6287C73.6236 78.7406 73.59 78.8638 73.4892 78.9422C73.3884 79.0206 73.2541 79.0542 73.1085 79.0766L72.9517 79.099C72.795 79.1102 72.627 79.1102 72.4702 79.099L71.6976 79.0206C71.3953 78.9982 71.0929 78.9422 70.7906 78.8974C70.6338 78.875 70.5219 78.8638 70.3203 78.8526C70.0628 78.8414 69.8052 78.8302 69.5365 78.8526C69.2566 78.8526 68.9654 78.8526 68.6631 78.8638C68.6631 78.3375 68.6631 77.6321 68.6855 77.0834C68.6855 76.7587 68.7079 76.4228 68.7415 76.098C68.831 75.1686 68.9094 74.2392 69.0662 73.321C69.1222 72.9851 69.2454 72.6716 69.2789 72.3245C69.3237 71.843 69.3797 71.3503 69.4021 70.8688C69.4245 70.4209 69.4021 69.973 69.4021 69.5363V68.8644L69.3909 68.5285L69.4133 68.0806L69.5253 66.6025L70.9362 66.7257L71.8208 66.8265C72.3247 66.8825 72.8174 66.9385 73.3212 66.9721C73.9371 67.0168 74.553 67.0616 75.1688 67.1064C75.0233 68.9764 74.9785 69.5139 74.9673 70.4993C74.9673 70.9584 75.0121 71.3951 74.9897 71.8654C74.9561 72.3357 74.9337 72.8284 74.9337 73.2987C74.9337 74.396 74.6985 75.4598 74.5866 76.5459C74.4634 77.7441 74.553 78.1584 74.0491 78.3487C73.7803 78.4495 73.2205 78.3487 73.0525 78.0576C72.9405 77.856 73.0525 77.341 73.0637 77.0946C73.0861 76.6355 73.1533 75.8965 73.1981 75.4374C73.3212 74.1833 73.1981 73.545 73.2317 72.2797C73.2541 71.507 73.3436 70.7456 73.4332 69.9842L73.59 68.842C73.6012 68.7637 73.6236 68.6069 73.6236 68.5957L73.646 68.5397L73.6908 68.4053C73.6908 68.4053 73.6236 68.3829 73.5788 68.3829H73.5116L73.2653 68.3605C72.8734 68.3382 72.4702 68.3605 72.0783 68.3605H71.4849L71.1825 68.3717C71.0706 68.3717 71.1377 68.3717 71.1153 68.3717H71.0817V68.4053L71.0482 68.7301C70.9474 69.7266 70.9586 70.7232 70.8802 71.731C70.8242 72.6156 70.5891 73.1083 70.6003 73.9929C70.6227 74.8663 70.6003 75.5382 70.5443 76.1764C70.5107 76.4899 70.4771 76.8035 70.4435 77.1282C70.4323 77.2402 70.4323 77.2514 70.4211 77.2402V77.2626L70.3651 77.341C70.3651 77.3634 70.3987 77.3745 70.4547 77.3969C70.3987 77.3969 70.7458 77.4193 70.9922 77.4305C71.2609 77.4417 71.5632 77.4529 71.8768 77.4753C72.4814 77.5089 73.0749 77.5649 73.3772 77.6881C73.478 77.7329 73.5788 77.7889 73.646 77.8784C73.7132 77.968 73.7244 78.08 73.7244 78.1808C73.7244 78.2815 73.702 78.3711 73.6796 78.4719L73.6684 78.5167Z" fill="#E8E1C4"/>
<path d="M70.2489 67.4756L69.5156 78.1216L73.7048 78.4102L74.4381 67.7641L70.2489 67.4756Z" fill="#E8E1C4"/>
<path d="M63.3004 65.114C63.3004 65.114 63.2668 65.0468 63.2444 65.0132C63.1884 64.9125 63.1437 64.8005 63.166 64.6773C63.1884 64.5653 63.2556 64.4534 63.334 64.3638C63.3676 64.3302 63.39 64.2966 63.4236 64.263C63.5244 64.1622 63.6363 64.0838 63.7483 63.9943C63.9387 63.8711 64.129 63.7591 64.3194 63.6359C64.7561 63.3448 65.2712 63.1545 65.6183 62.7849C66.0774 62.2922 66.6485 61.8331 67.2307 61.4636C67.9138 61.0269 68.5968 60.5902 69.3023 60.2207C69.571 60.0863 69.851 60.0079 70.1085 59.8512C70.4668 59.6272 70.8251 59.4033 71.1611 59.1569C71.7881 58.709 72.3256 58.1492 72.9639 57.7125C73.8709 57.0854 74.8562 56.5927 75.7632 55.9657C76.7038 55.3274 77.6668 54.7563 78.5514 54.0621C78.865 53.8157 79.1337 53.5358 79.4584 53.3118C79.7943 53.0767 80.1415 52.8415 80.4662 52.584C81.2052 51.9905 82.0674 51.5986 82.8737 51.1059C83.7583 50.5573 83.9822 50.2661 84.4189 50.5573C84.6429 50.714 84.934 51.2179 84.8332 51.509C84.7661 51.7106 84.3405 51.8898 84.1726 52.0129C83.8478 52.2481 83.3104 52.5952 82.9744 52.808C82.0451 53.3902 81.6979 53.8381 80.8133 54.4876C79.4808 55.4842 77.9356 56.1672 76.5695 57.1078C75.9984 57.4997 75.5281 58.0036 74.9682 58.3955C74.5091 58.709 74.0724 59.0226 73.6021 59.3249C72.8631 59.784 72.1912 60.3327 71.4746 60.8142C70.8363 61.2397 70.366 61.3293 69.7838 61.8219C68.4177 62.9753 67.6451 63.3448 66.2342 64.1734C65.7303 64.4646 64.5433 65.4611 63.9835 65.5843C63.8827 65.6067 63.7819 65.6179 63.6923 65.5843C63.5916 65.5507 63.5132 65.4611 63.4572 65.3828C63.4012 65.3044 63.3564 65.2148 63.3116 65.1364L63.3004 65.114Z" fill="#222222"/>
<path d="M98.3148 67.4767C98.3148 67.4767 98.2476 67.5215 98.214 67.5438C98.1244 67.611 98.0125 67.6782 97.9005 67.6782C97.7885 67.6782 97.6877 67.6334 97.5982 67.5774C97.5646 67.555 97.531 67.5326 97.4974 67.5103C97.3966 67.4431 97.3182 67.3535 97.2398 67.2639C97.1167 67.1183 97.0047 66.9616 96.8815 66.816C96.5904 66.4801 96.4 66.0546 96.0417 65.8082C95.5602 65.4835 95.1123 65.058 94.754 64.5989C94.3285 64.0614 93.8918 63.5351 93.5111 62.9641C93.3767 62.7513 93.2871 62.505 93.1304 62.3146C92.9064 62.0347 92.6825 61.7547 92.4473 61.4972C91.9994 61.0157 91.4619 60.635 91.0252 60.1535C90.4094 59.4592 89.9055 58.6642 89.2896 57.9588C88.6625 57.2309 88.0915 56.4807 87.4084 55.8089C87.1733 55.5737 86.8933 55.3833 86.6694 55.1258C86.4454 54.8571 86.1991 54.5995 85.9528 54.3532C85.3705 53.8045 84.9786 53.0991 84.4747 52.472C83.9372 51.7777 83.6461 51.6322 83.9036 51.1955C84.038 50.9603 84.4971 50.6132 84.777 50.6468C84.9674 50.6692 85.1577 51.0163 85.2809 51.1507C85.5048 51.397 85.852 51.8113 86.0647 52.0801C86.6358 52.8079 87.0725 53.0431 87.7108 53.7037C88.6849 54.7227 89.3792 55.9768 90.3086 57.0294C90.6893 57.4661 91.182 57.7908 91.5739 58.2275C91.8874 58.5746 92.201 58.9218 92.4921 59.2801C92.9512 59.8512 93.4775 60.355 93.9702 60.9149C94.3957 61.4076 94.4852 61.8219 94.9667 62.2474C96.0977 63.2664 96.4672 63.8823 97.2846 64.9908C97.5758 65.3827 98.5499 66.2673 98.6843 66.7488C98.7067 66.8384 98.7179 66.928 98.6843 67.0176C98.6619 67.1183 98.5835 67.1967 98.5052 67.2639C98.438 67.3311 98.3596 67.3871 98.2812 67.4431L98.3148 67.4767Z" fill="#222222"/>
<path d="M92.5815 76.0311L92.5591 76.1431C92.5367 76.255 92.5032 76.3782 92.3912 76.4566C92.2792 76.535 92.1336 76.5686 91.9881 76.591L91.8201 76.6133C91.6521 76.6245 91.473 76.6133 91.2938 76.6133L90.454 76.535C89.7934 76.4902 89.1551 76.311 88.528 76.3782C87.6994 76.4678 86.7924 76.4678 85.919 76.3782C84.7657 76.2662 83.6011 76.1543 82.459 76.0311C82.4814 75.8071 82.515 75.5832 82.5374 75.3592C82.5822 75.0121 82.6381 74.665 82.6829 74.3515C82.7277 74.1387 82.7613 73.9819 82.7837 73.7916C82.8397 73.2653 82.8845 72.739 82.9069 72.2127C82.9517 71.2273 82.8509 70.3427 82.9181 69.2678L83.0413 67.6777L84.5641 67.8121L85.4599 67.9129C85.9974 67.9801 86.5349 68.0361 87.0836 68.0696C88.4944 68.1704 89.8829 68.3272 91.2938 68.3384C91.5402 68.3384 91.7865 68.3384 92.0217 68.3272H92.2008H92.5367C92.7719 68.3384 92.9958 68.3496 93.231 68.3608L93.9252 68.4056L93.8581 69.5253L93.8357 70.0852V70.4099C93.8357 71.5969 93.5893 72.739 93.4661 73.9259C93.3318 75.2137 93.4213 75.6616 92.9287 75.8743C92.6599 75.9863 92.1 75.8743 91.9321 75.572C91.8201 75.348 91.9321 74.7882 91.9545 74.5306C91.9769 74.0379 92.0441 73.2317 92.1 72.739C92.1672 72.056 92.1672 71.5409 92.156 71.037C92.156 70.7794 92.156 70.5219 92.1448 70.242V70.0404H92.1336H92.1112C92.1112 70.0404 92.1336 70.0404 92.0888 70.0404L91.8985 70.018L91.529 69.9844L90.0285 69.8053C89.0319 69.6709 88.0353 69.5365 87.0276 69.4805C86.6021 69.4581 86.1766 69.4693 85.7399 69.4805H85.1016H84.7769H84.6425H84.6089V69.5253L84.5753 69.9508C84.4745 71.037 84.4745 72.1119 84.3962 73.1981C84.3626 73.6236 84.3066 73.9707 84.2394 74.3067C84.2058 74.5418 84.1946 74.441 84.1834 74.497C84.1722 74.5306 84.161 74.5642 84.161 74.5866C84.1722 74.5866 84.1946 74.5866 84.217 74.5754L84.2842 74.553C84.2842 74.553 84.2842 74.5306 84.4521 74.5418C84.6985 74.5418 84.9336 74.553 85.1464 74.553C85.5943 74.5754 85.9974 74.5978 86.3893 74.6314C87.1843 74.7098 87.9458 74.8217 88.9535 74.9449C89.6702 75.0345 91.6073 75.0009 92.2456 75.2697C92.3576 75.3144 92.4696 75.3704 92.5367 75.46C92.6151 75.5496 92.6263 75.6616 92.6263 75.7623C92.6263 75.8631 92.6039 75.9527 92.5815 76.0535V76.0311Z" fill="#222222"/>
<path d="M65.8531 64.431L65.9651 64.4758C66.0771 64.5094 66.2002 64.5766 66.2674 64.7669C66.3458 64.9573 66.3682 65.226 66.3794 65.4948V65.7971C66.4018 66.1106 66.3794 66.4353 66.357 66.7489L66.2338 68.2717C66.1443 69.4587 65.9315 70.6456 65.9651 71.7766C66.0099 73.2882 65.9651 74.9231 65.8307 76.5019L65.8083 76.8266C65.8083 76.905 65.8083 76.849 65.8083 76.8714V76.8938H65.9427L66.9953 76.9946C67.6895 77.073 68.3838 77.1402 69.078 77.2185C69.7499 77.2969 70.3769 77.4425 71.0488 77.4985C72.0006 77.5769 72.9635 77.6664 73.9153 77.7112C75.6733 77.812 77.409 77.7672 79.1446 77.8792C81.6304 78.036 84.1051 78.3495 86.6021 78.5175C89.1663 78.6966 91.697 78.9318 94.2612 79.0325C94.6531 79.0325 95.045 79.0437 95.4369 79.0549H95.6945H95.7393H95.8065V78.9989C95.8289 78.7078 95.8401 78.4055 95.8625 78.1143C95.8848 77.644 95.9072 77.1738 95.9296 76.7035C95.9968 74.5535 96.2992 72.4596 96.4895 70.3209C96.6911 67.9694 96.6351 67.1632 97.139 66.7601C97.4077 66.5473 97.9788 66.6929 98.1243 67.264C98.2251 67.6559 98.0684 68.6748 98.046 69.1563C98.0012 70.0521 97.878 71.5078 97.7996 72.4148C97.5869 74.8895 97.6764 76.1324 97.5533 78.607L97.4077 80.8801L95.2466 80.7234L94.0037 80.6114L91.529 80.365C89.883 80.1971 88.2257 80.0291 86.5685 79.9171C85.0121 79.8164 83.478 79.8724 81.9104 79.7716C80.6562 79.682 79.4245 79.6036 78.1704 79.514C76.1996 79.3461 74.2513 79.2901 72.2805 79.1557C70.5449 79.0325 69.5595 78.7638 67.8351 78.7302C67.208 78.7078 66.6369 78.6966 66.1219 78.6742C65.2708 78.6294 64.5206 78.5846 63.8936 78.551C63.9607 77.6552 64.0167 76.8266 64.0727 76.0092C64.1175 75.4829 64.1623 74.9678 64.2071 74.4528C64.3079 73.4226 64.4198 72.3588 64.543 71.0823C64.6774 69.7722 64.7558 66.2562 65.0469 65.0804C65.1029 64.8677 65.1701 64.6661 65.2485 64.543C65.338 64.3974 65.4612 64.375 65.562 64.375C65.6628 64.375 65.7523 64.4086 65.8531 64.431Z" fill="#222222"/>
<path d="M78.4385 78.3605C78.4385 78.3605 78.3601 78.3604 78.3265 78.3492C78.2146 78.338 78.0914 78.3156 78.0018 78.2708C77.9234 78.226 77.8786 78.1588 77.8562 78.1028C77.8562 78.0804 77.8338 78.0582 77.8338 78.0358C77.8114 77.9685 77.8115 77.9013 77.8115 77.8229C77.8115 77.7109 77.845 77.599 77.8562 77.4871C77.8786 77.2295 78.0242 76.972 77.9346 76.7256C77.8115 76.3897 77.7779 76.0314 77.8227 75.6843C77.8786 75.2924 77.9122 74.8891 78.0354 74.4972C78.0802 74.3517 78.1922 74.2173 78.2146 74.0717C78.2482 73.8702 78.2705 73.6575 78.2817 73.4448C78.2817 73.0641 78.1474 72.672 78.1698 72.2913C78.1922 71.7426 78.3713 71.2165 78.4049 70.679C78.4385 70.1191 78.5505 69.5703 78.5057 69.0104C78.4945 68.8089 78.4161 68.6185 78.4385 68.4282C78.4497 68.2266 78.4609 68.0139 78.4385 67.8123C78.3937 67.342 78.5841 66.8941 78.6513 66.4238C78.7296 65.9087 78.6289 65.7296 79.1104 65.6736C79.3679 65.64 79.939 65.7073 80.1181 65.8417C80.2413 65.9312 80.1405 66.1552 80.1405 66.256C80.1405 66.4575 80.1069 66.7711 80.0733 66.9614C79.995 67.4989 80.1517 67.7788 80.1629 68.3163C80.1741 69.1449 79.827 69.94 79.7822 70.7574C79.7598 71.0933 79.8942 71.4404 79.883 71.7763C79.8718 72.0451 79.8606 72.3138 79.827 72.5938C79.771 73.0193 79.8158 73.4448 79.7822 73.8815C79.7598 74.2622 79.5471 74.4637 79.5919 74.8445C79.7262 75.7403 79.5695 76.1433 79.4015 76.9383C79.3455 77.2182 79.4463 77.991 79.2223 78.2373C79.1776 78.2821 79.1216 78.3268 79.0432 78.3492C78.9536 78.3716 78.8416 78.3716 78.7408 78.3716C78.6401 78.3716 78.5505 78.3604 78.4497 78.338L78.4385 78.3605Z" fill="#222222"/>
<path d="M73.2541 58.9101C73.2541 58.9101 73.3101 58.8541 73.3437 58.8317C73.4221 58.7533 73.5229 58.6749 73.6125 58.6413C73.702 58.6077 73.7692 58.6189 73.8364 58.6413C73.8588 58.6413 73.8812 58.6525 73.9036 58.6637C73.9708 58.6861 74.0156 58.7309 74.0716 58.7757C74.15 58.8541 74.2059 58.9325 74.2843 59.0108C74.4523 59.19 74.5419 59.4475 74.777 59.5371C75.1017 59.6491 75.3817 59.8395 75.5944 60.0858C75.8408 60.3657 76.0983 60.6457 76.2999 60.9704C76.3783 61.0936 76.4007 61.2503 76.4902 61.3623C76.6134 61.5079 76.7478 61.6646 76.8933 61.7878C77.1621 62.023 77.5316 62.1573 77.7891 62.4037C78.1587 62.762 78.4274 63.2099 78.7969 63.5682C79.1776 63.9377 79.5024 64.3521 79.9279 64.6656C80.0734 64.7776 80.2638 64.8447 80.3982 64.9679C80.5325 65.1023 80.6781 65.2367 80.8461 65.3486C81.2156 65.6062 81.4171 66.0205 81.6971 66.3564C82.0106 66.7259 82.2122 66.7595 81.9322 67.1626C81.7867 67.3754 81.3723 67.7673 81.1596 67.8233C81.014 67.8569 80.9244 67.6553 80.8461 67.5881C80.7005 67.465 80.4989 67.241 80.3758 67.1066C80.0398 66.7147 79.7375 66.6699 79.3456 66.3452C78.7409 65.8525 78.405 65.1023 77.8451 64.5648C77.61 64.3409 77.2741 64.2401 77.0501 64.0161C76.8598 63.837 76.6694 63.669 76.5014 63.4786C76.2327 63.1763 75.8968 62.9412 75.6056 62.6612C75.3481 62.4149 75.3481 62.1237 75.0346 61.9334C74.3067 61.4855 74.1164 61.116 73.6573 60.5113C73.4893 60.2986 72.8622 59.9066 72.8398 59.5819C72.8398 59.5259 72.8398 59.4587 72.8734 59.3804C72.907 59.302 72.9854 59.2124 73.0526 59.134C73.1198 59.0668 73.187 58.9996 73.2653 58.9325L73.2541 58.9101Z" fill="#222222"/>
<path d="M62.7067 64.4304C62.7067 64.4304 62.6731 64.3632 62.6507 64.3296C62.5947 64.2289 62.5499 64.1169 62.5723 63.9937C62.5947 63.8817 62.662 63.7698 62.7404 63.6802C62.774 63.6466 62.7962 63.613 62.8298 63.5794C62.9306 63.4786 63.0426 63.4003 63.1546 63.3107C63.3449 63.1875 63.5354 63.0755 63.7258 62.9524C64.1625 62.6612 64.6775 62.4709 65.0247 62.1013C65.4838 61.6086 66.0547 61.1496 66.637 60.78C67.32 60.3433 68.0031 59.9066 68.7085 59.5371C68.9773 59.4027 69.2572 59.3244 69.5148 59.1676C69.8731 58.9436 70.2314 58.7197 70.5673 58.4733C71.1944 58.0254 71.732 57.4656 72.3702 57.0289C73.2772 56.4018 74.2626 55.9091 75.1696 55.2821C76.1102 54.6438 77.0732 54.0727 77.9578 53.3785C78.2712 53.1321 78.5399 52.8522 78.8647 52.6282C79.2118 52.3931 79.5477 52.158 79.8724 51.9004C80.6116 51.3069 81.4738 50.915 82.28 50.4223C83.1646 49.8737 83.3885 49.5825 83.8252 49.8737C84.0491 50.0304 84.3404 50.5343 84.2396 50.8254C84.1724 51.027 83.7468 51.2062 83.5788 51.3293C83.2541 51.5645 82.7166 51.9116 82.3807 52.1244C81.4513 52.7066 81.1042 53.1545 80.2196 53.804C78.8871 54.8006 77.3418 55.4836 75.9757 56.4242C75.4046 56.8161 74.9343 57.32 74.3745 57.7119C73.9154 58.0254 73.4788 58.339 73.0085 58.6413C72.2695 59.1004 71.5976 59.6491 70.881 60.1306C70.2427 60.5561 69.7723 60.6457 69.19 61.1384C67.8239 62.2917 67.0514 62.6612 65.6405 63.4898C65.1366 63.781 63.9496 64.7775 63.3897 64.9007C63.2889 64.9231 63.1882 64.9343 63.0986 64.9007C62.9978 64.8671 62.9195 64.7775 62.8635 64.6992C62.8076 64.6208 62.7627 64.5312 62.7179 64.4528L62.7067 64.4304Z" fill="#222222"/>
<path d="M98.841 67.0057C98.841 67.0057 98.7738 67.0505 98.7402 67.0729C98.6506 67.14 98.5386 67.2072 98.4266 67.2072C98.3147 67.2072 98.2139 67.1624 98.1131 67.1064C98.0795 67.0841 98.0459 67.0617 98.0123 67.0393C97.9116 66.9609 97.822 66.8825 97.7436 66.7817C97.6092 66.6362 97.4973 66.4682 97.3629 66.3226C97.0606 65.9755 96.8478 65.5388 96.4783 65.2813C95.9744 64.9453 95.5153 64.4974 95.1234 64.0271C94.6643 63.4785 94.2052 62.9298 93.8021 62.3363C93.6565 62.1124 93.5669 61.866 93.399 61.6645C93.1638 61.3733 92.9287 61.0822 92.6711 60.8134C92.2008 60.3096 91.6298 59.9176 91.1819 59.4138C90.5324 58.6859 89.9949 57.8685 89.3455 57.1407C88.6848 56.3904 88.0801 55.6066 87.3523 54.9124C87.0948 54.666 86.8148 54.4757 86.5797 54.2069C86.3333 53.9382 86.087 53.6582 85.8182 53.4119C85.2024 52.8408 84.7769 52.113 84.2506 51.4523C83.6795 50.7357 83.3772 50.5789 83.6235 50.131C83.7579 49.8959 84.217 49.5488 84.4969 49.5823C84.6985 49.6047 84.8889 49.9631 85.0232 50.1086C85.2696 50.3662 85.6279 50.8029 85.8518 51.0716C86.4677 51.8218 86.9156 52.0682 87.5875 52.7624C88.6176 53.815 89.3679 55.1139 90.3532 56.2113C90.7564 56.6592 91.2714 57.0063 91.6858 57.4542C92.0105 57.8125 92.3464 58.1708 92.6487 58.5515C93.1414 59.145 93.6901 59.6713 94.2052 60.2536C94.6531 60.7687 94.7651 61.183 95.269 61.6421C96.4559 62.6946 96.859 63.3441 97.7212 64.4974C98.0347 64.9117 99.0537 65.8299 99.2105 66.3226C99.2329 66.4122 99.2553 66.5018 99.2329 66.5914C99.2105 66.6921 99.1321 66.7817 99.0537 66.8489C98.9865 66.9161 98.9081 66.9721 98.8298 67.0281L98.841 67.0057Z" fill="#222222"/>
<path d="M55.6962 116.096C55.6962 116.096 55.6178 116.085 55.5842 116.074C55.4723 116.052 55.3491 116.029 55.2707 115.962C55.1923 115.895 55.1587 115.805 55.1251 115.716C55.1251 115.682 55.1027 115.648 55.1027 115.615C55.0803 115.514 55.0803 115.402 55.1027 115.301C55.1139 115.133 55.1475 114.965 55.1699 114.797C55.2035 114.406 55.3715 114.025 55.2819 113.633C55.1699 113.129 55.1587 112.58 55.2259 112.054C55.3043 111.449 55.3603 110.845 55.5058 110.251C55.5618 110.027 55.6738 109.826 55.7074 109.602C55.7522 109.288 55.7858 108.975 55.8082 108.65C55.8306 108.068 55.7186 107.485 55.7522 106.903C55.8082 106.074 56.0097 105.268 56.0769 104.44C56.1441 103.589 56.2785 102.76 56.2673 101.909C56.2673 101.607 56.2001 101.315 56.2225 101.024C56.2449 100.711 56.2673 100.397 56.2561 100.084C56.2337 99.3671 56.4464 98.684 56.5472 97.9786C56.648 97.2059 56.5584 96.926 57.0511 96.8252C57.3086 96.7692 57.8797 96.8476 58.0477 97.0492C58.1708 97.1835 58.0477 97.5195 58.0477 97.6762C58.0477 97.9786 57.9805 98.4601 57.9469 98.7512C57.8461 99.5686 57.9805 99.9941 57.9693 100.812C57.9469 102.066 57.5438 103.286 57.4542 104.529C57.4206 105.044 57.5326 105.559 57.499 106.074C57.4766 106.489 57.4542 106.903 57.3982 107.317C57.3198 107.967 57.3422 108.616 57.2862 109.266C57.2415 109.837 57.0175 110.161 57.0511 110.733C57.1295 112.087 56.9615 112.704 56.7488 113.924C56.6704 114.35 56.7488 115.525 56.5024 115.906C56.4576 115.973 56.4016 116.04 56.3233 116.074C56.2337 116.119 56.1217 116.119 56.0209 116.119C55.9202 116.119 55.8306 116.096 55.7298 116.085L55.6962 116.096Z" fill="#222222"/>
<path d="M58.8085 84.9672C58.8085 84.9672 58.7301 84.9448 58.6965 84.9336C58.5846 84.9 58.4614 84.8441 58.3942 84.6537C58.327 84.4745 58.3046 84.217 58.2822 83.9706C58.2822 83.8811 58.2822 83.7803 58.2822 83.6907C58.2822 83.3996 58.2934 83.0972 58.3158 82.8061C58.3494 82.3246 58.4054 81.8543 58.4502 81.3728C58.5398 80.2643 58.7637 79.1557 58.7301 78.092C58.6853 76.6811 58.7525 75.147 58.8869 73.6689C59.0437 71.9669 59.1892 70.2425 59.4132 68.5629C59.4916 67.9358 59.6371 67.3535 59.7043 66.7265C59.7939 65.8419 59.8723 64.9461 59.9283 64.0503C60.0402 62.4154 59.9954 60.7806 60.1186 59.157C60.2866 56.8279 60.6001 54.5212 60.7793 52.1921C60.9696 49.7958 61.216 47.4332 61.3168 45.0369C61.3503 44.1971 61.3279 43.3909 61.3951 42.5399C61.4623 41.6665 61.5295 40.7706 61.5519 39.8972C61.6303 37.8929 61.9438 35.9221 62.1342 33.929C62.3469 31.7343 62.2909 30.9728 62.7948 30.6033C63.0636 30.4018 63.6346 30.5473 63.7802 31.0848C63.881 31.4543 63.7242 32.4061 63.6906 32.854C63.6346 33.6938 63.5227 35.0599 63.4331 35.8997C63.2091 38.2176 63.2987 39.3822 63.1643 41.7C62.9628 45.2273 62.3917 48.7209 62.1342 52.2481C62.0222 53.7038 62.0782 55.1483 61.9662 56.6039C61.8766 57.7797 61.8094 58.933 61.6975 60.0976C61.5295 61.9339 61.4623 63.7591 61.3168 65.6067C61.1936 67.2304 60.9248 68.1486 60.88 69.761C60.7793 73.5458 60.5217 75.3262 60.141 78.7638C60.0066 79.9843 59.9171 83.2764 59.6147 84.3738C59.5587 84.5753 59.4916 84.7545 59.4132 84.8776C59.3236 85.012 59.2004 85.0344 59.0996 85.0344C58.9989 85.0344 58.9093 85.0008 58.8085 84.9784V84.9672Z" fill="#222222"/>
<path d="M97.2051 119.59C97.2051 119.59 97.1267 119.556 97.0931 119.534C96.9812 119.478 96.8692 119.4 96.802 119.097C96.7348 118.806 96.7348 118.403 96.7236 118C96.7236 117.854 96.7236 117.709 96.7236 117.552C96.7236 117.082 96.7684 116.6 96.802 116.13C96.8692 115.369 96.9476 114.607 97.0148 113.834C97.1603 112.043 97.4403 110.274 97.4627 108.583C97.4963 106.321 97.6418 103.857 97.8546 101.506C98.1009 98.7626 98.3473 96.008 98.6496 93.3094C98.7616 92.3016 98.9407 91.3611 99.0415 90.3533C99.1759 88.9312 99.3103 87.4867 99.411 86.0646C99.6014 83.4332 99.6574 80.8354 99.8589 78.2264C100.15 74.4864 100.598 70.78 100.9 67.0513C101.214 63.2105 101.583 59.4145 101.818 55.5738C101.897 54.2301 101.919 52.9312 102.031 51.5763C102.143 50.1766 102.255 48.7321 102.334 47.3436C102.513 44.1299 102.938 40.9722 103.241 37.7586C103.577 34.2313 103.554 33.022 104.092 32.4173C104.372 32.0926 104.931 32.2942 105.055 33.1452C105.133 33.7275 104.92 35.2615 104.875 35.9782C104.775 37.3219 104.584 39.5054 104.461 40.8603C104.114 44.5666 104.136 46.4366 103.89 50.143C103.498 55.7978 102.748 61.4077 102.3 67.0625C102.11 69.3915 102.087 71.6982 101.897 74.0385C101.751 75.9197 101.617 77.7673 101.438 79.6485C101.169 82.6046 101.001 85.5271 100.766 88.4833C100.553 91.0923 100.228 92.5704 100.105 95.157C99.8029 101.226 99.4446 104.07 98.8848 109.591C98.6832 111.55 98.4145 116.824 98.0561 118.593C97.9889 118.907 97.9106 119.209 97.821 119.411C97.7202 119.624 97.597 119.668 97.4963 119.68C97.3955 119.68 97.3059 119.646 97.2163 119.59H97.2051Z" fill="#222222"/>
<path d="M63.6137 29.8415C63.6137 29.8415 63.6249 29.7631 63.6361 29.7296C63.6585 29.6176 63.6921 29.4944 63.8376 29.4048C63.972 29.3264 64.1512 29.2817 64.3415 29.2481C64.4087 29.2481 64.4759 29.2257 64.5431 29.2257C64.7558 29.2033 64.9798 29.2033 65.2037 29.2033C65.562 29.2033 65.9092 29.2369 66.2675 29.2481C67.0961 29.2705 67.9135 29.416 68.6973 29.3264C69.7387 29.1921 70.8809 29.1585 71.967 29.2033C73.2323 29.2481 74.5088 29.2929 75.763 29.416C76.2333 29.4608 76.67 29.5616 77.1291 29.584C77.7897 29.6176 78.4504 29.64 79.111 29.64C80.3316 29.64 81.5297 29.5056 82.739 29.5168C84.4634 29.5392 86.1878 29.7184 87.9123 29.752C89.6927 29.7855 91.4507 29.8863 93.2199 29.8415C93.8358 29.8303 94.4404 29.752 95.0675 29.7631C95.7169 29.7743 96.3776 29.7855 97.027 29.7631C98.5163 29.7184 99.972 29.9087 101.461 29.9759C103.096 30.0543 103.645 29.9423 103.936 30.435C104.093 30.6925 104.003 31.2636 103.622 31.4428C103.354 31.5659 102.648 31.4652 102.312 31.4652C101.685 31.4652 100.677 31.4316 100.05 31.398C98.3372 31.3196 97.4749 31.4764 95.7617 31.4988C93.1527 31.5212 90.5437 31.174 87.9347 31.1292C86.8597 31.118 85.7959 31.2524 84.7098 31.23C83.8364 31.2188 82.9854 31.2188 82.112 31.174C80.7459 31.118 79.391 31.1628 78.0249 31.1292C76.8155 31.1068 76.1325 30.8941 74.9344 30.9501C72.135 31.0845 70.8137 30.9277 68.2494 30.7709C67.3424 30.7149 64.9126 30.8269 64.084 30.5918C63.9384 30.547 63.7928 30.491 63.7033 30.4126C63.6025 30.323 63.5801 30.211 63.5801 30.1103C63.5801 30.0095 63.5913 29.9199 63.6137 29.8191V29.8415Z" fill="#222222"/>
<path d="M57.0843 117.955C57.0843 117.955 57.1067 117.877 57.1179 117.843C57.1515 117.731 57.1851 117.608 57.3307 117.53C57.465 117.451 57.6442 117.429 57.8233 117.407C57.8905 117.407 57.9577 117.396 58.0249 117.396C58.2377 117.396 58.4504 117.396 58.6632 117.407C59.0103 117.429 59.3462 117.485 59.6821 117.507C60.4772 117.575 61.2722 117.765 62.0336 117.709C63.0526 117.642 64.1499 117.664 65.2137 117.765C66.4342 117.888 67.6772 118 68.8753 118.179C69.3232 118.247 69.7375 118.381 70.1966 118.426C70.8349 118.493 71.4731 118.56 72.1114 118.594C73.2871 118.661 74.4628 118.594 75.6274 118.672C77.2958 118.795 78.953 119.053 80.6215 119.187C82.3459 119.321 84.0367 119.512 85.7611 119.568C86.3658 119.59 86.9481 119.545 87.5527 119.59C88.1798 119.635 88.8292 119.68 89.4451 119.691C90.8896 119.725 92.2893 119.993 93.7226 120.139C95.3014 120.307 95.8389 120.228 96.0964 120.732C96.2308 121.001 96.1188 121.561 95.7269 121.718C95.4582 121.83 94.7751 121.684 94.4504 121.673C93.8457 121.639 92.8716 121.55 92.2669 121.483C90.6097 121.315 89.7698 121.427 88.1014 121.348C85.5708 121.225 83.0625 120.732 80.5431 120.553C79.5017 120.475 78.4604 120.553 77.419 120.486C76.5792 120.43 75.7506 120.374 74.9107 120.296C73.5894 120.161 72.2793 120.139 70.958 120.038C69.7935 119.949 69.1328 119.702 67.9795 119.691C65.2585 119.669 63.982 119.445 61.5185 119.142C60.6451 119.03 58.2824 119.019 57.4986 118.739C57.3642 118.694 57.2299 118.627 57.1403 118.549C57.0507 118.459 57.0283 118.336 57.0283 118.235C57.0283 118.135 57.0507 118.045 57.0731 117.944L57.0843 117.955Z" fill="#222222"/>
<path d="M65.4944 74.6536L65.4048 74.7432C65.3265 74.8216 65.2033 74.8888 65.0353 74.844L64.8674 74.9L64.8226 74.9224C64.8226 74.9224 64.789 74.9448 64.7778 74.9448C64.7778 74.9448 64.6322 74.9224 64.5426 74.8888C64.4755 74.8664 64.4083 74.8328 64.3411 74.7992C63.882 74.5417 63.714 74.1049 63.6244 73.8362C63.5125 73.5003 63.5125 73.2315 63.4677 73.0748C63.4117 72.862 63.3221 72.6605 63.1765 72.5037C62.7846 72.0894 62.3703 71.6975 61.9336 71.328L61.6985 71.1488C61.5977 71.0704 61.6649 71.1152 61.6425 71.0928C61.6425 71.0816 61.6425 71.0704 61.6089 71.0704L61.4185 71.1376L61.2954 71.1712C61.2954 71.1712 61.217 71.1936 61.105 71.2048C60.9818 71.2048 60.9706 71.2272 60.7691 71.1712C60.5787 71.1376 60.2988 70.9137 60.2988 70.8353L60.2092 70.6113V70.6001L60.2316 70.5777C60.2316 70.5777 60.254 70.5441 60.2876 70.5218C60.5003 70.4882 60.6123 70.3986 60.6571 70.3874H60.6907L60.6683 70.5441V70.8353C60.6459 71.5967 60.7803 72.3581 60.7467 73.1196C60.7131 74.2057 60.5227 75.2807 60.4779 76.3668V76.602L60.4555 76.714C60.422 76.8259 60.5787 76.77 60.6123 76.8036L61.2506 76.8595C61.5081 76.8819 61.8104 76.8819 62.0904 76.8819C62.4935 76.8819 62.8742 76.8259 63.2885 76.8483C63.7028 76.8819 64.1395 76.9043 64.5538 76.8931C64.7218 76.8931 64.677 76.8931 64.6882 76.8931C64.6882 76.8931 64.6882 76.8931 64.7106 76.8931C64.7106 76.8931 64.7666 76.9267 64.7778 76.9155C64.8002 76.9155 64.8114 76.8931 64.8338 76.8595C64.8562 76.7588 64.8562 76.434 64.8674 76.2213C64.8786 75.1911 64.7554 74.844 65.2369 74.6424C65.4944 74.5305 66.0655 74.564 66.2559 74.7992C66.3902 74.9672 66.3118 75.4151 66.323 75.6278C66.323 75.8182 66.3342 76.0757 66.3454 76.3333C66.3454 76.658 66.3454 76.9939 66.3454 77.2403C66.3678 77.7441 66.3118 78.0801 66.3006 78.4608C65.9759 78.5392 65.64 78.5616 65.2929 78.5952C65.1137 78.6063 64.9346 78.5952 64.7442 78.5952L64.4531 78.5728H64.2963C64.0835 78.5728 63.8484 78.584 63.5908 78.5728C62.7846 78.5504 62.0232 78.4496 61.1946 78.3152L60.5451 78.2032C60.1532 78.1473 59.7277 78.1249 59.515 77.9569C59.3918 77.8897 59.2238 77.8561 59.1678 77.6994C59.123 77.565 59.0671 77.4306 59.0671 77.2515C59.0447 77.0947 59.0671 76.8931 59.0783 76.714L59.1006 76.2885C59.123 75.6054 58.9999 74.9336 59.0223 74.2617C59.0447 73.713 59.0559 73.1756 59.0895 72.6269C59.123 72.2014 59.1342 71.7759 59.1342 71.3392V70.7009L59.179 69.5588C59.1902 69.2676 59.2126 69.0101 59.235 68.7861C59.8733 68.8309 60.4444 68.8757 61.0266 68.9093C61.2954 68.9205 61.5641 68.9429 61.844 68.9541C62.1576 68.9653 62.0792 68.9989 62.3703 69.0101C62.3031 69.1445 62.2248 69.3124 62.1464 69.4916L62.0344 69.7379C62.068 69.7939 61.8888 69.7827 61.7545 69.7827H61.6537H61.5977H61.5529L60.9706 70.2642C60.9706 70.2642 60.9818 70.253 60.9818 70.2418C60.9818 70.2418 60.9818 70.2082 60.9818 70.141C60.9818 70.085 60.9594 70.0738 60.9482 69.9731C60.9258 69.8835 60.9034 69.8051 60.8699 69.7155C60.8475 69.6707 60.7691 69.458 60.7915 69.514C60.7915 69.514 61.0378 69.3572 61.1946 69.29C61.5305 69.1221 61.844 69.2004 62.0904 69.2676C62.6391 69.57 62.807 69.6931 63.0422 69.8723C63.2661 70.0515 63.4677 70.253 63.6468 70.4546C64.0052 70.8801 64.3187 71.3616 64.5762 71.9998C64.6434 72.1566 64.733 72.3581 64.8338 72.6269C64.9234 72.918 64.9793 73.1644 65.0465 73.2987C65.0689 73.3771 65.1137 73.3771 65.0801 73.4107C65.0241 73.4555 65.0129 73.4779 65.0129 73.4779C65.0129 73.4779 65.0129 73.4779 65.0241 73.4555V73.4331C64.7666 74.1385 64.9569 73.6235 64.901 73.7802L64.9234 73.7242C64.9457 73.6682 64.9458 73.6235 64.9681 73.5227V73.4555L64.9793 73.4443C65.0017 73.3323 64.9793 73.4107 64.9905 73.3883H65.0241L65.1697 73.4107C65.2593 73.4331 65.3377 73.4555 65.416 73.5003C65.5616 73.5675 65.6624 73.6794 65.7184 73.769C65.7968 73.9034 65.8751 74.1049 65.7968 74.1161C65.7408 74.1721 65.6736 74.2729 65.6288 74.3625C65.584 74.4409 65.528 74.5305 65.4608 74.5976L65.4944 74.6536Z" fill="#222222"/>
<path fill-rule="evenodd" clip-rule="evenodd" d="M65.5621 74.5761C65.4277 74.4865 65.3717 74.3297 65.2486 74.2513C65.1254 74.1729 64.9574 74.1953 64.8231 74.1506C64.308 73.9602 64.2968 73.2995 64.14 72.8516C63.7145 71.6535 62.8411 70.6905 61.7102 70.0971C61.5198 69.9963 60.512 70.9481 61.1727 69.7499L60.1089 69.7275L59.7842 77.2747L59.8178 77.3754C60.3888 77.4202 60.9375 77.5322 61.5198 77.5434C62.5276 77.5546 63.5018 77.6218 64.4983 77.745C64.9238 77.8009 65.215 77.8457 65.6629 77.8121L65.5733 74.5873L65.5621 74.5761Z" fill="#222222"/>
<path d="M93.8691 78.6846L93.9699 78.6287C94.093 78.5279 93.9475 78.6734 94.0482 78.5503C94.0482 78.5391 94.1266 78.4159 94.1602 78.3039C94.1602 78.2927 94.1826 78.2815 94.2162 78.2815C94.2498 78.2815 94.2834 78.2815 94.3394 78.2815H94.3954L94.4849 78.2703C94.5857 78.2703 94.6977 78.2815 94.8097 78.3039L95.4143 78.4159C95.963 78.4719 96.4333 78.7742 96.9148 78.7742C97.5531 78.7742 98.3481 78.9422 98.8296 79.0542C98.9639 79.0766 98.8632 79.0766 98.9192 79.0766C98.9975 79.0542 99.1543 78.987 99.3447 78.9422C99.479 78.9198 99.4566 78.931 99.4678 78.931C99.4678 78.931 99.5574 78.9086 99.6582 78.875C100.017 78.7518 100.364 78.6958 100.666 78.7518L101.293 79.5805L101.36 79.6812L99.9605 80.0843C100.017 79.8268 100.117 79.5916 100.151 79.3229C100.196 78.9198 100.24 78.5167 100.252 78.1136C100.285 77.3745 100.173 76.6355 100.218 75.9077C100.252 75.3926 100.319 74.8327 100.386 74.3736C100.408 74.3288 100.431 74.2616 100.442 74.1944C100.397 74.172 100.33 74.1497 100.263 74.1385C99.4118 74.0265 98.2921 74.0153 97.4635 74.4072C97.1611 74.5528 96.9372 74.7655 96.6685 74.9223C96.3997 75.1014 96.1646 75.3366 95.963 75.5941C95.8734 75.7621 95.7615 75.9077 95.6495 76.0532C95.5263 76.2324 95.4031 76.4116 95.2688 76.5795C95.0224 76.9266 94.7537 77.2738 94.5745 77.6433C94.3618 78.0352 94.317 78.3039 94.2722 78.3935C94.2498 78.3935 94.2722 78.4271 94.205 78.4271C94.093 78.4271 93.9811 78.4719 93.9363 78.4831C93.8131 78.5391 93.8131 78.5615 93.8019 78.5839V78.6175C93.8019 78.6399 93.8019 78.6623 93.7907 78.6846C93.7907 78.7742 93.7907 78.8862 93.7235 78.9646C93.6451 79.1661 93.2084 79.1997 92.9845 78.8638C92.6709 78.3599 92.9621 77.8 93.0293 77.5873C93.1636 77.1506 93.4772 76.5683 93.6899 76.2324C93.9922 75.7621 94.149 75.4262 94.3618 75.0455C94.5857 74.6535 94.8433 74.2504 95.3136 73.8249C96.0414 73.1867 96.9708 72.8507 97.8666 72.7388C98.7848 72.6268 99.591 72.6828 100.543 72.7948C100.823 72.8395 101.114 72.8731 101.394 72.9291C101.651 72.9963 102.088 72.9515 101.987 73.3098C102.054 73.7913 101.987 74.6423 101.987 74.8327C101.954 75.359 101.931 75.8853 101.875 76.4116C101.786 77.2402 101.797 78.0688 101.741 78.8974C101.707 79.4237 101.573 79.782 101.517 80.2187L101.047 83.7459L100.117 80.6218C100.117 80.6218 100.084 80.5546 100.05 80.5546C100.017 80.5546 99.9941 80.5994 99.9829 80.6106C99.9829 80.6106 99.8709 80.6666 99.7926 80.6778C99.6806 80.7002 99.759 80.689 99.703 80.7114L99.6022 80.7562C99.535 80.7898 99.4566 80.8122 99.3783 80.8346C99.2215 80.8794 99.0647 80.9018 98.908 80.8906C98.572 80.8682 98.4601 80.8346 98.2697 80.7898C97.5979 80.6106 97.1388 80.4203 96.3885 80.1739C96.1086 80.0955 95.6719 79.9724 95.1904 79.9388C94.7089 79.894 94.0818 79.7708 93.8467 79.5469C93.8243 79.5021 93.5891 79.3677 93.522 79.1773C93.4548 78.987 93.5667 78.9086 93.6451 78.8526C93.7235 78.7966 93.8131 78.763 93.9027 78.7182L93.8691 78.6846Z" fill="#222222"/>
<path fill-rule="evenodd" clip-rule="evenodd" d="M93.7687 78.7295C93.8358 78.8527 93.9478 78.8639 94.071 78.9087C94.5189 79.0878 95.3475 79.1326 95.7618 79.211C96.4337 79.3342 97.0159 79.5357 97.6654 79.7037C97.9901 79.7821 98.55 79.95 98.9083 79.9612C99.1547 79.9612 99.3002 79.8269 99.569 79.7821C99.8377 79.7373 100.039 79.5917 100.319 79.5693L100.711 80.1068L101.17 73.5786C101.17 73.5786 96.9376 72.4141 94.9108 75.5382C92.8841 78.6623 93.7575 78.7183 93.7575 78.7183L93.7687 78.7295Z" fill="#222222"/>
<path d="M92.6038 24.8142L91.9991 23.4481L90.633 22.8546C84.7879 22.6755 78.8756 22.5187 73.0081 22.7763C71.5972 22.8434 70.1864 22.9218 68.7755 22.9554C64.8899 23.045 61.0044 22.7427 57.1189 22.6531C55.2041 22.6083 53.2893 22.7763 51.3857 22.7427C50.6131 22.7315 49.8629 22.6867 49.0791 22.7427C48.2952 22.7986 47.1419 22.6419 46.4476 22.8994L45.0032 23.4257C44.824 23.4929 44.3873 24.6798 44.3537 24.8926C44.2641 25.4301 44.5217 25.9899 44.5777 26.5162C44.6672 27.3896 44.5553 28.3414 44.5441 29.2148C44.4993 33.134 44.2529 37.1091 44.4993 41.017L44.992 42.4839C45.1935 43.0773 48.284 42.9542 48.7655 42.9542C51.7105 42.9542 54.6442 42.9318 57.5892 42.9206C59.7055 42.9206 61.8106 43.1669 63.8822 42.9318C65.2931 45.1713 67.0175 46.9965 68.7307 49.012L69.6153 47.8139C70.4999 46.6158 71.3957 45.4288 72.4147 44.3427C72.6498 44.0963 73.3329 43.0549 73.624 43.0549C78.2598 43.0773 82.9067 42.6854 87.5313 43.0549L89.0878 42.8646H90.6442L92.0887 42.4055L92.7046 40.961C92.7606 36.1125 92.4246 31.2528 92.7046 26.4266L92.6038 24.803V24.8142Z" fill="#E8E1C4"/>
<path d="M61.4524 37.8481L59.8511 37.7921L58.9329 36.482L57.9587 35.1943C57.3429 34.3433 56.727 33.5034 56.1224 32.6412C56.0328 32.5181 55.3497 31.1408 55.3049 31.152L55.193 31.1968C55.0698 32.8428 55.2489 34.5112 55.193 36.1573L55.137 37.7809L53.4014 37.8145L53.379 36.202C53.3566 34.6456 53.379 33.0891 53.3566 31.5327C53.3454 30.3793 53.4238 29.2596 53.4126 28.1062L55.0026 28.0727C55.2489 28.0727 55.9432 29.394 56.0664 29.5843C56.9062 30.872 57.802 32.115 58.6642 33.3915L59.5488 34.7352H59.7615C59.6832 34.7352 59.5936 32.742 59.5824 32.5964C59.5152 31.6335 59.5824 30.7265 59.6048 29.7635L59.6272 28.0839L61.4412 28.0391V29.7075C61.4188 30.077 61.318 30.3905 61.262 30.7489C61.1724 31.3087 61.262 31.9694 61.2956 32.5405C61.3516 33.7498 61.4412 34.9703 61.3292 36.1908L61.43 37.8481H61.4524Z" fill="white"/>
<path d="M69.862 37.7584L68.3168 37.8144L66.7267 37.8928L65.1367 37.7696L63.5354 37.8144C63.569 37.3441 63.6026 36.8626 63.6586 36.3923C63.7482 35.5861 63.4682 34.7575 63.5018 33.9513C63.513 33.5706 63.5802 33.1899 63.6138 32.8091C63.6698 32.0477 63.5354 31.2975 63.5578 30.536C63.5802 29.7074 63.5578 28.9012 63.5466 28.0838C63.5466 28.1846 66.0885 28.0838 66.2676 28.0838C66.8611 28.0614 67.4658 28.039 68.0592 28.0166C68.2944 28.0166 69.8508 28.1062 69.8508 28.1286L69.8956 29.6066C68.9102 29.5171 67.9137 29.6066 66.9171 29.6402C66.402 29.6626 65.8757 29.6402 65.3606 29.6402L65.327 30.8944L65.3606 32.1597C66.7491 32.1373 68.0928 32.1821 69.4701 32.2829L69.5485 33.6937L68.1376 33.6154L66.7267 33.593L65.271 33.6489L65.3494 35.015V36.3028L66.8499 36.4259L68.384 36.2356L69.8844 36.3811V37.7696L69.862 37.7584Z" fill="white"/>
<path d="M81.138 37.7696L79.4809 37.7248C79.2794 37.7248 78.809 35.8325 78.7418 35.5861C78.5738 34.9479 78.4955 34.3208 78.3612 33.6937L77.7677 32.3836L77.3757 31.0175H77.4541L77.0063 32.35L76.5584 33.6937L76.2001 35.071L75.8865 36.4595L75.4498 37.8144H73.7029L73.311 36.1684C73.1094 35.4294 72.7511 34.7911 72.5384 34.0409C72.3032 33.2346 72.1129 32.3836 71.8553 31.5998C71.7321 31.2079 71.6315 30.8272 71.5419 30.4241C71.4971 30.1889 71.3626 29.965 71.3178 29.7298L70.9707 28.0838L72.8072 28.1622L73.143 29.5171C73.4789 30.816 73.8149 32.0925 74.2292 33.369C74.4307 33.9625 74.5204 34.5783 74.6884 35.1942L74.7107 35.2166L75.0915 33.7945L75.5169 32.3836L75.8081 30.9392L76.2784 29.5283L76.5807 28.0838L78.3163 28.039L78.7643 29.4723C79.1002 30.8384 79.3464 32.2269 79.7831 33.5594C79.9623 34.0968 80.0184 34.6679 80.1192 35.239L80.1976 35.2054L80.6903 33.8169L80.9477 32.3724L81.2837 30.9392L81.5859 29.4947L81.9779 28.0166H83.9711C83.68 28.9124 83.4447 29.7746 83.2208 30.6816C82.8961 31.9917 82.4371 33.2794 82.0452 34.5448L81.5524 36.1572L81.1606 37.7696H81.138Z" fill="white"/>
<path d="M59.75 109.579C59.75 109.579 59.7052 109.512 59.6828 109.49C59.6157 109.4 59.5373 109.299 59.5149 109.21C59.4925 109.12 59.5037 109.053 59.5149 108.986C59.5149 108.963 59.5261 108.941 59.5373 108.918C59.5709 108.851 59.6157 108.807 59.6605 108.762C59.7388 108.695 59.8284 108.639 59.918 108.571C60.1084 108.415 60.3771 108.359 60.4891 108.123C60.6234 107.81 60.8474 107.541 61.1049 107.351C61.4073 107.127 61.7096 106.892 62.0455 106.713C62.1687 106.645 62.3367 106.634 62.4486 106.556C62.6054 106.444 62.7734 106.321 62.9077 106.186C63.1653 105.94 63.3332 105.582 63.602 105.346C63.9827 104.999 64.4642 104.775 64.8561 104.439C65.2592 104.092 65.6959 103.801 66.043 103.398C66.1662 103.253 66.2446 103.073 66.3902 102.961C66.5357 102.838 66.6813 102.704 66.8045 102.547C67.0844 102.2 67.5211 102.043 67.8906 101.786C68.2825 101.506 68.3385 101.304 68.7192 101.618C68.9208 101.786 69.2791 102.234 69.3127 102.446C69.3351 102.592 69.1223 102.67 69.044 102.737C68.9096 102.872 68.6744 103.051 68.5177 103.163C68.1034 103.465 68.025 103.768 67.6667 104.126C67.118 104.686 66.3454 104.966 65.7519 105.481C65.5056 105.694 65.3712 106.018 65.136 106.231C64.9457 106.399 64.7553 106.578 64.5538 106.735C64.229 106.981 63.9715 107.295 63.658 107.552C63.3892 107.788 63.0981 107.765 62.8853 108.056C62.3814 108.739 62.0007 108.907 61.3401 109.31C61.1049 109.456 60.6682 110.049 60.3323 110.049C60.2763 110.049 60.2091 110.038 60.1419 109.993C60.0636 109.949 59.9852 109.87 59.918 109.792C59.8508 109.725 59.7948 109.646 59.7388 109.568L59.75 109.579Z" fill="#222222"/>
<path d="M75.9974 111.135L75.8854 111.169C75.7734 111.202 75.6503 111.236 75.4711 111.124C75.3031 111.023 75.1352 110.833 74.9672 110.642L74.7881 110.43C74.6089 110.195 74.4409 109.948 74.2842 109.702L73.5339 108.481C72.9405 107.541 72.4478 106.533 71.7871 105.704C71.4176 105.245 71.0481 104.764 70.6898 104.26C70.0179 103.275 69.3125 102.2 68.6406 101.158C69.1333 101.203 69.626 101.237 70.1075 101.281L73.7803 101.617C74.6313 101.707 75.4823 101.796 76.3109 101.908C76.938 101.998 77.5202 102.144 78.1473 102.2C79.0319 102.289 79.9277 102.379 80.8123 102.435C82.4472 102.547 84.0708 102.513 85.6944 102.636L87.1613 102.759L89.0537 102.95L90.0951 105.167L90.9685 106.981C91.8979 108.862 92.8272 110.732 93.7566 112.602L92.0434 112.535L90.6213 112.49C89.7815 112.479 88.9753 112.524 88.1355 112.49C87.2621 112.446 86.3663 112.412 85.5041 112.401C83.4997 112.39 81.529 112.132 79.5358 111.997C77.3411 111.852 76.5909 111.93 76.1989 111.426C75.9974 111.158 76.1206 110.587 76.6468 110.43C77.0164 110.318 77.9681 110.452 78.416 110.463C79.2559 110.486 80.622 110.575 81.4618 110.631C83.7797 110.777 84.933 110.665 87.2509 110.732C88.1579 110.754 89.0761 110.81 89.9831 110.866L90.6661 110.911C90.8453 110.922 91.2372 110.956 91.1588 110.956C91.1924 110.967 91.2372 110.99 91.3156 111.012C91.3156 110.99 91.3156 110.945 91.3044 110.878C91.3044 110.855 91.3044 110.855 91.282 110.81L91.1476 110.519L90.8789 109.937C90.5206 109.164 90.151 108.403 89.7703 107.642C89.4568 107.026 89.1209 106.443 88.7849 105.85L88.2811 104.965L88.0347 104.517L88.0123 104.495C88.0123 104.495 88.0123 104.495 88.0011 104.495C87.4972 104.461 87.0045 104.417 86.5007 104.383C85.9184 104.338 85.3473 104.282 84.7538 104.238C82.9175 104.058 81.1034 103.991 79.2559 103.834C77.6322 103.7 76.714 103.431 75.1128 103.387C74.1386 103.353 73.2876 103.319 72.515 103.275L72.2238 103.252C72.1454 103.252 72.1902 103.252 72.179 103.252H72.1566L72.1007 103.241C72.1007 103.241 72.1007 103.252 72.1007 103.275V103.308V103.331L72.1566 103.442C72.5038 104.036 72.8845 104.663 73.31 105.38C73.937 106.432 75.8406 109.108 76.2661 110.161C76.3445 110.351 76.4005 110.542 76.4005 110.687C76.4005 110.844 76.3221 110.945 76.2437 111.001C76.1654 111.057 76.0758 111.09 75.975 111.124L75.9974 111.135Z" fill="#222222"/>
<path fill-rule="evenodd" clip-rule="evenodd" d="M76.1097 111.113L70.4102 102.244L88.5613 103.7L92.6708 111.908L76.1097 111.113Z" fill="#222222"/>
<path d="M75.6843 109.668C75.6843 109.668 75.7627 109.668 75.7963 109.68C75.9082 109.68 76.0314 109.702 76.121 109.747C76.2106 109.78 76.2442 109.825 76.2778 109.87C76.289 109.881 76.3001 109.904 76.3113 109.915C76.3337 109.971 76.3449 110.016 76.3337 110.072C76.3337 110.15 76.3001 110.239 76.3001 110.318C76.2889 110.508 76.1434 110.699 76.2442 110.878C76.3785 111.124 76.4233 111.393 76.3897 111.65C76.3449 111.942 76.3113 112.244 76.2106 112.524C76.1658 112.636 76.065 112.725 76.0426 112.837C76.0202 112.994 75.9978 113.14 75.9978 113.297C75.9978 113.576 76.1546 113.868 76.1434 114.148C76.1322 114.551 75.9754 114.943 75.953 115.346C75.9306 115.76 75.841 116.163 75.897 116.577C75.9194 116.723 75.9978 116.869 75.9866 117.014C75.9866 117.16 75.9866 117.316 75.9978 117.473C76.0538 117.82 75.8746 118.156 75.8187 118.503C75.7515 118.884 75.8634 119.018 75.382 119.063C75.1244 119.086 74.5533 119.041 74.3742 118.94C74.251 118.873 74.3406 118.705 74.3406 118.638C74.3406 118.492 74.363 118.257 74.3854 118.111C74.4526 117.708 74.2846 117.507 74.2622 117.104C74.2286 116.488 74.5533 115.906 74.5757 115.29C74.5757 115.043 74.4414 114.786 74.4526 114.528C74.4526 114.327 74.4526 114.125 74.4861 113.924C74.5309 113.61 74.4861 113.285 74.4861 112.972C74.4973 112.692 74.7101 112.546 74.6429 112.255C74.4861 111.594 74.6317 111.292 74.7773 110.699C74.8333 110.486 74.6989 109.915 74.9228 109.736C74.9676 109.702 75.0124 109.668 75.0908 109.657C75.1804 109.635 75.2924 109.635 75.3932 109.646C75.4939 109.646 75.5835 109.657 75.6843 109.668Z" fill="#222222"/>
<path d="M61.507 108.739C61.507 108.739 61.5854 108.739 61.6302 108.739C61.7422 108.739 61.8654 108.762 61.9549 108.795C62.0445 108.829 62.0781 108.874 62.1117 108.918C62.1229 108.93 62.1341 108.952 62.1453 108.963C62.1677 109.019 62.1789 109.064 62.1789 109.12C62.1789 109.198 62.1565 109.288 62.1453 109.366C62.1453 109.557 61.9997 109.747 62.1005 109.926C62.2461 110.172 62.2909 110.441 62.2685 110.688C62.2349 110.979 62.2125 111.281 62.1117 111.572C62.0781 111.684 61.9773 111.774 61.9549 111.886C61.9325 112.042 61.9101 112.188 61.9213 112.345C61.9325 112.625 62.0893 112.916 62.0893 113.196C62.0893 113.599 61.9437 113.991 61.9325 114.394C61.9213 114.808 61.843 115.212 61.9101 115.626C61.9325 115.771 62.0109 115.917 62.0109 116.063C62.0109 116.208 62.0109 116.365 62.0445 116.522C62.1117 116.869 61.9437 117.205 61.8989 117.552C61.843 117.933 61.9549 118.067 61.4734 118.123C61.2159 118.157 60.6448 118.123 60.4657 118.022C60.3425 117.955 60.4321 117.798 60.4209 117.72C60.4209 117.574 60.4321 117.339 60.4545 117.194C60.5105 116.79 60.3425 116.589 60.2977 116.186C60.2417 115.581 60.5552 114.976 60.5664 114.372C60.5664 114.125 60.4209 113.868 60.4209 113.622C60.4209 113.42 60.4209 113.218 60.4433 113.017C60.4769 112.703 60.4209 112.379 60.4321 112.065C60.4321 111.785 60.6448 111.628 60.5664 111.348C60.3985 110.688 60.5329 110.385 60.656 109.792C60.7008 109.579 60.5552 109.008 60.7792 108.829C60.824 108.795 60.8688 108.762 60.9472 108.739C61.0367 108.717 61.1487 108.717 61.2495 108.717C61.3503 108.717 61.4398 108.717 61.5406 108.728L61.507 108.739Z" fill="#222222"/>
<path d="M91.719 111.527C91.719 111.527 91.7973 111.527 91.8421 111.527C91.9541 111.527 92.0773 111.55 92.1669 111.583C92.2564 111.617 92.29 111.662 92.3236 111.695C92.3348 111.706 92.346 111.729 92.3572 111.74C92.3796 111.785 92.3908 111.841 92.3908 111.886C92.3908 111.964 92.3684 112.042 92.3572 112.121C92.3572 112.3 92.2116 112.479 92.3124 112.658C92.458 112.894 92.5028 113.14 92.4804 113.386C92.4468 113.666 92.4244 113.946 92.3236 114.215C92.29 114.316 92.1892 114.405 92.1669 114.517C92.1445 114.663 92.1221 114.808 92.1333 114.954C92.1445 115.223 92.3012 115.491 92.3012 115.749C92.3012 116.13 92.1557 116.499 92.1445 116.88C92.1333 117.272 92.0549 117.653 92.1221 118.044C92.1445 118.179 92.2228 118.313 92.2228 118.448C92.2228 118.593 92.2228 118.739 92.2564 118.873C92.3236 119.198 92.1557 119.523 92.1109 119.847C92.0549 120.206 92.1669 120.329 91.6854 120.385C91.4278 120.407 90.8567 120.385 90.6776 120.284C90.5544 120.217 90.644 120.071 90.6328 119.993C90.6328 119.858 90.644 119.635 90.6664 119.5C90.7224 119.119 90.5544 118.929 90.5096 118.548C90.4536 117.977 90.7672 117.406 90.7784 116.835C90.7784 116.6 90.6328 116.365 90.6328 116.118C90.6328 115.928 90.6328 115.738 90.6552 115.547C90.6888 115.245 90.6328 114.954 90.644 114.652C90.644 114.383 90.8567 114.237 90.7784 113.98C90.6104 113.364 90.7448 113.073 90.8679 112.513C90.9127 112.311 90.7672 111.774 90.9911 111.606C91.0359 111.572 91.0807 111.55 91.1591 111.527C91.2487 111.505 91.3606 111.505 91.4614 111.505C91.5622 111.505 91.6518 111.505 91.7525 111.516L91.719 111.527Z" fill="#222222"/>
</g>
</g>
<defs>
<clipPath id="clip0_1164_3307">
<rect width="143.328" height="143.328" fill="white" transform="translate(0.34082 0.173828)"/>
</clipPath>
</defs>
</svg>
