<svg width="144" height="162" viewBox="0 0 144 162" fill="none" xmlns="http://www.w3.org/2000/svg">
<g clip-path="url(#clip0_1164_3246)">
<mask id="mask0_1164_3246" style="mask-type:luminance" maskUnits="userSpaceOnUse" x="0" y="0" width="144" height="143">
<path d="M143.664 0.173828H0.335938V142.382H143.664V0.173828Z" fill="white"/>
</mask>
<g mask="url(#mask0_1164_3246)">
<path d="M142.983 71.2884C142.983 31.701 110.697 -0.331232 71.0578 0.17986C32.051 0.690953 1.01855 33.2675 1.01855 72.3439V131.12C1.01855 137.253 5.97621 142.23 12.0983 142.23H131.892C138.013 142.23 142.983 137.253 142.983 131.12V71.2772V71.2884Z" fill="#F5F2ED"/>
<path d="M99.6762 61.5009C99.3966 57.598 98.5934 54.1605 96.9659 50.5314C96.2687 48.9773 95.4344 47.4821 94.6012 45.9957C93.9095 44.7538 93.168 43.4635 91.9642 42.7126C90.9421 42.0768 89.7095 41.9098 88.5177 41.7921C85.9616 41.53 82.3094 42.1588 79.9267 41.4139C78.44 40.9516 75.7517 36.226 74.8118 36.2967C71.1848 36.5655 68.1517 38.1669 64.6171 38.8104C60.7671 39.5134 56.853 39.8567 52.9406 39.9586C49.7674 40.0374 46.5955 39.9552 43.4276 39.7387C40.6284 39.5463 38.2003 38.7078 35.4777 38.3915C35.1972 38.358 34.8999 38.3352 34.6341 38.4432C34.2748 38.5967 34.062 38.9582 33.8643 39.2916C32.1217 42.3943 31.8085 46.0102 30.7012 49.3777C29.9673 51.6075 29.212 53.8037 28.2823 55.9554C27.864 56.9191 27.1786 60.5647 26.5391 61.0331C26.9299 60.7514 27.5225 60.7793 27.8872 61.1078C29.0923 62.216 28.4345 68.7987 28.4877 70.5178C28.5897 74.0013 28.5759 77.4878 28.4276 80.9704C35.586 83.0432 43.2142 82.0644 50.5454 81.8403C58.4913 81.5973 66.4378 81.7921 74.3858 81.656C78.4 81.5883 82.423 81.5197 86.4374 81.452C89.3186 81.4034 92.2383 81.2078 95.1264 81.3105C96.6602 81.3659 99.3003 82.0932 100.183 80.2591C101.137 78.2567 100.217 73.607 100.155 71.3793C100.072 68.0726 99.9171 64.7734 99.6832 61.4823L99.6762 61.5009Z" fill="white"/>
<path d="M77.9269 56.4282C77.7399 55.5718 77.7607 54.7386 77.7513 53.8728C77.7377 53.052 77.7152 52.2323 77.683 51.4045C77.6177 49.7403 77.5831 48.0282 77.3488 46.3724L77.9508 47.0071C76.5134 46.9327 75.0847 46.8573 73.6415 46.8998C72.1982 46.9422 70.7653 46.9121 69.3409 47.0508L69.9273 46.3287C70.0122 48.0089 70.0891 49.6988 69.9413 51.3762C69.8665 52.2061 69.9006 53.0515 69.9151 53.8811C69.9149 54.31 70.0217 54.7368 70.0038 55.1676C69.986 55.5983 69.9398 56.0142 69.8953 56.4478L69.122 55.6254C69.8298 55.4716 70.568 55.6095 71.2792 55.6608C71.9906 55.7122 72.7192 55.6725 73.4463 55.7043C74.1734 55.7361 74.8686 55.7176 75.5795 55.6796C76.3347 55.6371 77.0697 55.6591 77.8282 55.5626C78.6839 55.456 78.7876 56.7143 77.9639 56.8712C77.2631 57.0063 76.5518 57.2141 75.8427 57.2698C75.1335 57.3254 74.4111 57.3379 73.6945 57.3228C72.9781 57.3076 72.3454 57.2392 71.6595 57.0869C70.9274 56.9216 70.1802 56.6953 69.4507 56.9854C69.0303 57.154 68.526 56.8578 68.4871 56.3972C68.4422 55.9639 68.3982 55.5397 68.3984 55.1107C68.3987 54.6817 68.4961 54.2427 68.513 53.803C68.5437 52.9778 68.591 52.1418 68.5234 51.3178C68.3944 49.6422 68.5138 47.9498 68.6262 46.276C68.642 45.9974 68.9471 45.7513 69.2123 45.7237C70.7171 45.5856 72.1899 45.3972 73.7094 45.4004C75.2289 45.4037 76.7069 45.4382 78.2048 45.5777C78.503 45.6094 78.7942 45.9188 78.8068 46.2122C78.8589 47.9227 79.0634 49.635 79.143 51.3515C79.2227 53.0678 79.4582 54.8217 79.1086 56.4486C78.9642 57.1249 78.0892 57.0458 77.9525 56.4165L77.9269 56.4282Z" fill="#222222"/>
<path d="M73.4599 56.5334C72.8806 56.0305 73.0791 54.9287 73.0773 54.2229C73.0824 53.4092 73.0884 52.6043 73.0845 51.7916C73.082 50.1297 73.0874 48.4581 73.2016 46.802C73.2658 45.9553 74.6731 45.9971 74.6992 46.8523C74.7547 48.5086 74.6873 50.1867 74.6359 51.8451C74.6035 52.6528 74.5809 53.4683 74.5573 54.275C74.5325 54.9836 74.6894 56.0664 74.0871 56.5489C73.9134 56.683 73.6267 56.677 73.4599 56.5334Z" fill="#222222"/>
<path d="M40.9563 38.1441L47.2692 38.0971C49.6802 38.0794 52.0874 38.0264 54.5035 37.9725C56.3934 37.9284 58.305 38.0072 60.2065 37.9889C60.7817 37.8488 61.3594 37.6459 61.9481 37.549C66.4235 36.8437 70.8353 35.6982 75.3775 35.3792C75.4659 35.37 75.565 35.3776 75.6254 35.4428C75.6983 35.5424 75.6059 35.6861 75.5169 35.7757C71.806 39.458 68.2566 43.32 64.6461 47.108C64.5015 47.266 64.3474 47.4159 64.1629 47.5334C63.5999 47.8777 62.6084 47.6231 61.9627 47.6007C60.8499 47.5552 59.7442 47.4912 58.6295 47.428C59.202 48.4678 59.7745 49.5076 60.3558 50.5464C61.7528 53.0735 63.1488 55.5917 64.4609 58.1633C64.6748 58.5879 70.686 58.0451 71.4272 58.0397C73.8195 58.015 76.2216 57.9982 78.6167 58.0002C79.8585 57.9965 81.105 57.8672 82.3489 57.9706C83.0876 58.028 83.495 58.1645 83.5121 57.2959C83.5273 56.8386 83.4354 56.3835 83.4514 55.935C83.5331 53.1027 83.223 50.2843 83.3232 47.459C83.9662 47.4549 84.6116 47.3879 85.231 47.2433C83.9086 45.2625 82.2823 43.3669 80.7429 41.5338C80.4977 41.2375 78.7515 39.2204 77.3991 37.7253L82.8816 37.684C87.0288 37.951 90.6503 37.8882 94.8014 37.7617C95.8061 41.8485 98.1887 45.6942 99.9609 49.5138C101.722 53.3078 103.034 57.3449 104.347 61.3104C98.9657 61.8058 93.5536 61.7504 88.1512 61.7029C82.5958 61.6446 77.0346 61.4437 71.4722 61.404C67.1436 61.3703 62.9899 61.7295 58.6728 61.4622C54.0497 61.1731 49.4046 61.19 44.7837 61.5261C44.4735 61.5494 41.0993 50.8989 40.7064 49.8673C39.2329 45.9989 37.1811 42.1546 36.0293 38.1991C37.3946 37.6644 39.5121 38.1776 40.9758 38.1598L40.9563 38.1441Z" fill="#222222"/>
<path d="M44.5341 61.98L44.6049 61.9727C44.9747 62.0058 45.329 62.407 45.3401 62.7722C45.4674 65.8956 45.6928 69.0177 45.5786 72.1393C45.4644 75.261 45.6167 78.4533 45.3964 81.5859C45.3393 82.4139 44.0274 82.3444 43.9617 81.5381C43.6957 78.4558 43.8197 75.3421 43.6333 72.2516C43.4468 69.1612 43.5894 66.0546 43.5719 62.9556C43.5684 62.4912 43.8488 62.0064 44.3643 61.9797C44.4174 61.9742 44.4792 61.9678 44.5341 61.98Z" fill="#222222"/>
<path d="M101.288 61.4313C101.434 67.3229 102.17 73.2159 101.897 79.1153C101.848 80.1034 102.066 81.5194 100.928 81.9233C99.6705 82.3755 97.9659 82.311 96.6419 82.2963C95.2109 82.2839 93.7953 82.1626 92.3609 82.204C90.7752 82.2523 89.1946 82.4341 87.6043 82.4382C81.37 82.4679 75.1189 82.2494 68.8773 82.2085C62.6355 82.1676 56.2497 82.374 49.9359 82.4121C46.453 82.4337 42.9705 82.5445 39.4861 82.6378C36.0018 82.731 32.6264 82.4107 29.1975 82.4357C28.5103 82.4443 27.8998 81.6409 28.4353 81.0313C28.0671 81.4448 28.322 81.4898 28.2951 81.1442C28.2768 80.9673 28.3185 80.7664 28.3267 80.5868C28.3616 79.9755 28.378 79.3573 28.3942 78.7389C28.439 77.1884 28.4661 75.6396 28.4931 74.0909C28.5618 69.6693 28.398 65.245 28.0573 60.839C27.9848 59.8815 29.4525 59.7294 29.5426 60.6851C29.9812 65.2596 30.1872 69.8314 30.1456 74.4289C30.1259 76.0484 30.1062 77.6678 30.0687 79.2892C30.0528 79.9968 30.3007 81.526 29.7731 82.1257L29.0109 80.7214C33.5965 80.648 38.161 80.8896 42.7463 80.7269C47.3314 80.5642 52.26 80.4375 57.0115 80.4989C66.3897 80.6255 75.8087 80.8016 85.1822 80.3658C87.7883 80.2476 90.3668 80.3823 92.9638 80.4347C94.1906 80.4594 95.4064 80.378 96.625 80.3232C97.7542 80.2686 99.3246 80.4186 100.376 79.961L99.7504 80.7319C99.9306 79.9715 99.6758 78.9792 99.6305 78.1975C99.5852 77.4158 99.5552 76.6951 99.5666 75.9433C99.5936 74.3945 99.6835 72.8482 99.7292 71.3065C99.8385 68.0514 100.065 64.8108 100.076 61.5481C100.078 60.7972 101.242 60.6496 101.26 61.4252L101.288 61.4313Z" fill="#222222"/>
<path d="M35.7677 38.6903C35.3383 40.7544 34.5959 42.8153 33.9461 44.8218C33.2962 46.8283 32.6708 48.725 32.0154 50.6785C30.6735 54.7139 29.5087 58.8201 28.0277 62.8073C27.7272 63.6159 26.3363 63.215 26.5605 62.3607C27.6345 58.3264 29.0466 54.3642 30.2676 50.3682C30.868 48.4026 31.4675 46.4282 32.0865 44.4695C32.7379 42.3914 33.335 40.2205 34.2094 38.2264C34.5787 37.3928 35.9501 37.7779 35.7598 38.7001L35.7677 38.6903Z" fill="#222222"/>
<path d="M85.4933 47.7169C84.5128 48.2564 83.5438 46.9272 82.9958 46.2958C82.0624 45.222 81.1694 44.1082 80.2774 43.0033C78.4757 40.7952 76.592 38.6582 74.6668 36.5523L75.9661 36.5874C74.0692 38.8036 71.9453 40.9004 69.9011 42.989C68.0339 44.8894 66.1198 47.027 63.9586 48.5916C63.3191 49.0599 62.3952 48.1639 62.9758 47.5586C66.8879 43.4891 70.6319 39.1779 74.8519 35.4072C75.2037 35.0937 75.7323 35.2802 75.9962 35.5834C77.6801 37.5178 79.3817 39.4502 81.1794 41.2744C82.028 42.1337 82.8432 43.0143 83.7007 43.8726C84.5582 44.7309 85.4251 45.5078 85.9032 46.5842C86.0422 46.8914 85.9542 47.2491 85.7579 47.5108C85.6876 47.6074 85.6126 47.6598 85.5022 47.716L85.4933 47.7169Z" fill="#222222"/>
<path d="M85.4798 72.2206C87.1909 71.9181 89.0208 72.1572 90.7534 72.1474C92.4859 72.1375 94.2768 72.0859 96.0331 72.0467L95.3412 72.6993C95.44 71.152 95.4837 69.5927 95.4657 68.0396C95.4613 67.3074 95.4471 66.5671 95.4515 65.8339C95.4583 65.0379 95.5303 64.1815 95.3957 63.4001L96.108 63.9786C95.2374 64.1135 94.2917 64.0418 93.4081 64.053C92.5246 64.0642 91.6057 64.079 90.7054 64.1008C88.9226 64.1428 87.1595 64.2899 85.3745 64.2247L86.0337 63.6023C86.0862 65.1429 86.0945 66.6879 86.0215 68.2236C85.9484 69.7593 86.0613 71.365 85.8202 72.9181C85.6983 73.726 84.3142 73.7355 84.3412 72.8748C84.3869 71.3331 84.7051 69.8345 84.7517 68.3016C84.7983 66.7688 84.8555 65.2526 84.8932 63.7206C84.9035 63.3889 85.0673 63.1575 85.4004 63.0961C87.1981 62.7667 88.975 62.7522 90.7886 62.6625C91.6517 62.6266 92.5069 62.6005 93.3736 62.5999C94.2404 62.5995 95.2509 62.5214 96.1422 62.6704C96.5157 62.7389 96.7017 63.0681 96.6756 63.4193C96.6297 64.1836 96.7964 65.0152 96.8496 65.7872C96.9028 66.5592 96.9198 67.3258 96.9199 68.1033C96.9283 69.6484 96.9092 71.1874 96.8732 72.737C96.8624 73.1492 96.6374 73.5658 96.1759 73.5958C94.3836 73.7191 92.5848 73.7804 90.7922 73.8144C88.9996 73.8484 87.1466 74.0763 85.4189 73.7014C84.5691 73.5214 84.6267 72.3538 85.469 72.2038L85.4798 72.2206Z" fill="#222222"/>
<path d="M90.7829 72.8777L90.7652 72.8796C90.443 72.7879 90.2618 72.5921 90.2014 72.2679C90.0564 71.5591 90.1773 70.7422 90.1738 70.0188C90.1702 69.2954 90.1755 68.571 90.172 67.8475C90.1684 67.1241 90.1738 66.3997 90.1791 65.6753C90.1844 64.9509 90.1284 64.1525 90.1938 63.404C90.2546 62.6112 91.4278 62.722 91.5383 63.4433C91.6488 64.1646 91.6411 64.9517 91.6739 65.699C91.7067 66.4463 91.7164 67.1422 91.7198 67.8657C91.7234 68.5891 91.7092 69.3145 91.6862 70.0407C91.6632 70.7668 91.7423 71.6165 91.5468 72.316C91.4551 72.6383 91.2683 72.8184 90.944 72.8789C90.8909 72.8844 90.8378 72.8899 90.7829 72.8777Z" fill="#222222"/>
<path d="M62.1395 64.124C61.422 64.2699 60.6985 64.2736 59.968 64.2957C58.6043 64.33 57.2388 64.3464 55.8653 64.3726C54.4919 64.3989 53.2115 64.4601 51.8803 64.464C51.371 64.4632 50.8624 64.4714 50.3581 64.4343C50.2591 64.4267 49.9274 64.4164 49.9892 64.41C50.1414 64.4121 49.9274 64.4164 49.9274 64.4164L49.8743 64.4218C49.9157 64.3908 50.1011 64.2821 50.2139 64.1632C50.575 63.7683 50.4309 64.0156 50.4364 64.3278C50.4408 64.5418 50.4452 64.7559 50.4592 64.9778C50.472 65.3608 50.485 65.7436 50.489 66.1275C50.5093 66.8402 50.4756 67.5497 50.4695 68.2652C50.4503 69.8042 50.3498 71.3339 50.3218 72.8738L49.7686 72.2788C53.95 72.703 58.0913 72.3093 62.2787 72.1879L61.5813 73.0465C61.5716 71.5732 61.4309 70.1312 61.4849 68.669C61.5388 67.2068 61.6667 65.6834 61.7091 64.1956C61.7269 63.5057 62.7823 63.3427 62.8231 64.0801C62.8948 65.5471 63.0549 67.005 63.1443 68.4702C63.2336 69.9354 63.1187 71.4127 63.1472 72.8931C63.153 73.2947 62.9034 73.7316 62.4498 73.7519C58.1432 73.9304 53.8583 73.9725 49.5576 73.6054C49.2869 73.5798 49.0064 73.2871 49.0045 73.0103C48.9977 70.1871 48.8848 67.3751 49.0027 64.5481C49.0327 63.8032 48.9579 63.1675 49.7904 63.0096C50.1237 62.9483 50.4648 62.8772 50.8008 62.8424C52.0729 62.7015 53.3829 62.7535 54.6592 62.7373C56.1414 62.7266 57.6229 62.707 59.106 62.7051C60.1338 62.7057 61.1527 62.7073 62.1816 62.8062C62.9849 62.8838 62.8325 63.9987 62.1414 64.1418L62.1395 64.124Z" fill="#222222"/>
<path d="M56.6166 63.679C56.8919 64.0079 56.8607 64.3955 56.8578 64.7979C56.8548 65.2003 56.8457 65.6302 56.8348 66.0424C56.8165 66.8128 56.799 67.592 56.7628 68.3643C56.704 69.9521 56.6941 71.5794 56.5 73.1545C56.4099 73.9234 55.1045 73.9158 55.1016 73.1118C55.1054 71.5119 55.2596 69.8964 55.3351 68.2979C55.3712 67.5256 55.4083 66.7622 55.4355 65.9909C55.4552 65.5778 55.466 65.1656 55.4946 64.7515C55.5231 64.3376 55.5023 63.9644 55.7913 63.6485C56.0239 63.3921 56.383 63.4084 56.6068 63.6711L56.6166 63.679Z" fill="#222222"/>
<path d="M78.1519 79.4592C78.3919 74.448 78.462 69.4365 78.38 64.4229L70.9509 64.4783C70.4688 64.4837 70.3216 78.1444 70.2934 78.9068C70.2855 79.1758 70.3853 79.362 70.2207 79.5846L78.1599 79.4495L78.1519 79.4592Z" fill="#E8E1C4"/>
<path d="M126.377 56.5469H110.183C110.121 56.5469 110.07 56.597 110.07 56.6591V77.3158C110.07 77.3778 110.121 77.428 110.183 77.428H126.377C126.44 77.428 126.489 77.3778 126.489 77.3158V56.6591C126.489 56.597 126.44 56.5469 126.377 56.5469Z" fill="#E8E1C4"/>
<path d="M126.075 74.8483C126.104 71.0464 126.104 71.0366 126.129 67.2346C126.135 64.6968 126.142 62.1572 126.149 59.6161C126.149 58.6632 126.143 57.9498 126.139 57.3535C126.139 57.2167 126.139 57.0848 126.139 56.9577C126.134 56.9382 126.139 56.9137 126.124 56.9039C126.104 56.9039 126.089 56.9039 126.065 56.9039C125.943 56.9039 125.826 56.9039 125.709 56.9088C124.756 56.9235 123.803 56.9382 121.902 56.9382C119.364 56.9447 116.825 56.9528 114.283 56.9626C112.387 56.9626 111.41 56.943 110.491 56.9186C110.481 56.9186 110.462 56.9088 110.447 56.9137C110.432 56.9235 110.437 56.9382 110.432 56.9577C110.432 57.202 110.422 57.4562 110.418 57.7396C110.418 58.3357 110.408 59.0492 110.403 60.0022C110.413 62.5401 110.423 65.078 110.432 67.6158C110.442 70.1537 110.445 72.6932 110.442 75.2343C110.442 75.7133 110.442 76.1287 110.442 76.5C110.442 76.6808 110.442 76.847 110.442 77.0033C110.442 77.0229 110.432 77.0523 110.457 77.0572C110.955 77.0572 111.351 77.0669 111.747 77.0669C112.699 77.0669 113.652 77.0767 115.558 77.0864C118.1 77.0734 120.641 77.062 123.182 77.0523C125.996 77.0523 126.378 77.2135 126.378 77.4237C126.378 77.6338 126.002 77.7658 123.182 77.7658C119.375 77.7658 119.375 77.839 115.568 77.839C113.662 77.839 112.714 77.8195 111.761 77.7999C111.522 77.7999 111.287 77.7902 111.033 77.7853C110.906 77.7853 110.774 77.7853 110.642 77.7803C110.559 77.7803 110.471 77.7803 110.388 77.7803C110.261 77.7803 110.12 77.7853 110.017 77.7412C109.787 77.6631 109.704 77.4041 109.734 77.0963C109.734 76.9204 109.734 76.7346 109.734 76.5343C109.734 76.1629 109.734 75.7474 109.734 75.2686C109.737 72.7307 109.742 70.1928 109.748 67.6549C109.748 63.848 109.66 63.8481 109.66 60.0364C109.66 59.0834 109.67 58.37 109.67 57.7737C109.67 57.4708 109.675 57.1972 109.68 56.9382C109.68 56.8208 109.675 56.6938 109.689 56.5862C109.714 56.4787 109.748 56.4055 109.817 56.3272C109.895 56.2491 109.968 56.2149 110.066 56.1904C110.163 56.166 110.286 56.1807 110.398 56.1759C110.887 56.1807 111.376 56.1904 111.986 56.2003C112.583 56.2003 113.296 56.2051 114.249 56.21C116.786 56.21 119.325 56.2117 121.862 56.2149C123.768 56.2149 124.721 56.2149 125.674 56.2149C125.792 56.2149 125.914 56.2149 126.031 56.2149C126.192 56.2149 126.486 56.1856 126.618 56.2882C126.798 56.4055 126.833 56.6009 126.823 56.8648C126.823 57.0163 126.823 57.1727 126.823 57.3388C126.823 57.9351 126.823 58.6485 126.823 59.6015C126.852 63.4083 126.852 63.4181 126.881 67.2249C126.888 69.766 126.894 72.3088 126.901 74.8532C126.901 76.2606 126.847 76.9204 126.769 77.2331C126.759 77.2819 126.749 77.277 126.734 77.3601C126.715 77.4529 126.666 77.5116 126.618 77.5507C126.519 77.6191 126.441 77.6044 126.407 77.5897C126.339 77.5459 126.368 77.4921 126.364 77.4384V77.3601V77.321H126.221V77.3113L126.211 77.2869L126.197 77.2331C126.118 76.9252 126.07 76.2655 126.07 74.8532L126.075 74.8483Z" fill="#E8E1C4"/>
<path d="M106.786 71.6047C106.786 70.3702 106.824 69.1357 106.839 67.9011C106.869 65.5041 106.869 63.1072 106.892 60.7102C106.899 59.4757 106.914 58.2411 106.937 57.0065C106.944 56.4479 106.952 55.8802 106.967 55.3214C106.974 54.8529 106.967 54.3843 107.005 53.9157C107.042 53.6004 107.238 53.339 107.509 53.294C107.817 53.2399 108.163 53.5102 108.186 53.8977C108.186 53.9337 108.186 53.9608 108.186 53.9969C108.208 54.3753 108.201 54.7447 108.201 55.1232C108.201 55.745 108.208 56.3668 108.216 56.9795C108.216 58.2141 108.216 59.4486 108.216 60.6831C108.216 63.0802 108.186 65.4771 108.186 67.8741C108.186 69.1086 108.201 70.3432 108.186 71.5777C108.178 72.8303 108.148 74.0918 108.11 75.3444C108.08 76.4618 108.035 77.5792 108.013 78.7056C107.998 79.0841 107.99 79.4625 107.983 79.85C107.983 79.9131 107.983 79.9671 107.975 80.0212C107.975 80.2465 107.915 80.4447 107.757 80.5979C107.569 80.7782 107.29 80.7691 107.102 80.5979C107.102 80.5979 107.087 80.5889 107.08 80.5799C107.065 80.5709 107.057 80.5529 107.042 80.5439C106.952 80.4358 106.899 80.2826 106.884 80.1294C106.884 80.1114 106.884 80.0933 106.884 80.0662C106.877 80.0032 106.877 79.9402 106.877 79.868C106.877 79.4896 106.869 79.1111 106.862 78.7235C106.847 77.6063 106.817 76.4889 106.801 75.3715C106.786 74.281 106.771 73.1907 106.771 72.1094C106.771 71.9382 106.771 71.7759 106.771 71.6047H106.786Z" fill="black"/>
<path d="M113.494 53.3012C114.404 53.3012 115.314 53.3389 116.223 53.3539C117.989 53.384 119.756 53.384 121.522 53.4065C122.431 53.414 123.341 53.4291 124.251 53.4516C124.663 53.4592 125.08 53.4668 125.493 53.4818C125.837 53.4893 126.183 53.4818 126.528 53.5194C126.76 53.557 126.953 53.7526 126.986 54.0234C127.027 54.3319 126.827 54.6779 126.542 54.7005C126.515 54.7005 126.495 54.7005 126.469 54.7005C126.19 54.723 125.917 54.7155 125.638 54.7155C125.18 54.7155 124.722 54.723 124.271 54.7305C123.36 54.7305 122.451 54.7305 121.542 54.7305C119.775 54.7305 118.009 54.7004 116.243 54.7004C115.333 54.7004 114.424 54.7155 113.515 54.7004C112.591 54.6929 111.662 54.6629 110.739 54.6252C109.915 54.5951 109.092 54.55 108.262 54.5274C107.983 54.5124 107.704 54.5049 107.419 54.4974C107.372 54.4974 107.332 54.4974 107.293 54.4898C107.127 54.4898 106.981 54.4296 106.868 54.2716C106.735 54.0836 106.741 53.8053 106.868 53.6171C106.868 53.6171 106.874 53.6021 106.881 53.5946C106.887 53.5795 106.901 53.572 106.907 53.557C106.987 53.4668 107.1 53.414 107.213 53.399C107.226 53.399 107.239 53.399 107.259 53.399C107.306 53.3915 107.352 53.3915 107.405 53.3915C107.684 53.3915 107.963 53.384 108.249 53.3765C109.072 53.3614 109.895 53.3313 110.719 53.3163C111.522 53.3013 112.325 53.2861 113.123 53.2861C113.248 53.2861 113.368 53.2861 113.494 53.2861V53.3012Z" fill="black"/>
<path d="M119.996 65.3625C120.036 64.957 120.015 64.522 119.796 64.1653C119.747 64.0919 119.684 64.0334 119.616 63.9747C119.6 63.96 119.581 63.9503 119.566 63.9404C119.566 63.9404 119.577 63.9454 119.581 63.9503C119.302 63.7695 118.971 63.7401 118.657 63.662C118.233 63.6913 117.793 63.657 117.372 63.6376C117.372 63.6766 117.372 63.7108 117.372 63.7499C117.363 64.1066 117.318 64.4584 117.348 64.8152C117.348 64.8299 117.348 64.8445 117.343 64.8543C117.387 65.4309 117.367 66.0076 117.377 66.5794C117.597 66.5891 117.817 66.594 118.032 66.6038C118.203 66.594 118.369 66.5794 118.535 66.5843C118.911 66.5891 119.312 66.4475 119.596 66.1982C119.674 66.081 119.786 65.9539 119.85 65.8365C119.918 65.6899 119.947 65.5091 119.986 65.3577L119.996 65.3625ZM122.469 71.2365C122.537 71.2659 122.552 71.3489 122.518 71.4075C122.518 71.4075 122.518 71.4174 122.518 71.4222C122.46 71.5199 122.328 71.5786 122.22 71.5981C122.044 71.6617 121.863 71.7105 121.677 71.7154C121.59 71.7301 121.501 71.7448 121.414 71.7252C121.365 71.7252 121.316 71.7203 121.267 71.7105C121.233 71.7105 121.199 71.7105 121.164 71.7105C120.866 71.6421 120.548 71.559 120.333 71.3293C120.236 71.2512 120.143 71.1632 120.075 71.0654C119.723 70.5817 119.439 70.0538 119.136 69.5358C118.775 68.9934 118.471 68.4119 118.125 67.8597C117.861 67.8597 117.597 67.8694 117.334 67.8549C117.318 68.5732 117.334 69.2915 117.334 70.0099C117.334 70.0148 117.334 70.0197 117.334 70.0246C117.334 70.0734 117.334 70.1174 117.334 70.1663C117.334 70.2299 117.338 70.2884 117.334 70.3422C117.334 70.4204 117.334 70.4986 117.334 70.5768C117.338 70.6452 117.348 70.7625 117.334 70.8554C117.353 70.9238 117.309 71.0166 117.225 71.0166C117.202 71.0166 117.177 71.0166 117.152 71.0215C117.094 71.0215 117.03 71.0215 116.972 71.0215C116.933 71.0215 116.894 71.0215 116.849 71.0215C116.825 71.0215 116.801 71.0215 116.776 71.0215C116.751 71.0215 116.727 71.0215 116.722 71.0215C116.712 71.0215 116.703 71.0215 116.693 71.0215C116.679 71.0215 116.664 71.0215 116.65 71.0215C116.61 71.0215 116.571 71.0215 116.542 71.0215C116.488 71.0215 116.433 71.0166 116.375 71.0117C116.336 71.0117 116.292 71.0117 116.272 71.0117C116.253 71.0117 116.234 71.0117 116.214 71.0117C116.199 71.0117 116.18 71.0117 116.175 71.0117C116.141 71.0117 116.111 71.0117 116.102 71.0117C116.077 71.0117 116.057 71.0117 116.034 71.0117C115.999 71.0117 115.97 71.0215 115.935 71.0215C115.921 71.0215 115.902 71.0215 115.887 71.0215C115.872 71.0215 115.852 71.0215 115.838 71.0215C115.788 71.0215 115.745 71.0215 115.697 71.0215C115.681 71.0215 115.672 71.0215 115.657 71.0215C115.647 71.0215 115.642 71.0215 115.633 71.0215C115.633 71.0215 115.623 71.0215 115.618 71.0215C115.613 71.0215 115.604 71.0215 115.598 71.0215C115.598 71.0215 115.594 71.0215 115.588 71.0215C115.55 71.0215 115.515 71.0069 115.48 70.9775C115.442 70.9384 115.427 70.8895 115.432 70.8407C115.432 70.8455 115.432 70.8554 115.432 70.8602C115.432 70.8602 115.432 70.8651 115.432 70.87C115.432 70.8114 115.451 70.7625 115.476 70.738V70.7283C115.476 70.7283 115.515 70.6941 115.53 70.6843C115.594 70.5083 115.579 70.3324 115.594 70.1565C115.584 67.7913 115.623 65.4359 115.627 63.0706C115.627 63.0169 115.627 62.9631 115.627 62.9094C115.598 62.8067 115.564 62.7041 115.491 62.626C115.432 62.6064 115.393 62.5526 115.389 62.4891C115.389 62.4647 115.393 62.4451 115.403 62.4305C115.403 62.4158 115.412 62.4011 115.427 62.3914C115.442 62.3718 115.466 62.362 115.491 62.3571C115.559 62.3327 115.652 62.3425 115.716 62.3523C115.779 62.3523 115.842 62.3571 115.912 62.362C116.493 62.362 117.064 62.367 117.64 62.3816C117.71 62.362 117.797 62.362 117.855 62.3718C118.266 62.3523 118.682 62.3865 119.093 62.4255C119.439 62.4354 119.792 62.582 120.129 62.6553C120.476 62.7481 120.763 62.9778 121.052 63.1781C121.36 63.403 121.541 63.7401 121.683 64.0871C121.78 64.483 121.878 64.8983 121.809 65.299C121.795 65.4456 121.77 65.5922 121.731 65.734C121.702 65.8855 121.653 66.037 121.59 66.1786C121.326 66.858 120.763 67.4101 120.079 67.6594C120.333 68.0209 120.515 68.4413 120.769 68.8078C120.949 69.1009 121.16 69.3795 121.326 69.6825C121.414 69.8291 121.472 69.9709 121.545 70.1076C121.683 70.3178 121.819 70.5279 121.946 70.7283C122.113 70.9238 122.235 71.1729 122.479 71.2609L122.469 71.2365Z" fill="white"/>
<mask id="mask1_1164_3246" style="mask-type:luminance" maskUnits="userSpaceOnUse" x="12" y="71" width="119" height="66">
<path d="M130.874 71.2021H12.2812V136.651H130.874V71.2021Z" fill="white"/>
</mask>
<g mask="url(#mask1_1164_3246)">
<path d="M90.8092 89.062C87.338 89.0508 83.8668 88.894 80.3844 88.8492C76.9803 88.8044 73.5875 88.9724 70.1946 89.0284C66.645 89.0844 63.1066 89.0284 59.557 88.894C56.1417 88.7596 52.7153 88.6589 49.3001 88.6924C45.9968 88.7372 42.7047 88.894 39.4015 88.8828C35.5831 88.8828 31.7648 88.9276 27.9576 88.95C26.2332 88.95 24.5088 88.9612 22.7844 88.95C21.9669 88.95 21.1607 88.9276 20.3433 88.9164C19.8618 88.9164 19.3803 88.8828 18.91 88.9052C18.4733 88.95 18.059 88.6589 17.9358 88.2445C17.8015 87.7742 18.0702 87.2256 18.5629 87.1024C18.6637 87.08 18.7533 87.0688 18.8204 87.0688C18.8316 87.0688 18.8428 87.0688 18.8652 87.0688C18.9324 87.0688 18.9884 87.08 19.0556 87.0912C19.0556 87.0912 18.9772 87.08 18.9436 87.0688C19.2348 87.0688 19.5259 87.0576 19.817 87.0576C20.5561 87.0464 21.2839 87.0352 22.0229 87.024C23.557 87.0016 25.091 87.0016 26.6251 87.0016C29.906 87.0016 33.1868 87.0352 36.4677 87.0464H38.1585C39.2895 87.0464 40.4204 87.0464 41.5514 87.0576C43.1974 87.08 44.8323 87.136 46.4783 87.1696C49.8375 87.2368 53.1968 87.2368 56.556 87.1136C60.0609 86.9792 63.5657 86.8113 67.0705 86.8113C70.5529 86.8001 74.0354 86.9232 77.529 86.9792C80.9554 87.0352 84.2923 87.136 87.7187 87.0576C91.1452 86.9792 94.0677 87.0576 97.6285 87.136C101.391 87.2368 105.232 87.1808 108.994 87.1808C110.741 87.1808 112.488 87.1472 114.235 87.1024C115.13 87.08 116.015 87.0464 116.911 87.0352C117.202 87.0352 117.493 87.0352 117.784 87.0352C118.053 87.0352 118.322 87.0352 118.59 87.0352C118.658 87.0016 118.725 86.9904 118.803 86.9792C119.027 86.9456 119.24 86.9904 119.408 87.1024C119.464 87.1248 119.509 87.1584 119.553 87.192C119.587 87.2144 119.609 87.2368 119.643 87.2592C120.001 87.6175 119.99 88.2557 119.576 88.5581C119.553 88.5805 119.52 88.5917 119.497 88.6141C119.307 88.7484 119.072 88.8156 118.848 88.7932C118.758 88.7932 118.669 88.7596 118.59 88.726C118.434 88.726 118.288 88.726 118.131 88.726H117.437C116.631 88.7148 115.814 88.7036 115.007 88.6812C113.428 88.6365 111.849 88.6029 110.259 88.5917C106.967 88.5693 103.686 88.7148 100.406 88.838C97.3038 88.9612 94.2133 89.0844 91.1116 89.0844C91.0108 89.0844 90.8988 89.0844 90.798 89.0844L90.8092 89.062Z" fill="black"/>
<path d="M89.5099 94.3021C86.6097 94.2461 83.6648 94.4365 80.8878 94.3581C78.6483 94.3245 76.4312 94.3469 74.1917 94.4029C72.0306 94.4589 69.8695 94.5148 67.7083 94.5372C65.5472 94.5484 63.3749 94.5372 61.2138 94.4701C59.0863 94.4141 56.9587 94.3357 54.8536 94.2909C51.6175 94.2461 48.3814 94.2909 45.1342 94.3693C43.5777 94.4141 42.0101 94.4589 40.4424 94.4813C38.8188 94.5036 37.1951 94.4925 35.5715 94.5037C32.3802 94.526 29.1889 94.5596 26.0088 94.582C24.4524 94.582 22.8847 94.5932 21.3171 94.582C20.6564 94.582 19.9957 94.582 19.3239 94.5596C19.2679 94.5596 19.2119 94.5596 19.1559 94.5596C19.0328 94.5596 18.9096 94.5596 18.7752 94.5484C18.6408 94.5484 18.5065 94.5148 18.3833 94.4589C18.3721 94.4589 18.3497 94.4477 18.3385 94.4365C18.1706 94.3469 18.025 94.2013 17.9466 94.0222C17.745 93.5743 17.9466 93.0368 18.3833 92.824C18.5625 92.7344 18.764 92.7344 18.9656 92.7232C19.3911 92.712 19.8278 92.7009 20.2533 92.7009C21.4738 92.6785 22.6943 92.6673 23.9149 92.6561C26.4231 92.6449 28.9314 92.6337 31.4396 92.6449C33.9255 92.6449 36.4225 92.6449 38.9083 92.6337C41.383 92.6113 43.8576 92.6785 46.2203 92.7344C49.7027 92.7904 53.174 92.7904 56.6564 92.6561C60.1612 92.5217 63.6548 92.3649 67.1709 92.3537C70.6757 92.3537 74.2925 92.197 77.7973 92.2082C81.2461 92.2194 84.5942 92.1186 88.043 92.1298C92.3653 92.1522 95.6461 92.2082 99.4309 92.3313C103.216 92.4545 106.911 92.4657 110.46 92.5217C111.199 92.5217 111.927 92.5329 112.667 92.5441C113.103 92.5441 113.54 92.5441 113.977 92.5441C114.077 92.5105 114.178 92.4993 114.29 92.4993C114.649 92.5105 115.052 92.7232 115.108 93.1152C115.108 93.1711 115.108 93.2383 115.108 93.2943C115.108 93.3391 115.096 93.3951 115.074 93.4287C115.04 93.5519 114.962 93.675 114.861 93.7646C114.805 93.8094 114.749 93.843 114.682 93.8766C114.559 93.9326 114.436 93.9662 114.29 93.9662C114.178 93.9662 114.066 93.955 113.954 93.9214C111.614 93.9438 109.262 93.9998 106.911 94.1005C104.055 94.2237 101.57 94.2461 98.7142 94.2797C96.5755 94.3021 94.28 94.3021 92.2197 94.3021C91.3127 94.3021 90.4057 94.3021 89.4987 94.2797L89.5099 94.3021Z" fill="black"/>
<path d="M18.339 104.112C17.9807 104.056 17.6784 103.854 17.5328 103.518C17.376 103.149 17.4544 102.701 17.7344 102.421C17.8911 102.264 18.0927 102.163 18.3166 102.13C18.4398 102.107 18.5742 102.13 18.6973 102.13C18.9885 102.13 19.2796 102.141 19.5707 102.152C20.3434 102.152 21.116 102.152 21.8886 102.152C23.5235 102.141 25.1471 102.107 26.7707 102.107C30.2644 102.085 33.7692 102.085 37.2628 102.018C39.3232 101.973 41.3835 101.995 43.4438 102.018C44.8435 102.029 46.2544 102.051 47.6653 102.051C49.4681 102.051 51.2709 102.029 53.0737 101.973C54.7981 101.917 56.5225 101.838 58.2469 101.749C61.763 101.57 65.2902 101.491 68.8174 101.503C72.367 101.503 75.9054 101.603 79.455 101.503C81.1794 101.458 82.9151 101.368 84.6395 101.29C86.4199 101.211 89.1297 101.357 90.9213 101.323C94.4485 101.267 97.0463 101.211 100.574 101.301C103.832 101.379 107.079 101.469 110.349 101.413C111.872 101.391 113.406 101.335 114.94 101.279C115.679 101.245 116.418 101.223 117.168 101.2C117.37 101.2 117.56 101.189 117.762 101.178C117.93 101.111 118.098 101.099 118.277 101.122C118.781 101.066 119.274 101.491 119.285 102.006C119.296 102.533 118.815 103.003 118.299 102.947C118.12 102.969 117.952 102.969 117.784 102.902C117.594 102.902 117.404 102.902 117.213 102.902C116.396 102.902 115.59 102.88 114.772 102.869C113.115 102.846 111.469 102.835 109.823 102.846C106.363 102.869 104.896 103.003 101.167 103.104C99.3082 103.149 95.9378 103.261 94.0006 103.339C92.1978 103.406 90.395 103.283 88.6034 103.294C85.121 103.317 81.7505 103.451 78.2681 103.428C76.4541 103.417 74.6513 103.484 72.8373 103.552C71.1017 103.608 69.3549 103.664 67.6193 103.697C64.1032 103.787 60.5872 103.697 57.0712 103.619C53.5104 103.529 49.9496 103.529 46.3888 103.619C44.6532 103.664 42.9064 103.742 41.1707 103.787C39.4463 103.832 37.7107 103.854 35.9863 103.865C32.7502 103.876 29.5029 103.955 26.2669 104.011C24.7552 104.033 23.2435 104.044 21.7431 104.056C21.0376 104.056 20.3322 104.078 19.6379 104.1C19.3468 104.1 19.0557 104.123 18.7645 104.134C18.6749 104.134 18.5854 104.145 18.4846 104.145C18.4398 104.145 18.395 104.145 18.3502 104.145L18.339 104.112Z" fill="black"/>
<path d="M27.7672 128.813C27.2185 128.768 26.8154 128.242 26.8714 127.705C26.9274 127.201 27.3865 126.775 27.8904 126.798C28.0695 126.798 28.2487 126.798 28.4279 126.798C28.7862 126.798 29.1445 126.786 29.5028 126.775C30.309 126.764 31.1153 126.742 31.9215 126.73C33.5675 126.708 35.2247 126.674 36.882 126.652C40.3868 126.607 43.9028 126.596 47.4076 126.54C50.8453 126.484 54.2829 126.54 57.7317 126.574C61.2254 126.607 64.719 126.574 68.2126 126.45C71.7286 126.338 75.2558 126.103 78.7719 126.025C82.3439 125.958 85.9159 125.98 89.4767 126.036C91.2683 126.059 93.0599 126.092 94.8403 126.081C96.6431 126.081 98.4347 126.025 100.226 125.958C103.664 125.835 107.09 125.7 110.528 125.7C112.98 125.7 115.433 125.756 117.885 125.823C119.106 125.857 120.326 125.891 121.547 125.935C122.062 125.958 122.588 125.969 123.103 125.98C123.45 125.98 123.808 126.092 124.144 126.003C124.29 125.969 124.413 125.891 124.57 125.891C125.018 125.891 125.488 126.226 125.533 126.697C125.533 126.786 125.544 126.854 125.533 126.943C125.511 127.369 125.141 127.727 124.738 127.783C124.536 127.817 124.346 127.738 124.156 127.693C123.708 127.593 123.249 127.727 122.79 127.749L120.449 127.873C118.792 127.962 117.068 127.604 115.399 127.671C111.939 127.817 108.468 127.895 104.996 127.85C101.458 127.805 97.9868 128.13 94.4484 128.197C90.8988 128.253 87.3604 128.455 83.8107 128.522C80.2499 128.578 76.7115 128.567 73.1507 128.477C71.3591 128.432 69.5675 128.376 67.7871 128.354C66.0403 128.332 64.2935 128.332 62.5467 128.343C59.0978 128.365 55.649 128.522 52.2002 128.623C48.7513 128.724 45.3025 128.701 41.8537 128.735C39.3454 128.757 36.8372 128.791 34.3289 128.791C33.1644 128.791 31.9999 128.791 30.8353 128.802C30.2754 128.802 29.7156 128.802 29.1557 128.802C28.8534 128.802 28.551 128.813 28.2487 128.813C28.0807 128.813 27.9016 128.813 27.7336 128.791L27.7672 128.813Z" fill="black"/>
<path d="M90.1262 120.247C88.5473 120.202 86.9685 120.191 85.3896 120.202C83.822 120.213 82.2543 120.269 80.6979 120.303C77.417 120.392 74.1249 120.426 70.8441 120.37C67.552 120.314 64.2599 120.146 60.9679 120.079C57.8214 120.023 54.6749 120.101 51.5284 120.191C49.8823 120.235 48.2475 120.269 46.6015 120.291C45.6609 120.291 44.7315 120.291 43.7909 120.291C43.1302 120.291 42.4808 120.291 41.8201 120.291C39.0207 120.291 36.2214 120.291 33.4108 120.291C32.0895 120.291 30.7682 120.291 29.4469 120.291C28.7974 120.291 28.148 120.291 27.4985 120.291H27.073C26.7707 120.291 26.4571 120.291 26.1548 120.303C26.0204 120.336 25.8861 120.325 25.7517 120.28C25.4829 120.213 25.2478 120.012 25.1246 119.72C24.9007 119.161 25.203 118.545 25.7181 118.366C25.8525 118.321 25.998 118.31 26.1324 118.332C26.4123 118.332 26.6811 118.332 26.961 118.332C27.129 118.332 27.2857 118.332 27.4537 118.332C28.2151 118.332 28.9878 118.332 29.7492 118.332C31.2721 118.321 32.7837 118.31 34.3066 118.298C37.5315 118.298 40.7452 118.287 43.97 118.254C45.5713 118.231 47.1725 118.231 48.7626 118.254C50.3526 118.276 51.9427 118.332 53.5327 118.354C56.724 118.41 59.9153 118.41 63.1066 118.31C66.3875 118.198 69.6795 118.03 72.9604 117.985C76.2077 117.94 79.455 118.03 82.7022 118.086C84.2699 118.108 85.8263 118.13 87.394 118.108C88.9952 118.086 90.6077 118.142 92.1977 118.108C95.3442 118.018 98.3676 118.041 101.48 118.108C104.369 118.164 107.292 118.041 110.192 118.164C111.48 118.22 112.768 118.265 114.055 118.298C114.671 118.321 115.287 118.321 115.903 118.332C116.351 118.332 116.799 118.366 117.247 118.343C117.247 118.343 117.258 118.343 117.269 118.343C117.504 118.298 117.739 118.298 117.986 118.321C118.333 118.354 118.602 118.69 118.602 119.049C118.602 119.407 118.344 119.765 118.008 119.799C117.751 119.821 117.504 119.832 117.291 119.799C117.269 119.799 117.258 119.799 117.247 119.799C114.548 119.799 111.849 119.956 109.162 120.068C105.959 120.202 102.735 120.068 99.5209 120.112C99.1178 120.112 98.7147 120.112 98.3116 120.112C95.5794 120.112 92.8808 120.314 90.1486 120.235L90.1262 120.247Z" fill="black"/>
<path d="M93.8547 115.656C92.2759 115.611 90.697 115.6 89.1181 115.611C87.5505 115.622 85.9829 115.678 84.4264 115.712C81.1455 115.801 77.8535 115.835 74.5726 115.779C71.2805 115.723 67.9884 115.555 64.6964 115.488C61.5499 115.432 58.4034 115.51 55.2569 115.6C53.6108 115.645 51.976 115.678 50.33 115.701C49.3894 115.701 48.46 115.701 47.5194 115.701C46.8587 115.701 46.2093 115.701 45.5486 115.701C42.7493 115.701 39.9499 115.701 37.1393 115.701C35.818 115.701 34.4967 115.701 33.1754 115.701C32.5259 115.701 31.8765 115.701 31.227 115.701H30.8015C30.4992 115.701 30.1856 115.701 29.8833 115.712C29.7489 115.745 29.6146 115.734 29.4802 115.689C29.2115 115.622 28.9763 115.421 28.8531 115.13C28.6292 114.57 28.9315 113.954 29.4466 113.775C29.581 113.73 29.7265 113.719 29.8609 113.741C30.1409 113.741 30.4096 113.741 30.6895 113.741C30.8575 113.741 31.0143 113.741 31.1822 113.741C31.9437 113.741 32.7163 113.741 33.4777 113.741C35.0006 113.73 36.5122 113.719 38.0351 113.707C41.26 113.707 44.4737 113.696 47.6986 113.663C49.2998 113.64 50.901 113.64 52.4911 113.663C54.0811 113.685 55.6712 113.741 57.2612 113.763C60.4525 113.819 63.6438 113.819 66.8351 113.719C70.116 113.607 73.408 113.439 76.6889 113.394C79.9362 113.349 83.1835 113.439 86.4308 113.495C87.9984 113.517 89.5549 113.54 91.1225 113.517C92.7238 113.495 94.3362 113.551 95.9262 113.517C99.0727 113.428 102.096 113.45 105.209 113.517C108.098 113.573 111.02 113.45 113.921 113.573C115.209 113.629 116.496 113.674 117.784 113.707C118.4 113.73 119.016 113.73 119.632 113.741C120.08 113.741 120.528 113.775 120.975 113.752C120.975 113.752 120.987 113.752 120.998 113.752C121.233 113.707 121.468 113.707 121.714 113.73C122.062 113.763 122.33 114.099 122.33 114.458C122.33 114.816 122.073 115.174 121.737 115.208C121.479 115.23 121.233 115.242 121.02 115.208C120.998 115.208 120.987 115.208 120.975 115.208C118.277 115.208 115.578 115.365 112.891 115.477C109.688 115.611 106.463 115.477 103.249 115.521C102.846 115.521 102.443 115.521 102.04 115.521C99.3079 115.521 96.6093 115.723 93.8771 115.645L93.8547 115.656Z" fill="black"/>
<path d="M90.3615 109.553C90.3615 109.553 90.3167 109.184 90.1935 108.982C90.0256 108.814 89.3985 108.96 88.8386 108.96C88.0884 108.926 87.3382 108.915 86.5991 108.904C85.7033 108.892 84.7963 108.87 83.9005 108.848C82.8592 108.825 81.8178 108.848 80.7652 108.848C79.8582 108.848 78.9512 108.881 78.0442 108.859C77.1372 108.836 76.2302 108.836 75.312 108.848C74.3155 108.859 73.3189 108.892 72.3223 108.848C71.9976 108.836 71.6617 108.836 71.3369 108.825C71.1354 108.825 70.9338 108.848 70.7323 108.87C70.3515 108.836 69.9708 108.825 69.5901 108.825C68.6159 108.825 67.6305 108.848 66.6564 108.859C65.8054 108.859 64.9655 108.859 64.1145 108.859C63.9018 108.859 63.7002 108.87 63.5099 108.915C63.4315 108.904 63.3531 108.892 63.2859 108.892C63.1627 108.892 63.0508 108.904 62.9388 108.915C62.9052 108.915 62.8828 108.915 62.8604 108.915C62.1662 108.937 61.5839 109.441 61.5839 110.102V110.124C61.4607 110.426 61.4495 110.785 61.4495 111.087C61.4383 111.983 61.4607 112.868 61.4495 113.763C61.4495 114.805 61.4495 115.835 61.4719 116.876C61.4943 117.806 61.5503 118.746 61.5615 119.676C61.5615 120.056 61.5615 120.448 61.5615 120.829C61.5615 121.254 61.6063 121.669 61.6175 122.094C61.6511 122.945 61.6959 123.785 61.7295 124.625C61.7519 125.174 61.7631 125.722 61.7743 126.271C61.7966 126.842 61.7742 127.413 61.8078 127.839C61.8526 128.477 61.8302 129.104 61.8414 129.753C61.8414 130.28 61.8862 130.795 61.8862 131.321C61.8862 131.858 61.9086 132.396 61.9086 132.922C61.8526 133.426 61.8302 133.728 61.8414 134.232C61.8526 134.938 61.6959 135.285 62.4349 135.307H62.7372C62.7372 135.307 62.8492 135.307 62.894 135.296C64.764 135.251 66.634 135.274 68.504 135.263C70.7099 135.263 72.9158 135.251 75.1217 135.251C77.7867 135.251 80.4629 135.229 83.1391 135.207C84.3148 135.195 85.4906 135.184 86.6663 135.128C87.8645 135.072 89.0626 134.96 90.2607 134.859C90.6862 134.826 90.7422 134.949 90.8654 134.535C90.9886 134.12 90.9214 132.855 90.9214 132.855C90.9214 132.721 90.9102 132.62 90.899 132.598C90.8766 132.329 90.8766 132.049 90.8766 131.78C90.8766 131.287 90.8766 130.806 90.8542 130.302C90.8318 129.742 90.843 129.182 90.8206 128.622L90.7646 126.551C90.7422 125.834 90.7646 125.118 90.7534 124.412C90.731 123.46 90.731 122.497 90.7086 121.546C90.6526 119.228 90.6414 116.921 90.6078 114.603C90.5966 113.64 90.563 112.677 90.5518 111.703C90.5518 111.412 90.5519 111.132 90.5295 110.841C90.5071 110.516 90.3503 109.542 90.3503 109.542L90.3615 109.553Z" fill="white"/>
<path d="M55.3457 82.7464C55.3457 82.7464 55.3905 82.3769 55.5137 82.1753C55.6817 82.0074 56.3087 82.1529 56.8686 82.1529C57.6188 82.1193 58.3691 82.1081 59.1081 82.0969C60.0039 82.0857 60.9109 82.0633 61.8067 82.0409C62.8481 82.0186 63.8894 82.0409 64.942 82.0409C65.849 82.0409 66.756 82.0745 67.663 82.0521C68.57 82.0298 69.477 82.0297 70.3952 82.0409C71.3918 82.0521 72.3884 82.0857 73.3849 82.0409C73.7097 82.0297 74.0456 82.0298 74.3703 82.0186C74.5719 82.0186 74.7734 82.041 74.975 82.0633C75.3557 82.0298 75.7364 82.0186 76.1171 82.0186C77.0913 82.0186 78.0767 82.0409 79.0509 82.0521C79.9019 82.0521 80.7417 82.0521 81.5927 82.0521C81.8055 82.0521 82.007 82.0633 82.1974 82.1081C82.2758 82.0969 82.3541 82.0857 82.4213 82.0857C82.5445 82.0857 82.6565 82.0969 82.7684 82.1081C82.802 82.1081 82.8244 82.1081 82.8468 82.1081C83.5411 82.1305 84.1233 82.6344 84.1233 83.2951V83.3175C84.2465 83.6198 84.2577 83.9781 84.2577 84.2804C84.2689 85.1762 84.2465 86.0609 84.2577 86.9567C84.2577 87.998 84.2577 89.0282 84.2353 90.0696C84.2129 90.999 84.1569 91.9395 84.1457 92.8689C84.1457 93.2497 84.1457 93.6416 84.1457 94.0223C84.1457 94.4478 84.1009 94.8621 84.0898 95.2876C84.0562 96.1386 84.0114 96.9784 83.9778 97.8182C83.9554 98.3669 83.9442 98.9156 83.933 99.4643C83.9106 100.035 83.933 100.606 83.8994 101.032C83.8546 101.67 83.877 102.297 83.8658 102.947C83.8658 103.473 83.821 103.988 83.821 104.514C83.821 105.052 83.7986 105.589 83.7986 106.116C83.8546 106.619 83.877 106.922 83.8658 107.426C83.8546 108.131 84.0114 108.478 83.2723 108.501H82.97C82.97 108.501 82.858 108.501 82.8132 108.489C80.9433 108.445 79.0733 108.467 77.2033 108.456C74.9974 108.456 72.7915 108.445 70.5856 108.445C67.9205 108.445 65.2443 108.422 62.5681 108.4C61.3924 108.389 60.2167 108.377 59.0409 108.322C57.8428 108.266 56.6447 108.154 55.4465 108.053C55.021 108.019 54.965 108.142 54.8419 107.728C54.7187 107.314 54.7859 106.048 54.7859 106.048C54.7859 105.914 54.7971 105.813 54.8083 105.791C54.8307 105.522 54.8307 105.242 54.8307 104.973C54.8307 104.481 54.8307 103.999 54.853 103.495C54.8754 102.936 54.8642 102.376 54.8866 101.816L54.9426 99.7442C54.965 99.0276 54.9426 98.3109 54.9538 97.6055C54.9762 96.6537 54.9762 95.6907 54.9986 94.7389C55.0546 92.421 55.0658 90.1144 55.0994 87.7965C55.1106 86.8335 55.1442 85.8705 55.1554 84.8963C55.1554 84.6052 55.1554 84.3252 55.1778 84.0341C55.2002 83.7094 55.3569 82.7352 55.3569 82.7352L55.3457 82.7464Z" fill="white"/>
<path d="M38.8755 78.9286C40.5888 79.41 39.8721 82.0303 38.1477 81.56C38.0581 81.5152 37.9685 81.4816 37.8902 81.4368C37.6662 81.8623 37.2407 82.1758 36.748 82.1758C36.636 82.1758 36.5241 82.1758 36.4121 82.1758H36.2889C33.0528 82.1422 29.8168 82.0975 26.5807 82.0079C25.8304 81.9855 25.0802 81.9631 24.33 81.9519C23.6469 81.9295 22.9639 81.9295 22.292 81.8735C22.236 81.8735 22.1689 81.8623 22.1129 81.8511C21.5194 82.187 20.7244 82.0079 20.3325 81.4032C20.1757 81.3248 20.0413 81.2128 19.9406 81.0561C19.7838 80.8209 19.739 80.5298 19.8062 80.2723C19.2015 78.7494 18.8992 77.1034 18.6416 75.4909C18.5745 74.8527 18.2721 74.0129 18.4849 73.3858C18.4961 73.0499 18.6864 72.7139 18.9888 72.546C19.8846 72.0645 20.9035 72.7475 21.7098 73.1059C24.1396 74.2144 26.8494 74.5727 29.3129 75.6253C32.3698 77.0586 35.953 77.3049 38.8755 78.9398V78.9286Z" fill="white"/>
<path d="M129.283 110.035C128.97 110.035 127.861 110.057 126.596 110.024C122.498 109.923 120.997 109.945 116.821 109.956C114.536 109.956 112.308 110.035 110.023 109.99C107.672 109.945 104.66 109.867 102.331 109.9C98.8706 109.945 95.5449 109.844 92.0961 109.867C88.6361 109.889 85.4 109.699 81.8616 109.777C78.3232 109.856 74.6952 109.833 71.1904 109.766C67.8535 109.699 64.5166 109.71 61.3365 109.766C57.451 109.833 53.5655 109.945 49.6799 109.923C46.0407 109.9 42.4128 109.9 38.7736 109.9C35.2575 109.9 31.7415 109.9 28.2255 109.878C26.837 109.878 25.4485 109.766 24.06 109.744C23.3546 109.744 22.7387 109.766 22.0893 109.744C21.6974 109.732 21.1375 109.755 20.7456 109.721C20.4656 109.699 20.3984 109.508 20.1633 109.363C19.5362 108.937 19.5138 107.963 20.1633 107.549C20.432 107.37 20.7232 107.325 21.0479 107.291C21.3166 107.269 21.5854 107.269 21.8653 107.269H22.0893C23.4442 107.235 24.7991 107.135 26.1652 107.101C27.688 107.056 29.1997 107.101 30.7226 107.101C34.3505 107.123 37.9785 107.146 41.5953 107.179C45.2793 107.224 48.9745 107.202 52.6585 107.258C56.4768 107.314 60.284 107.482 64.1023 107.538C66.6554 107.571 69.1972 107.582 71.6047 107.549C76.1621 107.47 80.7754 107.526 85.288 107.459C89.5655 107.392 92.824 107.426 97.1686 107.459C99.4305 107.47 102.555 107.459 104.805 107.493C106.922 107.538 109.027 107.515 111.098 107.493C114.335 107.448 117.571 107.37 120.807 107.358C122.352 107.358 123.886 107.358 125.432 107.392C125.991 107.392 126.54 107.403 127.1 107.414C127.604 107.426 128.119 107.459 128.623 107.459C129.228 107.482 129.675 107.65 129.832 107.739C130.168 107.93 130.459 108.075 130.504 108.657C130.56 109.296 130.414 109.542 130.179 109.721C129.955 109.889 129.698 110.057 129.418 110.057C129.373 110.057 129.328 110.057 129.295 110.057L129.283 110.035Z" fill="black"/>
<path d="M19.8056 135.8C19.6376 135.654 19.548 135.486 19.5145 135.285C19.5145 135.229 19.4921 135.184 19.4921 135.139V135.038C19.4697 134.669 19.4921 134.299 19.4697 133.964C19.4137 132.373 19.4697 130.783 19.4473 129.193C19.4025 129.025 19.4137 128.857 19.4249 128.689V128.633C19.4249 128.421 19.4025 128.219 19.4025 128.006C19.4025 127.794 19.4025 127.603 19.4025 127.491C19.4025 127.346 19.4025 127.189 19.4025 127.088C19.3801 126.304 19.4137 125.521 19.4025 124.782C19.3913 124.244 19.3801 123.707 19.3801 123.158C19.3801 122.531 19.3577 121.904 19.3577 121.266C19.3577 120.56 19.3577 119.855 19.3577 119.149C19.3577 118.298 19.3241 117.447 19.3353 116.596C19.3353 114.849 19.3577 113.114 19.3801 111.367C19.3801 110.561 19.4137 109.755 19.4249 108.948C19.4249 108.489 19.4473 107.997 19.8168 107.661C20.1751 107.336 20.7126 107.347 21.0709 107.649C21.1269 107.694 21.1829 107.761 21.2277 107.829C21.2613 107.873 21.2837 107.918 21.3061 107.974C21.3844 108.142 21.4292 108.321 21.4516 108.523C21.474 108.736 21.474 108.948 21.474 109.161C21.474 109.575 21.4852 109.979 21.4964 110.393C21.5188 111.557 21.5188 112.722 21.5188 113.886C21.5188 115.353 21.5412 116.82 21.5188 118.298C21.5076 118.892 21.4964 119.474 21.4852 120.079C21.4852 120.627 21.4852 121.176 21.4852 121.725C21.474 122.643 21.474 123.561 21.4404 124.479C21.418 125.117 21.418 125.756 21.4404 126.383C21.4404 126.831 21.418 127.279 21.4068 127.726C21.4068 128.04 21.4068 128.342 21.3844 128.645V128.689C21.3844 128.857 21.3844 129.003 21.362 129.16C21.3396 129.518 21.362 129.865 21.362 130.224C21.362 130.537 21.3508 130.862 21.362 131.175C21.362 131.567 21.362 131.959 21.362 132.34C21.362 132.754 21.362 133.168 21.362 133.583C21.3508 133.93 21.3396 134.266 21.3396 134.613C21.3396 134.77 21.3396 134.926 21.3396 135.083C21.3396 135.15 21.3173 135.229 21.3061 135.296C21.2725 135.486 21.1829 135.654 21.0373 135.789C20.8806 135.934 20.6566 136.013 20.4438 136.013C20.2535 136.013 20.0519 135.945 19.8952 135.811L19.8056 135.8Z" fill="black"/>
<path d="M128.925 134.837C128.881 134.714 128.869 134.602 128.881 134.479C128.869 134.154 128.825 133.841 128.802 133.516C128.769 132.956 128.802 132.396 128.802 131.836C128.802 131.344 128.791 130.851 128.791 130.481C128.791 129.798 128.791 129.127 128.791 128.444C128.791 128.309 128.791 128.175 128.791 128.04C128.791 127.794 128.791 127.548 128.791 127.301C128.791 126.618 128.724 125.935 128.69 125.241C128.657 124.524 128.646 123.808 128.646 123.091C128.646 122.408 128.702 121.725 128.713 121.042C128.713 120.314 128.69 119.586 128.69 118.993C128.69 117.918 128.701 116.843 128.701 115.757C128.701 114.323 128.668 112.89 128.657 111.457C128.657 110.752 128.634 110.035 128.69 109.318C128.713 109.005 128.757 108.646 128.993 108.422C129.396 108.019 130.045 107.986 130.426 108.445C130.493 108.523 130.538 108.602 130.571 108.691C130.639 108.837 130.672 108.994 130.695 109.162C130.762 109.721 130.751 110.304 130.751 110.864C130.762 112.162 130.751 113.472 130.751 114.783C130.751 116.809 130.807 118.836 130.795 120.863C130.795 122.027 130.896 123.203 130.885 124.368C130.863 125.465 130.773 126.551 130.773 127.649C130.773 127.749 130.773 127.85 130.773 127.962C130.773 128.007 130.773 128.063 130.773 128.108C130.773 128.835 130.784 129.563 130.773 130.291C130.773 130.795 130.773 131.299 130.773 131.814C130.773 132.206 130.807 132.598 130.795 132.855C130.795 133.225 130.795 133.583 130.751 133.953C130.728 134.132 130.717 134.322 130.717 134.501C130.717 134.625 130.717 134.748 130.672 134.871C130.583 135.128 130.381 135.352 130.101 135.442C130.012 135.476 129.911 135.487 129.821 135.487C129.441 135.487 129.093 135.229 128.948 134.86L128.925 134.837Z" fill="black"/>
<path d="M121.792 108.064C121.792 108.064 121.792 108.019 121.792 107.997C121.792 107.739 121.814 107.482 121.792 107.28C121.792 107.134 121.792 107 121.792 106.933C121.792 106.686 121.792 106.44 121.814 106.205C121.814 106.026 121.814 105.835 121.814 105.791C121.781 105.354 121.814 104.917 121.826 104.469C121.826 103.91 121.814 103.35 121.826 102.779C121.837 101.984 121.814 101.177 121.826 100.371C121.848 99.1506 121.87 97.93 121.859 96.7095C121.837 95.2874 121.904 93.8653 121.915 92.4432C121.938 90.9204 121.96 89.4087 121.982 87.8971C122.005 86.4414 122.038 84.9745 122.117 83.5076C122.139 82.9702 122.173 82.4327 122.195 81.884C122.217 81.5145 122.273 81.1786 122.553 80.8986C122.934 80.5067 123.628 80.5067 124.009 80.921C124.267 81.1897 124.334 81.5257 124.345 81.884C124.345 82.4215 124.356 82.959 124.367 83.5076C124.39 84.9633 124.39 86.4302 124.367 87.8971C124.334 89.4087 124.311 90.9316 124.289 92.4432C124.255 93.9101 124.278 95.377 124.211 96.8439C124.155 98.0644 124.143 99.2849 124.132 100.517C124.121 101.3 124.076 102.084 124.054 102.868C124.054 103.428 124.009 103.988 123.998 104.537C123.998 104.772 123.998 104.996 123.998 105.231C123.998 105.399 123.998 105.567 123.976 105.712C123.976 105.712 123.976 105.735 123.976 105.746V105.802C123.976 105.936 123.964 106.082 123.964 106.227C123.998 106.597 123.976 106.978 123.953 107.347V107.403C123.953 107.403 123.953 107.437 123.953 107.459C123.953 107.661 123.931 107.851 123.942 108.041C123.942 108.097 123.942 108.165 123.953 108.221C123.998 108.803 123.449 109.284 122.889 109.296C122.24 109.296 121.77 108.724 121.826 108.097L121.792 108.064Z" fill="black"/>
<path d="M99.5434 82.9817H95.0196C92.9144 82.9817 90.8429 83.0265 88.749 83.0377C85.0538 83.0377 81.3586 83.1497 77.6634 83.1609C74.1026 83.1609 70.5418 83.1049 66.981 82.9593C63.297 82.8026 59.613 82.6234 55.9179 82.5562C52.357 82.5002 48.7962 82.5562 45.2466 82.6122C43.4998 82.6346 41.7642 82.6682 40.0174 82.657C38.237 82.6458 36.4678 82.6122 34.6986 82.6122C32.2463 82.601 29.8053 82.5786 27.353 82.5786C25.0799 82.5786 22.8068 82.6122 20.5337 82.6122C18.5742 82.6122 16.6146 82.545 14.655 82.5674C14.3751 82.5674 14.0392 82.489 13.7704 82.4107C13.1882 82.2315 12.785 81.6268 12.9754 81.0222C13.1434 80.4511 13.6808 80.2495 14.2183 80.16C14.5542 80.104 14.8678 80.1152 15.2037 80.1152C15.9651 80.1152 16.7266 80.1152 17.488 80.1152C20.6121 80.1152 23.725 80.216 26.8491 80.2495C30.3315 80.2943 33.8252 80.3279 37.3076 80.3503C39.0208 80.3503 40.734 80.3503 42.4473 80.3951C44.2277 80.4399 46.0081 80.4959 47.7773 80.5407C51.618 80.6527 55.4476 80.6863 59.2883 80.6303C60.8 80.6079 62.278 80.5295 63.7897 80.5295H83.1838C85.8264 80.5295 88.4914 80.6303 91.1452 80.6303C93.799 80.6303 96.1617 80.7086 98.6924 80.731C102.13 80.7646 105.579 80.6751 109.016 80.6303C111.29 80.5967 113.552 80.7534 115.814 80.8318C116.609 80.8542 117.415 80.8766 118.21 80.9102C119.666 80.9774 121.524 80.6751 123.002 80.6639C123.282 80.5743 123.607 80.7534 123.876 80.8766C124.581 81.2125 124.324 82.3771 123.585 82.7242C123.462 82.7802 123.215 82.8698 123.092 82.8922C122.902 82.9146 122.678 82.937 122.443 82.9817C122.174 82.9705 122.073 82.9817 121.804 82.9817H99.577H99.5434Z" fill="black"/>
<path d="M44.0033 136.472H48.5271C50.6322 136.472 52.7038 136.517 54.7977 136.528C58.4929 136.528 62.1881 136.64 65.8832 136.651C69.444 136.651 73.0049 136.595 76.5657 136.45C80.2496 136.293 83.9336 136.114 87.6288 136.046C91.1896 135.99 94.7504 136.046 98.3 136.102C100.047 136.125 101.782 136.158 103.529 136.147C105.31 136.136 107.079 136.102 108.848 136.102C111.3 136.091 113.742 136.069 116.194 136.069C118.467 136.069 120.74 136.102 123.013 136.102C124.973 136.102 126.932 136.035 128.892 136.058C129.172 136.058 129.508 135.979 129.776 135.901C130.359 135.722 130.762 135.117 130.571 134.512C130.404 133.941 129.866 133.74 129.329 133.65C128.993 133.594 128.679 133.605 128.343 133.605C127.582 133.605 126.82 133.605 126.059 133.605C122.935 133.605 119.822 133.706 116.698 133.74C113.215 133.785 109.722 133.818 106.239 133.841C104.526 133.841 102.813 133.841 101.099 133.885C99.3191 133.93 97.5386 133.986 95.7694 134.031C91.9287 134.143 88.0991 134.176 84.2584 134.12C82.7467 134.098 81.2686 134.02 79.757 134.02H60.3629C57.7203 134.02 55.0553 134.12 52.4014 134.12C49.7476 134.12 47.385 134.199 44.8543 134.221C41.4167 134.255 37.9678 134.165 34.5302 134.12C32.2571 134.087 29.9952 134.244 27.7333 134.322C26.9383 134.344 26.1321 134.367 25.3371 134.4C23.8814 134.468 22.0226 134.165 20.5445 134.154C20.2646 134.065 19.9399 134.244 19.6711 134.367C18.9657 134.703 19.2232 135.867 19.9623 136.214C20.0854 136.27 20.3318 136.36 20.4549 136.382C20.6453 136.405 20.8693 136.427 21.1044 136.472C21.3731 136.461 21.4739 136.472 21.7427 136.472H43.9697H44.0033Z" fill="black"/>
<path d="M12.3929 109.329C12.2697 109.116 12.2697 108.87 12.3033 108.646C12.3033 108.624 12.3033 108.601 12.3033 108.579C12.3033 108.5 12.3033 108.433 12.3257 108.355C12.3481 108.108 12.3481 107.851 12.3369 107.605C12.3369 107.101 12.3369 106.597 12.3817 106.082C12.4264 105.455 12.3817 104.828 12.4153 104.189C12.4488 103.361 12.5384 102.521 12.5384 101.692C12.5384 101.524 12.516 101.356 12.5048 101.188C12.4936 100.908 12.5048 100.617 12.5272 100.337C12.5496 100.024 12.5272 99.7104 12.5272 99.3968C12.5272 98.4003 12.5496 97.4149 12.5832 96.4295C12.6392 94.7499 12.6504 93.0702 12.684 91.3906C12.7176 89.7894 12.7848 88.1881 12.8408 86.5981C12.8855 85.6575 12.9079 84.7169 12.9415 83.7651C12.9639 83.3172 12.9751 82.8693 12.9975 82.4214C13.0087 82.0855 13.0423 81.7608 13.2215 81.4696C13.6022 80.8314 14.554 80.9321 14.8787 81.548C15.0131 81.7944 15.0243 82.0743 15.0243 82.3542C15.0243 82.8021 15.0243 83.2612 15.0019 83.7091C14.9795 84.6497 14.9571 85.6015 14.9347 86.5421C14.9011 88.1433 14.8675 89.7446 14.8115 91.3346C14.7555 92.9471 14.6771 94.5595 14.6212 96.1608C14.5876 97.1909 14.5764 98.2099 14.498 99.2401C14.4756 99.5424 14.4532 99.8559 14.442 100.158C14.4308 100.416 14.442 100.685 14.4308 100.942C14.4308 101.177 14.386 101.412 14.3636 101.636C14.33 101.995 14.33 102.353 14.33 102.711C14.33 103.148 14.3188 103.585 14.3188 104.01C14.3188 104.648 14.2628 105.287 14.2404 105.925C14.2292 106.462 14.2404 106.989 14.1957 107.515C14.1733 107.817 14.1509 108.12 14.1509 108.411C14.1509 108.478 14.1509 108.545 14.1509 108.612C14.1509 108.646 14.1509 108.668 14.1509 108.68C14.1509 108.691 14.1509 108.713 14.1509 108.724C14.1733 108.96 14.1285 109.183 14.0053 109.396C13.8261 109.687 13.5238 109.822 13.2215 109.822C12.8743 109.822 12.5272 109.643 12.3481 109.307L12.3929 109.329Z" fill="black"/>
<path d="M21.754 109.699C22.1907 109.631 22.5714 109.441 22.829 109.083C23.0865 108.724 23.0529 108.209 22.7842 107.862C22.5266 107.515 22.1347 107.347 21.7092 107.302C21.1605 107.235 20.5895 107.257 20.0408 107.269C19.4697 107.269 18.8986 107.28 18.3276 107.291C18.3052 107.291 18.2716 107.291 18.2492 107.291C18.1708 107.291 18.1036 107.291 18.0252 107.291C17.7229 107.291 17.4206 107.302 17.2862 107.302C16.3904 107.302 15.5282 107.313 14.5876 107.313C14.4868 107.313 14.1061 107.336 14.0053 107.313C13.6246 107.313 13.4231 107.291 13.2215 107.313C13.1879 107.336 13.1543 107.347 13.1207 107.369C12.7848 107.504 12.5049 107.784 12.3929 108.131C12.2361 108.59 12.3929 109.15 12.796 109.452C13.4455 109.934 14.3637 109.889 15.1475 109.878C15.5506 109.878 15.9425 109.855 16.3456 109.833C16.6815 109.833 17.0063 109.81 17.163 109.81C17.5102 109.81 17.8573 109.81 18.1932 109.799C18.2604 109.799 18.3276 109.799 18.406 109.799C19.0106 109.799 19.6153 109.777 20.2311 109.766C20.4439 109.766 20.6455 109.766 20.8582 109.754C21.1605 109.754 21.4741 109.721 21.7764 109.676L21.754 109.699Z" fill="black"/>
<path d="M73.8658 128.76C72.3133 128.492 70.0885 127.61 70.4796 125.655C70.6141 125.129 70.6385 124.494 71.2254 124.236C71.9222 123.907 72.7045 124.664 72.4111 125.374C72.2522 125.703 71.8732 126.156 72.3377 126.413C73.3524 126.938 74.6116 127.183 75.7485 126.988C76.6164 126.707 77.5332 126.364 78.2179 125.765C78.5602 125.154 78.6579 124.224 78.2423 123.637C77.3744 122.929 76.0541 123.197 75.0027 123.051C73.4014 123.003 71.3842 123.112 70.4307 121.571C69.2572 119.97 70.4674 117.941 71.9832 117.086C73.0467 116.572 74.4282 116.144 75.5896 116.241C76.4208 116.315 77.3376 116.193 78.1078 116.572C79.0369 117.109 80.0638 117.697 80.3817 118.797C80.5038 119.127 80.5772 119.47 80.565 119.824C80.5406 120.656 79.5382 121.071 78.988 120.386C78.8046 120.179 78.8046 119.897 78.7313 119.64C78.4868 119.03 77.8022 118.882 77.2766 118.601C76.5186 118.528 75.724 118.54 74.9539 118.553C74.0493 118.747 71.4209 119.274 72.4478 120.619C73.0591 121.071 73.9637 120.96 74.6727 121.046C76.2497 121.205 78.059 120.949 79.4037 121.939C80.9806 123.173 80.9073 125.899 79.6115 127.329C78.059 128.577 75.8462 129.335 73.8781 128.785L73.8658 128.76Z" fill="#222222"/>
<path d="M74.245 117.867C74.0126 117.39 74.0983 116.828 74.1349 116.328C74.2328 115.655 74.1716 114.836 74.5995 114.273C75.0151 113.845 75.8709 113.931 76.0909 114.543C76.3843 115.289 76.2376 116.132 76.4332 116.915C76.9955 118.369 74.9418 119.286 74.245 117.867Z" fill="#222222"/>
<path d="M74.3428 130.128C74.1228 129.615 74.1716 129.029 74.135 128.478C74.1228 127.903 74.1961 127.133 74.8196 126.901C75.5896 126.583 76.262 127.268 76.2131 128.025C76.2131 128.723 76.6166 129.407 76.4209 130.091C76.0909 131.008 74.7217 131.021 74.3428 130.128Z" fill="#222222"/>
<path d="M67.695 101.632C66.1425 101.363 63.9175 100.483 64.3088 98.5266C64.4433 98.001 64.4677 97.3653 65.0544 97.1086C65.7512 96.7785 66.5336 97.5364 66.2402 98.2454C66.0813 98.5755 65.7023 99.0278 66.1669 99.2846C67.1815 99.8102 68.4407 100.055 69.5775 99.8591C70.4456 99.5779 71.3624 99.2356 72.0469 98.6367C72.3892 98.0254 72.4871 97.0964 72.0714 96.5095C71.2034 95.8005 69.8832 96.0694 68.8319 95.9227C67.2304 95.8738 65.2133 95.9839 64.2598 94.4436C63.0862 92.8421 64.2965 90.8129 65.8124 89.957C66.8759 89.4436 68.2574 89.0158 69.4186 89.1137C70.2499 89.187 71.1668 89.0647 71.937 89.4436C72.866 89.9816 73.8929 90.5683 74.2107 91.6686C74.333 91.9986 74.4064 92.3409 74.3941 92.6954C74.3696 93.5267 73.3672 93.9424 72.8171 93.2577C72.6338 93.0499 72.6338 92.7687 72.5604 92.5121C72.3159 91.9008 71.6314 91.7541 71.1057 91.473C70.3477 91.3996 69.5531 91.4118 68.783 91.424C67.8783 91.6197 65.25 92.1454 66.277 93.4901C66.8881 93.9424 67.7928 93.8323 68.5018 93.9179C70.0789 94.0768 71.888 93.8201 73.2327 94.8103C74.8098 96.045 74.7365 98.7712 73.4406 100.201C71.888 101.448 69.6754 102.206 67.7072 101.656L67.695 101.632Z" fill="#222222"/>
<path d="M68.074 90.7395C67.8418 90.2627 67.9273 89.7004 67.9641 89.1992C68.0618 88.5268 68.0007 87.7078 68.4285 87.1454C68.8442 86.7176 69.6999 86.8031 69.92 87.4143C70.2134 88.1601 70.0667 89.0036 70.2622 89.7859C70.8246 91.2407 68.7708 92.1576 68.074 90.7395Z" fill="#222222"/>
<path d="M68.1719 103C67.9519 102.487 68.0008 101.9 67.9641 101.35C67.9519 100.776 68.0252 100.005 68.6487 99.7731C69.4188 99.4553 70.0913 100.14 70.0423 100.898C70.0423 101.595 70.4458 102.279 70.2501 102.964C69.92 103.881 68.5509 103.893 68.1719 103Z" fill="#222222"/>
<path d="M51.3939 82.7802C50.8452 82.7578 50.3077 82.6906 49.759 82.6794C49.6694 82.7018 49.5687 82.7018 49.4791 82.6906C49.4455 82.6906 49.4007 82.6906 49.3895 82.6906C49.0424 82.7018 48.6841 82.6682 48.3369 82.6346C47.8331 82.5898 47.3404 82.5003 46.8813 82.3995C46.7805 82.3771 46.6685 82.3547 46.5677 82.3323C46.1086 82.2427 45.6607 82.1979 45.2016 82.1419C44.597 82.0636 44.0035 81.9516 43.4212 81.8396C42.0327 81.5597 40.6443 81.2349 39.267 80.899C36.6355 80.2496 34.0041 79.5777 31.3951 78.8163C28.8533 78.066 26.345 77.215 23.8928 76.2185C22.5715 75.681 21.2726 75.0651 20.0184 74.3709C19.5481 74.1133 19.1002 73.8222 18.6635 73.4863C18.3836 73.2735 18.1261 72.96 18.0589 72.6017C17.9917 72.2433 18.0589 71.885 18.294 71.6051C18.4844 71.3699 18.7643 71.2244 19.0555 71.1908C19.3466 71.1684 19.6265 71.2356 19.8953 71.3699C20.2536 71.5603 20.5895 71.7618 20.9478 71.9634C22.9186 72.9936 24.9901 73.7998 26.8937 74.5052C29.2564 75.3674 31.6303 76.1849 34.0377 76.9239C35.2023 77.2822 36.3668 77.6293 37.5425 77.9541C38.8974 78.3236 40.2635 78.6372 41.6184 78.9508C42.4806 79.1411 43.3317 79.3203 44.1939 79.5106C45.0001 79.6898 45.8063 79.8912 46.4782 80.0368C47.0604 80.16 47.6651 80.1936 48.2586 80.2831C48.7625 80.3615 49.2887 80.4623 49.7702 80.6191C49.7926 80.6191 49.8038 80.6192 49.8262 80.6304C49.8374 80.6304 49.8598 80.6303 49.871 80.6415C49.9046 80.6415 49.9382 80.6639 49.9718 80.6751C50.3525 80.7534 50.7444 80.8094 51.0467 80.843C51.517 80.8766 51.9873 80.9438 52.3457 80.9774C52.8048 81.011 53.2415 81.0222 53.7006 80.9998C53.9133 80.9886 54.1261 80.9662 54.3388 80.9326C54.406 80.9214 54.4732 80.899 54.5404 80.8878C54.5852 80.8766 54.6187 80.8542 54.6635 80.843C54.6747 80.843 54.6971 80.8318 54.7083 80.8206C55.0107 80.5295 55.5034 80.4959 55.8393 80.7646C56.2536 81.1118 56.2312 81.7612 55.8169 82.0859C55.6489 82.2539 55.425 82.3771 55.1898 82.4555C54.6411 82.6458 54.0589 82.713 53.5102 82.7354C53.4878 82.7354 53.4654 82.7354 53.4318 82.7354C53.4206 82.7354 53.4094 82.7354 53.3982 82.7354C53.1071 82.7354 52.8048 82.7578 52.5136 82.7578C52.2449 82.7578 51.9761 82.769 51.7186 82.769C51.6178 82.769 51.517 82.769 51.4163 82.769L51.3939 82.7802Z" fill="black"/>
<path d="M19.9169 82.0742C19.5922 81.8503 19.4355 81.5032 19.3907 81.1224C19.3907 81.156 19.3907 81.1896 19.4019 81.2232C19.4131 81.2792 19.4243 81.324 19.4355 81.38C19.3347 80.9993 19.2227 80.6298 19.1667 80.4058C19.0323 79.8347 18.8308 79.286 18.6628 78.715C18.4165 77.8752 18.1925 77.0353 17.9686 76.1955C17.7222 75.2549 17.4199 74.3144 17.3303 73.3402V73.273C17.2855 73.0826 17.2967 72.9147 17.3303 72.7579C17.3527 72.3996 17.5767 72.0749 17.9462 71.9517C18.3157 71.8397 18.7188 71.9853 18.9316 72.2876C19.0435 72.3996 19.1331 72.5339 19.1891 72.6347C19.2115 72.6907 19.2339 72.7467 19.2451 72.7691C19.4131 73.0714 19.5362 73.4074 19.6594 73.7321C20.0849 74.8742 20.4208 76.05 20.7792 77.2033C21.1151 78.3231 21.4174 79.4428 21.7757 80.5514C22.0893 81.212 21.6974 82.0294 21.0031 82.2534C20.8799 82.287 20.7568 82.3094 20.6336 82.3094C20.376 82.3094 20.1297 82.231 19.9058 82.0854L19.9169 82.0742Z" fill="black"/>
</g>
</g>
</g>
<defs>
<clipPath id="clip0_1164_3246">
<rect width="143.328" height="142.208" fill="white" transform="translate(0.335938 0.173828)"/>
</clipPath>
</defs>
</svg>
