<svg width="14" height="15" viewBox="0 0 14 15" fill="none" xmlns="http://www.w3.org/2000/svg">
<path fill-rule="evenodd" clip-rule="evenodd" d="M13.6523 7.6355C13.6523 9.41736 12.9445 11.1262 11.6845 12.3862C10.4246 13.6462 8.7157 14.354 6.93384 14.354C5.15198 14.354 3.4431 13.6462 2.18314 12.3862C0.923173 11.1262 0.215332 9.41736 0.215332 7.6355C0.215332 5.85364 0.923173 4.14476 2.18314 2.8848C3.4431 1.62483 5.15198 0.916992 6.93384 0.916992C8.7157 0.916992 10.4246 1.62483 11.6845 2.8848C12.9445 4.14476 13.6523 5.85364 13.6523 7.6355ZM6.93 8.79396C6.96647 8.79396 6.99143 8.80548 7.00294 8.83043L8.31593 10.9996C8.33208 11.0286 8.35597 11.0526 8.38495 11.0689C8.41393 11.0851 8.44685 11.093 8.48006 11.0917C8.56573 11.0827 8.64752 11.0513 8.71712 11.0005L9.48303 10.4717C9.60493 10.3987 9.66539 10.3191 9.66539 10.2346C9.66539 10.1981 9.6414 10.1434 9.59245 10.0705L8.06063 8.21041C8.02416 8.17394 8.00592 8.13747 8.00592 8.101C8.01053 8.07854 8.02162 8.05793 8.03783 8.04172C8.05404 8.02552 8.07465 8.01442 8.0971 8.00982L10.2854 7.35332C10.3948 7.32837 10.4495 7.26214 10.4495 7.15177C10.4518 7.11479 10.4459 7.07776 10.4323 7.04331L10.1405 6.13151C10.1155 6.00962 10.0541 5.94915 9.95813 5.94915C9.91952 5.95359 9.88226 5.96601 9.84871 5.98563L7.6604 6.9339C7.62297 6.94541 7.59321 6.94541 7.56826 6.9339C7.54426 6.92142 7.53179 6.89742 7.53179 6.86095V6.82448L7.71415 4.38086C7.71424 4.35698 7.70943 4.33332 7.70002 4.31137C7.69061 4.28941 7.6768 4.26962 7.65944 4.25321C7.63544 4.20426 7.58649 4.18027 7.51355 4.18027H6.34645C6.31969 4.17897 6.29295 4.18316 6.26786 4.19256C6.24277 4.20197 6.21987 4.2164 6.20056 4.23497C6.16409 4.27145 6.14585 4.30792 6.14585 4.34439V4.38086L6.32821 6.80624C6.32821 6.8907 6.29174 6.9339 6.2188 6.9339L6.14585 6.9147L4.03048 6.0221C3.90955 5.96067 3.81837 5.99714 3.75695 6.13151L3.41142 7.06155C3.35 7.24391 3.38647 7.35332 3.51988 7.38979L5.7629 8.00982C5.83584 8.02133 5.87231 8.05781 5.87231 8.11923L5.83584 8.19218L4.23108 10.1617C4.18309 10.2096 4.15814 10.2586 4.15814 10.3075C4.15814 10.3555 4.19461 10.4102 4.26755 10.4707L5.14288 11.0917C5.21582 11.1282 5.27725 11.1464 5.32524 11.1464C5.41162 11.1464 5.47112 11.1214 5.5076 11.0735L6.85706 8.83043C6.88201 8.80548 6.906 8.79396 6.93 8.79396Z" fill="#CCCCCC"/>
</svg>
