<svg width="56" height="57" viewBox="0 0 56 57" fill="none" xmlns="http://www.w3.org/2000/svg">
<g clip-path="url(#clip0_168_1482)">
<path d="M47.2495 36.7707C52.5243 42.0455 55.1616 48.4103 55.1616 55.8652H50.9418C50.9418 49.6059 48.7089 44.2433 44.2429 39.7773C39.777 35.3114 34.4144 33.0784 28.155 33.0784C21.8957 33.0784 16.5331 35.3114 12.0671 39.7773C7.60118 44.2433 5.36822 49.6059 5.36822 55.8652H1.14844C1.14844 48.4103 3.7858 42.0455 9.06053 36.7707C12.0144 33.8169 15.4254 31.6718 19.2935 30.3356C17.2539 28.929 15.6188 27.0828 14.388 24.7971C13.1572 22.5114 12.5418 20.0674 12.5418 17.4652C12.5418 13.1751 14.0715 9.5004 17.1309 6.44106C20.1902 3.38172 23.8649 1.85205 28.155 1.85205C32.4451 1.85205 36.1199 3.38172 39.1792 6.44106C42.2385 9.5004 43.7682 13.1751 43.7682 17.4652C43.7682 19.2235 43.4869 20.9114 42.9243 22.529C42.3616 24.1466 41.5704 25.6235 40.5506 26.9597C39.5309 28.296 38.3528 29.4213 37.0166 30.3356C40.8847 31.6718 44.2957 33.8169 47.2495 36.7707ZM20.0847 25.5356C20.0847 25.5356 20.6385 26.0894 21.7462 27.1971C22.8539 28.3048 24.9902 28.8586 28.155 28.8586C31.3199 28.8586 34.01 27.7509 36.2254 25.5356C38.4407 23.3202 39.5484 20.6301 39.5484 17.4652C39.5484 14.3004 38.4407 11.6103 36.2254 9.39491C34.01 7.17952 31.3199 6.07183 28.155 6.07183C24.9902 6.07183 22.3001 7.17952 20.0847 9.39491C17.8693 11.6103 16.7616 14.3004 16.7616 17.4652C16.7616 20.6301 17.8693 23.3202 20.0847 25.5356Z" fill="#B3A87A"/>
</g>
<defs>
<clipPath id="clip0_168_1482">
<rect width="55.3846" height="55.3846" fill="white" transform="matrix(1 0 0 -1 0.460938 56.0762)"/>
</clipPath>
</defs>
</svg>
